<svg width="202" height="100" viewBox="0 0 202 100" fill="none" xmlns="http://www.w3.org/2000/svg">
<g clip-path="url(#clip0_106:255)">
<path d="M100.79 0C45.388 0 0.427569 44.6986 0 100H201.58C201.153 44.6986 156.192 0 100.79 0Z" fill="#2F2E41"/>
<path d="M95.5839 11.4402C96.1329 11.4402 96.5779 10.9951 96.5779 10.4461C96.5779 9.89713 96.1329 9.45209 95.5839 9.45209C95.0349 9.45209 94.5898 9.89713 94.5898 10.4461C94.5898 10.9951 95.0349 11.4402 95.5839 11.4402Z" fill="#F2F2F2"/>
<path d="M64.3712 43.6469C64.5908 43.6469 64.7689 43.4689 64.7689 43.2493C64.7689 43.0297 64.5908 42.8517 64.3712 42.8517C64.1516 42.8517 63.9736 43.0297 63.9736 43.2493C63.9736 43.4689 64.1516 43.6469 64.3712 43.6469Z" fill="#F2F2F2"/>
<path d="M123.019 62.3348C123.239 62.3348 123.417 62.1568 123.417 61.9372C123.417 61.7176 123.239 61.5396 123.019 61.5396C122.8 61.5396 122.622 61.7176 122.622 61.9372C122.622 62.1568 122.8 62.3348 123.019 62.3348Z" fill="#F2F2F2"/>
<path d="M19.4411 57.3646C19.6607 57.3646 19.8387 57.1866 19.8387 56.967C19.8387 56.7474 19.6607 56.5694 19.4411 56.5694C19.2215 56.5694 19.0435 56.7474 19.0435 56.967C19.0435 57.1866 19.2215 57.3646 19.4411 57.3646Z" fill="#F2F2F2"/>
<path d="M174.51 43.2493C174.73 43.2493 174.908 43.0713 174.908 42.8517C174.908 42.6321 174.73 42.4541 174.51 42.4541C174.291 42.4541 174.113 42.6321 174.113 42.8517C174.113 43.0713 174.291 43.2493 174.51 43.2493Z" fill="#F2F2F2"/>
<path d="M46.8761 47.4242C47.0957 47.4242 47.2737 47.2462 47.2737 47.0266C47.2737 46.807 47.0957 46.629 46.8761 46.629C46.6565 46.629 46.4785 46.807 46.4785 47.0266C46.4785 47.2462 46.6565 47.4242 46.8761 47.4242Z" fill="#F2F2F2"/>
<path d="M112.085 39.472C112.305 39.472 112.483 39.2939 112.483 39.0743C112.483 38.8547 112.305 38.6767 112.085 38.6767C111.866 38.6767 111.688 38.8547 111.688 39.0743C111.688 39.2939 111.866 39.472 112.085 39.472Z" fill="#F2F2F2"/>
<path d="M125.206 10.8437C125.426 10.8437 125.604 10.6657 125.604 10.4461C125.604 10.2265 125.426 10.0485 125.206 10.0485C124.987 10.0485 124.809 10.2265 124.809 10.4461C124.809 10.6657 124.987 10.8437 125.206 10.8437Z" fill="#F2F2F2"/>
<path d="M42.5026 57.3646H42.105V57.5634H42.5026V57.3646Z" fill="#F2F2F2"/>
<path d="M54.2321 26.9471H53.8345V27.1459H54.2321V26.9471Z" fill="#F2F2F2"/>
<path d="M82.8605 49.6111H82.4629V49.8099H82.8605V49.6111Z" fill="#F2F2F2"/>
<path d="M158.805 58.3586H158.407V58.5574H158.805V58.3586Z" fill="#F2F2F2"/>
<path d="M135.147 27.9411H134.749V28.1399H135.147V27.9411Z" fill="#F2F2F2"/>
<path d="M45.4491 72.3022H44.7495V99.9371H45.4491V72.3022Z" fill="#3F3D56"/>
<path d="M51.9059 67.4741C51.9505 77.1373 45.1519 85.0024 45.1519 85.0024C45.1519 85.0024 38.2811 77.2003 38.2365 67.537C38.192 57.8738 44.9906 50.0088 44.9906 50.0088C44.9906 50.0088 51.8614 57.8108 51.9059 67.4741Z" fill="#3F3D56"/>
<path d="M36.8133 64.1098H35.9062V99.9371H36.8133V64.1098Z" fill="#3F3D56"/>
<path d="M45.1844 60.3256C45.2421 72.8536 36.4281 83.0503 36.4281 83.0503C36.4281 83.0503 27.5204 72.9352 27.4627 60.4073C27.4049 47.8794 36.219 37.6827 36.219 37.6827C36.219 37.6827 45.1267 47.7977 45.1844 60.3256Z" fill="#3F3D56"/>
<path d="M142.268 72.3022H141.568V99.9371H142.268V72.3022Z" fill="#6C63FF"/>
<path d="M148.725 75.8239C148.769 85.4872 141.971 93.3522 141.971 93.3522C141.971 93.3522 135.1 85.5501 135.055 75.8869C135.011 66.2237 141.809 58.3586 141.809 58.3586C141.809 58.3586 148.68 66.1607 148.725 75.8239Z" fill="#3F3D56"/>
<path d="M28.7489 72.3022H28.0493V99.9371H28.7489V72.3022Z" fill="#3F3D56"/>
<path d="M35.2062 67.4741C35.2507 77.1373 28.4522 85.0024 28.4522 85.0024C28.4522 85.0024 21.5814 77.2003 21.5368 67.537C21.4923 57.8738 28.2909 50.0088 28.2909 50.0088C28.2909 50.0088 35.1617 57.8108 35.2062 67.4741Z" fill="#3F3D56"/>
<path d="M90.3793 72.3022H89.6797V99.9371H90.3793V72.3022Z" fill="#3F3D56"/>
<path d="M96.8361 67.4741C96.8806 77.1373 90.082 85.0024 90.082 85.0024C90.082 85.0024 83.2113 77.2003 83.1667 67.537C83.1222 57.8738 89.9208 50.0088 89.9208 50.0088C89.9208 50.0088 96.7916 57.8108 96.8361 67.4741Z" fill="#3F3D56"/>
<path d="M81.7439 64.1098H80.8369V99.9371H81.7439V64.1098Z" fill="#3F3D56"/>
<path d="M90.1146 60.3256C90.1723 72.8536 81.3583 83.0503 81.3583 83.0503C81.3583 83.0503 72.4506 72.9352 72.3929 60.4073C72.3351 47.8794 81.1492 37.6827 81.1492 37.6827C81.1492 37.6827 90.0568 47.7977 90.1146 60.3256Z" fill="#3F3D56"/>
<path d="M73.6796 72.3022H72.98V99.9371H73.6796V72.3022Z" fill="#3F3D56"/>
<path d="M80.1364 67.4741C80.1809 77.1373 73.3823 85.0024 73.3823 85.0024C73.3823 85.0024 66.5116 77.2003 66.467 67.537C66.4225 57.8738 73.2211 50.0088 73.2211 50.0088C73.2211 50.0088 80.0919 57.8108 80.1364 67.4741Z" fill="#3F3D56"/>
<path d="M146.792 85.1716L135.101 74.4224C135.07 74.9055 135.053 75.3937 135.055 75.8869C135.1 85.5502 141.971 93.3522 141.971 93.3522C143.971 90.8772 145.596 88.1207 146.792 85.1716Z" fill="#6C63FF"/>
<path d="M59.7704 97.4719C60.1709 98.9526 61.5429 99.8696 61.5429 99.8696C61.5429 99.8696 62.2654 98.386 61.8649 96.9053C61.4643 95.4247 60.0924 94.5077 60.0924 94.5077C60.0924 94.5077 59.3698 95.9913 59.7704 97.4719Z" fill="#3F3D56"/>
<path d="M60.3587 97.1537C61.4578 98.2237 61.592 99.8684 61.592 99.8684C61.592 99.8684 59.9443 99.7784 58.8452 98.7085C57.7461 97.6386 57.6118 95.9938 57.6118 95.9938C57.6118 95.9938 59.2596 96.0838 60.3587 97.1537Z" fill="#3F3D56"/>
<path d="M116.232 97.4719C116.632 98.9526 118.004 99.8696 118.004 99.8696C118.004 99.8696 118.727 98.386 118.326 96.9053C117.926 95.4247 116.554 94.5077 116.554 94.5077C116.554 94.5077 115.831 95.9913 116.232 97.4719Z" fill="#6C63FF"/>
<path d="M116.82 97.1537C117.919 98.2237 118.053 99.8684 118.053 99.8684C118.053 99.8684 116.406 99.7784 115.307 98.7085C114.207 97.6386 114.073 95.9938 114.073 95.9938C114.073 95.9938 115.721 96.0838 116.82 97.1537Z" fill="#6C63FF"/>
<path d="M15.2377 97.4719C15.6382 98.9526 17.0102 99.8696 17.0102 99.8696C17.0102 99.8696 17.7327 98.386 17.3322 96.9053C16.9316 95.4247 15.5597 94.5077 15.5597 94.5077C15.5597 94.5077 14.8371 95.9913 15.2377 97.4719Z" fill="#3F3D56"/>
<path d="M15.826 97.1537C16.9251 98.2237 17.0593 99.8684 17.0593 99.8684C17.0593 99.8684 15.4116 99.7784 14.3125 98.7085C13.2133 97.6386 13.0791 95.9938 13.0791 95.9938C13.0791 95.9938 14.7269 96.0838 15.826 97.1537Z" fill="#3F3D56"/>
<path d="M77.0044 43.8782L96.1913 72.8368C96.6199 71.0814 96.8363 69.281 96.8359 67.474C96.8142 62.7619 95.1693 58.4929 93.4894 55.3548L92.6018 55.5753L93.4366 55.2569C92.4474 53.3917 91.2692 51.6331 89.9206 50.0088C89.9206 50.0088 89.4311 50.5754 88.7159 51.5902C86.1951 43.4136 81.1492 37.6827 81.1492 37.6827C79.5742 39.6118 78.1864 41.6863 77.0044 43.8782Z" fill="#6C63FF"/>
<path opacity="0.1" d="M187.399 98.7652C187.551 98.7652 187.697 98.7049 187.804 98.5976C187.911 98.4903 187.971 98.3448 187.971 98.1931C187.971 98.0414 187.911 97.8959 187.804 97.7886C187.697 97.6813 187.551 97.621 187.399 97.621H182.696C182.847 97.9245 182.872 98.2758 182.765 98.5976C182.658 98.9195 182.427 99.1855 182.124 99.3373C182.124 99.489 182.184 99.6345 182.291 99.7418C182.398 99.8491 182.544 99.9093 182.696 99.9093H187.399C187.551 99.9093 187.697 99.8491 187.804 99.7418C187.911 99.6345 187.971 99.489 187.971 99.3373C187.971 99.1855 187.911 99.04 187.804 98.9327C187.697 98.8255 187.551 98.7652 187.399 98.7652Z" fill="#F2F2F2"/>
<path d="M176.22 97.5847C176.3 100.705 174.413 99.9093 172.125 99.9093C169.837 99.9093 167.95 100.307 167.935 97.5847C167.927 96.2442 169.803 95.9527 172.091 95.9527C174.379 95.9527 176.185 96.2447 176.22 97.5847Z" fill="#3F3D56"/>
<path d="M181.572 98.8177C181.535 98.798 181.495 98.7851 181.453 98.7795C181.246 98.7466 181.04 98.7026 180.837 98.6478C180.633 98.5925 180.446 98.4884 180.292 98.3444C180.234 98.2767 180.17 98.2151 180.1 98.1604C180.064 98.1336 180.022 98.1176 179.977 98.1144C179.933 98.1112 179.888 98.1209 179.849 98.1424C179.841 98.1487 179.834 98.1558 179.827 98.1635C179.799 98.1447 179.77 98.126 179.742 98.1072C179.59 98.0076 179.438 97.909 179.285 97.8116L179.279 97.8077C179.284 97.7837 179.284 97.7591 179.28 97.735C179.253 97.656 179.199 97.589 179.127 97.5461C179.325 97.5442 179.523 97.5262 179.719 97.5055C179.906 97.5087 180.086 97.4382 180.221 97.3092C180.242 97.2868 180.254 97.2583 180.256 97.2281C180.256 97.1663 180.193 97.1259 180.136 97.1025C180.059 97.0714 179.98 97.0481 179.9 97.0329C179.843 97.025 179.787 97.0133 179.732 96.998C179.683 96.9802 179.636 96.9579 179.591 96.9314C179.494 96.8779 179.397 96.8245 179.3 96.771C179.259 96.7509 179.221 96.7245 179.187 96.6927C179.138 96.6404 179.116 96.5663 179.065 96.5148C179.019 96.4674 178.831 96.405 178.804 96.5022C178.793 96.5405 178.834 96.583 178.839 96.6259C178.774 96.5851 178.706 96.5481 178.637 96.5151C178.641 96.5065 178.646 96.4987 178.649 96.4898C178.327 96.2313 178.07 95.8996 177.902 95.5222C177.931 95.5228 177.96 95.5247 177.988 95.5244C178.038 95.529 178.087 95.5169 178.128 95.4902C178.146 95.4746 178.159 95.4554 178.168 95.4338C178.176 95.4123 178.18 95.3891 178.178 95.366C178.174 95.3199 178.163 95.2747 178.145 95.2322C178.103 95.105 178.038 94.987 177.951 94.8851C177.867 94.8041 177.772 94.7362 177.668 94.6837L177.651 94.6742C177.644 94.6527 177.637 94.6311 177.629 94.6101C177.566 94.4796 177.495 94.3533 177.416 94.2318C177.305 94.0284 177.223 93.8105 177.173 93.5843C177.154 93.4466 177.102 93.3157 177.019 93.2035C176.868 93.0363 176.608 93.0405 176.383 93.0658C176.255 93.0802 176.128 93.0995 176.001 93.1193C175.999 93.1161 175.999 93.1126 175.998 93.1094C175.982 93.0794 175.972 93.0467 175.969 93.0129C175.972 92.9853 175.978 92.9581 175.987 92.9317C175.994 92.8989 175.992 92.865 175.982 92.833C175.973 92.801 175.955 92.7719 175.931 92.7485C175.926 92.7434 175.921 92.7377 175.915 92.7322C175.929 92.6991 175.942 92.6658 175.954 92.6321C175.964 92.6197 175.972 92.6053 175.977 92.5897C175.982 92.5741 175.984 92.5577 175.982 92.5415C176.005 92.4601 176.017 92.3759 176.018 92.2912C175.992 92.1041 175.985 91.9148 175.998 91.7264C175.991 91.6797 175.974 91.6351 175.948 91.5958C175.944 91.5896 175.936 91.5867 175.931 91.5811C175.969 91.5297 176.014 91.4832 176.064 91.4426C176.162 91.367 176.267 91.3006 176.377 91.2442C176.403 91.2297 176.44 91.2194 176.465 91.2027C176.504 91.2092 176.543 91.2132 176.583 91.2145C176.728 91.2154 176.872 91.1806 177.001 91.1131C177.13 91.0457 177.241 90.9476 177.323 90.8275C177.406 90.7075 177.458 90.569 177.474 90.4242C177.491 90.2795 177.472 90.1329 177.419 89.9972C177.459 89.9874 177.497 89.9696 177.531 89.9449C177.564 89.9202 177.593 89.8891 177.614 89.8534C177.658 89.7776 177.684 89.693 177.69 89.6058C177.697 89.5723 177.698 89.5378 177.691 89.5042C177.685 89.4706 177.672 89.4386 177.653 89.41C177.619 89.3776 177.581 89.3507 177.539 89.3304C177.481 89.2942 177.433 89.2451 177.397 89.1868C177.372 89.1453 177.354 89.0999 177.331 89.057C177.294 88.9775 177.235 88.9097 177.162 88.8612C177.089 88.8126 177.004 88.785 176.916 88.7815C176.832 88.7921 176.75 88.8086 176.668 88.8308C176.39 88.8796 176.088 88.7323 175.829 88.8471C175.766 88.878 175.707 88.9174 175.654 88.9642C175.581 89.0242 175.511 89.0873 175.444 89.1537C175.386 89.2033 175.342 89.2675 175.316 89.3396C175.281 89.4714 175.365 89.6185 175.312 89.7441C175.294 89.78 175.272 89.8141 175.247 89.8457C175.188 89.9317 175.252 90.267 175.246 90.3708C175.238 90.4216 175.251 90.4734 175.281 90.5147C175.289 90.5225 175.298 90.5292 175.308 90.5346C174.875 90.6891 174.451 90.8691 174.039 91.0737C173.545 91.3128 173.135 91.696 172.862 92.1729C172.793 92.3092 172.739 92.4534 172.676 92.5929C172.592 92.7789 172.49 92.9563 172.388 93.1334C172.264 93.3494 172.139 93.5657 171.996 93.7693C171.914 93.8772 171.838 93.9897 171.769 94.106C171.767 94.123 171.766 94.14 171.767 94.1571C171.77 94.1732 171.768 94.1897 171.762 94.2049C171.756 94.2138 171.748 94.2211 171.739 94.2265C171.729 94.2319 171.719 94.2351 171.708 94.236L171.705 94.2448C171.672 94.3494 171.645 94.4557 171.624 94.5631C171.582 94.7339 171.514 94.8987 171.488 95.0728C171.473 95.0946 171.465 95.1203 171.464 95.1469C171.463 95.1734 171.47 95.1995 171.485 95.222C171.499 95.2445 171.519 95.2623 171.543 95.2734C171.567 95.2844 171.594 95.2881 171.62 95.284C171.769 95.3502 171.913 95.4278 172.056 95.506C172.054 95.5165 172.05 95.5266 172.049 95.5373C172.044 95.648 172.071 95.7578 172.126 95.854C172.181 95.9502 172.262 96.0288 172.36 96.0808C172.557 96.1816 172.774 96.2403 172.995 96.2533C173.081 96.2636 173.167 96.2684 173.253 96.2771C173.378 96.3468 173.512 96.4009 173.65 96.4381C173.68 96.4469 173.712 96.4518 173.743 96.4527C173.785 96.4499 173.826 96.4377 173.863 96.4169C173.9 96.3962 173.931 96.3675 173.956 96.3329C174.695 96.3738 175.436 96.3586 176.173 96.2877C176.377 96.2402 176.592 96.2734 176.772 96.3805C176.932 96.5104 176.964 96.7406 177.082 96.909C177.169 97.0127 177.266 97.1073 177.372 97.191C177.582 97.4138 177.768 97.6585 177.927 97.9208C178.087 98.1857 178.319 98.3998 178.596 98.5383C178.646 98.4588 178.718 98.396 178.803 98.3577C178.826 98.3445 178.847 98.3291 178.868 98.315C178.898 98.3624 178.932 98.4068 178.97 98.4473C178.998 98.4781 179.027 98.5106 179.053 98.5442C179.053 98.5443 179.052 98.5438 179.051 98.5439C179.012 98.55 178.999 98.5984 178.995 98.6373C178.978 98.7864 178.961 98.9354 178.944 99.0845C178.938 99.1139 178.94 99.1445 178.95 99.1728C178.968 99.2037 178.996 99.2272 179.03 99.2396C179.168 99.306 179.318 99.3454 179.471 99.3559C179.548 99.3612 179.626 99.359 179.703 99.3658C179.829 99.3821 179.954 99.4071 180.076 99.4404C180.41 99.5166 180.754 99.5435 181.096 99.5202C181.166 99.5185 181.236 99.5053 181.302 99.4811C181.381 99.4434 181.45 99.3896 181.506 99.3231C181.578 99.2555 181.63 99.1708 181.66 99.0772C181.674 99.0301 181.673 98.98 181.657 98.9336C181.641 98.8872 181.611 98.8467 181.572 98.8177Z" fill="#3F3D56"/>
<path d="M176.071 88.8308C176.104 88.825 176.137 88.816 176.17 88.8076C176.065 88.7946 175.959 88.8049 175.858 88.8377C175.929 88.8441 176.001 88.8418 176.071 88.8308Z" fill="#FF6584"/>
<path d="M176.735 89.057C176.757 89.0999 176.775 89.1453 176.8 89.1868C176.836 89.2451 176.884 89.2942 176.942 89.3304C176.984 89.3507 177.023 89.3776 177.056 89.41C177.075 89.4386 177.088 89.4706 177.094 89.5042C177.101 89.5378 177.1 89.5723 177.093 89.6058C177.087 89.693 177.061 89.7776 177.017 89.8534C176.996 89.8891 176.967 89.9202 176.934 89.9449C176.901 89.9696 176.863 89.9874 176.822 89.9972C176.883 90.1419 176.904 90.3004 176.883 90.4561C176.862 90.6118 176.8 90.759 176.702 90.8822C176.605 91.0055 176.476 91.1002 176.329 91.1566C176.183 91.213 176.024 91.2289 175.869 91.2027C175.843 91.2194 175.807 91.2297 175.78 91.2442C175.67 91.3006 175.565 91.367 175.467 91.4426C175.417 91.4832 175.372 91.5297 175.334 91.5811C175.339 91.5867 175.347 91.5895 175.351 91.5958C175.378 91.6351 175.395 91.6797 175.401 91.7264C175.388 91.9148 175.395 92.1041 175.421 92.2912C175.42 92.3759 175.408 92.4601 175.385 92.5415C175.387 92.5577 175.385 92.5741 175.38 92.5897C175.375 92.6053 175.367 92.6197 175.357 92.6321C175.345 92.6658 175.332 92.6991 175.318 92.7322C175.324 92.7377 175.329 92.7434 175.334 92.7485C175.358 92.7719 175.376 92.801 175.385 92.833C175.395 92.865 175.397 92.8989 175.39 92.9317C175.381 92.9581 175.375 92.9853 175.372 93.0129C175.375 93.0467 175.385 93.0794 175.401 93.1094C175.402 93.1126 175.402 93.1161 175.404 93.1193C175.531 93.0995 175.658 93.0802 175.786 93.0658C175.849 93.0584 175.913 93.0543 175.976 93.0533C175.971 93.0404 175.969 93.0267 175.968 93.0129C175.971 92.9853 175.977 92.9581 175.986 92.9317C175.993 92.8989 175.992 92.865 175.982 92.833C175.972 92.801 175.954 92.7719 175.931 92.7485C175.925 92.7434 175.92 92.7377 175.915 92.7322C175.929 92.6991 175.942 92.6658 175.953 92.6321C175.964 92.6197 175.972 92.6053 175.977 92.5897C175.981 92.5741 175.983 92.5577 175.981 92.5415C176.004 92.4601 176.017 92.3759 176.018 92.2912C175.991 92.1041 175.985 91.9148 175.998 91.7264C175.991 91.6797 175.974 91.6351 175.948 91.5958C175.943 91.5895 175.935 91.5867 175.93 91.5811C175.969 91.5297 176.014 91.4832 176.064 91.4426C176.161 91.367 176.266 91.3006 176.377 91.2442C176.403 91.2297 176.44 91.2194 176.465 91.2027C176.504 91.2092 176.543 91.2132 176.582 91.2145C176.728 91.2154 176.871 91.1806 177.001 91.1131C177.13 91.0457 177.24 90.9476 177.323 90.8275C177.405 90.7075 177.457 90.569 177.474 90.4242C177.491 90.2795 177.472 90.1329 177.419 89.9972C177.459 89.9874 177.497 89.9696 177.53 89.9449C177.564 89.9202 177.592 89.8891 177.613 89.8534C177.657 89.7776 177.683 89.693 177.69 89.6058C177.697 89.5723 177.697 89.5377 177.691 89.5041C177.684 89.4705 177.671 89.4386 177.652 89.41C177.619 89.3776 177.58 89.3507 177.539 89.3304C177.481 89.2942 177.432 89.2451 177.397 89.1868C177.372 89.1453 177.354 89.0999 177.331 89.057C177.293 88.9775 177.235 88.9097 177.162 88.8611C177.088 88.8126 177.003 88.785 176.915 88.7815C176.832 88.7921 176.749 88.8086 176.668 88.8308C176.622 88.838 176.576 88.8411 176.53 88.8399C176.617 88.8922 176.688 88.9673 176.735 89.057Z" fill="#FF6584"/>
<path d="M181.572 98.8177C181.535 98.798 181.495 98.7851 181.453 98.7795C181.246 98.7466 181.04 98.7026 180.837 98.6478C180.633 98.5925 180.446 98.4884 180.292 98.3444C180.234 98.2767 180.17 98.2151 180.1 98.1604C180.064 98.1335 180.022 98.1176 179.977 98.1144C179.933 98.1112 179.888 98.1209 179.849 98.1424C179.841 98.1487 179.834 98.1558 179.827 98.1635C179.799 98.1447 179.77 98.126 179.742 98.1072C179.59 98.0076 179.438 97.909 179.286 97.8116L179.279 97.8077C179.284 97.7837 179.284 97.7591 179.28 97.735C179.253 97.656 179.199 97.589 179.128 97.5461C179.325 97.5442 179.523 97.5262 179.719 97.5055C179.906 97.5087 180.086 97.4382 180.221 97.3092C180.242 97.2868 180.254 97.2582 180.256 97.2281C180.257 97.1663 180.193 97.1259 180.136 97.1025C180.06 97.0714 179.981 97.048 179.9 97.0329C179.843 97.025 179.787 97.0133 179.732 96.998C179.684 96.9802 179.636 96.9579 179.592 96.9314C179.494 96.8779 179.397 96.8245 179.3 96.771C179.259 96.7509 179.221 96.7245 179.187 96.6927C179.138 96.6403 179.116 96.5663 179.065 96.5148C179.019 96.4674 178.831 96.405 178.804 96.5021C178.794 96.5405 178.834 96.583 178.839 96.6259C178.774 96.5851 178.707 96.5481 178.637 96.5151C178.641 96.5065 178.646 96.4987 178.649 96.4898C178.327 96.2313 178.07 95.8996 177.902 95.5222C177.931 95.5228 177.96 95.5246 177.989 95.5244C178.038 95.5289 178.087 95.5169 178.129 95.4902C178.146 95.4746 178.159 95.4553 178.168 95.4338C178.176 95.4123 178.18 95.3891 178.178 95.366C178.174 95.3199 178.163 95.2747 178.145 95.2322C178.103 95.105 178.038 94.987 177.951 94.885C177.867 94.8041 177.772 94.7362 177.668 94.6836L177.651 94.6742C177.644 94.6527 177.637 94.6311 177.629 94.6101C177.566 94.4796 177.495 94.3532 177.416 94.2318C177.305 94.0284 177.223 93.8105 177.173 93.5843C177.154 93.4466 177.102 93.3157 177.02 93.2035C176.868 93.0363 176.608 93.0405 176.383 93.0658C176.333 93.0714 176.283 93.0799 176.233 93.0867C176.306 93.108 176.371 93.1483 176.423 93.2035C176.505 93.3157 176.558 93.4466 176.577 93.5843C176.627 93.8105 176.709 94.0284 176.82 94.2318C176.899 94.3532 176.97 94.4796 177.032 94.6101C177.041 94.6311 177.047 94.6527 177.054 94.6742L177.071 94.6836C177.175 94.7362 177.271 94.8041 177.355 94.885C177.441 94.987 177.507 95.105 177.548 95.2322C177.567 95.2747 177.578 95.3199 177.582 95.366C177.583 95.3891 177.58 95.4123 177.571 95.4338C177.563 95.4553 177.549 95.4746 177.532 95.4902C177.491 95.5169 177.441 95.5289 177.392 95.5244C177.363 95.5246 177.334 95.5228 177.305 95.5222C177.474 95.8996 177.73 96.2313 178.053 96.4898C178.05 96.4987 178.045 96.5065 178.041 96.5151C178.11 96.5481 178.178 96.5851 178.243 96.6259C178.238 96.583 178.197 96.5405 178.208 96.5021C178.235 96.405 178.423 96.4674 178.469 96.5148C178.52 96.5663 178.541 96.6403 178.591 96.6927C178.624 96.7245 178.662 96.7509 178.704 96.771C178.801 96.8244 178.898 96.8779 178.995 96.9314C179.04 96.9579 179.087 96.9802 179.136 96.998C179.191 97.0133 179.247 97.025 179.303 97.0329C179.384 97.048 179.463 97.0714 179.539 97.1025C179.596 97.1259 179.66 97.1663 179.66 97.2281C179.658 97.2582 179.645 97.2868 179.625 97.3092C179.49 97.4382 179.309 97.5087 179.123 97.5055C178.927 97.5262 178.728 97.5442 178.531 97.5461C178.603 97.589 178.657 97.656 178.683 97.735C178.687 97.7591 178.687 97.7837 178.683 97.8077L178.689 97.8116C178.842 97.909 178.994 98.0076 179.145 98.1072C179.174 98.1259 179.202 98.1447 179.231 98.1635C179.237 98.1558 179.245 98.1487 179.253 98.1424C179.292 98.1209 179.336 98.1112 179.381 98.1144C179.425 98.1176 179.468 98.1335 179.503 98.1604C179.573 98.2151 179.638 98.2767 179.695 98.3444C179.85 98.4884 180.037 98.5925 180.241 98.6478C180.444 98.7026 180.649 98.7466 180.857 98.7795C180.898 98.7851 180.939 98.798 180.976 98.8177C181.015 98.8467 181.045 98.8872 181.06 98.9336C181.076 98.98 181.077 99.0301 181.064 99.0772C181.034 99.1709 180.981 99.2555 180.91 99.3231C180.854 99.3896 180.784 99.4434 180.706 99.4811C180.657 99.4995 180.606 99.5107 180.555 99.5143C180.735 99.5302 180.915 99.5322 181.096 99.5202C181.166 99.5185 181.236 99.5053 181.302 99.4811C181.381 99.4434 181.45 99.3896 181.506 99.3231C181.578 99.2555 181.631 99.1709 181.66 99.0772C181.674 99.0301 181.673 98.98 181.657 98.9336C181.641 98.8872 181.611 98.8467 181.572 98.8177Z" fill="#FF6584"/>
<path d="M178.264 98.3199C178.274 98.3289 178.284 98.3382 178.294 98.347C178.286 98.3363 178.278 98.326 178.272 98.315L178.264 98.3199Z" fill="#FF6584"/>
<path d="M187.145 96.6676C187.145 98.7739 186.206 98.1931 185.047 98.1931C183.889 98.1931 182.95 98.7739 182.95 96.6676C182.95 94.5612 185.047 90.5654 185.047 90.5654C185.047 90.5654 187.145 94.5612 187.145 96.6676Z" fill="#FF6584"/>
<path opacity="0.1" d="M186.001 97.4735C186.001 98.4309 185.574 98.1669 185.047 98.1669C184.521 98.1669 184.094 98.4309 184.094 97.4735C184.094 96.516 185.047 94.6997 185.047 94.6997C185.047 94.6997 186.001 96.516 186.001 97.4735Z" fill="black"/>
<path d="M187.677 91.0394C187.677 91.0394 188.113 90.5862 188.104 90.1418L187.677 91.0394Z" fill="#FF6584"/>
<path d="M183.211 87.2636C183.211 87.2636 183.029 86.6618 182.637 86.4519L183.211 87.2636Z" fill="#FF6584"/>
<path d="M178.837 79.1125C178.837 79.1125 178.655 78.5107 178.263 78.3008L178.837 79.1125Z" fill="#FF6584"/>
<path d="M184.006 90.0469C184.006 90.0469 183.824 89.4451 183.432 89.2352L184.006 90.0469Z" fill="#FF6584"/>
<path d="M183.409 80.3053C183.409 80.3053 183.227 79.7035 182.835 79.4936L183.409 80.3053Z" fill="#FF6584"/>
<path d="M182.216 83.8839C182.216 83.8839 182.034 83.2821 181.643 83.0722L182.216 83.8839Z" fill="#FF6584"/>
<path d="M187.279 97.2024C187.279 97.2024 187.715 96.7493 187.706 96.3048L187.279 97.2024Z" fill="#FF6584"/>
<path d="M188.074 93.8227C188.074 93.8227 188.51 93.3695 188.501 92.9251L188.074 93.8227Z" fill="#FF6584"/>
<path d="M182.63 93.2543L177.859 94.8448L177.922 95.0335L182.693 93.443L182.63 93.2543Z" fill="#FF6584"/>
<path d="M182.284 93.444C182.463 94.1439 182.162 93.9767 181.888 94.0335C181.614 94.0902 181.668 94.3427 181.291 93.6495C181.03 93.1701 181.412 93.1168 181.686 93.0601C181.961 93.0033 182.161 92.9661 182.284 93.444Z" fill="#FF6584"/>
<path opacity="0.1" d="M114.26 55.2599L114.26 55.2597L109.922 51.2712L109.883 51.2809L108.146 49.7018L108.062 49.6773L108.152 49.643L89.6795 32.6583L71.8394 16.2549L62.7489 21.0768L62.0054 21.2414L72.8994 37.6827L114.129 99.9094H162.82L114.26 55.2599Z" fill="#F2F2F2"/>
<path d="M66.5582 23.7662C69.5228 23.7662 71.926 21.363 71.926 18.3984C71.926 15.4339 69.5228 13.0306 66.5582 13.0306C63.5937 13.0306 61.1904 15.4339 61.1904 18.3984C61.1904 21.363 63.5937 23.7662 66.5582 23.7662Z" fill="#F2F2F2"/>
</g>
<defs>
<clipPath id="clip0_106:255">
<rect width="201.58" height="100" fill="white"/>
</clipPath>
</defs>
</svg>
