<svg width="161" height="120" viewBox="0 0 161 120" fill="none" xmlns="http://www.w3.org/2000/svg">
<g clip-path="url(#clip0_140_40)">
<path opacity="0.1" d="M83.4319 120C111.596 120 134.427 118.764 134.427 117.24C134.427 115.716 111.596 114.48 83.4319 114.48C55.268 114.48 32.4365 115.716 32.4365 117.24C32.4365 118.764 55.268 120 83.4319 120Z" fill="#6C63FF"/>
<path d="M112.318 106.419L111.879 107.062L109.167 111.097L106.865 111.791L105.147 110.11L105.231 109.001L105.659 103.239C105.659 103.239 95.0309 96.9868 94.0806 95.8173C93.1304 94.6478 89.4756 93.5879 89.4756 93.5879C89.4756 93.5879 83.8839 90.993 81.8007 86.4612C79.7175 81.9293 85.2727 81.2349 85.2727 81.2349L106.141 101.193L112.318 106.419Z" fill="#FFC1C7"/>
<path d="M114.876 108.758L108.261 114.935C108.261 114.935 104.46 115.665 101.061 115.154C98.8888 114.826 99.3069 113.635 99.8785 112.815L99.8887 112.8C100.231 112.331 100.732 112.002 101.298 111.873C104.111 111.195 105.081 109.159 105.081 109.159L107.128 110.913L110.673 106.782L113.294 108.012L114.876 108.758Z" fill="#575988"/>
<path opacity="0.1" d="M113.294 108.015L111.737 107.284L111.884 107.062L112.322 106.419L106.141 101.193L85.2727 81.2377C85.2727 81.2377 79.7175 81.9292 81.8007 86.4611C83.8839 90.993 89.4756 93.5879 89.4756 93.5879C89.4756 93.5879 93.1304 94.6477 94.0806 95.8172C95.0309 96.9868 105.666 103.236 105.666 103.236L105.238 108.998L105.217 109.273L105.081 109.157C105.081 109.157 104.111 111.194 101.298 111.872C100.732 112 100.231 112.33 99.8887 112.799L99.8785 112.813C99.2937 113.632 98.8888 114.823 101.061 115.152C104.46 115.664 108.261 114.933 108.261 114.933L114.876 108.757L113.294 108.015Z" fill="black"/>
<path opacity="0.1" d="M1.73242 62.8587C4.27028 73.706 9.64276 83.0826 18.132 87.6306C35.7786 97.0774 75.5729 92.2049 105.271 86.6073C120.279 83.7889 133.901 76.0015 143.944 64.499L1.73242 62.8587Z" fill="white"/>
<path opacity="0.1" d="M157.476 11.8004H141.18C140.814 11.7886 140.467 11.6351 140.213 11.3722C139.958 11.1094 139.816 10.7578 139.816 10.3919C139.816 10.026 139.958 9.67443 140.213 9.41156C140.467 9.1487 140.814 8.99513 141.18 8.98335H143.997C143.624 8.98335 143.266 8.83503 143.002 8.57101C142.738 8.307 142.589 7.94891 142.589 7.57554C142.589 7.20217 142.738 6.84408 143.002 6.58007C143.266 6.31605 143.624 6.16773 143.997 6.16773H141.985C141.62 6.15595 141.273 6.00239 141.018 5.73952C140.764 5.47665 140.622 5.12509 140.622 4.75919C140.622 4.39329 140.764 4.04173 141.018 3.77886C141.273 3.516 141.62 3.36244 141.985 3.35065H150.491C148.604 2.47351 146.398 1.84928 143.855 1.52182C120.664 -1.45607 112.384 0.513105 109.463 2.54515C105.859 5.04499 101.839 6.88406 97.5423 7.76997C83.2332 10.7215 56.4732 14.2725 32.2188 6.63262C20.164 2.83168 11.2055 9.25234 5.83447 19.9768H160.305C160.103 16.8601 159.499 13.983 158.391 11.4627C158.136 11.681 157.811 11.8008 157.476 11.8004V11.8004Z" fill="white"/>
<path opacity="0.1" d="M0.349336 40.2169C-0.276576 46.5257 -0.0642162 52.8896 0.980876 59.1426L144.054 64.3747C148.037 59.7938 151.381 54.6941 153.995 49.2148L0.349336 40.2169ZM56.9365 53.7146H54.1194C54.3082 53.7085 54.4963 53.7404 54.6725 53.8085C54.8487 53.8765 55.0095 53.9793 55.1452 54.1107C55.2809 54.2421 55.3888 54.3994 55.4624 54.5733C55.5361 54.7473 55.5741 54.9342 55.5741 55.1231C55.5741 55.312 55.5361 55.499 55.4624 55.6729C55.3888 55.8468 55.2809 56.0041 55.1452 56.1355C55.0095 56.2669 54.8487 56.3697 54.6725 56.4378C54.4963 56.5058 54.3082 56.5377 54.1194 56.5316H37.8237C37.4579 56.5199 37.1111 56.3663 36.8566 56.1034C36.6021 55.8406 36.4598 55.489 36.4598 55.1231C36.4598 54.7572 36.6021 54.4056 36.8566 54.1428C37.1111 53.8799 37.4579 53.7264 37.8237 53.7146H40.6407C40.2674 53.7146 39.9093 53.5662 39.6453 53.3022C39.3813 53.0382 39.2329 52.6801 39.2329 52.3068C39.2329 51.9334 39.3813 51.5753 39.6453 51.3113C39.9093 51.0473 40.2674 50.8989 40.6407 50.8989H38.6292C38.2635 50.8872 37.9167 50.7336 37.6621 50.4707C37.4076 50.2079 37.2653 49.8563 37.2653 49.4904C37.2653 49.1245 37.4076 48.7729 37.6621 48.5101C37.9167 48.2472 38.2635 48.0937 38.6292 48.0819H54.925C55.2907 48.0937 55.6375 48.2472 55.892 48.5101C56.1465 48.7729 56.2888 49.1245 56.2888 49.4904C56.2888 49.8563 56.1465 50.2079 55.892 50.4707C55.6375 50.7336 55.2907 50.8872 54.925 50.8989H56.9365C57.3099 50.8989 57.668 51.0473 57.932 51.3113C58.196 51.5753 58.3443 51.9334 58.3443 52.3068C58.3443 52.6801 58.196 53.0382 57.932 53.3022C57.668 53.5662 57.3099 53.7146 56.9365 53.7146V53.7146Z" fill="white"/>
<path opacity="0.1" d="M160.312 20.0704L4.11088 23.8714C2.21041 28.7556 0.957562 34.2713 0.372803 40.0005H157.575C158.601 36.6384 159.36 33.2005 159.845 29.719C160.313 26.3551 160.5 23.101 160.312 20.0704ZM32.0843 32.5171H29.2672C29.456 32.511 29.6441 32.5429 29.8203 32.611C29.9965 32.679 30.1572 32.7818 30.2929 32.9132C30.4286 33.0446 30.5365 33.2019 30.6102 33.3758C30.6839 33.5497 30.7219 33.7367 30.7219 33.9256C30.7219 34.1145 30.6839 34.3014 30.6102 34.4754C30.5365 34.6493 30.4286 34.8066 30.2929 34.938C30.1572 35.0694 29.9965 35.1722 29.8203 35.2402C29.6441 35.3083 29.456 35.3402 29.2672 35.3341H12.9714C12.6057 35.3224 12.2589 35.1688 12.0044 34.9059C11.7499 34.6431 11.6076 34.2915 11.6076 33.9256C11.6076 33.5597 11.7499 33.2081 12.0044 32.9453C12.2589 32.6824 12.6057 32.5288 12.9714 32.5171H15.7885C15.4151 32.5171 15.0571 32.3687 14.7931 32.1047C14.529 31.8407 14.3807 31.4826 14.3807 31.1092C14.3807 30.7359 14.529 30.3778 14.7931 30.1138C15.0571 29.8498 15.4151 29.7014 15.7885 29.7014H13.777C13.4112 29.6897 13.0644 29.5361 12.8099 29.2732C12.5554 29.0104 12.4131 28.6588 12.4131 28.2929C12.4131 27.927 12.5554 27.5754 12.8099 27.3126C13.0644 27.0497 13.4112 26.8961 13.777 26.8844H30.0727C30.4385 26.8961 30.7852 27.0497 31.0398 27.3126C31.2943 27.5754 31.4366 27.927 31.4366 28.2929C31.4366 28.6588 31.2943 29.0104 31.0398 29.2732C30.7852 29.5361 30.4385 29.6897 30.0727 29.7014H32.0843C32.4577 29.7014 32.8158 29.8498 33.0798 30.1138C33.3438 30.3778 33.4921 30.7359 33.4921 31.1092C33.4921 31.4826 33.3438 31.8407 33.0798 32.1047C32.8158 32.3687 32.4577 32.5171 32.0843 32.5171V32.5171Z" fill="white"/>
<g opacity="0.1">
<path opacity="0.1" d="M116.559 72.1622C116.559 72.1622 120.681 62.002 128.38 58.2333C131.619 56.6734 134.264 54.1043 135.919 50.9121C136.692 49.3909 137.325 47.802 137.809 46.1653" stroke="#535461" stroke-width="2" stroke-miterlimit="10"/>
<path opacity="0.1" d="M142.646 43.7619C141.843 44.7707 137.69 46.2472 137.69 46.2472C137.69 46.2472 138.19 41.8688 138.993 40.8601C139.176 40.5987 139.41 40.3775 139.682 40.2101C139.954 40.0428 140.257 39.9329 140.573 39.8871C140.889 39.8412 141.211 39.8606 141.519 39.9438C141.827 40.0271 142.115 40.1725 142.364 40.3711C142.614 40.5698 142.821 40.8174 142.971 41.0988C143.122 41.3803 143.213 41.6895 143.24 42.0076C143.266 42.3256 143.227 42.6457 143.125 42.9482C143.024 43.2506 142.861 43.5291 142.647 43.7663L142.646 43.7619Z" fill="#6C63FF"/>
<path opacity="0.1" d="M141.221 51.7513C139.999 52.1621 135.712 51.1402 135.712 51.1402C135.712 51.1402 138.512 47.7369 139.734 47.3261C140.03 47.2047 140.348 47.1454 140.668 47.1518C140.988 47.1582 141.303 47.2301 141.594 47.3632C141.885 47.4962 142.145 47.6875 142.359 47.9253C142.573 48.163 142.736 48.4422 142.838 48.7455C142.94 49.0487 142.979 49.3697 142.952 49.6885C142.925 50.0073 142.832 50.3171 142.681 50.5988C142.529 50.8805 142.321 51.1282 142.07 51.3264C141.819 51.5246 141.53 51.6692 141.221 51.7513V51.7513Z" fill="#6C63FF"/>
<path opacity="0.1" d="M133.493 61.1966C132.232 60.9334 129.046 57.8883 129.046 57.8883C129.046 57.8883 133.182 56.3636 134.443 56.6252C135.018 56.7823 135.51 57.1523 135.821 57.6599C136.132 58.1676 136.238 58.7746 136.116 59.3574C135.995 59.9402 135.657 60.4549 135.169 60.7966C134.682 61.1383 134.082 61.2813 133.493 61.1966V61.1966Z" fill="#6C63FF"/>
<path opacity="0.1" d="M126.037 67.0251C124.749 66.9813 121.095 64.5165 121.095 64.5165C121.095 64.5165 124.913 62.3149 126.201 62.3602C126.521 62.3502 126.84 62.406 127.138 62.5242C127.435 62.6424 127.705 62.8205 127.931 63.0473C128.157 63.2742 128.334 63.5451 128.451 63.8431C128.568 64.1412 128.623 64.4601 128.612 64.7801C128.601 65.1002 128.524 65.4145 128.386 65.7036C128.248 65.9927 128.053 66.2505 127.812 66.461C127.57 66.6715 127.288 66.8301 126.983 66.9272C126.678 67.0242 126.356 67.0575 126.037 67.0251V67.0251Z" fill="#6C63FF"/>
<path opacity="0.1" d="M131.721 48.2851C131.885 49.5642 134.677 52.9734 134.677 52.9734C134.677 52.9734 136.516 48.9678 136.351 47.6901C136.237 47.1075 135.905 46.5902 135.424 46.2431C134.942 45.8959 134.347 45.7448 133.758 45.8205C133.169 45.8962 132.631 46.1929 132.253 46.6506C131.875 47.1082 131.685 47.6925 131.721 48.2851Z" fill="#6C63FF"/>
<path opacity="0.1" d="M123.087 55.213C123.627 56.3825 127.312 58.802 127.312 58.802C127.312 58.802 127.866 54.4309 127.327 53.2599C127.043 52.7385 126.572 52.3445 126.009 52.1575C125.446 51.9705 124.832 52.0047 124.293 52.253C123.754 52.5013 123.33 52.9453 123.106 53.4949C122.882 54.0445 122.875 54.6587 123.087 55.213Z" fill="#6C63FF"/>
<path opacity="0.1" d="M115.62 63.0985C115.955 64.344 119.177 67.3497 119.177 67.3497C119.177 67.3497 120.463 63.1351 120.13 61.8895C119.941 61.325 119.543 60.8539 119.019 60.5723C118.494 60.2907 117.882 60.2197 117.307 60.3739C116.732 60.5281 116.237 60.8958 115.923 61.402C115.61 61.9083 115.502 62.515 115.62 63.0985V63.0985Z" fill="#6C63FF"/>
<path opacity="0.25" d="M142.646 43.7619C141.843 44.7707 137.69 46.2472 137.69 46.2472C137.69 46.2472 138.19 41.8688 138.993 40.8601C139.176 40.5987 139.41 40.3775 139.682 40.2101C139.954 40.0428 140.257 39.9329 140.573 39.8871C140.889 39.8412 141.211 39.8606 141.519 39.9438C141.827 40.0271 142.115 40.1725 142.364 40.3711C142.614 40.5698 142.821 40.8174 142.971 41.0988C143.122 41.3803 143.213 41.6895 143.24 42.0076C143.266 42.3256 143.227 42.6457 143.125 42.9482C143.024 43.2506 142.861 43.5291 142.647 43.7663L142.646 43.7619Z" fill="black"/>
<path opacity="0.25" d="M141.221 51.7513C139.999 52.1621 135.712 51.1402 135.712 51.1402C135.712 51.1402 138.512 47.7369 139.734 47.3261C140.03 47.2047 140.348 47.1454 140.668 47.1518C140.988 47.1582 141.303 47.2301 141.594 47.3632C141.885 47.4962 142.145 47.6875 142.359 47.9253C142.573 48.163 142.736 48.4422 142.838 48.7455C142.94 49.0487 142.979 49.3697 142.952 49.6885C142.925 50.0073 142.832 50.3171 142.681 50.5988C142.529 50.8805 142.321 51.1282 142.07 51.3264C141.819 51.5246 141.53 51.6692 141.221 51.7513V51.7513Z" fill="black"/>
<path opacity="0.25" d="M133.493 61.1966C132.232 60.9334 129.046 57.8883 129.046 57.8883C129.046 57.8883 133.182 56.3636 134.443 56.6252C135.018 56.7823 135.51 57.1523 135.821 57.6599C136.132 58.1676 136.238 58.7746 136.116 59.3574C135.995 59.9402 135.657 60.4549 135.169 60.7966C134.682 61.1383 134.082 61.2813 133.493 61.1966V61.1966Z" fill="black"/>
<path opacity="0.25" d="M126.037 67.0251C124.749 66.9813 121.095 64.5165 121.095 64.5165C121.095 64.5165 124.913 62.3149 126.201 62.3602C126.521 62.3502 126.84 62.406 127.138 62.5242C127.435 62.6424 127.705 62.8205 127.931 63.0473C128.157 63.2742 128.334 63.5451 128.451 63.8431C128.568 64.1412 128.623 64.4601 128.612 64.7801C128.601 65.1002 128.524 65.4145 128.386 65.7036C128.248 65.9927 128.053 66.2505 127.812 66.461C127.57 66.6715 127.288 66.8301 126.983 66.9272C126.678 67.0242 126.356 67.0575 126.037 67.0251V67.0251Z" fill="black"/>
<path opacity="0.25" d="M131.721 48.2851C131.885 49.5642 134.677 52.9734 134.677 52.9734C134.677 52.9734 136.516 48.9678 136.351 47.6901C136.237 47.1075 135.905 46.5902 135.424 46.2431C134.942 45.8959 134.347 45.7448 133.758 45.8205C133.169 45.8962 132.631 46.1929 132.253 46.6506C131.875 47.1082 131.685 47.6925 131.721 48.2851Z" fill="black"/>
<path opacity="0.25" d="M123.087 55.213C123.627 56.3825 127.312 58.802 127.312 58.802C127.312 58.802 127.866 54.4309 127.327 53.2599C127.043 52.7385 126.572 52.3445 126.009 52.1575C125.446 51.9705 124.832 52.0047 124.293 52.253C123.754 52.5013 123.33 52.9453 123.106 53.4949C122.882 54.0445 122.875 54.6587 123.087 55.213Z" fill="black"/>
<path opacity="0.25" d="M115.62 63.0985C115.955 64.344 119.177 67.3497 119.177 67.3497C119.177 67.3497 120.463 63.1351 120.13 61.8895C119.941 61.325 119.543 60.8539 119.019 60.5723C118.494 60.2907 117.882 60.2197 117.307 60.3739C116.732 60.5281 116.237 60.8958 115.923 61.402C115.61 61.9083 115.502 62.515 115.62 63.0985V63.0985Z" fill="black"/>
</g>
<g opacity="0.1">
<path opacity="0.1" d="M109.995 55.9074C109.995 55.9074 110.515 44.9549 116.528 38.8456C119.066 36.2998 120.711 32.9994 121.213 29.4397C121.438 27.7464 121.506 26.0362 121.418 24.3304" stroke="#535461" stroke-width="2" stroke-miterlimit="10"/>
<path opacity="0.1" d="M125.188 20.4564C124.766 21.6756 121.336 24.4415 121.336 24.4415C121.336 24.4415 120.357 20.145 120.778 18.9272C121.008 18.3799 121.439 17.941 121.981 17.6993C122.524 17.4577 123.138 17.4314 123.699 17.626C124.26 17.8206 124.727 18.2213 125.003 18.7469C125.28 19.2726 125.346 19.8837 125.188 20.4564Z" fill="#6C63FF"/>
<path opacity="0.1" d="M126.494 28.4676C125.47 29.2599 121.093 29.719 121.093 29.719C121.093 29.719 122.606 25.5789 123.622 24.7865C124.114 24.4519 124.714 24.3168 125.301 24.4086C125.888 24.5005 126.418 24.8124 126.784 25.281C127.149 25.7496 127.323 26.3398 127.269 26.9317C127.215 27.5235 126.938 28.0727 126.494 28.4676V28.4676Z" fill="#6C63FF"/>
<path opacity="0.1" d="M122.336 39.9405C121.059 40.1116 117.043 38.2944 117.043 38.2944C117.043 38.2944 120.439 35.4847 121.721 35.3136C122.314 35.2731 122.899 35.4596 123.36 35.8353C123.82 36.211 124.12 36.7478 124.199 37.3366C124.278 37.9255 124.13 38.5223 123.784 39.0059C123.439 39.4895 122.923 39.8237 122.341 39.9405H122.336Z" fill="#6C63FF"/>
<path opacity="0.1" d="M117.234 47.9123C116.005 48.2982 111.74 47.1813 111.74 47.1813C111.74 47.1813 114.611 43.8394 115.842 43.455C116.141 43.3382 116.461 43.2842 116.782 43.2963C117.102 43.3084 117.417 43.3863 117.706 43.5252C117.995 43.6642 118.253 43.8611 118.463 44.1038C118.673 44.3466 118.83 44.6299 118.926 44.9361C119.022 45.2424 119.053 45.5651 119.019 45.8841C118.985 46.2031 118.885 46.5116 118.726 46.7905C118.568 47.0694 118.353 47.3126 118.097 47.5051C117.84 47.6976 117.546 47.8352 117.234 47.9094V47.9123Z" fill="#6C63FF"/>
<path opacity="0.1" d="M116.382 28.3477C116.967 29.4997 120.727 31.7905 120.727 31.7905C120.727 31.7905 121.131 27.4048 120.553 26.2513C120.252 25.7394 119.767 25.3611 119.198 25.1931C118.628 25.0251 118.016 25.08 117.486 25.3467C116.955 25.6133 116.546 26.0718 116.341 26.6291C116.136 27.1864 116.15 27.8008 116.382 28.3477V28.3477Z" fill="#6C63FF"/>
<path opacity="0.1" d="M110.534 37.7477C111.432 38.673 115.709 39.7329 115.709 39.7329C115.709 39.7329 114.784 35.4232 113.886 34.4979C113.446 34.0976 112.87 33.8801 112.275 33.8895C111.68 33.899 111.111 34.1348 110.684 34.5489C110.257 34.963 110.004 35.5243 109.976 36.1185C109.948 36.7128 110.148 37.2954 110.534 37.7477V37.7477Z" fill="#6C63FF"/>
<path opacity="0.1" d="M106.105 47.6623C106.836 48.7266 110.87 50.494 110.87 50.494C110.87 50.494 110.685 46.0908 109.958 45.0265C109.591 44.5628 109.061 44.2556 108.476 44.1667C107.891 44.0779 107.294 44.2139 106.806 44.5476C106.317 44.8812 105.973 45.3876 105.843 45.9647C105.713 46.5419 105.806 47.1469 106.105 47.6579V47.6623Z" fill="#6C63FF"/>
</g>
<path opacity="0.1" d="M63.0091 12.4993C63.0091 12.4993 59.5254 12.2902 59.9392 14.7316C59.918 14.8554 59.9365 14.9828 59.9922 15.0955C60.0479 15.2082 60.1378 15.3003 60.2491 15.3587C60.2491 15.3587 60.2491 15.1774 60.6058 15.2388C60.7308 15.2606 60.8579 15.267 60.9844 15.2578C61.1556 15.246 61.3182 15.1788 61.4478 15.0663V15.0663C61.4478 15.0663 62.4273 14.6614 62.8074 13.0606C62.8074 13.0606 63.0896 12.7112 63.0779 12.6221L62.4931 12.8735C62.4931 12.8735 62.6934 13.2974 62.5355 13.6498C62.5355 13.6498 62.5165 12.8881 62.4039 12.9057C62.3805 12.9057 62.0984 13.0518 62.0984 13.0518C62.0984 13.0518 62.4449 13.7916 62.1832 14.3281C62.1832 14.3281 62.2826 13.4173 61.9902 13.1059L61.5765 13.3471C61.5765 13.3471 61.98 14.1103 61.7066 14.733C61.7066 14.733 61.7768 13.7784 61.4902 13.4056L61.1145 13.698C61.1145 13.698 61.4946 14.4509 61.2607 14.9669C61.2607 14.9669 61.2315 13.8544 61.0312 13.7711C60.8894 13.8912 60.7627 14.0282 60.654 14.179C60.654 14.179 60.9128 14.7257 60.752 15.0137C60.752 15.0137 60.654 14.2725 60.5722 14.2696C60.5722 14.2696 60.2447 14.7608 60.2111 15.097C60.2268 14.785 60.3241 14.4826 60.4932 14.2199C60.3045 14.2557 60.1303 14.3456 59.9918 14.4787C59.9918 14.4787 60.043 14.1322 60.5766 14.1015C60.5766 14.1015 60.847 13.7287 60.9186 13.7068C60.9186 13.7068 60.3909 13.6615 60.0722 13.8047C60.0722 13.8047 60.3529 13.4773 61.0151 13.6249L61.3864 13.3238C61.3864 13.3238 60.692 13.2287 60.3967 13.3325C60.3967 13.3325 60.7359 13.0402 61.4859 13.2551L61.8893 13.0138C61.579 12.9451 61.261 12.9176 60.9435 12.932C60.9435 12.932 61.3163 12.7317 62.0077 12.9481L62.3001 12.8194C62.3001 12.8194 61.8616 12.7346 61.7388 12.72C61.616 12.7054 61.6057 12.6718 61.6057 12.6718C61.8803 12.626 62.1622 12.6573 62.42 12.7624C62.42 12.7624 63.0208 12.5387 63.0091 12.4993Z" fill="#6C63FF"/>
<path opacity="0.1" d="M53.8608 24.3801C53.8608 24.3801 52.6708 27.6621 55.1283 27.9617C55.2412 28.0171 55.3688 28.0353 55.4927 28.0137C55.6167 27.9922 55.7306 27.9321 55.8183 27.8419C55.8183 27.8419 55.6458 27.7849 55.8051 27.4662C55.8594 27.3521 55.8997 27.2318 55.925 27.108C55.9624 26.9407 55.9445 26.7657 55.8738 26.6095V26.6095C55.8738 26.6095 55.7642 25.5555 54.3374 24.7368C54.3374 24.7368 54.0815 24.3669 53.9924 24.3523L54.0669 24.9868C54.0669 24.9868 54.5303 24.9151 54.8242 25.1666C54.8242 25.1666 54.0932 24.9692 54.0728 25.0818C54.0728 25.1052 54.1269 25.4166 54.1269 25.4166C54.1269 25.4166 54.9338 25.2952 55.3753 25.6973C55.3753 25.6973 54.5303 25.3449 54.1488 25.535L54.2628 26.0013C54.2628 26.0013 55.1093 25.8303 55.6282 26.2703C55.6282 26.2703 54.7321 25.9312 54.2935 26.1007L54.4675 26.5393C54.4675 26.5393 55.2964 26.3931 55.7262 26.7571C55.7262 26.7571 54.6517 26.4648 54.5143 26.6387C54.5892 26.8092 54.6849 26.9698 54.7993 27.1168C54.7993 27.1168 55.3958 27.0232 55.6268 27.263C55.6268 27.263 54.8885 27.1475 54.8622 27.2249C54.8622 27.2249 55.2394 27.6781 55.5522 27.8097C55.2589 27.7064 54.9978 27.5279 54.795 27.2922C54.7772 27.4809 54.8142 27.6708 54.9017 27.8389C54.9017 27.8389 54.5844 27.6928 54.7058 27.1752C54.7058 27.1752 54.4251 26.8098 54.4236 26.7367C54.4236 26.7367 54.2321 27.2308 54.2774 27.5773C54.2774 27.5773 54.0435 27.2147 54.3739 26.6212L54.1897 26.1826C54.1897 26.1826 53.8973 26.8215 53.9178 27.1328C53.9178 27.1328 53.7365 26.7264 54.1517 26.0671L54.0348 25.6125C53.8821 25.8888 53.7657 26.1836 53.6883 26.4896C53.6883 26.4896 53.602 26.0744 54.007 25.4751L53.9646 25.1607C53.9646 25.1607 53.7599 25.5525 53.7102 25.6709C53.6605 25.7894 53.6254 25.785 53.6254 25.785C53.66 25.5085 53.7703 25.247 53.9441 25.0292C53.9441 25.0292 53.9017 24.3815 53.8608 24.3801Z" fill="#6C63FF"/>
<path opacity="0.1" d="M76.9646 21.6156C76.9646 21.6156 75.7732 24.8961 78.232 25.1958C78.3446 25.2512 78.4719 25.2696 78.5955 25.2483C78.7192 25.2271 78.833 25.1672 78.9206 25.0774C78.9206 25.0774 78.7496 25.0204 78.9074 24.7002C78.9636 24.5864 79.0058 24.4661 79.0332 24.3421C79.0709 24.1751 79.0524 24.0004 78.9805 23.845V23.845C78.9805 23.845 78.8709 22.791 77.4441 21.9709C77.4441 21.9709 77.1897 21.601 77.1006 21.5864L77.1736 22.2223C77.1736 22.2223 77.6385 22.1492 77.9309 22.4007C77.9309 22.4007 77.2 22.2033 77.181 22.3174C77.181 22.3393 77.2351 22.6521 77.2351 22.6521C77.2351 22.6521 78.042 22.5293 78.482 22.9328C78.482 22.9328 77.6385 22.579 77.2555 22.7705L77.3695 23.2354C77.3695 23.2354 78.216 23.0644 78.7364 23.5044C78.7364 23.5044 77.8403 23.1653 77.4017 23.3363L77.5757 23.7749C77.5757 23.7749 78.4045 23.6287 78.8343 23.9927C78.8343 23.9927 77.7599 23.7003 77.6224 23.8728C77.6973 24.043 77.7925 24.2036 77.906 24.3509C77.906 24.3509 78.504 24.2573 78.7349 24.497C78.7349 24.497 77.9952 24.3816 77.9704 24.4576C77.9704 24.4576 78.3475 24.9108 78.6604 25.0423C78.3666 24.9384 78.1051 24.7595 77.9017 24.5234C77.8823 24.7145 77.9194 24.9071 78.0084 25.0774C78.0084 25.0774 77.6897 24.9312 77.811 24.4123C77.811 24.4123 77.5318 24.0482 77.5303 23.9737C77.5303 23.9737 77.3374 24.4663 77.3842 24.8143C77.3842 24.8143 77.1503 24.4503 77.4821 23.8582L77.2964 23.4196C77.2964 23.4196 77.0041 24.0585 77.026 24.3713C77.026 24.3713 76.8447 23.9635 77.2599 23.3041L77.143 22.8495C76.99 23.1256 76.8735 23.4205 76.7965 23.7266C76.7965 23.7266 76.7088 23.3129 77.1137 22.7121L77.0713 22.3992C77.0713 22.3992 76.8667 22.791 76.8184 22.908C76.7702 23.0249 76.7336 23.0235 76.7336 23.0235C76.7674 22.7468 76.8778 22.485 77.0523 22.2677C77.0523 22.2677 77.0041 21.6156 76.9646 21.6156Z" fill="#6C63FF"/>
<path opacity="0.1" d="M39.2139 17.5048C39.2139 17.5048 38.0224 20.7868 40.4813 21.085C40.5938 21.1408 40.7212 21.1595 40.8449 21.1382C40.9687 21.1169 41.0825 21.0568 41.1699 20.9666C41.1699 20.9666 40.9989 20.9096 41.1567 20.5909C41.2123 20.4767 41.2545 20.3565 41.2825 20.2327C41.3194 20.0652 41.301 19.8903 41.2298 19.7342C41.2298 19.7342 41.1202 18.6802 39.6934 17.8601C39.6934 17.8601 39.439 17.4917 39.3498 17.477L39.4229 18.1115C39.4229 18.1115 39.8863 18.0399 40.1802 18.2913C40.1802 18.2913 39.4492 18.0925 39.4302 18.2065C39.4302 18.2299 39.4843 18.5413 39.4843 18.5413C39.4843 18.5413 40.2913 18.42 40.7313 18.822C40.7313 18.822 39.8863 18.4682 39.5048 18.6597L39.6188 19.1261C39.6188 19.1261 40.4653 18.955 40.9842 19.395C40.9842 19.395 40.0896 19.0559 39.651 19.2255L39.825 19.664C39.825 19.664 40.6539 19.5178 41.0836 19.8819C41.0836 19.8819 40.0077 19.5895 39.8717 19.762C39.9465 19.9327 40.0418 20.0937 40.1553 20.2415C40.1553 20.2415 40.7533 20.1465 40.9828 20.3877C40.9828 20.3877 40.2445 20.2722 40.2182 20.3497C40.2182 20.3497 40.5968 20.8014 40.9097 20.9344C40.6156 20.8311 40.3539 20.6521 40.151 20.4155C40.1316 20.6066 40.1687 20.7992 40.2577 20.9695C40.2577 20.9695 39.939 20.8233 40.0603 20.3058C40.0603 20.3058 39.7796 19.9403 39.7796 19.8672C39.7796 19.8672 39.5867 20.3614 39.6334 20.7078C39.6334 20.7078 39.3995 20.3453 39.7299 19.7517L39.5457 19.3132C39.5457 19.3132 39.2533 19.9535 39.2738 20.2649C39.2738 20.2649 39.0925 19.8585 39.5077 19.1992L39.3922 18.743C39.2392 19.0192 39.1228 19.314 39.0458 19.6202C39.0458 19.6202 38.958 19.2065 39.363 18.6056L39.3206 18.2928C39.3206 18.2928 39.1159 18.6846 39.0677 18.803C39.0194 18.9214 38.9829 18.917 38.9829 18.917C39.0166 18.6405 39.1264 18.3789 39.3001 18.1612C39.3001 18.1612 39.2592 17.5063 39.2139 17.5048Z" fill="#6C63FF"/>
<path opacity="0.1" d="M75.814 39.7666C75.814 39.7666 76.7335 43.129 78.9147 41.9595C79.0386 41.9397 79.1531 41.8813 79.2419 41.7926C79.3306 41.7038 79.3891 41.5893 79.4088 41.4653C79.4088 41.4653 79.2363 41.5165 79.1807 41.1642C79.1609 41.0391 79.126 40.9169 79.0769 40.8002C79.0108 40.6423 78.8954 40.51 78.748 40.423V40.423C78.748 40.423 78.0507 39.6263 76.409 39.7783C76.409 39.7783 75.9879 39.6233 75.9061 39.6628L76.3329 40.1394C76.3329 40.1394 76.6692 39.8134 77.0537 39.847C77.0537 39.847 76.3388 40.1087 76.3929 40.2096C76.4031 40.23 76.6297 40.4522 76.6297 40.4522C76.6297 40.4522 77.2145 39.8879 77.8109 39.9625C77.8109 39.9625 76.9177 40.1613 76.7145 40.537L77.077 40.8528C77.077 40.8528 77.6706 40.2242 78.3474 40.2841C78.3474 40.2841 77.4206 40.5239 77.1604 40.9157L77.558 41.1773C77.558 41.1773 78.1428 40.5765 78.7114 40.6291C78.7114 40.6291 77.6691 41.0151 77.653 41.23C77.8128 41.3263 77.9836 41.4029 78.1618 41.458C78.1618 41.458 78.6003 41.037 78.919 41.0969C78.919 41.0969 78.2495 41.4273 78.2729 41.5063C78.2729 41.5063 78.8416 41.6525 79.1719 41.5823C78.8724 41.6671 78.5558 41.6716 78.2539 41.5955C78.3478 41.7627 78.4886 41.8988 78.6588 41.9872C78.6588 41.9872 78.3138 42.0501 78.115 41.5574C78.115 41.5574 77.6764 41.4215 77.6311 41.3601C77.6311 41.3601 77.7583 41.8732 77.9966 42.1305C77.9966 42.1305 77.596 41.9697 77.5244 41.2943L77.1224 41.0443C77.1224 41.0443 77.2539 41.7329 77.4484 41.9785C77.4484 41.9785 77.0654 41.7504 77.0244 40.9727L76.6663 40.6686C76.7019 40.9841 76.778 41.2936 76.8928 41.5896C76.8928 41.5896 76.5829 41.2972 76.5683 40.5765L76.3519 40.3455C76.3519 40.3455 76.4104 40.7841 76.4397 40.9084C76.4689 41.0326 76.4397 41.0545 76.4397 41.0545C76.3076 40.809 76.2464 40.5317 76.2628 40.2534C76.2628 40.2534 75.8476 39.7432 75.814 39.7666Z" fill="#6C63FF"/>
<path d="M119.216 58.7333C119.535 59.1018 119.887 59.4404 120.267 59.7449L123.115 62.1717C123.623 62.6029 124.139 63.0488 124.782 63.252C125.162 63.3716 125.565 63.4024 125.96 63.3418C126.354 63.2812 126.729 63.131 127.057 62.9026L127.008 62.8865L127.057 62.8544C126.576 62.6994 126.083 62.5386 125.687 62.2272C125.524 62.105 125.386 61.9516 125.283 61.776C125.18 61.6003 125.112 61.4058 125.084 61.2039V61.2039C125.084 61.1834 125.084 61.1644 125.084 61.144C125.086 61.0886 125.091 61.0333 125.101 60.9788C125.714 60.9265 126.304 60.7187 126.815 60.375L126.766 60.3574L126.815 60.3268C125.298 59.8399 124.247 58.416 123.77 56.9088C123.294 55.4016 123.292 53.7964 123.241 52.2191C123.19 50.6417 123.073 49.0204 122.392 47.5936C122.136 47.0586 121.807 46.5498 121.683 45.9709C121.648 45.7991 121.632 45.6242 121.634 45.449C121.645 44.8862 121.808 44.3204 121.959 43.7707C122.294 42.5431 122.561 41.2982 122.76 40.0414C122.838 39.5947 122.882 39.1426 122.89 38.6892C122.904 38.2466 122.833 37.8055 122.681 37.3895C122.012 35.6499 119.684 34.8298 119.329 33.0039C119.287 32.7581 119.27 32.5089 119.276 32.2597C119.276 32.1223 119.276 31.9864 119.276 31.8504C119.276 31.7145 119.276 31.558 119.265 31.4235C119.164 30.1385 118.368 29.0231 117.601 27.9808C116.677 26.7265 115.701 25.4224 114.281 24.7544C113.179 24.2325 111.705 24.06 110.391 24.1769C109.801 23.6681 109.155 23.229 108.464 22.8685C107.46 22.3101 106.417 21.7604 105.305 21.6376C103.894 21.4826 102.5 22.0235 101.084 22.1142C99.1606 22.2384 97.2718 21.5294 95.3479 21.3832C93.4241 21.237 91.2093 21.8846 90.3497 23.8217C90.1482 24.292 90.0257 24.7923 89.9872 25.3026V25.3026C89.9784 25.4005 89.9725 25.497 89.9682 25.5949V25.6052C89.9538 26.0007 89.9651 26.3967 90.0018 26.7908V26.8361C90.0018 26.915 90.0164 26.994 90.0252 27.0729C90.0252 27.0963 90.0252 27.1182 90.0325 27.1416C90.0325 27.2147 90.0486 27.2878 90.0573 27.3609L90.0661 27.4296C90.0778 27.5217 90.091 27.6138 90.1026 27.7059C90.1249 27.8956 90.1655 28.0826 90.224 28.2644C90.2599 28.3694 90.3122 28.4681 90.3789 28.5568C90.588 28.8228 90.9023 28.9018 91.2268 28.9515L91.4827 28.988C91.4564 29.0406 91.4286 29.0933 91.4037 29.1474C90.8236 30.3703 90.5239 31.7073 90.5266 33.0609C90.5266 37.66 93.9314 41.4726 98.3799 42.1656L98.6475 42.4989C100.288 44.5543 102.346 47.2983 103.326 49.2733C102.194 50.6782 100.87 53.1693 100.492 57.3474L99.9325 58.6543C98.7586 60.3428 98.4559 62.7784 98.7586 65.0443C98.4282 66.2694 98.051 67.8087 97.7893 69.0821C95.8435 68.6508 89.2021 67.5836 87.632 66.5471L83.0271 64.3777C83.0271 64.3777 77.0333 60.1908 73.8083 61.5884C72.5759 60.0738 70.7164 58.4877 69.9153 57.8883C68.5411 56.8577 65.1232 52.8316 65.1232 52.8316L59.7682 45.7238C59.7536 44.9008 59.6659 44.1976 59.4408 43.895C58.8092 43.05 55.4659 41.1744 54.7978 41.5794C54.1297 41.9843 53.5712 40.7022 53.5712 40.7022L53.5201 40.6744C53.3944 40.6013 53.0377 40.3996 52.5421 40.1335C52.516 39.5402 52.5307 38.9457 52.5859 38.3544C52.5962 38.255 52.6093 38.1556 52.6239 38.062C54.399 37.9979 56.1045 37.3557 57.481 36.2331C58.8574 35.1105 59.8295 33.569 60.2492 31.8431C60.2726 31.751 60.2887 31.656 60.3077 31.5624C60.5473 31.6181 60.7972 31.6113 61.0335 31.5427C61.2698 31.4741 61.4844 31.346 61.657 31.1706C62.1248 30.6677 62.1453 29.8944 61.9962 29.2278C61.8471 28.5611 61.5576 27.9223 61.4845 27.241C61.3924 26.3127 61.7199 25.3406 61.4187 24.4634C61.1658 23.7149 60.4992 23.1711 59.7887 22.8159C59.0782 22.4606 58.3005 22.253 57.5739 21.93C56.881 21.623 56.2363 21.2107 55.517 20.968C54.5843 20.6537 53.5815 20.642 52.5932 20.6654C51.9734 20.4154 51.3418 20.1771 50.6781 20.1026C49.9472 20.0193 49.1432 20.1611 48.5862 20.6479C48.1476 21.0367 47.7909 21.661 47.1959 21.6814C46.9035 21.6917 46.6404 21.5469 46.3802 21.4227C45.6419 21.0689 44.7077 20.8686 44.0411 21.3379C43.5061 21.7121 43.3102 22.4007 43.2181 23.0425C43.126 23.6842 43.1099 24.3582 42.8 24.9327C42.6085 25.2865 42.3175 25.5745 42.0763 25.8961C41.4658 26.7125 41.1779 27.7255 41.2679 28.741V28.7702C41.2328 28.624 41.1992 28.488 41.1743 28.3448C41.1743 28.453 41.1743 28.5597 41.189 28.6679C41.2525 29.1694 41.3616 29.6641 41.515 30.1458L42.1202 32.2656C42.4272 33.3416 42.7415 34.4336 43.3263 35.3911C43.5544 35.7684 43.83 36.1148 44.1464 36.4218C44.6447 36.945 45.2823 37.3148 45.984 37.4875C46.2304 37.5428 46.4841 37.5581 46.7354 37.5328C46.7354 37.5635 46.7281 37.5928 46.7222 37.6235C46.6682 37.6132 46.6126 37.6015 46.5614 37.5942C46.3239 37.5447 46.0782 37.5512 45.8436 37.6132C44.6887 38.024 44.3379 39.2739 44.2356 39.7651C44.2122 39.8909 44.2049 39.9669 44.2049 39.9669C44.2049 39.9669 44.2239 40.04 44.2458 40.1642L44.2356 40.2066C44.2122 40.3309 44.2049 40.4084 44.2049 40.4084C44.2049 40.4084 44.2239 40.4815 44.2458 40.6087L43.9446 40.616L38.9084 41.2738C37.7579 41.1949 36.6629 41.1759 36.0767 41.3162C36.0271 41.3272 35.9783 41.3413 35.9305 41.3586C35.1996 41.6115 31.8503 43.9228 28.8447 46.0498C28.8447 45.9914 28.8447 45.9343 28.8359 45.8788L27.9807 46.4869C27.9807 46.544 27.9807 46.6039 27.9807 46.6638C27.7673 46.81 27.5553 46.965 27.3506 47.1126C26.4311 47.7705 25.5963 48.364 24.975 48.8187C24.2178 49.3625 23.7485 49.706 23.7485 49.706C23.7485 49.706 23.4707 49.7967 23.2865 50.225C23.0497 50.7732 22.9678 51.8755 23.8231 54.045C25.3464 57.9058 25.6797 60.5168 25.6797 60.5168C25.2664 60.56 24.8608 60.6583 24.4736 60.8092C23.9459 61.0197 23.3947 61.3764 23.1652 61.9787C23.0179 62.3993 23.0143 62.8569 23.155 63.2798C23.8596 65.7796 35.5241 79.9747 35.5241 79.9747L35.6703 79.9878C36.2685 80.0405 36.8702 80.0405 37.4684 79.9878C38.0137 79.9308 38.5239 79.8007 38.7578 79.5259C38.7578 79.5259 41.3439 82.8458 45.1419 80.5843C45.1156 83.5958 45.0396 85.8047 45.5176 86.9172C46.2617 88.6452 46.2617 92.5792 46.2617 92.5792L46.9693 92.604C46.9313 92.7502 46.8889 92.8964 46.8436 93.0426C46.5176 94.12 46.0366 95.4226 45.5279 95.7339C44.6712 96.2602 45.0776 105.306 45.1127 106.087C45.1127 106.118 45.1127 106.134 45.1127 106.134L45.063 109.789V110.081C44.9568 109.938 44.8615 109.788 44.7779 109.631C44.7779 109.631 43.4008 110.946 43.376 113.724C43.3511 116.502 43.4008 116.595 43.4008 116.595C43.4008 116.595 48.956 116.38 49.9984 116.763C51.0407 117.146 59.758 116.43 59.758 116.43C59.758 116.43 60.0811 115.591 59.1513 114.946C60.6337 114.839 62.2505 114.556 63.1979 113.869C65.2811 112.365 58.9949 111.192 58.5563 110.954C58.1178 110.715 55.9454 108.799 55.0478 108.081C54.7765 107.883 54.4557 107.764 54.1209 107.736L54.2335 104.46C55.5711 102.953 57.0199 94.6419 57.0199 94.6419C57.4935 94.2472 57.6996 93.2867 57.7844 92.7005C57.9575 92.6431 58.1088 92.534 58.2178 92.3878C58.3268 92.2417 58.3884 92.0656 58.3941 91.8833V91.8833C59.9247 91.9345 61.85 91.9228 62.2198 91.5558C62.8514 90.9301 62.7768 88.7972 62.7768 88.7972L61.8851 66.2197L61.8266 66.1334C61.974 65.0999 61.977 64.0509 61.8354 63.0166C63.8382 63.5882 65.3966 63.9771 65.3966 63.9771C65.3966 63.9771 68.411 64.5326 70.5264 65.0004C70.1801 65.3682 69.9186 65.8073 69.7603 66.2869C67.8599 71.6959 78.6384 71.4723 78.6384 71.4723L83.7273 73.8259L95.7061 77.7409C91.8569 76.605 87.4595 75.2688 84.467 74.3522C84.1724 74.2621 83.8726 74.1893 83.5694 74.1344C80.824 73.6373 77.9718 74.6373 76.2234 76.8433C76.2029 76.8711 76.1839 76.8959 76.162 76.9222C75.7433 77.4669 75.51 78.1314 75.4963 78.8182C75.4827 79.5051 75.6893 80.1783 76.086 80.7392C76.5435 81.3869 77.1561 82.2479 77.8739 83.2493C76.355 83.7084 73.8419 84.9875 75.3696 88.2768C77.4865 92.8365 83.1689 95.4401 83.1689 95.4401C83.1689 95.4401 86.8835 96.5073 87.8469 97.6841C88.1174 98.0145 89.1627 98.7469 90.5295 99.6299C91.4067 100.558 92.0938 101.165 92.5016 101.299C94.1302 101.836 97.301 104.41 99.5319 106.341L99.1971 110.955L99.1752 111.233L99.0378 111.116C99.0378 111.116 98.051 113.163 95.1915 113.848C94.618 113.977 94.11 114.308 93.7603 114.781L93.7501 114.794L93.6653 114.917L93.601 114.869C93.0162 115.692 92.7443 116.891 94.9518 117.221C98.4062 117.736 102.261 117 102.261 117L105.706 113.816C106.088 114.138 106.538 114.371 107.021 114.499C109.596 115.084 116.826 117.882 116.826 117.882C116.826 117.097 123.216 106.998 123.216 106.998C131.841 90.6714 122.462 78.4704 121.425 77.2L121.333 77.0889L121.253 75.7322L121.235 75.4209C121.235 75.4209 125.89 73.3625 124.106 72.383C122.323 71.4036 121.329 66.6948 119.649 64.7344C118.333 63.2052 118.409 59.6557 118.271 56.6311C118.421 57.3779 118.745 58.0789 119.216 58.6777C119.227 58.6909 119.238 58.7011 119.249 58.7143L119.124 58.6061C119.155 58.6529 119.184 58.6938 119.216 58.7333ZM61.8617 57.479C62.4611 58.1237 63.5078 58.9482 64.2007 59.4715C63.3704 59.0666 62.7242 58.7245 62.2257 58.4482C62.1087 58.1237 61.9859 57.7991 61.8617 57.479V57.479ZM44.1303 42.1802C43.9871 42.6094 43.7262 42.9898 43.3774 43.2781L43.085 42.0165C43.4681 42.0779 43.8248 42.1349 44.1303 42.1802ZM102.559 76.8433C102.675 76.5948 102.795 76.3506 102.916 76.1123C103.429 75.9455 103.881 75.6313 104.216 75.2089C104.471 76.0932 104.659 76.9952 104.78 77.9075C104.78 77.9499 104.78 77.9733 104.78 77.9733C104.774 78.3412 104.718 78.7065 104.615 79.0595C104.48 79.4864 104.235 79.8884 103.789 79.9367C103.603 79.9557 102.69 79.7349 101.323 79.3621C100.927 79.254 100.491 79.1326 100.026 79.001C100.756 78.9528 101.77 78.542 102.559 76.8433ZM113.999 45.9972C113.725 45.5586 113.155 45.278 112.458 45.1128C112.331 45.028 112.133 44.8935 111.882 44.7107C110.654 43.8117 108.202 41.7869 107.078 39.2008C107.392 39.1135 107.698 39.0015 107.993 38.8661C108.453 38.6555 108.886 38.3931 109.286 38.0839C109.42 37.9787 109.552 37.8691 109.677 37.755C110 37.4644 110.293 37.1438 110.555 36.7975C110.658 36.6513 110.759 36.5124 110.847 36.3589C110.99 36.1339 111.12 35.9005 111.236 35.6601C111.502 35.0989 111.707 34.5108 111.848 33.9058C111.905 33.6632 111.955 33.4161 111.995 33.1676C112.034 32.9191 112.072 32.6691 112.1 32.4176C112.191 31.5304 112.225 30.6383 112.204 29.7467C112.204 29.7043 112.204 29.6605 112.204 29.6181C112.204 29.602 112.204 29.5859 112.204 29.5713C112.199 28.6675 112.101 27.7665 111.911 26.8829C111.977 26.9077 112.043 26.9326 112.106 26.9618C112.211 27.0136 112.312 27.0748 112.407 27.1446C112.383 27.1109 112.357 27.0773 112.332 27.0437C112.756 27.3185 113.072 27.7469 113.356 28.1737C114.655 30.1992 115.485 32.4895 115.784 34.8771C116.084 37.2647 115.845 39.689 115.087 41.9726C114.873 42.5998 114.617 43.224 114.56 43.8833C114.354 46.2384 116.607 48.0351 117.445 50.2484C117.864 51.358 117.93 52.5875 117.985 53.8038C117.354 50.7235 115.046 47.6916 114.003 46.0031L113.999 45.9972Z" fill="url(#paint0_linear_140_40)"/>
<path d="M58.1179 92.5675C58.1179 92.5675 58.0082 94.3948 57.3138 94.9796C57.3138 94.9796 55.8885 103.239 54.5728 104.738L54.3535 105.578L48.8713 104.957L49.9678 97.6476L50.9911 90.9228L58.1179 92.5675Z" fill="#FFC1C8"/>
<path opacity="0.03" d="M58.1179 92.5675C58.1179 92.5675 58.0082 94.3948 57.3138 94.9796C57.3138 94.9796 55.8885 103.239 54.5728 104.738L54.3535 105.578L48.8713 104.957L49.9678 97.6476L50.9911 90.9228L58.1179 92.5675Z" fill="black"/>
<path d="M52.2104 104.84L54.5728 104.736L54.4471 108.455L52.6387 109.667L49.3816 108.954L50.5701 103.983L52.2104 104.84Z" fill="#FF748F"/>
<path opacity="0.03" d="M52.2104 104.84L54.5728 104.736L54.4471 108.455L52.6387 109.667L49.3816 108.954L50.5701 103.983L52.2104 104.84Z" fill="black"/>
<path d="M52.6386 108.17C52.6386 108.17 54.4938 107.624 55.3739 108.337C56.2539 109.05 58.3941 110.952 58.8225 111.191C59.2508 111.429 65.4273 112.594 63.388 114.091C61.3486 115.588 56.1121 115.161 56.1121 115.161C56.1121 115.161 52.6869 114.161 52.5919 114.114C52.4968 114.068 50.399 113.044 50.3332 112.973C50.2674 112.901 50.9268 108.148 50.9268 108.148L52.6386 108.17Z" fill="#5D618C"/>
<path opacity="0.03" d="M52.6386 108.17C52.6386 108.17 54.4938 107.624 55.3739 108.337C56.2539 109.05 58.3941 110.952 58.8225 111.191C59.2508 111.429 65.4273 112.594 63.388 114.091C61.3486 115.588 56.1121 115.161 56.1121 115.161C56.1121 115.161 52.6869 114.161 52.5919 114.114C52.4968 114.068 50.399 113.044 50.3332 112.973C50.2674 112.901 50.9268 108.148 50.9268 108.148L52.6386 108.17Z" fill="black"/>
<path d="M47.2631 58.7611L47.1534 65.556L46.9049 80.0508L46.7587 80.1779C42.4096 83.9423 39.3396 79.9586 39.3396 79.9586C39.1086 80.232 38.6086 80.3621 38.0707 80.4177C37.4822 80.4704 36.8902 80.4704 36.3018 80.4177L36.1556 80.4045C36.1556 80.4045 24.6767 66.2869 23.9823 63.8017C23.8446 63.3814 23.8482 62.9275 23.9926 62.5094C24.2192 61.9159 24.7615 61.5621 25.2805 61.353C25.6612 61.2025 26.0605 61.1042 26.4676 61.0606C26.4676 61.0606 26.1386 58.4658 24.6402 54.6283C23.7981 52.472 23.88 51.377 24.1124 50.8273C24.2937 50.4019 24.5671 50.3113 24.5671 50.3113C24.5671 50.3113 25.0291 49.9707 25.7732 49.4342C26.3915 48.9824 27.2058 48.3918 28.1122 47.7383L28.9528 47.136C32.0535 44.911 35.7901 42.2913 36.5547 42.0194C36.6024 42.0019 36.6512 41.9878 36.7009 41.977C38.2695 41.5984 43.5338 42.3849 43.5338 42.3849L47.2631 58.7611Z" fill="#6C63FF"/>
<path opacity="0.1" d="M47.2632 58.761L47.1536 65.556C41.9536 64.0224 37.1191 53.8608 36.4817 53.0596C35.9364 52.3638 36.4963 44.6143 36.7025 41.9799C38.2711 41.6013 43.5354 42.3878 43.5354 42.3878L47.2632 58.761Z" fill="black"/>
<path d="M106.945 45.528C106.945 45.528 102.889 47.6112 102.377 55.7978C102.377 55.7978 101.719 59.9642 101.354 60.6952C100.988 61.4261 99.2338 68.3336 99.453 69.1742C99.453 69.1742 99.0876 70.0148 97.7353 69.6493C96.3831 69.2838 89.0736 68.1508 87.4289 67.0544L82.897 64.8981C82.897 64.8981 74.0526 58.6485 72.1886 64.021C70.3247 69.3934 80.9235 69.1771 80.9235 69.1771L85.9305 71.5161L101.098 76.5202C101.098 76.5202 103.108 77.4339 104.46 74.5101C105.325 72.6682 106.353 70.907 107.53 69.2473C107.53 69.2473 110.6 60.6221 110.563 59.1602C110.527 57.6983 113.853 54.2263 113.853 54.2263C113.853 54.2263 114.511 45.0163 109.102 45.199L106.945 45.528Z" fill="#FFC1C7"/>
<path opacity="0.03" d="M106.945 45.528C106.945 45.528 102.889 47.6112 102.377 55.7978C102.377 55.7978 101.719 59.9642 101.354 60.6952C100.988 61.4261 99.2338 68.3336 99.453 69.1742C99.453 69.1742 99.0876 70.0148 97.7353 69.6493C96.3831 69.2838 89.0736 68.1508 87.4289 67.0544L82.897 64.8981C82.897 64.8981 74.0526 58.6485 72.1886 64.021C70.3247 69.3934 80.9235 69.1771 80.9235 69.1771L85.9305 71.5161L101.098 76.5202C101.098 76.5202 103.108 77.4339 104.46 74.5101C105.325 72.6682 106.353 70.907 107.53 69.2473C107.53 69.2473 110.6 60.6221 110.563 59.1602C110.527 57.6983 113.853 54.2263 113.853 54.2263C113.853 54.2263 114.511 45.0163 109.102 45.199L106.945 45.528Z" fill="black"/>
<path d="M64.0384 52.6386C64.2577 52.8944 65.2811 53.4222 65.2811 53.4222C65.2811 53.4222 68.6434 57.4234 69.9957 58.4467C71.3479 59.47 75.7702 63.3806 74.8755 64.8615C73.9808 66.3424 72.975 66.012 72.975 66.012L65.0618 60.5299C65.0618 60.5299 62.2842 58.5388 61.7184 57.5886C61.1527 56.6383 60.4568 54.6487 60.4568 54.6487L64.0384 52.6386Z" fill="#FFC1C8"/>
<path opacity="0.03" d="M64.0384 52.6386C64.2577 52.8944 65.2811 53.4222 65.2811 53.4222C65.2811 53.4222 68.6434 57.4234 69.9957 58.4467C71.3479 59.47 75.7702 63.3806 74.8755 64.8615C73.9808 66.3424 72.975 66.012 72.975 66.012L65.0618 60.5299C65.0618 60.5299 62.2842 58.5388 61.7184 57.5886C61.1527 56.6383 60.4568 54.6487 60.4568 54.6487L64.0384 52.6386Z" fill="black"/>
<path d="M59.5987 45.8042L65.2811 53.4236L60.1644 55.4162L58.0447 49.0379L59.5987 45.8042Z" fill="#DCE6F2"/>
<path opacity="0.03" d="M59.5987 45.8042L65.2811 53.4236L60.1644 55.4162L58.0447 49.0379L59.5987 45.8042Z" fill="black"/>
<path d="M61.0781 65.2299L62.1015 66.7284L62.9786 89.1685C62.9786 89.1685 63.0517 91.2882 62.4304 91.9095C61.8091 92.5309 56.729 92.1288 56.729 92.1288C56.729 92.1288 56.9117 69.2501 56.9848 68.8116C57.0579 68.373 61.0781 65.2299 61.0781 65.2299Z" fill="#575988"/>
<path opacity="0.1" d="M61.0781 65.2299L62.1015 66.7284L62.9786 89.1685C62.9786 89.1685 63.0517 91.2882 62.4304 91.9095C61.8091 92.5309 56.729 92.1288 56.729 92.1288C56.729 92.1288 56.9117 69.2501 56.9848 68.8116C57.0579 68.373 61.0781 65.2299 61.0781 65.2299Z" fill="black"/>
<path d="M54.235 93.5967C53.9022 94.4149 53.5113 95.2083 53.0654 95.9708C53.0654 95.9708 52.1152 101.393 51.7103 101.893C51.4179 102.258 51.2834 104.986 51.2352 106.409C51.2176 106.923 51.2103 107.267 51.2103 107.267L45.6229 109.93L45.5981 106.41C45.5981 106.41 45.5981 106.394 45.5981 106.363C45.563 105.587 45.1595 96.5965 46.0059 96.0731C46.503 95.7647 46.9766 94.465 47.2968 93.3993C47.5409 92.5763 47.6944 91.8877 47.6944 91.8877C47.6944 91.8877 53.9016 91.4842 54.4192 92.1494C54.6092 92.3862 54.4776 92.9622 54.235 93.5967Z" fill="#FFC1C8"/>
<path opacity="0.1" d="M54.235 93.5967C51.7176 93.544 48.5629 93.4373 47.2881 93.392C47.5322 92.5689 47.6857 91.8804 47.6857 91.8804C47.6857 91.8804 53.893 91.4769 54.4105 92.142C54.6093 92.3862 54.4777 92.9622 54.235 93.5967Z" fill="black"/>
<path d="M46.8977 60.3326C46.8977 60.3326 45.18 69.4695 45.5089 75.3536C45.8378 81.2378 45.2531 85.584 45.984 87.3046C46.715 89.0253 46.715 92.933 46.715 92.933C46.715 92.933 56.6559 93.2984 57.6792 93.1522C58.7025 93.0061 58.666 92.2386 58.666 92.2386C58.666 92.2386 57.9716 86.1687 58.6294 84.2683C59.2873 82.3678 59.1777 76.5568 59.1777 76.5568L61.9553 67.2006C61.9553 67.2006 62.7959 62.9976 61.0416 61.2799C59.2873 59.5622 46.8977 60.3326 46.8977 60.3326Z" fill="#575988"/>
<path d="M105.885 108.612L105.447 109.255L102.735 113.29L100.433 113.984L98.7148 112.303L98.7982 111.194L99.2265 105.432C99.2265 105.432 88.5985 99.1797 87.6483 98.0101C86.698 96.8406 83.0433 95.7807 83.0433 95.7807C83.0433 95.7807 77.4515 93.1859 75.3683 88.654C73.2851 84.1221 78.8403 83.4277 78.8403 83.4277L99.7089 103.386L105.885 108.612Z" fill="#FFC1C7"/>
<path opacity="0.1" d="M105.454 109.254L102.742 113.288L100.44 113.983L98.7222 112.302L98.8055 111.192L100.696 112.813L104.241 108.683L105.454 109.254Z" fill="black"/>
<path d="M108.444 110.951L101.829 117.127C101.829 117.127 98.0277 117.858 94.6288 117.347C92.4564 117.019 92.8745 115.828 93.4461 115.008L93.4563 114.993C93.7987 114.524 94.2993 114.195 94.8656 114.066C97.6783 113.388 98.649 111.351 98.649 111.351L100.696 113.106L104.241 108.974L106.862 110.205L108.444 110.951Z" fill="#575988"/>
<path d="M108.443 111.021L101.828 117.2C101.828 117.2 98.0275 117.931 94.6285 117.42C92.4562 117.092 92.7281 115.901 93.2997 115.081C93.9569 115.602 94.7459 115.93 95.5788 116.03C97.4427 116.212 100.257 116.03 100.257 116.03L106.862 110.28L108.443 111.021Z" fill="white"/>
<path d="M53.83 36.9904C53.292 37.2594 53.045 38.0898 52.9456 39.0371C52.7774 40.654 53.0494 42.6012 53.0494 42.6012C53.0494 42.6012 45.7399 40.6028 46.5205 40.2125C46.9693 39.9888 47.2076 38.3602 47.3289 37.0197C47.4196 36.0285 47.4459 35.1938 47.4459 35.1938C47.4459 35.1938 55.2919 36.2595 53.83 36.9904Z" fill="#FFC1C8"/>
<path d="M112.014 45.8598C112.014 45.8598 103.144 54.2408 103.437 51.8053C103.478 51.4661 103.361 50.9969 103.13 50.4428C102.31 48.4663 100.042 45.3978 98.269 43.1538C96.9679 41.5077 95.9299 40.3045 95.9299 40.3045C95.9299 40.3045 106.945 31.0463 106.068 36.3092C105.885 37.5092 106.052 38.7365 106.549 39.844C107.647 42.4287 110.08 44.4622 111.294 45.3598C111.733 45.6829 112.014 45.8598 112.014 45.8598Z" fill="#FFC1C7"/>
<path opacity="0.1" d="M104.85 37.9158C104.691 38.1131 104.1 38.8061 103.925 38.9888C102.258 40.7241 102.036 43.2283 99.4412 43.2283C99.0501 43.2286 98.6595 43.2037 98.2717 43.1538C96.9706 41.5077 95.9326 40.3045 95.9326 40.3045C95.9326 40.3045 106.945 31.0463 106.068 36.3092C105.86 37.5576 104.387 36.8223 104.85 37.9158Z" fill="black"/>
<path d="M108.602 33.7743C108.602 35.5864 108.065 37.3579 107.058 38.8648C106.051 40.3716 104.621 41.5462 102.947 42.2398C101.272 42.9334 99.4301 43.1149 97.6528 42.7615C95.8755 42.408 94.2429 41.5354 92.9615 40.254C91.6801 38.9727 90.8075 37.3401 90.454 35.5627C90.1006 33.7854 90.2821 31.9432 90.9758 30.269C91.6694 28.5949 92.8439 27.164 94.3507 26.1574C95.8576 25.1508 97.6291 24.6137 99.4412 24.614C100.645 24.6094 101.839 24.8431 102.952 25.3018C104.066 25.7605 105.077 26.4351 105.929 27.2866C106.78 28.1382 107.455 29.1498 107.914 30.2633C108.372 31.3768 108.606 32.57 108.602 33.7743V33.7743Z" fill="#FFC1C7"/>
<path opacity="0.1" d="M112.014 45.8598C112.014 45.8598 103.144 54.2409 103.437 51.8053C103.478 51.4662 103.361 50.9969 103.13 50.4428L104.412 47.4196C105.983 46.0436 107.997 45.2806 110.085 45.2706C110.465 45.2703 110.845 45.2962 111.221 45.3481L111.294 45.3598C111.733 45.6829 112.014 45.8598 112.014 45.8598Z" fill="black"/>
<path d="M122.441 107.26C122.441 107.26 116.155 117.297 116.155 118.078C116.155 118.078 109.04 115.3 106.507 114.715C103.973 114.13 101.584 108.819 101.584 108.819C101.584 108.819 94.8598 102.484 92.2283 101.606C89.996 100.862 79.2686 85.7302 76.0729 81.1646C75.6817 80.6059 75.4782 79.9373 75.4919 79.2554C75.5055 78.5735 75.7356 77.9136 76.1489 77.371L76.2089 77.2935C77.0545 76.2295 78.1745 75.4165 79.4482 74.942C80.7218 74.4674 82.1008 74.3494 83.4365 74.6007C83.7329 74.6552 84.0258 74.7275 84.3136 74.8171C88.9157 76.2395 96.886 78.6838 100.906 79.7875C102.251 80.1574 103.15 80.3723 103.333 80.3591C103.771 80.3138 104.013 79.9206 104.146 79.4893C104.247 79.1384 104.302 78.7756 104.308 78.4104C104.308 78.4104 104.308 78.387 104.308 78.3446C104.185 77.4152 103.991 76.4964 103.729 75.5963C103.26 73.9882 102.447 72.1009 101.098 71.1989C99.9779 70.4518 99.0876 68.8043 98.6212 66.8892C97.9941 64.3031 98.1388 61.2258 99.5378 59.2113L100.89 56.0214L103.152 50.6855L104.412 47.712C105.983 46.336 107.997 45.573 110.085 45.563C110.465 45.5626 110.845 45.5885 111.221 45.6405C112.191 45.775 113.028 46.0659 113.378 46.639C114.449 48.3932 116.886 51.6094 117.373 54.8256C117.86 58.0418 117.277 63.3046 118.933 65.2548C120.589 67.205 121.564 71.8816 123.319 72.8567C125.073 73.8317 120.493 75.8769 120.493 75.8769L120.51 76.1854L120.589 77.5347C120.589 77.5347 120.621 77.5713 120.68 77.6444C121.7 78.9075 130.92 91.0339 122.441 107.26Z" fill="#FF6584"/>
<path d="M120.687 77.6444C118.766 78.0464 114.565 78.9221 112.691 79.3066L112.362 79.3738C112.252 79.3958 112.129 79.4162 111.996 79.4352C110.113 79.694 106.029 79.5668 104.159 79.4908C104.26 79.1399 104.315 78.7771 104.321 78.4119C104.321 78.4119 104.321 78.3885 104.321 78.3461C105.744 78.254 109.115 77.985 112.003 77.3915C112.239 77.3432 112.471 77.2921 112.698 77.2453C113.025 77.1693 113.344 77.0889 113.648 77.0041C116.239 76.2731 118.974 76.1766 120.519 76.1913L120.598 77.5406C120.598 77.5406 120.621 77.5713 120.687 77.6444Z" fill="#575988"/>
<path d="M112.683 77.2394V79.3066L112.354 79.3738C112.245 79.3958 112.122 79.4162 111.989 79.4352V77.3973C112.224 77.3432 112.457 77.2921 112.683 77.2394Z" fill="#FF6584"/>
<path opacity="0.1" d="M114.474 81.1983C114.474 81.1983 110.563 90.1524 108.188 91.0296C105.812 91.9067 99.8916 95.0132 99.8916 95.0132C99.8916 95.0132 103.291 98.0101 106.836 94.7209C110.381 91.4316 115.497 82.6602 114.474 81.1983Z" fill="black"/>
<path opacity="0.1" d="M118.75 79.9951C118.75 79.9951 119.115 83.394 118.604 84.0153C118.092 84.6366 118.75 79.9951 118.75 79.9951Z" fill="black"/>
<path opacity="0.1" d="M120.87 82.2216C120.87 82.2216 122.843 102.908 113.049 103.017C113.049 103.02 122.222 93.9168 120.87 82.2216Z" fill="black"/>
<path opacity="0.1" d="M123.355 87.1921C123.355 87.1921 126.169 98.0467 122.478 99.2894C122.478 99.2923 124.415 93.664 123.355 87.1921Z" fill="black"/>
<path opacity="0.1" d="M105.849 84.4144C105.666 84.4144 98.2469 85.6936 99.8549 86.7169C101.463 87.7402 105.849 84.4144 105.849 84.4144Z" fill="black"/>
<path opacity="0.1" d="M110.965 69.7618C110.965 69.7618 117.032 75.1343 115.863 75.7191Z" fill="black"/>
<path opacity="0.1" d="M110.454 71.4796C110.454 71.4796 113.962 75.7922 113.56 76.048Z" fill="black"/>
<path opacity="0.1" d="M117.946 70.8188C117.946 70.8188 119.554 72.8289 119.298 73.2675Z" fill="black"/>
<path opacity="0.1" d="M119.554 69.7618C119.554 69.7618 121.857 71.5498 121.345 72.2471Z" fill="black"/>
<path d="M106.763 47.9795C106.763 47.9795 114.255 48.5643 113.926 54.5946C113.597 60.6249 108.005 62.1599 108.005 62.1599L100.732 60.0767C100.732 60.0767 103.985 48.3815 106.763 47.9795Z" fill="#FFC1C7"/>
<path opacity="0.1" d="M84.3193 74.8171C88.9213 76.2395 96.8916 78.6838 100.912 79.7875C100.648 79.9218 100.36 79.9996 100.064 80.0159C99.7692 80.0323 99.4737 79.9869 99.197 79.8825L84.0298 74.8785L83.4363 74.6007C83.7347 74.655 84.0295 74.7273 84.3193 74.8171Z" fill="black"/>
<path opacity="0.1" d="M109.986 59.9116C109.274 60.8618 108.647 61.8851 108.67 62.5254C108.682 62.9859 108.378 64.1598 107.971 65.5501C106.925 69.0419 105.503 72.4102 103.732 75.5963C103.263 73.9882 102.45 72.1009 101.1 71.1989C99.9807 70.4519 99.0904 68.8043 98.624 66.8892C98.9793 65.5033 99.317 64.3382 99.4558 64.0604C99.8213 63.3295 100.479 59.1631 100.479 59.1631C100.541 58.1072 100.679 57.0573 100.893 56.0215C101.424 53.488 102.326 51.7819 103.154 50.6855C104.154 49.3523 105.055 48.8932 105.055 48.8932L107.211 48.5643C109.696 48.481 110.895 50.3712 111.473 52.4427C112.18 55.0171 111.588 57.7713 109.986 59.9116Z" fill="black"/>
<path d="M104.606 48.3055C104.606 48.3055 100.549 50.3887 100.038 58.5754C100.038 58.5754 99.3799 62.7418 99.0144 63.4727C98.6489 64.2037 96.8947 71.1111 97.1139 71.9517C97.1139 71.9517 96.7485 72.7923 95.3962 72.4269C94.044 72.0614 86.7345 70.9284 85.0898 69.832L80.5579 67.6757C80.5579 67.6757 71.7134 61.4261 69.8495 66.7985C67.9856 72.171 78.5844 71.9547 78.5844 71.9547L83.5914 74.2937L98.7586 79.2978C98.7586 79.2978 100.769 80.2115 102.121 77.2877C102.459 76.5567 102.82 75.8623 103.172 75.2308C104.996 71.981 106.458 68.5405 107.53 64.9712C107.944 63.5809 108.24 62.407 108.229 61.9465C108.213 61.3062 108.841 60.2814 109.544 59.3326C111.153 57.1924 111.737 54.4382 111.021 51.8623C110.444 49.7908 109.239 47.9006 106.76 47.9854L104.606 48.3055Z" fill="#FFC1C7"/>
<path opacity="0.1" d="M53.8302 36.9905C53.2922 37.2595 53.0451 38.0898 52.9457 39.0371C52.8507 39.0371 52.7557 39.0371 52.6607 39.0371C50.6952 39.0408 48.7973 38.3206 47.3291 37.0139C47.4197 36.0227 47.4461 35.1879 47.4461 35.1879C47.4461 35.1879 55.2921 36.2595 53.8302 36.9905Z" fill="black"/>
<path d="M60.701 30.7042C60.701 32.2945 60.2294 33.849 59.3459 35.1713C58.4625 36.4935 57.2067 37.5241 55.7375 38.1326C54.2683 38.7412 52.6516 38.9004 51.092 38.5902C49.5323 38.2799 48.0996 37.5142 46.9751 36.3897C45.8506 35.2652 45.0849 33.8325 44.7746 32.2729C44.4644 30.7132 44.6236 29.0965 45.2322 27.6273C45.8407 26.1581 46.8713 24.9024 48.1935 24.0189C49.5158 23.1354 51.0703 22.6638 52.6606 22.6638C54.7916 22.6684 56.834 23.517 58.3409 25.0239C59.8478 26.5308 60.6964 28.5732 60.701 30.7042V30.7042Z" fill="#FFC1C8"/>
<path opacity="0.1" d="M63.4172 62.1936C63.4172 62.1936 59.2143 63.8748 57.8986 64.4595C56.5829 65.0443 49.0541 63.6921 49.0541 63.6921C49.0541 63.6921 45.1435 61.7185 45.4724 59.7449C45.8014 57.7714 42.3293 51.3054 42.3293 51.3054C42.3293 51.3054 42.2197 45.5674 43.7547 44.471C45.2897 43.3746 44.7049 41.0721 44.7049 41.0721C44.7049 41.0721 44.7122 40.9961 44.7356 40.8718C44.8307 40.3835 45.1742 39.1409 46.313 38.733C46.5436 38.671 46.7856 38.6645 47.0191 38.714C48.1112 38.8792 49.9049 39.692 51.3887 40.442C52.6167 41.0633 53.6328 41.6408 53.8652 41.7753L53.9149 41.803C53.9149 41.803 54.4631 43.0822 55.121 42.6802C55.7788 42.2781 59.0681 44.1421 59.6894 44.9827C60.3107 45.8233 59.8721 49.7704 59.7625 50.7572C59.6529 51.7439 60.3838 54.6677 61.1878 56.346C61.9919 58.0243 63.4172 62.1936 63.4172 62.1936Z" fill="black"/>
<path d="M63.4172 61.755C63.4172 61.755 59.2143 63.4362 57.8986 64.0209C56.5829 64.6057 49.0541 63.2534 49.0541 63.2534C49.0541 63.2534 45.1435 61.2799 45.4724 59.3063C45.8014 57.3327 42.3293 50.8668 42.3293 50.8668C42.3293 50.8668 42.2197 45.1288 43.7547 44.0324C45.2897 42.936 44.7049 40.6335 44.7049 40.6335C44.7049 40.6335 44.7122 40.5574 44.7356 40.4332C44.8307 39.9449 45.1742 38.7023 46.313 38.2944C46.5436 38.2324 46.7856 38.2259 47.0191 38.2754C48.1112 38.4406 49.9049 39.2534 51.3887 40.0034C52.6167 40.6247 53.6328 41.2021 53.8652 41.3366L53.9149 41.3644C53.9149 41.3644 54.4631 42.6436 55.121 42.2416C55.7788 41.8395 59.0681 43.7035 59.6894 44.544C60.3107 45.3846 59.8721 49.3318 59.7625 50.3185C59.6529 51.3053 60.3838 54.2291 61.1878 55.9074C61.9919 57.5857 63.4172 61.755 63.4172 61.755Z" fill="#DCE6F2"/>
<path d="M49.8097 56.1413C49.8097 56.1413 46.2032 61.9889 45.6184 62.3061L45.8377 64.3528C45.8377 64.3528 50.9792 63.2798 51.2964 61.8427C51.6137 60.4057 51.4426 56.0682 51.4426 56.0682L49.8097 56.1413Z" fill="#575988"/>
<path opacity="0.2" d="M49.8097 56.1413C49.8097 56.1413 46.2032 61.9889 45.6184 62.3061L45.8377 64.3528C45.8377 64.3528 50.9792 63.2798 51.2964 61.8427C51.6137 60.4057 51.4426 56.0682 51.4426 56.0682L49.8097 56.1413Z" fill="black"/>
<path opacity="0.1" d="M54.884 48.6915C54.884 48.6915 55.5229 51.1592 56.5287 51.9997C57.5344 52.8403 54.884 48.6915 54.884 48.6915Z" fill="black"/>
<path d="M48.6155 55.1969C48.7076 55.3621 51.7951 59.5651 55.0478 61.1176C58.3006 62.6702 65.556 64.499 65.556 64.499C65.556 64.499 71.4401 65.5954 72.4444 66.015C73.4488 66.4345 74.7294 64.5531 68.4242 61.8676C62.119 59.1821 60.8954 57.9935 60.8954 57.9935C60.8954 57.9935 55.4133 55.3227 54.5362 54.007C53.659 52.6912 48.6155 55.1969 48.6155 55.1969Z" fill="#FFC1C8"/>
<path opacity="0.1" d="M50.918 75.643C51.0276 75.5699 53.659 72.7558 53.988 73.9618C54.3169 75.1679 50.918 75.643 50.918 75.643Z" fill="black"/>
<path opacity="0.1" d="M52.4529 70.0878C52.4163 70.1975 52.0508 73.304 50.991 73.6695Z" fill="black"/>
<path opacity="0.1" d="M53.5494 70.9313C53.5494 70.9313 52.5991 74.2571 51.3931 74.4735Z" fill="black"/>
<path opacity="0.1" d="M48.7251 80.906C48.7251 80.906 50.3332 80.9425 50.5525 79.919Z" fill="black"/>
<path opacity="0.1" d="M50.918 87.5605C51.1373 87.597 54.5727 89.7899 53.6956 90.2285C52.8184 90.667 50.918 87.5605 50.918 87.5605Z" fill="black"/>
<path opacity="0.1" d="M51.2294 106.071V106.409C51.2118 106.923 51.2045 107.267 51.2045 107.267L45.6171 109.93L45.5923 106.41C45.5923 106.41 45.5923 106.394 45.5923 106.363V106.125L47.829 106.197L51.2294 106.071Z" fill="black"/>
<path d="M52.2747 111.189L47.6142 112.973L45.5222 111.736L45.5441 110.043L45.5924 106.409L47.8291 106.48L51.2295 106.362V108.907L52.2747 111.189Z" fill="#FF748F"/>
<path opacity="0.1" d="M52.2701 111.191L47.6096 112.974L45.5176 111.737L45.5395 110.044C45.843 110.442 46.2309 110.768 46.6753 110.998C47.1197 111.228 47.6095 111.357 48.1095 111.375C48.1095 111.375 49.7498 109.328 50.7483 108.735C50.8192 108.692 50.898 108.665 50.9799 108.653C51.0619 108.642 51.1452 108.648 51.2248 108.67V108.909L52.2701 111.191Z" fill="black"/>
<path d="M48.1139 111.666C48.1139 111.666 46.2134 111.691 45.2603 109.882C45.2603 109.882 43.9051 111.191 43.8802 113.949C43.8554 116.708 43.9051 116.803 43.9051 116.803C43.9051 116.803 49.3741 116.589 50.3974 116.97C51.4207 117.35 60.005 116.636 60.005 116.636C60.005 116.636 60.5751 115.138 57.9832 114.614C55.3912 114.091 53.251 111.332 53.1794 111.214C53.1078 111.096 51.7526 108.436 50.7541 109.021C49.7556 109.606 48.1139 111.666 48.1139 111.666Z" fill="#5D618C"/>
<path opacity="0.1" d="M53.1547 21.8218L52.6094 21.7473L52.95 21.7385L53.1547 21.8218Z" fill="black"/>
<path opacity="0.1" d="M60.701 30.7043C60.7013 31.3279 60.6292 31.9495 60.4861 32.5565C60.3641 32.525 60.2473 32.4757 60.1396 32.4103C59.9832 32.3094 59.8268 32.1705 59.6426 32.1866C59.5346 32.2036 59.4334 32.2501 59.3502 32.3211C58.4848 32.9541 57.8415 33.995 56.789 34.1967C56.8944 33.8886 56.9086 33.5566 56.8299 33.2406C56.6067 33.4651 56.3328 33.6327 56.0314 33.7294C55.7299 33.8261 55.4097 33.849 55.0975 33.7962C55.1736 33.6136 55.1824 33.41 55.1224 33.2216C54.3812 33.6368 53.6095 33.995 52.8141 34.2932C52.7863 34.147 52.76 34.0125 52.7322 33.8722C51.6124 34.4189 51.7001 36.2741 50.5803 36.8208C49.9136 37.1468 48.9722 36.9129 48.5117 37.5006C48.4941 37.524 48.4781 37.5474 48.462 37.5723C47.2654 36.8403 46.2812 35.8081 45.6069 34.5781C44.9327 33.3481 44.592 31.9631 44.6186 30.5607C44.6453 29.1583 45.0383 27.7872 45.7587 26.5837C46.4791 25.3802 47.5019 24.386 48.7253 23.7C49.9488 23.014 51.3305 22.66 52.7331 22.6732C54.1357 22.6864 55.5104 23.0662 56.7208 23.7751C57.9312 24.4839 58.9351 25.497 59.6328 26.7139C60.3305 27.9307 60.6978 29.3089 60.6981 30.7116L60.701 30.7043Z" fill="black"/>
<path d="M53.1545 21.5279C52.4791 21.2487 51.7935 20.968 51.0669 20.8847C50.3404 20.8014 49.5568 20.9432 49.0086 21.4271C48.57 21.813 48.2265 22.4328 47.6417 22.4504C47.3566 22.4606 47.0935 22.3174 46.8377 22.1931C46.1067 21.8422 45.193 21.6434 44.5337 22.1083C44.0074 22.4811 43.8101 23.1653 43.7238 23.8041C43.6376 24.443 43.6171 25.1198 43.313 25.6826C43.1244 26.0335 42.8379 26.32 42.6011 26.6402C41.9991 27.4537 41.7162 28.4595 41.8058 29.4675C41.8669 29.966 41.9735 30.4578 42.1245 30.9367L42.721 33.0433C43.0236 34.1134 43.332 35.1981 43.908 36.1498C44.484 37.1015 45.3699 37.9202 46.4517 38.1658C47.1037 38.312 47.8932 38.1921 48.2586 37.6322C48.3522 37.486 48.4121 37.3296 48.5145 37.1936C48.9676 36.6089 49.9164 36.8413 50.583 36.5153C51.7029 35.9686 51.6151 34.1134 52.735 33.5667L52.8183 33.9862C53.6129 33.6876 54.384 33.3299 55.1252 32.9161C55.1849 33.1045 55.1766 33.3078 55.1018 33.4907C55.4137 33.5427 55.7335 33.5194 56.0346 33.4228C56.3357 33.3262 56.6093 33.159 56.8327 32.9351C56.9114 33.2511 56.8972 33.5831 56.7917 33.8912C57.8443 33.688 58.4875 32.6471 59.353 32.0141C59.4366 31.9442 59.5377 31.8982 59.6454 31.8811C59.831 31.865 59.986 32.0039 60.1424 32.1033C60.4133 32.2678 60.732 32.3355 61.0464 32.2954C61.3608 32.2553 61.6523 32.1098 61.8733 31.8826C62.3338 31.3826 62.3543 30.6136 62.2066 29.9499C62.059 29.2862 61.768 28.6532 61.7052 27.9764C61.6131 27.0539 61.9347 26.0905 61.6394 25.2134C61.3894 24.4693 60.7345 23.9298 60.0313 23.5761C59.3281 23.2223 58.5694 23.0161 57.8516 22.6989C57.1704 22.3934 56.5359 21.984 55.8283 21.7428C54.805 21.3934 53.6925 21.4212 52.6122 21.4505" fill="#794F6A"/>
<path d="M53.2936 48.7587C53.2936 48.7587 54.4631 40.8893 44.4491 41.2782L39.4055 41.9492C39.4055 41.9492 44.2166 42.8146 45.3745 42.9418L45.4973 42.9594C46.5688 43.1553 50.2733 42.9111 53.2936 48.7587Z" fill="#6C63FF"/>
<path opacity="0.1" d="M46.8977 80.1413V80.0507C51.0042 76.4996 46.8977 80.1413 46.8977 80.1413Z" fill="black"/>
<path d="M38.0635 80.4176C37.475 80.4703 36.883 80.4703 36.2946 80.4176L23.9927 62.5123C24.2193 61.9188 24.7616 61.565 25.2806 61.356L38.0635 80.4176Z" fill="#575988"/>
<path d="M30.0859 61.2463L29.5011 61.9407C29.5011 61.9407 25.0657 54.5727 24.1125 50.8302C24.2938 50.4048 24.5672 50.3142 24.5672 50.3142C24.5672 50.3142 25.0292 49.9736 25.7733 49.4371C26.0496 51.1972 26.9925 55.501 30.0859 61.2463Z" fill="#575988"/>
<path d="M33.3386 58.9774L32.1691 59.6353C28.9763 55.8987 28.7043 49.6213 28.7336 47.12L29.5756 46.5147C29.6897 49.7996 33.3386 58.9774 33.3386 58.9774Z" fill="#575988"/>
<path opacity="0.1" d="M36.4086 58.3224C36.3721 58.7976 35.0198 63.6218 36.9934 64.4259C38.967 65.2299 36.4086 58.3224 36.4086 58.3224Z" fill="black"/>
<path opacity="0.1" d="M40.6479 66.6187C40.721 66.8746 41.3789 75.2074 42.8042 74.5495C44.2296 73.8917 43.4621 64.3893 43.4621 64.3893L40.6479 66.6187Z" fill="black"/>
<path opacity="0.1" d="M108.602 33.7742C108.605 36.1405 107.688 38.4153 106.046 40.1189C105.377 40.2606 104.687 40.2725 104.014 40.154C103.67 40.1104 103.343 39.979 103.064 39.7724C102.795 39.5248 102.585 39.2207 102.448 38.8821C101.915 37.7345 101.641 36.4086 100.893 35.4262C100.144 34.4438 98.6256 34.0125 97.9034 35.0198C97.5101 35.5665 97.4443 36.4071 96.9195 36.7858C96.2894 37.2419 95.4576 36.7054 94.9679 36.0548C93.5206 34.1543 94.0162 30.4177 91.2561 29.8929L91.145 29.8739C92.0301 27.9867 93.5323 26.4577 95.4035 25.5393C97.2748 24.621 99.4033 24.3682 101.438 24.8228C103.472 25.2773 105.29 26.4119 106.593 28.0394C107.895 29.6668 108.604 31.6898 108.602 33.7742V33.7742Z" fill="black"/>
<path d="M91.4024 29.757C90.9551 29.6707 90.4361 29.6824 90.1364 29.2965C89.9595 29.0684 89.9084 28.7527 89.866 28.453C89.6862 27.1577 89.5882 25.7675 90.1043 24.5936C90.9507 22.6682 93.1289 22.025 95.0221 22.1683C96.9152 22.3115 98.7733 23.0176 100.666 22.8992C102.058 22.8086 103.431 22.2706 104.818 22.4241C105.916 22.5469 106.939 23.0922 107.926 23.6492C108.85 24.1696 109.795 24.7295 110.449 25.633C111.411 26.956 111.593 28.7834 111.619 30.4982C111.651 32.5112 111.509 34.6017 110.664 36.3735C109.439 38.945 106.707 40.4756 104.16 40.0151C103.816 39.9715 103.489 39.8401 103.21 39.6336C102.943 39.3855 102.733 39.0815 102.596 38.7433C102.061 37.5942 101.788 36.2697 101.039 35.2859C100.291 34.302 98.7719 33.8737 98.0497 34.8809C97.6564 35.4262 97.5906 36.2683 97.0658 36.6469C96.4357 37.1016 95.6039 36.565 95.1142 35.916C93.6669 34.014 94.1625 30.2803 91.4024 29.757Z" fill="#945B79"/>
<path d="M113.649 25.5072C115.043 26.1724 116.009 27.4676 116.917 28.7146C117.673 29.7511 118.455 30.8592 118.554 32.1369C118.593 32.6603 118.516 33.1924 118.615 33.707C118.965 35.5241 121.247 36.3384 121.913 38.0693C122.223 38.885 122.125 39.7929 121.989 40.6554C121.794 41.9031 121.531 43.1392 121.202 44.3584C121.004 45.0894 120.78 45.8495 120.931 46.5922C121.047 47.1682 121.37 47.674 121.627 48.2003C122.298 49.6198 122.413 51.2293 122.465 52.7979C122.516 54.3666 122.514 55.963 122.984 57.4599C123.453 58.9569 124.488 60.3721 125.98 60.8559C125.479 61.1977 124.898 61.4042 124.293 61.4553C124.204 61.9451 124.483 62.4436 124.878 62.7535C125.273 63.0634 125.755 63.2242 126.226 63.3777C125.905 63.6044 125.535 63.7535 125.147 63.8134C124.758 63.8733 124.361 63.8422 123.986 63.7227C123.362 63.5181 122.846 63.0795 122.348 62.6497L119.545 60.239C119.171 59.9359 118.825 59.5993 118.512 59.2332C116.699 56.9804 117.781 53.5669 116.769 50.8609C115.945 48.6608 113.728 46.8743 113.932 44.5338C113.987 43.8789 114.239 43.2591 114.449 42.6334C115.196 40.3633 115.43 37.9561 115.136 35.5846C114.841 33.2131 114.025 30.9363 112.746 28.9178C112.426 28.4208 112.054 27.9208 111.521 27.665C110.709 27.2776 109.55 27.4442 109.09 26.6709C108.846 26.263 108.797 25.5452 108.775 25.0876C110.264 24.747 112.258 24.842 113.649 25.5072Z" fill="#945B79"/>
<path opacity="0.1" d="M42.4565 50.2586C43.1407 45.7618 48.7617 44.1377 51.7454 47.5746C52.608 48.5716 53.3725 49.6637 53.8053 50.7557C55.2672 54.447 55.3768 54.7759 55.3768 54.7759C55.3768 54.7759 46.3496 56.5302 46.4227 57.8459L42.3293 51.3039C42.3293 51.3039 42.36 50.8946 42.4565 50.2586Z" fill="black"/>
<path d="M42.4565 49.8201C43.1407 45.3233 48.7617 43.6991 51.7454 47.1361C52.608 48.1331 53.3725 49.2251 53.8053 50.3171C55.2672 54.0084 55.3768 54.3374 55.3768 54.3374C55.3768 54.3374 46.3496 56.0917 46.4227 57.4074L42.3293 50.8654C42.3293 50.8654 42.36 50.456 42.4565 49.8201Z" fill="#DCE6F2"/>
<path opacity="0.1" d="M44.9973 44.0499C45.107 44.2327 49.4196 49.4955 51.6855 50.2455C53.9515 50.9954 44.9973 44.0499 44.9973 44.0499Z" fill="black"/>
<path opacity="0.1" d="M26.4675 61.0635C26.4675 61.0635 37.8703 74.513 39.3322 79.9586Z" fill="black"/>
<path opacity="0.1" d="M26.9062 48.6374C26.9062 48.6374 29.3915 61.5021 34.2157 66.9112C39.04 72.3202 44.0105 81.5302 44.0105 81.5302" stroke="black" stroke-width="2" stroke-miterlimit="10"/>
<g opacity="0.1">
<path opacity="0.1" d="M62.1395 29.9207C62.1493 30.3483 62.0015 30.7645 61.7243 31.0902C61.5033 31.3174 61.2118 31.463 60.8974 31.5031C60.583 31.5432 60.2643 31.4754 59.9934 31.3109C59.837 31.2115 59.682 31.0727 59.4963 31.0887C59.3887 31.1059 59.2876 31.1518 59.204 31.2218C58.3809 31.8241 57.7582 32.7948 56.7918 33.0623C56.826 33.3206 56.8 33.5833 56.7158 33.8298C57.7684 33.6266 58.4116 32.5857 59.2771 31.9527C59.3607 31.8828 59.4618 31.8368 59.5694 31.8197C59.7551 31.8036 59.9101 31.9425 60.0665 32.0419C60.3374 32.2064 60.6561 32.2741 60.9705 32.234C61.2849 32.1939 61.5764 32.0484 61.7974 31.8212C62.2491 31.3241 62.2769 30.5756 62.1395 29.9207Z" fill="black"/>
<path opacity="0.1" d="M61.5563 27.1782C61.568 27.298 61.5885 27.4165 61.6119 27.5349C61.6119 26.8039 61.7858 26.0437 61.6119 25.342C61.6148 25.9385 61.495 26.57 61.5563 27.1782Z" fill="black"/>
<path opacity="0.1" d="M56.6866 32.1369C56.4633 32.3608 56.1897 32.528 55.8886 32.6246C55.5875 32.7212 55.2677 32.7445 54.9558 32.6924C55.0306 32.5096 55.0389 32.3063 54.9791 32.1179C54.238 32.5317 53.4669 32.8894 52.6723 33.188L52.5889 32.7685C51.4691 33.3152 51.5568 35.1704 50.437 35.7171C49.7704 36.0431 48.8289 35.8078 48.3684 36.3954C48.2661 36.5285 48.2062 36.6878 48.1126 36.834C47.7471 37.3939 46.9577 37.5152 46.3057 37.3676C45.221 37.122 44.3365 36.3033 43.762 35.3516C43.1875 34.3999 42.8775 33.3152 42.5749 32.2451L41.9785 30.1385C41.8805 29.7876 41.7811 29.4368 41.7168 29.0786C41.7168 29.1868 41.7168 29.2935 41.7329 29.4002C41.7939 29.8987 41.9006 30.3905 42.0516 30.8695L42.648 32.9761C42.9506 34.0462 43.2591 35.1309 43.8351 36.0826C44.4111 37.0343 45.297 37.8529 46.3788 38.0985C47.0308 38.2447 47.8202 38.1249 48.1857 37.565C48.2793 37.4188 48.3392 37.2623 48.4415 37.1264C48.8947 36.5416 49.8435 36.7741 50.5101 36.4481C51.6299 35.9013 51.5422 34.0462 52.662 33.4994L52.7454 33.919C53.5385 33.6201 54.3081 33.2624 55.0479 32.8489C55.1076 33.0372 55.0993 33.2405 55.0245 33.4234C55.3211 33.4725 55.625 33.4535 55.9132 33.3679C56.2014 33.2823 56.4664 33.1323 56.6881 32.9293C56.7505 32.6688 56.75 32.3972 56.6866 32.1369V32.1369Z" fill="black"/>
</g>
<path opacity="0.1" d="M53.8652 41.7753C53.0787 42.2284 51.2513 43.2372 50.8814 43.0647C50.4867 42.8819 46.18 41.3747 44.7415 40.8718C44.8365 40.3835 45.18 39.1409 46.3188 38.733C46.5494 38.671 46.7914 38.6645 47.0249 38.714L51.3931 40.442C52.6167 41.0633 53.6327 41.6408 53.8652 41.7753Z" fill="black"/>
<path d="M53.8652 41.3366C53.0787 41.7898 51.2513 42.7985 50.8814 42.626C50.4867 42.4433 46.18 40.9361 44.7415 40.4332C44.8365 39.9449 45.18 38.7023 46.3188 38.2944C46.5494 38.2324 46.7914 38.2259 47.0249 38.2754L51.3931 40.0034C52.6167 40.6247 53.6327 41.2021 53.8652 41.3366Z" fill="#DCE6F2"/>
<path opacity="0.1" d="M111.623 30.3241C111.581 31.9717 111.357 33.6193 110.672 35.0592C109.447 37.6307 106.714 39.1613 104.168 38.7008C103.824 38.6572 103.496 38.5258 103.218 38.3193C102.95 38.0712 102.74 37.7672 102.604 37.429C102.069 36.2799 101.795 34.9554 101.047 33.9716C100.298 32.9877 98.7792 32.5594 98.0571 33.5666C97.6638 34.1119 97.598 34.954 97.0732 35.3326C96.4431 35.7873 95.6113 35.2508 95.1216 34.6017C93.6743 32.7012 94.1699 28.9631 91.4098 28.4398C90.9625 28.3535 90.4435 28.3652 90.1438 27.9793C89.9669 27.7512 89.9157 27.4354 89.8733 27.1357C89.8236 26.7834 89.7812 26.4238 89.7564 26.0627C89.7056 26.8608 89.7448 27.6621 89.8733 28.4515C89.9157 28.7511 89.9669 29.0669 90.1438 29.295C90.4435 29.6809 90.9625 29.6692 91.4098 29.7555C94.1699 30.2788 93.6743 34.0125 95.1216 35.9174C95.6098 36.5592 96.4373 37.0957 97.0732 36.6483C97.598 36.2697 97.658 35.4276 98.0571 34.8824C98.7792 33.8751 100.298 34.3049 101.047 35.2873C101.795 36.2697 102.07 37.5956 102.604 38.7447C102.74 39.0829 102.95 39.3869 103.218 39.635C103.496 39.8415 103.824 39.9729 104.168 40.0165C106.714 40.477 109.447 38.9464 110.672 36.375C111.517 34.6031 111.659 32.5126 111.626 30.4996C111.623 30.4353 111.623 30.3768 111.623 30.3241Z" fill="black"/>
<g opacity="0.1">
<path opacity="0.1" d="M121.183 37.3412C121.493 38.157 121.395 39.0648 121.259 39.9273C121.063 41.174 120.8 42.4092 120.471 43.6274C120.273 44.3584 120.05 45.1186 120.2 45.8612C120.316 46.4372 120.639 46.943 120.896 47.4693C121.567 48.8888 121.683 50.4984 121.734 52.067C121.785 53.6356 121.784 55.232 122.253 56.729C122.557 57.7492 123.138 58.6651 123.931 59.375C123.512 58.8135 123.192 58.1846 122.984 57.5155C122.514 56.0185 122.514 54.4221 122.465 52.8535C122.415 51.2849 122.298 49.6753 121.627 48.2573C121.376 47.7266 121.042 47.2208 120.931 46.6492C120.785 45.9065 121.004 45.1449 121.202 44.4139C121.531 43.1924 121.794 41.9538 121.99 40.7036C122.126 39.8411 122.224 38.9318 121.914 38.1161C121.664 37.4626 121.183 36.9465 120.661 36.4451C120.879 36.7155 121.055 37.0177 121.183 37.3412V37.3412Z" fill="black"/>
<path opacity="0.1" d="M125.981 60.9144C125.59 60.7851 125.223 60.5936 124.893 60.3471C124.479 60.5622 124.027 60.6934 123.563 60.7331C123.474 61.2228 123.753 61.7213 124.148 62.0313C124.226 62.0944 124.309 62.1516 124.396 62.2023C124.294 61.988 124.26 61.7479 124.298 61.5137C124.901 61.4605 125.48 61.2542 125.981 60.9144V60.9144Z" fill="black"/>
<path opacity="0.1" d="M110.786 26.9457C110.229 26.6796 109.508 26.6738 108.961 26.4472C108.992 26.5488 109.034 26.6468 109.085 26.7396C109.546 27.5114 110.705 27.3448 111.517 27.7336C111.619 27.7851 111.717 27.8452 111.809 27.9135C111.555 27.5093 111.203 27.1763 110.786 26.9457V26.9457Z" fill="black"/>
<path opacity="0.1" d="M125.019 62.9245C124.459 63.1632 123.831 63.1928 123.251 63.0078C122.627 62.8031 122.111 62.3646 121.612 61.9348L118.81 59.5241C118.677 59.4101 118.545 59.2946 118.417 59.1776C118.446 59.2171 118.475 59.258 118.507 59.2975C118.82 59.6639 119.166 60.0006 119.541 60.3033L122.343 62.7154C122.842 63.1437 123.358 63.5838 123.982 63.7884C124.357 63.9077 124.754 63.9385 125.143 63.8784C125.531 63.8183 125.901 63.6689 126.222 63.442C125.799 63.326 125.394 63.1519 125.019 62.9245Z" fill="black"/>
<path opacity="0.1" d="M116.186 27.9851C116.942 29.0216 117.724 30.1297 117.823 31.4074C117.863 31.9308 117.785 32.4629 117.885 32.9775C118.042 33.8005 118.599 34.4189 119.222 35.0081C118.921 34.647 118.713 34.2179 118.615 33.7581C118.516 33.2421 118.594 32.7099 118.554 32.1866C118.455 30.9089 117.677 29.8008 116.917 28.7657C116.367 28.0099 115.794 27.2381 115.12 26.5977C115.496 27.0422 115.845 27.5158 116.186 27.9851Z" fill="black"/>
</g>
<path opacity="0.1" d="M109.773 24.9546C109.773 24.9546 108.895 26.4165 111.381 27.6343L111.527 27.244L109.773 24.9546Z" fill="black"/>
<path d="M109.627 24.9546C109.627 24.9546 108.749 26.4165 111.235 27.6343L111.381 27.244L109.627 24.9546Z" fill="#FF6584"/>
<path d="M144.231 107.697C144.231 107.697 145.035 108.748 143.861 110.328C142.687 111.908 141.719 113.252 142.107 114.242C142.107 114.242 143.879 111.296 145.323 111.255C146.767 111.214 145.817 109.469 144.231 107.697Z" fill="#6C63FF"/>
<path opacity="0.1" d="M144.231 107.697C144.301 107.798 144.357 107.909 144.396 108.026C145.803 109.679 146.551 111.221 145.199 111.259C143.94 111.296 142.43 113.547 142.067 114.116C142.079 114.16 142.094 114.202 142.11 114.246C142.11 114.246 143.882 111.3 145.326 111.259C146.77 111.218 145.817 109.469 144.231 107.697Z" fill="black"/>
<path d="M145.725 109.036C145.725 109.406 145.683 109.705 145.632 109.705C145.58 109.705 145.54 109.413 145.54 109.036C145.54 108.659 145.591 108.84 145.642 108.84C145.693 108.84 145.725 108.666 145.725 109.036Z" fill="#FFD037"/>
<path d="M146.237 109.477C145.912 109.654 145.628 109.761 145.605 109.716C145.582 109.67 145.823 109.49 146.147 109.314C146.472 109.137 146.345 109.265 146.37 109.314C146.395 109.362 146.563 109.3 146.237 109.477Z" fill="#FFD037"/>
<path d="M139.984 107.697C139.984 107.697 139.18 108.748 140.354 110.328C141.528 111.908 142.496 113.252 142.108 114.242C142.108 114.242 140.338 111.296 138.892 111.255C137.446 111.214 138.404 109.469 139.984 107.697Z" fill="#6C63FF"/>
<path opacity="0.1" d="M139.984 107.697C139.914 107.798 139.858 107.909 139.819 108.026C138.413 109.679 137.664 111.221 139.016 111.259C140.275 111.296 141.785 113.547 142.148 114.116C142.136 114.16 142.121 114.204 142.104 114.246C142.104 114.246 140.333 111.3 138.888 111.259C137.442 111.218 138.404 109.469 139.984 107.697Z" fill="black"/>
<path d="M138.496 109.036C138.496 109.406 138.538 109.705 138.589 109.705C138.641 109.705 138.682 109.413 138.682 109.036C138.682 108.659 138.63 108.84 138.579 108.84C138.528 108.84 138.496 108.666 138.496 109.036Z" fill="#FFD037"/>
<path d="M137.984 109.477C138.309 109.654 138.591 109.761 138.616 109.716C138.641 109.67 138.398 109.49 138.073 109.314C137.749 109.137 137.876 109.265 137.851 109.314C137.826 109.362 137.66 109.3 137.984 109.477Z" fill="#FFD037"/>
<path d="M138.752 114.109C138.752 114.109 140.997 114.038 141.676 113.557C142.354 113.076 145.13 112.499 145.298 113.265C145.466 114.031 148.672 117.108 146.137 117.129C143.602 117.149 140.247 116.734 139.572 116.323C138.896 115.913 138.752 114.109 138.752 114.109Z" fill="#A8A8A8"/>
<path opacity="0.2" d="M146.181 116.869C143.646 116.889 140.291 116.474 139.616 116.063C139.101 115.749 138.896 114.625 138.828 114.107H138.752C138.752 114.107 138.898 115.918 139.57 116.331C140.243 116.743 143.601 117.157 146.136 117.136C146.867 117.136 147.12 116.87 147.106 116.484C147.001 116.722 146.725 116.869 146.181 116.869Z" fill="black"/>
<path d="M38.3954 111.531C38.6638 111.313 38.8596 111.018 38.9568 110.686C39.0284 110.35 38.8852 109.947 38.565 109.824C38.2054 109.686 37.8209 109.936 37.53 110.188C37.2391 110.439 36.9043 110.727 36.5227 110.673C36.719 110.495 36.8658 110.27 36.9488 110.019C37.0318 109.767 37.0482 109.499 36.9964 109.239C36.9798 109.131 36.9343 109.03 36.8648 108.947C36.666 108.733 36.3035 108.825 36.0637 108.993C35.3035 109.527 35.0915 110.561 35.0886 111.489C35.0111 111.154 35.0755 110.805 35.074 110.466C35.0725 110.126 34.9775 109.735 34.6881 109.556C34.5093 109.457 34.3076 109.407 34.1033 109.41C33.7612 109.397 33.3811 109.432 33.1472 109.682C32.8548 109.992 32.9323 110.514 33.1852 110.851C33.4381 111.189 33.8211 111.408 34.1735 111.644C34.457 111.812 34.6989 112.043 34.881 112.318C34.9023 112.356 34.9199 112.397 34.9337 112.439H37.0666C37.5485 112.198 37.9956 111.893 38.3954 111.531V111.531Z" fill="#6C63FF"/>
<path d="M21.3744 113.837C21.3744 113.837 19.3278 106.863 21.7589 101.729C22.7954 99.5827 23.1083 97.1581 22.6507 94.8188C22.4235 93.71 22.0957 92.6241 21.6712 91.5749" stroke="#535461" stroke-width="2" stroke-miterlimit="10"/>
<path d="M23.1901 88.3309C23.1901 89.1846 21.6419 91.664 21.6419 91.664C21.6419 91.664 20.0938 89.1788 20.0938 88.3309C20.0938 87.9203 20.2569 87.5265 20.5472 87.2362C20.8375 86.9458 21.2313 86.7827 21.6419 86.7827C22.0525 86.7827 22.4463 86.9458 22.7366 87.2362C23.0269 87.5265 23.1901 87.9203 23.1901 88.3309V88.3309Z" fill="#6C63FF"/>
<path d="M25.7484 93.0645C25.2835 93.7823 22.6375 95.022 22.6375 95.022C22.6375 95.022 22.6842 92.0982 23.1491 91.3834C23.3763 91.0484 23.7256 90.8157 24.1223 90.7352C24.5189 90.6546 24.9313 90.7326 25.2712 90.9524C25.611 91.1722 25.8513 91.5164 25.9405 91.9112C26.0297 92.3059 25.9607 92.72 25.7484 93.0645V93.0645Z" fill="#6C63FF"/>
<path d="M25.6357 101.156C24.8726 101.541 21.9619 101.275 21.9619 101.275C21.9619 101.275 23.4794 98.7777 24.2425 98.3917C24.4245 98.2953 24.6239 98.2362 24.829 98.2179C25.0341 98.1995 25.2408 98.2223 25.437 98.2848C25.6333 98.3473 25.815 98.4483 25.9717 98.582C26.1284 98.7156 26.2569 98.8792 26.3495 99.0631C26.4422 99.247 26.4973 99.4476 26.5115 99.653C26.5257 99.8585 26.4988 100.065 26.4323 100.26C26.3658 100.455 26.2611 100.634 26.1243 100.788C25.9875 100.942 25.8214 101.067 25.6357 101.156Z" fill="#6C63FF"/>
<path d="M24.1724 107.258C23.4853 107.767 20.5718 107.989 20.5718 107.989C20.5718 107.989 21.6448 105.271 22.3261 104.763C22.4882 104.63 22.6758 104.531 22.8772 104.473C23.0787 104.415 23.2899 104.398 23.498 104.424C23.7061 104.449 23.9068 104.517 24.0879 104.623C24.269 104.729 24.4268 104.87 24.5516 105.039C24.6764 105.207 24.7657 105.399 24.814 105.603C24.8623 105.807 24.8687 106.019 24.8327 106.226C24.7967 106.432 24.719 106.629 24.6045 106.805C24.4901 106.981 24.3411 107.132 24.1666 107.248L24.1724 107.258Z" fill="#6C63FF"/>
<path d="M19.3876 95.1872C20.0001 95.7836 22.8567 96.4005 22.8567 96.4005C22.8567 96.4005 22.1564 93.563 21.541 92.9665C21.3964 92.8188 21.2238 92.7015 21.0333 92.6216C20.8427 92.5417 20.6381 92.5007 20.4314 92.5011C20.2248 92.5015 20.0203 92.5432 19.8301 92.6239C19.6398 92.7046 19.4677 92.8225 19.3237 92.9707C19.1798 93.119 19.0669 93.2946 18.9919 93.4871C18.9169 93.6796 18.8811 93.8852 18.8868 94.0918C18.8925 94.2984 18.9395 94.5017 19.025 94.6898C19.1105 94.8779 19.2328 95.047 19.3847 95.1872H19.3876Z" fill="#6C63FF"/>
<path d="M17.7693 102.346C18.5324 102.731 21.443 102.466 21.443 102.466C21.443 102.466 19.9271 99.9676 19.1625 99.5831C18.9811 99.4917 18.7834 99.4368 18.5808 99.4217C18.3782 99.4066 18.1746 99.4316 17.9816 99.4952C17.7886 99.5588 17.6101 99.6598 17.4561 99.7924C17.3022 99.925 17.1759 100.087 17.0844 100.268C16.9929 100.449 16.9381 100.647 16.923 100.85C16.9079 101.052 16.9329 101.256 16.9965 101.449C17.0601 101.642 17.161 101.82 17.2936 101.974C17.4262 102.128 17.5879 102.255 17.7693 102.346V102.346Z" fill="#6C63FF"/>
<path d="M17.1466 109.521C17.8337 110.028 20.7472 110.252 20.7472 110.252C20.7472 110.252 19.6742 107.533 18.9929 107.024C18.6623 106.804 18.2596 106.719 17.8681 106.787C17.4765 106.855 17.1263 107.071 16.8897 107.391C16.6532 107.71 16.5486 108.108 16.5975 108.503C16.6464 108.897 16.8451 109.257 17.1524 109.509L17.1466 109.521Z" fill="#6C63FF"/>
<path d="M23.1901 88.3309C23.1901 89.1846 21.6419 91.664 21.6419 91.664C21.6419 91.664 20.0938 89.1788 20.0938 88.3309C20.0938 87.9203 20.2569 87.5265 20.5472 87.2362C20.8375 86.9458 21.2313 86.7827 21.6419 86.7827C22.0525 86.7827 22.4463 86.9458 22.7366 87.2362C23.0269 87.5265 23.1901 87.9203 23.1901 88.3309V88.3309Z" fill="#6C63FF"/>
<path d="M25.7484 93.0645C25.2835 93.7823 22.6375 95.022 22.6375 95.022C22.6375 95.022 22.6842 92.0982 23.1491 91.3834C23.3763 91.0484 23.7256 90.8157 24.1223 90.7352C24.5189 90.6546 24.9313 90.7326 25.2712 90.9524C25.611 91.1722 25.8513 91.5164 25.9405 91.9112C26.0297 92.3059 25.9607 92.72 25.7484 93.0645V93.0645Z" fill="#6C63FF"/>
<path d="M25.6357 101.156C24.8726 101.541 21.9619 101.275 21.9619 101.275C21.9619 101.275 23.4794 98.7777 24.2425 98.3917C24.4245 98.2953 24.6239 98.2362 24.829 98.2179C25.0341 98.1995 25.2408 98.2223 25.437 98.2848C25.6333 98.3473 25.815 98.4483 25.9717 98.582C26.1284 98.7156 26.2569 98.8792 26.3495 99.0631C26.4422 99.247 26.4973 99.4476 26.5115 99.653C26.5257 99.8585 26.4988 100.065 26.4323 100.26C26.3658 100.455 26.2611 100.634 26.1243 100.788C25.9875 100.942 25.8214 101.067 25.6357 101.156Z" fill="#6C63FF"/>
<path d="M24.1724 107.258C23.4853 107.767 20.5718 107.989 20.5718 107.989C20.5718 107.989 21.6448 105.271 22.3261 104.763C22.4882 104.63 22.6758 104.531 22.8772 104.473C23.0787 104.415 23.2899 104.398 23.498 104.424C23.7061 104.449 23.9068 104.517 24.0879 104.623C24.269 104.729 24.4268 104.87 24.5516 105.039C24.6764 105.207 24.7657 105.399 24.814 105.603C24.8623 105.807 24.8687 106.019 24.8327 106.226C24.7967 106.432 24.719 106.629 24.6045 106.805C24.4901 106.981 24.3411 107.132 24.1666 107.248L24.1724 107.258Z" fill="#6C63FF"/>
<path d="M19.3876 95.1872C20.0001 95.7836 22.8567 96.4005 22.8567 96.4005C22.8567 96.4005 22.1564 93.563 21.541 92.9665C21.3964 92.8188 21.2238 92.7015 21.0333 92.6216C20.8427 92.5417 20.6381 92.5007 20.4314 92.5011C20.2248 92.5015 20.0203 92.5432 19.8301 92.6239C19.6398 92.7046 19.4677 92.8225 19.3237 92.9707C19.1798 93.119 19.0669 93.2946 18.9919 93.4871C18.9169 93.6796 18.8811 93.8852 18.8868 94.0918C18.8925 94.2984 18.9395 94.5017 19.025 94.6898C19.1105 94.8779 19.2328 95.047 19.3847 95.1872H19.3876Z" fill="#6C63FF"/>
<path d="M17.7693 102.346C18.5324 102.731 21.443 102.466 21.443 102.466C21.443 102.466 19.9271 99.9676 19.1625 99.5831C18.9811 99.4917 18.7834 99.4368 18.5808 99.4217C18.3782 99.4066 18.1746 99.4316 17.9816 99.4952C17.7886 99.5588 17.6101 99.6598 17.4561 99.7924C17.3022 99.925 17.1759 100.087 17.0844 100.268C16.9929 100.449 16.9381 100.647 16.923 100.85C16.9079 101.052 16.9329 101.256 16.9965 101.449C17.0601 101.642 17.161 101.82 17.2936 101.974C17.4262 102.128 17.5879 102.255 17.7693 102.346V102.346Z" fill="#6C63FF"/>
<path d="M17.1466 109.521C17.8337 110.028 20.7472 110.252 20.7472 110.252C20.7472 110.252 19.6742 107.533 18.9929 107.024C18.6623 106.804 18.2596 106.719 17.8681 106.787C17.4765 106.855 17.1263 107.071 16.8897 107.391C16.6532 107.71 16.5486 108.108 16.5975 108.503C16.6464 108.897 16.8451 109.257 17.1524 109.509L17.1466 109.521Z" fill="#6C63FF"/>
<path d="M16.5195 113.398C16.5195 113.398 19.0208 112.901 19.6875 112.239C20.3541 111.577 23.3568 110.417 23.6901 111.245C24.0235 112.072 28.1928 114.888 25.3582 115.385C22.5235 115.882 18.6875 116.047 17.8528 115.715C17.018 115.383 16.5195 113.398 16.5195 113.398Z" fill="#A8A8A8"/>
<path opacity="0.2" d="M25.3582 115.076C22.5221 115.573 18.6875 115.739 17.8528 115.408C17.2183 115.155 16.7768 113.946 16.6029 113.381L16.5195 113.398C16.5195 113.398 17.0195 115.385 17.8528 115.715C18.6861 116.046 22.5221 115.882 25.3582 115.385C26.1754 115.239 26.4093 114.904 26.3216 114.478C26.2485 114.756 25.9663 114.968 25.3582 115.076Z" fill="black"/>
</g>
<defs>
<linearGradient id="paint0_linear_140_40" x1="75.0524" y1="117.882" x2="75.0524" y2="20.069" gradientUnits="userSpaceOnUse">
<stop stop-color="#808080" stop-opacity="0.25"/>
<stop offset="0.54" stop-color="#808080" stop-opacity="0.12"/>
<stop offset="1" stop-color="#808080" stop-opacity="0.1"/>
</linearGradient>
<clipPath id="clip0_140_40">
<rect width="160.385" height="120" fill="white"/>
</clipPath>
</defs>
</svg>
