<svg width="112" height="105" viewBox="0 0 112 105" fill="none" xmlns="http://www.w3.org/2000/svg">
<g clip-path="url(#clip0_167:797)">
<path d="M64.8975 68.6269V105H111.684V68.6269H64.8975ZM105.575 78.354H101.951V74.7303H105.575V78.354Z" fill="#3F3D56"/>
<path d="M60.9741 68.6269H0V78.1352H60.9741V68.6269Z" fill="#3F3D56"/>
<path d="M60.9741 82.0593H0V91.5676H60.9741V82.0593Z" fill="#3F3D56"/>
<path d="M60.9741 95.4917H0V105H60.9741V95.4917Z" fill="#3F3D56"/>
<path d="M13.8847 22.7454H10.8662V26.6695H13.8847V22.7454Z" fill="#3F3D56"/>
<path d="M92.2158 56.4019V53.3834H88.2917V56.4019H92.2158Z" fill="#3F3D56"/>
<path d="M42.8565 82.0593H60.9735V91.5676H37.3672L42.8565 82.0593Z" fill="#6C63FF"/>
<path d="M35.1014 95.4916H60.9746V105H29.6123L35.1014 95.4916Z" fill="#6C63FF"/>
<path d="M44.8058 46.7354C44.5459 46.4749 44.288 46.2059 44.0391 45.9356L44.3091 45.6868C44.5548 45.9537 44.8093 46.2192 45.0656 46.4761L44.8058 46.7354Z" fill="#3F3D56"/>
<path d="M42.5795 44.213C42.1188 43.6212 41.6774 43.0032 41.2678 42.3761L41.5751 42.1753C41.9793 42.7939 42.4147 43.4037 42.8693 43.9874L42.5795 44.213ZM40.113 40.4368C39.7566 39.7776 39.4235 39.0951 39.1228 38.4085L39.4592 38.2612C39.7557 38.9387 40.0843 39.6119 40.4358 40.2622L40.113 40.4368ZM38.3043 36.3052C38.062 35.5974 37.8458 34.8697 37.6617 34.1421L38.0176 34.052C38.1992 34.7699 38.4126 35.488 38.6516 36.1863L38.3043 36.3052ZM37.5593 31.8725L37.1973 31.9335C37.0727 31.1933 36.9773 30.4402 36.9137 29.6953L37.2795 29.664C37.3423 30.3991 37.4364 31.1422 37.5593 31.8725V31.8725ZM37.1816 27.4402L36.8145 27.4411C36.8126 26.6918 36.842 25.9332 36.9019 25.1864L37.268 25.2158C37.2087 25.9525 37.1797 26.7009 37.1816 27.4402V27.4402ZM37.5384 23.0061L37.1762 22.9464C37.2981 22.2068 37.4526 21.4629 37.6355 20.7354L37.9915 20.8249C37.811 21.5426 37.6586 22.2764 37.5384 23.0061V23.0061ZM86.6935 12.3815C86.2829 11.7675 85.8412 11.1627 85.3804 10.5837L85.6677 10.3551C86.1348 10.942 86.5825 11.5551 86.9986 12.1774L86.6935 12.3815ZM38.6234 18.6889L38.276 18.5704C38.5181 17.8614 38.7929 17.1534 39.0928 16.4658L39.4292 16.6126C39.1334 17.291 38.8622 17.9896 38.6234 18.6889V18.6889ZM83.9234 8.90018C83.4171 8.36179 82.8819 7.83764 82.3328 7.34237L82.5787 7.06972C83.1353 7.57178 83.6776 8.10303 84.1908 8.64869L83.9234 8.90018ZM40.4029 14.6097L40.0796 14.4357C40.4347 13.7756 40.8214 13.1222 41.2293 12.4935L41.5372 12.6932C41.1349 13.3136 40.7532 13.9583 40.4029 14.6097ZM80.6197 5.92004C80.0318 5.47122 79.4181 5.04141 78.7957 4.64249L78.9939 4.33342C79.6246 4.73775 80.2466 5.17335 80.8424 5.62814L80.6197 5.92004ZM42.8244 10.8763L42.5338 10.652C42.9916 10.0589 43.4797 9.47735 43.9846 8.92362L44.2559 9.17094C43.7577 9.71735 43.2761 10.2911 42.8244 10.8763L42.8244 10.8763ZM76.8734 3.51852C76.2201 3.17174 75.5444 2.8478 74.8652 2.55584L75.0102 2.2185C75.6986 2.51451 76.3834 2.84273 77.0455 3.1942L76.8734 3.51852ZM45.8219 7.58911L45.5719 7.32037C46.1209 6.80972 46.6974 6.31613 47.2856 5.85323L47.5126 6.14175C46.9323 6.59837 46.3636 7.08536 45.8219 7.58911ZM72.7848 1.76135C72.0826 1.52594 71.363 1.31726 70.6459 1.14114L70.7334 0.784543C71.4603 0.963159 72.1898 1.1747 72.9015 1.4132L72.7848 1.76135ZM49.3166 4.83903L49.1142 4.53283C49.7392 4.1198 50.3889 3.72803 51.0453 3.36846L51.2216 3.69047C50.5741 4.04513 49.9331 4.43157 49.3166 4.83903ZM68.4629 0.699831C67.7329 0.583596 66.9887 0.496581 66.2509 0.441266L66.2784 0.0752421C67.0262 0.131276 67.7806 0.219437 68.5206 0.337291L68.4629 0.699831ZM53.2168 2.70308L53.0678 2.36758C53.7517 2.0637 54.4577 1.78448 55.166 1.5376L55.2868 1.88427C54.588 2.12786 53.8916 2.40331 53.2168 2.70308ZM64.0252 0.367084C63.2874 0.373025 62.5392 0.409998 61.8015 0.477081L61.7683 0.111435C62.516 0.0435262 63.2744 0.00596211 64.0222 0L64.0252 0.367084ZM57.4173 1.23884L57.3253 0.883426C58.0495 0.695891 58.7939 0.535428 59.5311 0.407206L59.594 0.768949C58.866 0.895409 58.1321 1.05385 57.4173 1.23884Z" fill="#3F3D56"/>
<path d="M88.3761 15.2742C88.2135 14.9497 88.042 14.6242 87.8662 14.3065L88.1874 14.1287C88.3655 14.4507 88.5395 14.7808 88.7042 15.1097L88.3761 15.2742Z" fill="#3F3D56"/>
<path d="M98.2223 105L81.0696 75.2918L77.221 68.6269L68.3345 53.2325L63.9169 45.582L59.4993 53.2325L50.6128 68.6269L46.7641 75.2918L45.1221 78.1352H60.9738V68.6269H64.8979V105H98.2223ZM76.2131 89.6855C76.6488 89.6855 77.0747 89.8147 77.4369 90.0567C77.7991 90.2987 78.0814 90.6428 78.2482 91.0452C78.4149 91.4477 78.4585 91.8906 78.3735 92.3179C78.2885 92.7452 78.0787 93.1377 77.7707 93.4457C77.4626 93.7538 77.0701 93.9636 76.6428 94.0486C76.2156 94.1335 75.7727 94.0899 75.3702 93.9232C74.9677 93.7565 74.6237 93.4742 74.3816 93.1119C74.1396 92.7497 74.0104 92.3238 74.0104 91.8882C74.0111 91.3042 74.2434 90.7443 74.6563 90.3314C75.0693 89.9184 75.6291 89.6861 76.2131 89.6855ZM63.5077 60.7511L61.0361 58.1012L63.686 55.6296L66.1576 58.2795L63.5077 60.7511Z" fill="#6C63FF"/>
<path d="M61.1042 39.6836C62.1179 39.6836 62.9398 38.8617 62.9398 37.848C62.9398 36.8342 62.1179 36.0124 61.1042 36.0124C60.0904 36.0124 59.2686 36.8342 59.2686 37.848C59.2686 38.8617 60.0904 39.6836 61.1042 39.6836Z" fill="#F2F2F2"/>
<path d="M63.2175 11.2928C59.7001 11.9704 56.4627 13.6758 53.9145 16.1933C51.3664 18.7108 49.622 21.9274 48.9019 25.4363C48.1819 28.9452 48.5185 32.5889 49.8693 35.9065C51.22 39.2241 53.5242 42.0666 56.4905 44.0747C59.4567 46.0827 62.9518 47.1661 66.5338 47.1877C70.1158 47.2094 73.6237 46.1684 76.6141 44.1964C79.6044 42.2243 81.9428 39.4099 83.3336 36.1089C84.7243 32.8078 85.105 29.1685 84.4275 25.6512C83.9776 23.3157 83.0721 21.0917 81.7627 19.1062C80.4533 17.1207 78.7657 15.4126 76.7962 14.0793C74.8267 12.746 72.6138 11.8137 70.284 11.3356C67.9541 10.8575 65.553 10.843 63.2175 11.2928ZM61.5214 40.0109C61.0936 40.0933 60.651 40.047 60.2495 39.8779C59.848 39.7087 59.5057 39.4243 59.2659 39.0606C59.026 38.697 58.8994 38.2703 58.9021 37.8347C58.9047 37.399 59.0365 36.9739 59.2807 36.6132C59.5249 36.2524 59.8706 35.9722 60.2741 35.8079C60.6776 35.6436 61.1207 35.6027 61.5475 35.6903C61.9743 35.7778 62.3655 35.99 62.6717 36.2999C62.9778 36.6098 63.1852 37.0035 63.2677 37.4313C63.3775 38.0049 63.2553 38.5986 62.9279 39.0822C62.6005 39.5658 62.0947 39.8998 61.5214 40.0109ZM73.7259 23.9392L70.1676 24.6247L69.4822 21.0664L73.0404 20.381L73.7259 23.9392Z" fill="#F2F2F2"/>
<path d="M28.6829 61.7659C35.2679 61.7659 40.606 56.4277 40.606 49.8427C40.606 43.2578 35.2679 37.9196 28.6829 37.9196C22.0979 37.9196 16.7598 43.2578 16.7598 49.8427C16.7598 56.4277 22.0979 61.7659 28.6829 61.7659Z" fill="#2F2E41"/>
<path d="M24.0771 66.1704L20.5127 65.5251L21.6688 58.0826L25.2331 58.7279L24.0771 66.1704Z" fill="#2F2E41"/>
<path d="M32.3621 60.0184L28.7979 59.3731L27.6418 65.7591L31.2061 66.4044L32.3621 60.0184Z" fill="#2F2E41"/>
<path d="M32.3492 68.8353C32.7532 68.3582 32.0494 67.0981 30.7773 66.0207C29.5051 64.9433 28.1463 64.4566 27.7423 64.9337C27.3383 65.4108 28.042 66.6709 29.3142 67.7483C30.5864 68.8257 31.9452 69.3123 32.3492 68.8353Z" fill="#2F2E41"/>
<path d="M25.3687 68.6281C25.7727 68.1511 25.069 66.8909 23.7968 65.8136C22.5247 64.7362 21.1658 64.2495 20.7618 64.7266C20.3578 65.2036 21.0616 66.4638 22.3337 67.5411C23.6059 68.6185 24.9647 69.1052 25.3687 68.6281Z" fill="#2F2E41"/>
<path d="M29.5174 51.0013C31.7679 51.0013 33.5924 49.1768 33.5924 46.9263C33.5924 44.6757 31.7679 42.8513 29.5174 42.8513C27.2668 42.8513 25.4424 44.6757 25.4424 46.9263C25.4424 49.1768 27.2668 51.0013 29.5174 51.0013Z" fill="white"/>
<path d="M31.1923 46.824C31.9425 46.824 32.5506 46.2158 32.5506 45.4656C32.5506 44.7154 31.9425 44.1073 31.1923 44.1073C30.4421 44.1073 29.834 44.7154 29.834 45.4656C29.834 46.2158 30.4421 46.824 31.1923 46.824Z" fill="#3F3D56"/>
<path d="M19.2766 36.8716C19.0973 32.4575 22.9016 28.7187 27.7738 28.5208C32.646 28.3229 36.7411 31.7408 36.9204 36.1549C37.0997 40.5691 33.7129 41.572 28.8407 41.7699C23.9685 41.9678 19.4559 41.2858 19.2766 36.8716Z" fill="#6C63FF"/>
<path d="M40.1101 49.4948C43.3193 48.7592 45.7337 47.3461 45.5028 46.3386C45.2719 45.3312 42.483 45.1108 39.2738 45.8464C36.0645 46.582 33.6501 47.995 33.881 49.0025C34.112 50.01 36.9008 50.2304 40.1101 49.4948Z" fill="#2F2E41"/>
<path d="M16.7057 53.3869C19.915 52.6513 22.3294 51.2383 22.0985 50.2308C21.8676 49.2233 19.0787 49.0029 15.8695 49.7385C12.6602 50.4741 10.2458 51.8872 10.4767 52.8947C10.7077 53.9022 13.4965 54.1225 16.7057 53.3869Z" fill="#2F2E41"/>
<path d="M25.4077 54.5415C25.3442 54.8926 25.3504 55.2527 25.426 55.6013C25.5016 55.95 25.6452 56.2803 25.8485 56.5735C26.2591 57.1656 26.888 57.5703 27.597 57.6986C28.306 57.827 29.0369 57.6684 29.629 57.2579C30.2211 56.8473 30.6258 56.2183 30.7541 55.5094C31.0214 54.033 29.8799 53.5106 28.4035 53.2433C26.9272 52.976 25.675 53.0651 25.4077 54.5415Z" fill="white"/>
</g>
<defs>
<clipPath id="clip0_167:797">
<rect width="111.685" height="105" fill="white"/>
</clipPath>
</defs>
</svg>
