<svg width="136" height="90" viewBox="0 0 136 90" fill="none" xmlns="http://www.w3.org/2000/svg">
<g clip-path="url(#clip0_2_1491)">
<path d="M29.1362 52.5971C22.7908 46.3505 20.1109 39.8338 21.5897 34.2475C23.4876 27.0787 31.9189 22.122 44.7217 20.6485L44.769 21.0597C32.1444 22.5126 23.8417 27.358 21.9898 34.3534C20.5506 39.7899 23.1917 46.1643 29.4266 52.3023L29.1362 52.5971Z" fill="#F0F0F0"/>
<path d="M90.3586 74.7705C82.4392 74.7705 73.8333 73.5937 65.2852 71.3306C54.7144 68.5321 45.0221 64.3081 37.2561 59.115L37.4861 58.7711C45.2146 63.939 54.864 68.1438 65.3911 70.9305C74.9043 73.4492 84.4888 74.6161 93.105 74.3082L93.1199 74.7216C92.21 74.7543 91.2896 74.7707 90.3586 74.7705Z" fill="#F0F0F0"/>
<path d="M108.527 72.168L108.394 71.776C115.477 69.3812 119.907 65.5236 121.205 60.6197C122.856 54.3856 119.27 47.1514 111.109 40.2496C102.907 33.3128 91.0792 27.557 77.8041 24.0426L77.91 23.6425C91.2431 27.1723 103.129 32.9579 111.377 39.9337C119.666 46.9444 123.299 54.3284 121.605 60.7256C120.27 65.7701 115.747 69.7268 108.527 72.168Z" fill="#F0F0F0"/>
<path d="M43.4896 74.9435C27.9283 68.0419 15.9373 59.088 9.72534 49.7309L10.0701 49.5019C16.239 58.7942 28.1672 67.6951 43.6573 74.5652L43.4896 74.9435Z" fill="#F0F0F0"/>
<path d="M98.2015 86.8999C96.5964 86.8999 94.964 86.8641 93.3041 86.7924L93.3219 86.379C105.709 86.9153 116.639 85.4329 124.931 82.0912L125.086 82.4751C117.852 85.3899 108.632 86.8999 98.2015 86.8999Z" fill="#F0F0F0"/>
<path d="M89.1727 21.0196C86.6007 20.1822 83.9552 19.4025 81.3097 18.7021C66.0856 14.6718 51.1202 13.2408 38.0308 14.5647L37.9891 14.1529C51.1274 12.8246 66.144 14.2591 81.4156 18.302C84.0686 19.0044 86.7216 19.7864 89.3008 20.6262L89.1727 21.0196Z" fill="#F0F0F0"/>
<path d="M19.4109 53.2179C13.0655 46.9713 10.3855 40.4545 11.8644 34.8682C13.7623 27.6994 22.1935 22.7428 34.9964 21.2693L35.0436 21.6805C22.4191 23.1334 14.1164 27.9788 12.2645 34.9741C10.8252 40.4107 13.4663 46.7851 19.7013 52.923L19.4109 53.2179Z" fill="#F0F0F0"/>
<path d="M80.6331 75.3913C72.7137 75.3913 64.1078 74.2144 55.5597 71.9514C44.9889 69.1529 35.2966 64.9289 27.5306 59.7358L27.7606 59.3919C35.4892 64.5598 45.1385 68.7645 55.6656 71.5513C65.1788 74.0699 74.7633 75.2369 83.3795 74.929L83.3944 75.3424C82.4845 75.3751 81.5641 75.3914 80.6331 75.3913Z" fill="#F0F0F0"/>
<path d="M98.8014 72.7888L98.6688 72.3968C105.752 70.002 110.182 66.1443 111.48 61.2404C113.13 55.0064 109.545 47.7722 101.384 40.8704C93.182 33.9336 81.354 28.1777 68.0789 24.6634L68.1847 24.2633C81.5179 27.7931 93.4034 33.5787 101.651 40.5545C109.941 47.5652 113.574 54.9492 111.88 61.3463C110.545 66.3909 106.022 70.3476 98.8014 72.7888Z" fill="#F0F0F0"/>
<path d="M33.7642 75.5643C18.203 68.6627 6.21191 59.7087 0 50.3517L0.344738 50.1227C6.51371 59.415 18.4419 68.3159 33.9319 75.186L33.7642 75.5643Z" fill="#F0F0F0"/>
<path d="M88.4762 87.5207C86.8711 87.5207 85.2386 87.4849 83.5787 87.4132L83.5965 86.9998C95.9838 87.5361 106.913 86.0537 115.206 82.712L115.36 83.0959C108.127 86.0106 98.907 87.5207 88.4762 87.5207Z" fill="#F0F0F0"/>
<path d="M79.4474 21.6404C76.8754 20.803 74.2299 20.0233 71.5843 19.3229C56.3603 15.2926 41.3949 13.8616 28.3054 15.1855L28.2638 14.7736C41.4021 13.4454 56.4187 14.8798 71.6902 18.9228C74.3432 19.6252 76.9962 20.4071 79.5755 21.2469L79.4474 21.6404Z" fill="#F0F0F0"/>
<path d="M7.0537 42.1333C10.0276 38.7989 14.7716 36.7667 19.0707 37.9832C15.1046 40.7899 12.2591 44.909 11.0377 49.6117C10.5732 51.4271 10.2456 53.4945 8.73586 54.6045C7.79648 55.2951 6.55177 55.4601 5.39652 55.3028C4.24122 55.1455 3.14885 54.6962 2.07123 54.251L1.78125 54.2762C2.61496 49.8867 4.07976 45.4677 7.0537 42.1333Z" fill="#F2F2F2"/>
<path d="M19.0576 38.0761C15.4632 38.9463 12.2345 40.927 9.82996 43.7368C9.30158 44.3324 8.87039 45.0077 8.55228 45.7377C8.26538 46.4587 8.17681 47.2435 8.29576 48.0104C8.39232 48.7277 8.57414 49.4502 8.49465 50.1784C8.44843 50.5506 8.32405 50.9088 8.12969 51.2296C7.93532 51.5503 7.67534 51.8263 7.36682 52.0395C6.61188 52.5908 5.70388 52.8379 4.80754 53.0488C3.81232 53.2828 2.77489 53.5102 1.96363 54.1716C1.86533 54.2517 1.74673 54.0945 1.84488 54.0145C3.25634 52.8638 5.21795 53.0115 6.77959 52.1757C7.50828 51.7857 8.12386 51.1737 8.27352 50.334C8.4044 49.5997 8.21754 48.8544 8.1135 48.129C7.98648 47.3826 8.04417 46.6164 8.28152 45.8974C8.56144 45.1537 8.96589 44.4629 9.47755 43.8548C10.6076 42.4674 11.9488 41.2663 13.452 40.2955C15.1615 39.1781 17.0494 38.3613 19.0343 37.8805C19.1572 37.8508 19.1796 38.0465 19.0576 38.0761L19.0576 38.0761Z" fill="white"/>
<path d="M10.5509 42.7865C10.1343 42.319 9.89736 41.7187 9.88246 41.0927C9.86756 40.4667 10.0757 39.8558 10.4696 39.3691C10.5497 39.2709 10.706 39.3907 10.6259 39.489C10.2582 39.9416 10.0644 40.5107 10.0795 41.0936C10.0945 41.6764 10.3175 42.2348 10.708 42.6677C10.7928 42.7619 10.6352 42.8801 10.5509 42.7865H10.5509Z" fill="white"/>
<path d="M8.19888 47.6531C9.47607 47.738 10.7383 47.3383 11.7339 46.5338C11.8325 46.454 11.9511 46.6112 11.8527 46.6909C10.8151 47.5261 9.50065 47.9394 8.17177 47.8482C8.04511 47.8394 8.07291 47.6444 8.19888 47.6531Z" fill="white"/>
<path d="M15.2058 39.4354C15.3293 39.6499 15.5042 39.8303 15.7146 39.9604C15.9251 40.0906 16.1646 40.1665 16.4117 40.1812C16.5384 40.1884 16.5104 40.3834 16.3846 40.3762C16.1117 40.3587 15.8473 40.2746 15.6144 40.1313C15.3815 39.988 15.1873 39.7898 15.0487 39.5541C15.0338 39.533 15.0274 39.507 15.031 39.4814C15.0346 39.4558 15.0477 39.4325 15.0679 39.4162C15.0887 39.4006 15.1149 39.3939 15.1408 39.3975C15.1666 39.401 15.1899 39.4147 15.2058 39.4354Z" fill="white"/>
<path d="M25.1733 51.8252C25.0941 51.823 25.0148 51.8207 24.9346 51.8198C23.8691 51.7954 22.8033 51.8576 21.7478 52.0058C21.6661 52.0159 21.5833 52.0275 21.502 52.0399C18.963 52.424 16.5173 53.2762 14.2893 54.5531C13.4033 55.062 12.5572 55.6376 11.7584 56.2749C10.6553 57.155 9.52936 58.1971 8.23795 58.6482C8.10375 58.6968 7.96666 58.737 7.82749 58.7686L1.83443 54.628C1.82553 54.6117 1.81562 54.5968 1.80666 54.5805L1.55981 54.4261C1.59871 54.3904 1.63983 54.3541 1.67873 54.3184C1.70121 54.2976 1.72503 54.2777 1.7475 54.2568C1.76291 54.2433 1.77839 54.2297 1.79152 54.2165C1.79663 54.212 1.80181 54.2075 1.80598 54.2043C1.81911 54.1912 1.8327 54.1804 1.84488 54.1686C2.07414 53.9654 2.30522 53.7635 2.53813 53.5628C2.53907 53.5614 2.53907 53.5614 2.54136 53.561C4.31991 52.0365 6.24136 50.647 8.31263 49.5934C8.37495 49.5618 8.43816 49.5287 8.50322 49.4989C9.43949 49.0291 10.4126 48.6367 11.4128 48.3255C11.961 48.1569 12.5174 48.0161 13.0799 47.9037C14.5337 47.6161 16.0238 47.559 17.4954 47.7345C20.429 48.0847 23.2179 49.3692 25.0361 51.6496C25.0826 51.708 25.1278 51.7655 25.1733 51.8252Z" fill="#F2F2F2"/>
<path d="M25.1074 51.892C21.7135 50.4228 17.9431 50.0603 14.3315 50.856C13.551 51.0135 12.8002 51.2931 12.1067 51.6844C11.4435 52.0874 10.9003 52.6607 10.5335 53.3446C10.1788 53.9754 9.88893 54.6618 9.387 55.1954C9.12602 55.4647 8.81105 55.6759 8.46275 55.8149C8.11445 55.954 7.74069 56.0179 7.36598 56.0023C6.43129 55.988 5.55752 55.6386 4.71491 55.2673C3.77936 54.855 2.81414 54.4119 1.76819 54.4516C1.64146 54.4564 1.64141 54.2595 1.76796 54.2547C3.58773 54.1857 5.06502 55.4847 6.81512 55.7575C7.63175 55.8849 8.4917 55.7669 9.11679 55.1865C9.66339 54.679 9.96287 53.9714 10.3166 53.3296C10.6645 52.6571 11.1719 52.0801 11.7943 51.649C12.4656 51.2236 13.2044 50.9156 13.979 50.7381C15.7167 50.3108 17.5107 50.1593 19.2954 50.2892C21.333 50.4261 23.3323 50.9107 25.2065 51.7218C25.3225 51.7721 25.2226 51.9419 25.1074 51.892Z" fill="white"/>
<path d="M15.4793 50.5313C15.4281 49.9073 15.6003 49.2853 15.9653 48.7766C16.3303 48.2678 16.8643 47.9053 17.4719 47.7539C17.5949 47.7236 17.6476 47.9134 17.5244 47.9437C16.9584 48.0837 16.461 48.4214 16.1221 48.8958C15.7832 49.3703 15.6251 49.9503 15.6762 50.5311C15.6872 50.6574 15.4902 50.6569 15.4793 50.5313Z" fill="white"/>
<path d="M10.6713 53.0011C11.64 53.8377 12.8884 54.2786 14.1677 54.2357C14.2945 54.2313 14.2945 54.4282 14.1679 54.4326C12.8366 54.4748 11.5383 54.0134 10.5322 53.1405C10.4364 53.0572 10.5759 52.9182 10.6713 53.0011Z" fill="white"/>
<path d="M21.2134 50.6582C21.1829 50.9038 21.2139 51.1532 21.3035 51.3838C21.3932 51.6145 21.5388 51.8192 21.7272 51.9797C21.824 52.0617 21.6843 52.2006 21.5881 52.1192C21.3808 51.9409 21.2203 51.7145 21.1207 51.4599C21.021 51.2053 20.9852 50.9301 21.0164 50.6585C21.0172 50.6326 21.0278 50.6081 21.0461 50.5897C21.0644 50.5714 21.0889 50.5608 21.1148 50.5599C21.1409 50.56 21.1658 50.5704 21.1843 50.5888C21.2027 50.6072 21.2132 50.6322 21.2134 50.6582H21.2134Z" fill="white"/>
<path d="M123.584 69.4669C121.903 65.327 118.118 61.8186 113.66 61.5194C116.452 65.4958 117.748 70.3316 117.318 75.1713C117.145 77.0371 116.759 79.0944 117.808 80.6472C118.46 81.6134 119.577 82.1872 120.718 82.4273C121.859 82.6674 123.039 82.6114 124.203 82.5543L124.468 82.6755C125.158 78.2611 125.264 73.6069 123.584 69.4669Z" fill="#F2F2F2"/>
<path d="M113.642 61.6112C116.734 63.6389 119.11 66.5895 120.43 70.044C120.727 70.7826 120.906 71.5635 120.961 72.3579C120.989 73.1335 120.808 73.9024 120.438 74.5847C120.106 75.2278 119.692 75.8471 119.522 76.5598C119.441 76.9258 119.438 77.305 119.513 77.6724C119.588 78.0398 119.74 78.3871 119.959 78.6917C120.485 79.4646 121.257 80.0025 122.03 80.5023C122.889 81.0573 123.79 81.6201 124.331 82.5157C124.397 82.6242 124.562 82.516 124.496 82.4076C123.553 80.8495 121.656 80.3293 120.466 79.0173C119.911 78.405 119.537 77.6218 119.678 76.7806C119.802 76.045 120.228 75.4059 120.57 74.7577C120.941 74.0974 121.144 73.3564 121.162 72.5994C121.148 71.8048 121 71.0183 120.722 70.2736C120.124 68.5871 119.265 67.0051 118.175 65.5856C116.941 63.9586 115.437 62.5548 113.729 61.4348C113.624 61.3656 113.537 61.5424 113.642 61.6112Z" fill="white"/>
<path d="M120.07 68.9067C120.62 68.6065 121.045 68.1207 121.269 67.5362C121.493 66.9516 121.503 66.3063 121.295 65.7155C121.253 65.5961 121.065 65.6563 121.108 65.7759C121.302 66.3257 121.293 66.9268 121.083 67.4707C120.873 68.0146 120.475 68.4655 119.962 68.742C119.851 68.8023 119.959 68.9665 120.07 68.9067Z" fill="white"/>
<path d="M120.65 74.2808C119.418 73.9314 118.364 73.1307 117.697 72.0384C117.631 71.9301 117.466 72.0383 117.532 72.1465C118.228 73.2818 119.327 74.1128 120.61 74.4736C120.732 74.5079 120.771 74.3149 120.65 74.2808Z" fill="white"/>
<path d="M116.812 64.1861C116.624 64.3466 116.399 64.4577 116.157 64.5096C115.915 64.5614 115.664 64.5524 115.426 64.4832C115.304 64.4474 115.265 64.6404 115.386 64.676C115.649 64.7512 115.926 64.7609 116.194 64.7042C116.461 64.6475 116.711 64.5261 116.92 64.3508C116.942 64.3359 116.956 64.3135 116.962 64.2882C116.967 64.2629 116.962 64.2365 116.949 64.2144C116.934 64.1927 116.912 64.1775 116.886 64.1722C116.861 64.1669 116.834 64.1719 116.812 64.1861Z" fill="white"/>
<path d="M103.26 72.505C103.336 72.5296 103.411 72.5541 103.487 72.5802C104.499 72.9153 105.482 73.3321 106.426 73.8264C106.5 73.8634 106.574 73.9021 106.646 73.9412C108.908 75.1563 110.925 76.7809 112.594 78.7323C113.258 79.5094 113.861 80.3359 114.4 81.2046C115.143 82.4043 115.853 83.7642 116.917 84.6231C117.028 84.714 117.143 84.7979 117.264 84.8745L124.3 82.9889C124.314 82.9766 124.328 82.9659 124.342 82.9536L124.626 82.8911C124.602 82.8444 124.575 82.7965 124.55 82.7497C124.536 82.7225 124.52 82.6958 124.506 82.6686C124.496 82.6506 124.486 82.6327 124.478 82.6159C124.475 82.6099 124.472 82.6039 124.469 82.5995C124.461 82.5827 124.452 82.5679 124.444 82.5528C124.297 82.2843 124.147 82.0165 123.995 81.7492C123.995 81.7476 123.995 81.7476 123.993 81.7464C122.83 79.7128 121.487 77.7584 119.89 76.07C119.842 76.0192 119.794 75.9668 119.743 75.9169C119.019 75.1598 118.234 74.4631 117.397 73.8338C116.937 73.4908 116.46 73.1712 115.968 72.8763C114.696 72.1168 113.312 71.5622 111.867 71.2328C108.986 70.5767 105.928 70.8491 103.449 72.3858C103.385 72.4251 103.323 72.4641 103.26 72.505Z" fill="#F2F2F2"/>
<path d="M103.3 72.5901C106.99 72.347 110.663 73.2729 113.797 75.2362C114.48 75.6469 115.093 76.1625 115.614 76.7641C116.104 77.3666 116.423 78.0891 116.538 78.8565C116.66 79.5699 116.702 80.3137 116.996 80.985C117.151 81.3264 117.377 81.6311 117.658 81.8791C117.939 82.1272 118.27 82.313 118.628 82.4243C119.513 82.7249 120.454 82.6895 121.372 82.623C122.392 82.5491 123.45 82.4563 124.421 82.8452C124.539 82.8923 124.605 82.7068 124.488 82.6598C122.797 81.9832 120.969 82.7101 119.229 82.3789C118.417 82.2243 117.647 81.8241 117.253 81.0674C116.909 80.4057 116.865 79.6387 116.747 78.9153C116.646 78.165 116.362 77.4511 115.921 76.8358C115.431 76.2095 114.839 75.6711 114.169 75.2436C112.676 74.2571 111.037 73.5114 109.313 73.0339C107.348 72.4781 105.302 72.2625 103.264 72.3965C103.138 72.4048 103.175 72.5984 103.3 72.5901Z" fill="white"/>
<path d="M112.826 74.5446C113.084 73.9741 113.13 73.3304 112.958 72.7286C112.785 72.1267 112.404 71.6058 111.882 71.259C111.777 71.1892 111.663 71.3502 111.769 71.4201C112.255 71.7422 112.61 72.2274 112.77 72.7882C112.93 73.349 112.884 73.9484 112.64 74.4782C112.587 74.5934 112.773 74.6592 112.826 74.5446H112.826Z" fill="white"/>
<path d="M116.524 78.4866C115.33 78.9491 114.006 78.9447 112.816 78.4743C112.698 78.4276 112.632 78.613 112.749 78.6597C113.989 79.1469 115.367 79.1486 116.608 78.6647C116.726 78.6185 116.641 78.4407 116.524 78.4866Z" fill="white"/>
<path d="M107.382 72.7369C107.328 72.9784 107.215 73.2028 107.053 73.3899C106.892 73.577 106.686 73.721 106.454 73.8088C106.335 73.8535 106.42 74.0312 106.538 73.9868C106.794 73.8886 107.021 73.7294 107.2 73.523C107.38 73.3167 107.506 73.0696 107.568 72.8033C107.576 72.7787 107.574 72.752 107.563 72.7286C107.552 72.7052 107.532 72.6869 107.508 72.6774C107.484 72.6687 107.457 72.6701 107.433 72.6813C107.409 72.6924 107.391 72.7124 107.382 72.7369V72.7369Z" fill="white"/>
<path d="M90.9855 83.564C91.8997 83.564 92.6408 82.8229 92.6408 81.9087C92.6408 80.9944 91.8997 80.2533 90.9855 80.2533C90.0712 80.2533 89.3301 80.9944 89.3301 81.9087C89.3301 82.8229 90.0712 83.564 90.9855 83.564Z" fill="#FD6584"/>
<path d="M96.8491 55.3692C97.7633 55.3692 98.5045 54.6281 98.5045 53.7139C98.5045 52.7996 97.7633 52.0585 96.8491 52.0585C95.9349 52.0585 95.1937 52.7996 95.1937 53.7139C95.1937 54.6281 95.9349 55.3692 96.8491 55.3692Z" fill="#E6E6E6"/>
<path d="M66.0464 9.45221C66.9606 9.45221 67.7018 8.71107 67.7018 7.79683C67.7018 6.88259 66.9606 6.14145 66.0464 6.14145C65.1321 6.14145 64.391 6.88259 64.391 7.79683C64.391 8.71107 65.1321 9.45221 66.0464 9.45221Z" fill="#E6E6E6"/>
<path d="M31.357 71.2969C31.357 71.7183 31.3708 72.1397 31.4003 72.5576C31.4315 73.057 31.4853 73.553 31.5581 74.0455C31.8029 75.7037 32.2707 77.3212 32.9489 78.8541C32.9835 78.9304 33.0182 79.0067 33.0529 79.083L33.1049 79.1975C33.1223 79.2356 33.1413 79.2738 33.1587 79.3102C33.183 79.3605 33.2055 79.409 33.2298 79.4576C33.2593 79.5183 33.2887 79.579 33.32 79.6397C33.3234 79.6466 33.3269 79.6553 33.3321 79.664C33.3581 79.716 33.3824 79.7663 33.4101 79.8183C33.4152 79.8296 33.421 79.8406 33.4275 79.8512C33.457 79.9102 33.4882 79.9709 33.5194 80.0299C33.5541 80.0923 33.587 80.1564 33.6217 80.2189C33.7049 80.3732 33.7916 80.5258 33.8801 80.6784C33.9061 80.7235 33.9321 80.7686 33.9598 80.8137C33.9841 80.8553 34.0084 80.8969 34.0344 80.9385C34.0517 80.9663 34.0691 80.9957 34.0864 81.0235C34.1142 81.0703 34.1419 81.1154 34.1714 81.1622C34.2356 81.2645 34.3015 81.3668 34.3656 81.4692H34.3674C34.3968 81.516 34.428 81.5628 34.4593 81.6079V81.6096C34.5512 81.7483 34.6465 81.8871 34.7419 82.0241C34.7421 82.0241 34.7424 82.0241 34.7426 82.0242C34.7428 82.0243 34.743 82.0244 34.7432 82.0246C34.7433 82.0247 34.7434 82.0249 34.7435 82.0251C34.7436 82.0253 34.7437 82.0256 34.7437 82.0258C34.82 82.1368 34.8997 82.2443 34.9778 82.3518V82.3535C35.0298 82.4212 35.0801 82.4905 35.1321 82.5582C35.1737 82.6137 35.2171 82.6709 35.2604 82.7264C35.2691 82.7385 35.2795 82.7489 35.2882 82.7611V82.7628C35.3003 82.7784 35.3124 82.7923 35.3246 82.8079C35.5084 83.0437 35.698 83.2743 35.8934 83.4998L35.9246 83.5362C35.935 83.5483 35.9471 83.5605 35.9575 83.5743C35.9749 83.5934 35.9905 83.6125 36.0078 83.6316C36.0234 83.6507 36.0408 83.6697 36.0581 83.6888C37.0766 84.8361 38.2314 85.8546 39.4968 86.7217C39.665 86.8379 39.8367 86.9507 40.0084 87.0599C40.0517 87.0876 40.0951 87.1154 40.1385 87.1414C40.1506 87.1501 40.1645 87.1587 40.1766 87.1674C40.2009 87.1813 40.2234 87.1952 40.2477 87.2108C40.2702 87.2246 40.2928 87.2385 40.3171 87.2524C40.409 87.3096 40.5026 87.3651 40.5963 87.4206C40.6188 87.4345 40.6431 87.4483 40.6674 87.4622C40.6899 87.4744 40.7142 87.4882 40.7384 87.5021C40.7384 87.5038 40.7385 87.5038 40.7402 87.5038H40.7419V87.5056H40.7437C40.8598 87.5732 40.9778 87.6391 41.0974 87.7033C41.1616 87.7379 41.2275 87.7743 41.2934 87.8073C41.4425 87.8888 41.5934 87.9668 41.7442 88.0414C41.798 88.0674 41.8535 88.0934 41.9072 88.1212C41.9523 88.142 41.9974 88.1645 42.0425 88.1853C42.0564 88.1923 42.0685 88.1975 42.0806 88.2044C42.1188 88.2217 42.1552 88.2391 42.1934 88.2564C42.235 88.2755 42.2766 88.2946 42.3165 88.3137C42.3633 88.3345 42.4084 88.3553 42.4552 88.3744C42.6286 88.4524 42.8038 88.527 42.9789 88.598C43.6066 88.8553 44.248 89.0776 44.9003 89.264C44.9298 89.2726 44.961 89.2813 44.9922 89.29C45.2714 89.368 45.5523 89.4391 45.835 89.5032C46.3292 89.6177 46.8281 89.7114 47.3315 89.7842H47.335C47.3957 89.7929 47.4546 89.8015 47.5153 89.8102C47.5205 89.8102 47.5257 89.8119 47.5327 89.8119C47.5327 89.8137 47.5327 89.8137 47.5344 89.8119C47.6003 89.8206 47.6679 89.8293 47.7338 89.8379C47.7383 89.8393 47.743 89.8398 47.7477 89.8397C47.8101 89.8483 47.8743 89.8553 47.9367 89.8622C48.0043 89.8691 48.072 89.8761 48.1396 89.883C48.1916 89.8882 48.2437 89.8934 48.2957 89.8986C48.3001 89.9002 48.3049 89.9008 48.3096 89.9004C48.3564 89.9038 48.4032 89.909 48.45 89.9125H48.457C48.4968 89.916 48.5385 89.9194 48.5783 89.9229C49.0622 89.9611 49.5477 89.9784 50.0402 89.9784C50.5726 89.9784 51.1015 89.9576 51.6234 89.9125H51.6286C51.7413 89.9021 51.8523 89.8917 51.9633 89.8813C51.9928 89.8778 52.0205 89.8761 52.05 89.8726C52.0552 89.8726 52.0622 89.8709 52.0674 89.8709C52.076 89.8692 52.0847 89.8691 52.0951 89.8674C52.0998 89.8676 52.1045 89.867 52.109 89.8657C52.1471 89.8622 52.1853 89.857 52.2252 89.8535L52.3552 89.8379C52.3986 89.8327 52.4419 89.8258 52.4853 89.8206C52.4957 89.8189 52.5044 89.8189 52.5148 89.8171C52.546 89.8136 52.5772 89.8085 52.6084 89.8033C52.624 89.8015 52.6396 89.7998 52.6535 89.7981C52.6847 89.7929 52.7142 89.7894 52.7454 89.7842H52.7471C53.6987 89.6472 54.638 89.4356 55.5564 89.1512C55.6049 89.1356 55.6535 89.1217 55.702 89.1062C55.7038 89.1062 55.7055 89.1044 55.7072 89.1044C55.7211 89.0992 55.7367 89.0957 55.7506 89.0905C55.8806 89.0489 56.009 89.0056 56.1373 88.9605C56.3142 88.9015 56.4893 88.8374 56.6645 88.7715C56.7113 88.7524 56.7581 88.7351 56.8049 88.716C56.9003 88.6796 56.9939 88.6414 57.0876 88.6033C57.2471 88.5391 57.4067 88.4715 57.5645 88.4021C57.7119 88.3362 57.8575 88.2703 58.0032 88.2009C58.0067 88.1992 58.0119 88.1992 58.0153 88.1957C58.0483 88.1801 58.0812 88.1645 58.1124 88.1489H58.1142C58.9128 87.7657 59.6829 87.3258 60.4188 86.8327C60.6546 86.6749 60.887 86.5119 61.1159 86.3437C61.2997 86.2067 61.4801 86.068 61.6604 85.9258C62.5501 85.2181 63.3738 84.431 64.1211 83.5744V83.5726C64.1749 83.5137 64.2252 83.453 64.2772 83.3923C64.2859 83.3836 64.2928 83.3749 64.2997 83.368C64.3327 83.3281 64.3639 83.29 64.3968 83.2518V83.2501C64.4402 83.1998 64.4835 83.1478 64.5252 83.0957C64.5356 83.0836 64.5442 83.0732 64.5529 83.0628V83.0611C64.5876 83.0195 64.6205 82.9778 64.6552 82.9345C64.6726 82.9137 64.6882 82.8929 64.7055 82.872V82.8703C64.8078 82.742 64.9067 82.6137 65.0055 82.4819C65.0315 82.4472 65.0575 82.4108 65.0853 82.3744C65.2101 82.2062 65.3315 82.0345 65.4494 81.8628V81.8611C65.4945 81.7969 65.5379 81.731 65.583 81.6668C65.6263 81.601 65.6697 81.5351 65.713 81.4692C65.7564 81.3998 65.8015 81.3322 65.8448 81.2628L65.85 81.2524C65.8934 81.1865 65.9367 81.1171 65.9783 81.0495C66.0113 80.994 66.0442 80.9403 66.0772 80.8865C66.098 80.8501 66.1205 80.8137 66.1413 80.7755C66.1495 80.7638 66.157 80.7516 66.1639 80.7391C66.2124 80.6542 66.261 80.5692 66.3096 80.4842C66.3668 80.3854 66.4223 80.2848 66.4778 80.1842C66.4986 80.1426 66.5211 80.101 66.5437 80.0594C66.5523 80.0455 66.5593 80.0316 66.5662 80.0177C66.5922 79.9692 66.6182 79.9189 66.6425 79.8686C66.6685 79.82 66.6945 79.7698 66.7205 79.7195C66.7448 79.6709 66.7708 79.6206 66.7951 79.5703C66.8142 79.5322 66.8315 79.494 66.8506 79.4559C66.8519 79.4528 66.8537 79.4499 66.8558 79.4472C66.8645 79.4281 66.8731 79.4108 66.8801 79.3935C66.8822 79.3908 66.8839 79.3879 66.8853 79.3848C66.9044 79.3466 66.9217 79.3068 66.9408 79.2686C66.965 79.2183 66.9876 79.1663 67.0119 79.116C67.0275 79.0813 67.0448 79.0449 67.0604 79.0085C67.083 78.9582 67.1072 78.9079 67.1281 78.8559C67.1523 78.8039 67.1749 78.7518 67.1974 78.6981C67.2039 78.6851 67.2097 78.6718 67.2148 78.6582C67.2269 78.6339 67.2356 78.6096 67.246 78.5854C67.2737 78.5212 67.3015 78.4553 67.3275 78.3911C67.3587 78.3183 67.3882 78.2437 67.4159 78.1709C67.4437 78.1033 67.4697 78.0339 67.4957 77.9646L67.5061 77.9403C67.9101 76.8761 68.2166 75.7773 68.4217 74.6576V74.6559C68.5374 74.0166 68.6201 73.3718 68.6697 72.7241C68.6714 72.6877 68.6749 72.653 68.6766 72.6183C68.7078 72.1796 68.7217 71.7391 68.7217 71.2969C68.7217 71.101 68.7182 70.9068 68.713 70.7125C68.592 66.6506 67.1435 62.7402 64.5893 59.5796C64.5338 59.5102 64.4783 59.4409 64.4211 59.3715C64.3639 59.3021 64.3049 59.2345 64.2477 59.1669C62.3467 56.9407 59.9492 55.1923 57.2486 54.0626C54.5479 52.933 51.6196 52.4537 48.6997 52.6635C45.7798 52.8732 42.95 53.7661 40.4385 55.2702C37.927 56.7742 35.804 58.8473 34.2408 61.3224C34.1558 61.4576 34.0708 61.5946 33.9893 61.7316C33.9061 61.8704 33.8263 62.0091 33.7466 62.1496C32.1756 64.942 31.3525 68.0929 31.357 71.2969Z" fill="#F2F2F2"/>
<path d="M49.2977 59.0773C52.3698 59.8656 55.518 60.32 58.6876 60.4326C59.1669 60.4587 59.6473 60.4554 60.1262 60.4228C61.1786 60.3343 62.0801 60.0035 63.0841 59.8228C63.5667 59.7361 64.1044 59.6727 64.5903 59.5791C64.478 59.4398 64.3637 59.3022 64.2474 59.1663C63.1996 59.2548 62.1356 59.5446 61.0752 59.6793C59.2727 59.9085 57.2531 59.6527 55.8867 59.0219C55.2237 58.7158 54.7159 58.3338 54.0553 58.0263C53.9654 57.9802 53.8681 57.9504 53.7678 57.9382C53.5774 57.9325 53.3892 57.9813 53.2256 58.0789C52.1172 58.6385 50.5081 59.0932 49.0144 58.843C48.9031 58.9301 49.1146 59.0293 49.2977 59.0773Z" fill="white"/>
<path d="M42.6882 61.0464C42.6745 61.0439 42.6609 61.042 42.6472 61.0396C42.7046 61.004 42.7586 60.9633 42.8086 60.918L42.6882 61.0464Z" fill="white"/>
<path d="M33.7469 62.1503C34.3708 62.2002 34.9978 62.2373 35.6282 62.2616C36.1075 62.2875 36.5879 62.2843 37.0668 62.2519C38.1193 62.1629 39.0207 61.8326 40.0247 61.6518C40.9448 61.4864 42.063 61.4067 42.6472 61.0396C41.1372 60.7783 39.5728 61.3103 38.0158 61.5083C36.7564 61.6632 35.4797 61.6001 34.2417 61.322C34.0693 61.5931 33.9044 61.8692 33.7469 62.1503Z" fill="white"/>
<path d="M41.2935 87.8073C41.4426 87.8888 41.5935 87.9669 41.7443 88.0414C41.7981 88.0675 41.8536 88.0935 41.9073 88.1212C41.9524 88.142 41.9975 88.1646 42.0426 88.1854C42.0565 88.1923 42.0686 88.1975 42.0807 88.2044C42.1189 88.2218 42.1553 88.2391 42.1935 88.2565C42.2351 88.2756 42.2767 88.2946 42.3166 88.3137C42.3634 88.3345 42.4085 88.3553 42.4553 88.3744C42.6287 88.4524 42.8039 88.527 42.979 88.5981C43.6067 88.8554 44.2481 89.0777 44.9004 89.264C44.9299 89.2727 44.9611 89.2813 44.9923 89.29C45.2715 89.368 45.5524 89.4391 45.8351 89.5033C46.3293 89.6178 46.8282 89.7114 47.3316 89.7842H47.3351C47.3958 89.7929 47.4547 89.8016 47.5154 89.8102C47.5206 89.8102 47.5258 89.812 47.5328 89.812C47.5328 89.8137 47.5328 89.8137 47.5345 89.812C47.6004 89.8206 47.668 89.8293 47.7339 89.838C47.7384 89.8393 47.7431 89.8399 47.7478 89.8397C47.8102 89.8484 47.8744 89.8553 47.9368 89.8623C48.0045 89.8692 48.0721 89.8761 48.1397 89.8831C48.1917 89.8883 48.2438 89.8935 48.2958 89.8987C48.3002 89.9002 48.305 89.9008 48.3097 89.9004C48.3565 89.9039 48.4033 89.9091 48.4501 89.9125H48.4571C48.4969 89.916 48.5386 89.9195 48.5784 89.923C49.0623 89.9611 49.5478 89.9784 50.0403 89.9784C50.5727 89.9784 51.1016 89.9576 51.6235 89.9125H51.6287C51.7415 89.9021 51.8524 89.8917 51.9634 89.8813C51.9929 89.8779 52.0206 89.8761 52.0501 89.8727C52.0553 89.8727 52.0623 89.8709 52.0675 89.8709C52.0761 89.8692 52.0848 89.8692 52.0952 89.8675C52.0999 89.8676 52.1046 89.8671 52.1091 89.8657C52.1472 89.8623 52.1854 89.8571 52.2253 89.8536L52.3553 89.838C52.3987 89.8328 52.442 89.8258 52.4854 89.8206C52.4958 89.8189 52.5045 89.8189 52.5149 89.8172C52.5461 89.8137 52.5773 89.8085 52.6085 89.8033C52.6241 89.8016 52.6397 89.7998 52.6536 89.7981C52.6848 89.7929 52.7143 89.7894 52.7455 89.7842H52.7472C53.6988 89.6472 54.6381 89.4356 55.5565 89.1513C55.605 89.1357 55.6536 89.1218 55.7022 89.1062C55.4783 88.062 55.0173 87.0832 54.3549 86.2455C53.6925 85.4078 52.8464 84.7336 51.8819 84.275C52.1205 84.0477 52.2854 83.7542 52.3553 83.4322C52.4004 83.2247 52.4039 83.0103 52.3658 82.8014C52.3277 82.5925 52.2487 82.3931 52.1334 82.2149C51.9083 81.8693 51.5553 81.6273 51.1519 81.542L48.5819 81.0045C48.1682 80.9238 47.7394 81.0097 47.3887 81.2435C47.038 81.4773 46.7937 81.8401 46.7091 82.253C46.6829 82.3796 46.6712 82.5088 46.6744 82.638C44.1998 84.2854 42.4189 85.9935 41.2935 87.8073Z" fill="#6C63FF"/>
<path d="M48.8816 79.9894C51.8386 79.9894 54.2358 77.5923 54.2358 74.6353C54.2358 71.6782 51.8386 69.2811 48.8816 69.2811C45.9246 69.2811 43.5275 71.6782 43.5275 74.6353C43.5275 77.5923 45.9246 79.9894 48.8816 79.9894Z" fill="#FFB8B8"/>
<path d="M45.5443 79.2514C44.9734 78.8613 44.3903 78.1119 44.0011 77.5502C43.4853 76.8119 43.1304 75.9734 42.9594 75.0891C42.7884 74.2048 42.805 73.2945 43.0084 72.4171C43.0732 72.0662 43.2325 71.7398 43.4692 71.4728C43.7214 71.2233 44.1333 71.105 44.4411 71.2814C44.3571 71.0565 44.3201 70.8167 44.3324 70.577C44.3446 70.3372 44.4059 70.1025 44.5124 69.8873C44.7288 69.4576 45.0422 69.0843 45.4279 68.7969C46.1656 68.2288 47.0433 67.8711 47.9679 67.7616C48.8925 67.6522 49.8295 67.7951 50.6794 68.1752C51.0138 68.3301 50.4645 67.1332 50.8146 67.2487C51.1623 67.3833 51.549 67.3765 51.8918 67.2297C52.221 67.064 53.3123 68.0487 53.186 67.7024C53.4359 67.8158 53.653 67.9907 53.8171 68.2106C53.9812 68.4305 54.0869 68.6884 54.1245 68.9602C54.1621 69.232 54.1303 69.5089 54.032 69.7651C53.9338 70.0214 53.7723 70.2485 53.5626 70.4255C53.2863 70.6588 52.9413 70.7931 52.6387 70.9911C52.1086 71.3641 51.7334 71.9182 51.5839 72.5489C51.4344 73.1795 51.521 73.8431 51.8274 74.4143C51.509 74.2098 51.1597 74.058 50.793 73.9648C50.609 73.9199 50.417 73.9196 50.2329 73.9639C50.0487 74.0082 49.8778 74.0958 49.7344 74.2195C49.6145 74.3566 49.524 74.5168 49.4683 74.6903C49.4126 74.8637 49.393 75.0467 49.4106 75.228C49.4226 75.5913 49.509 75.9493 49.5188 76.3127C49.5472 77.379 50.1183 79.4063 49.2915 79.9731C48.6391 80.4204 46.3239 79.7839 45.5443 79.2514Z" fill="#2F2E41"/>
<path d="M52.5631 47.8363C52.4504 47.8361 52.3388 47.8135 52.2347 47.7699C52.0795 47.7076 51.9467 47.5998 51.8538 47.4607C51.7609 47.3216 51.7121 47.1577 51.7138 46.9904V46.1429C51.7137 45.9652 51.643 45.7947 51.5173 45.669C51.3916 45.5433 51.2212 45.4726 51.0434 45.4724C50.8196 45.4722 50.6051 45.3832 50.4469 45.2249C50.2887 45.0667 50.1997 44.8522 50.1995 44.6285V33.0178C50.1997 32.794 50.2887 32.5795 50.4469 32.4213C50.6051 32.2631 50.8196 32.1741 51.0433 32.1738H89.5104C89.7341 32.1741 89.9486 32.2631 90.1068 32.4213C90.2651 32.5795 90.3541 32.794 90.3543 33.0178V44.6285C90.3541 44.8522 90.2651 45.0667 90.1068 45.2249C89.9486 45.3832 89.7341 45.4722 89.5104 45.4724H55.547C55.4589 45.4722 55.3716 45.4894 55.2903 45.5231C55.2089 45.5568 55.135 45.6063 55.0728 45.6688L53.1546 47.587C53.0774 47.6657 52.9854 47.7282 52.8838 47.771C52.7823 47.8138 52.6733 47.836 52.5631 47.8363Z" fill="white"/>
<path d="M52.5631 48.0097C52.4275 48.0096 52.2933 47.9825 52.1682 47.9301C51.9811 47.8549 51.8211 47.725 51.7091 47.5573C51.5971 47.3896 51.5383 47.1921 51.5404 46.9904V46.143C51.5403 46.0112 51.4879 45.8849 51.3947 45.7916C51.3015 45.6984 51.1751 45.646 51.0433 45.6458C50.7736 45.6455 50.515 45.5382 50.3243 45.3475C50.1336 45.1567 50.0263 44.8981 50.026 44.6284V33.0178C50.0263 32.7481 50.1336 32.4895 50.3243 32.2988C50.515 32.108 50.7736 32.0007 51.0433 32.0004H89.5103C89.78 32.0007 90.0386 32.108 90.2293 32.2987C90.4201 32.4895 90.5273 32.7481 90.5277 33.0178V44.6284C90.5274 44.8981 90.4201 45.1567 90.2294 45.3475C90.0387 45.5382 89.78 45.6455 89.5103 45.6458H55.5469C55.4816 45.6456 55.4169 45.6584 55.3566 45.6834C55.2962 45.7084 55.2414 45.7451 55.1954 45.7915L53.2771 47.7096C53.1839 47.8044 53.0727 47.8797 52.9502 47.9312C52.8276 47.9828 52.696 48.0094 52.5631 48.0097ZM51.0433 32.3473C50.8655 32.3475 50.6951 32.4182 50.5694 32.5439C50.4437 32.6696 50.373 32.84 50.3728 33.0178V44.6284C50.373 44.8062 50.4437 44.9767 50.5694 45.1024C50.6951 45.2281 50.8656 45.2988 51.0433 45.299C51.2671 45.2993 51.4816 45.3883 51.6398 45.5465C51.798 45.7048 51.887 45.9193 51.8872 46.143V46.9904C51.8872 47.123 51.9266 47.2526 52.0003 47.3629C52.0739 47.4731 52.1787 47.559 52.3012 47.6098C52.4237 47.6605 52.5585 47.6738 52.6885 47.6479C52.8186 47.622 52.938 47.5582 53.0318 47.4644L54.9502 45.5463C55.0283 45.4676 55.1213 45.4053 55.2238 45.3628C55.3262 45.3204 55.4361 45.2987 55.5469 45.299H89.5103C89.6881 45.2988 89.8586 45.2281 89.9843 45.1024C90.11 44.9767 90.1807 44.8062 90.1808 44.6284V33.0178C90.1806 32.84 90.1099 32.6696 89.9842 32.5438C89.8585 32.4181 89.6881 32.3474 89.5103 32.3472L51.0433 32.3473Z" fill="#3F3D56"/>
<path d="M86.2048 37.4303H55.012C54.8929 37.4303 54.7786 37.383 54.6943 37.2987C54.6101 37.2145 54.5627 37.1002 54.5627 36.9811C54.5627 36.8619 54.6101 36.7476 54.6943 36.6634C54.7786 36.5791 54.8929 36.5318 55.012 36.5318H86.2048C86.3239 36.5318 86.4382 36.5791 86.5225 36.6634C86.6067 36.7476 86.654 36.8619 86.654 36.9811C86.654 37.1002 86.6067 37.2145 86.5225 37.2987C86.4382 37.383 86.3239 37.4303 86.2048 37.4303Z" fill="#6C63FF"/>
<path d="M86.1475 39.339H55.012C54.8929 39.339 54.7786 39.2917 54.6943 39.2075C54.6101 39.1232 54.5627 39.0089 54.5627 38.8898C54.5627 38.7706 54.6101 38.6563 54.6943 38.5721C54.7786 38.4878 54.8929 38.4405 55.012 38.4405H86.1475C86.2666 38.4405 86.3809 38.4878 86.4651 38.5721C86.5494 38.6563 86.5967 38.7706 86.5967 38.8898C86.5967 39.0089 86.5494 39.1232 86.4651 39.2075C86.3809 39.2917 86.2666 39.339 86.1475 39.339Z" fill="#E6E6E6"/>
<path d="M86.1165 41.2477H55.012C54.8929 41.2477 54.7786 41.2003 54.6943 41.1161C54.6101 41.0318 54.5627 40.9175 54.5627 40.7984C54.5627 40.6792 54.6101 40.5649 54.6943 40.4807C54.7786 40.3964 54.8929 40.3491 55.012 40.3491H86.1165C86.2357 40.3491 86.35 40.3964 86.4342 40.4807C86.5185 40.5649 86.5658 40.6792 86.5658 40.7984C86.5658 40.9175 86.5185 41.0318 86.4342 41.1161C86.35 41.2003 86.2357 41.2477 86.1165 41.2477Z" fill="#E6E6E6"/>
<path d="M135.327 30.3721C135.327 30.7935 135.313 31.2148 135.284 31.6328C135.253 32.1322 135.199 32.6281 135.126 33.1206C134.881 34.7789 134.413 36.3964 133.735 37.9293C133.701 38.0056 133.666 38.0819 133.631 38.1582L133.579 38.2726C133.562 38.3108 133.543 38.3489 133.525 38.3854C133.501 38.4357 133.479 38.4842 133.454 38.5328C133.425 38.5935 133.395 38.6541 133.364 38.7148C133.361 38.7218 133.357 38.7305 133.352 38.7391C133.326 38.7911 133.302 38.8414 133.274 38.8935C133.269 38.9048 133.263 38.9158 133.257 38.9264C133.227 38.9854 133.196 39.0461 133.165 39.105C133.13 39.1675 133.097 39.2316 133.062 39.294C132.979 39.4484 132.892 39.601 132.804 39.7536C132.778 39.7987 132.752 39.8437 132.724 39.8888C132.7 39.9305 132.676 39.9721 132.65 40.0137C132.632 40.0414 132.615 40.0709 132.598 40.0987C132.57 40.1455 132.542 40.1906 132.513 40.2374C132.448 40.3397 132.383 40.442 132.318 40.5443H132.317C132.287 40.5911 132.256 40.638 132.225 40.6831V40.6848C132.133 40.8235 132.037 40.9622 131.942 41.0992C131.942 41.0992 131.942 41.0993 131.941 41.0994C131.941 41.0994 131.941 41.0996 131.941 41.0997C131.941 41.0999 131.941 41.1001 131.94 41.1003C131.94 41.1005 131.94 41.1007 131.94 41.101C131.864 41.2119 131.784 41.3195 131.706 41.427V41.4287C131.654 41.4963 131.604 41.5657 131.552 41.6333C131.51 41.6888 131.467 41.746 131.424 41.8015C131.415 41.8137 131.405 41.8241 131.396 41.8362V41.838C131.384 41.8536 131.372 41.8674 131.359 41.883C131.176 42.1189 130.986 42.3495 130.791 42.5749L130.759 42.6114C130.749 42.6235 130.737 42.6356 130.726 42.6495C130.709 42.6686 130.694 42.6877 130.676 42.7067C130.661 42.7258 130.643 42.7449 130.626 42.764C129.607 43.9112 128.453 44.9297 127.187 45.7969C127.019 45.9131 126.847 46.0258 126.676 46.1351C126.632 46.1628 126.589 46.1906 126.546 46.2166C126.533 46.2252 126.52 46.2339 126.507 46.2426C126.483 46.2565 126.461 46.2703 126.436 46.2859C126.414 46.2998 126.391 46.3137 126.367 46.3276C126.275 46.3848 126.181 46.4403 126.088 46.4958C126.065 46.5096 126.041 46.5235 126.017 46.5374C125.994 46.5495 125.97 46.5634 125.946 46.5773C125.946 46.579 125.946 46.579 125.944 46.579H125.942V46.5807H125.94C125.824 46.6484 125.706 46.7143 125.587 46.7784C125.522 46.8131 125.457 46.8495 125.391 46.8825C125.242 46.964 125.091 47.042 124.94 47.1166C124.886 47.1426 124.831 47.1686 124.777 47.1963C124.732 47.2172 124.687 47.2397 124.642 47.2605C124.628 47.2674 124.616 47.2726 124.603 47.2796C124.565 47.2969 124.529 47.3143 124.491 47.3316C124.449 47.3507 124.407 47.3697 124.368 47.3888C124.321 47.4096 124.276 47.4304 124.229 47.4495C124.055 47.5276 123.88 47.6021 123.705 47.6732C123.077 47.9305 122.436 48.1528 121.784 48.3391C121.754 48.3478 121.723 48.3565 121.692 48.3651C121.413 48.4432 121.132 48.5143 120.849 48.5784C120.355 48.6929 119.856 48.7865 119.352 48.8594H119.349C119.288 48.868 119.229 48.8767 119.169 48.8854C119.163 48.8854 119.158 48.8871 119.151 48.8871C119.151 48.8888 119.151 48.8888 119.15 48.8871C119.084 48.8958 119.016 48.9044 118.95 48.9131C118.946 48.9144 118.941 48.915 118.936 48.9148C118.874 48.9235 118.81 48.9304 118.747 48.9374C118.68 48.9443 118.612 48.9512 118.544 48.9582C118.492 48.9634 118.44 48.9686 118.388 48.9738C118.384 48.9753 118.379 48.9759 118.374 48.9755C118.328 48.979 118.281 48.9842 118.234 48.9877H118.227C118.187 48.9911 118.146 48.9946 118.106 48.9981C117.622 49.0362 117.136 49.0536 116.644 49.0536C116.111 49.0536 115.583 49.0328 115.061 48.9877H115.055C114.943 48.9773 114.832 48.9669 114.721 48.9565C114.691 48.953 114.663 48.9512 114.634 48.9478C114.629 48.9478 114.622 48.9461 114.617 48.9461C114.608 48.9443 114.599 48.9443 114.589 48.9426C114.584 48.9428 114.58 48.9422 114.575 48.9408C114.537 48.9374 114.499 48.9322 114.459 48.9287L114.329 48.9131C114.285 48.9079 114.242 48.901 114.199 48.8958C114.188 48.894 114.18 48.894 114.169 48.8923C114.138 48.8888 114.107 48.8836 114.076 48.8784C114.06 48.8767 114.044 48.875 114.031 48.8732C113.999 48.868 113.97 48.8646 113.939 48.8594H113.937C112.985 48.7224 112.046 48.5107 111.128 48.2264C111.079 48.2108 111.031 48.1969 110.982 48.1813C110.98 48.1813 110.978 48.1796 110.977 48.1796C110.963 48.1744 110.947 48.1709 110.933 48.1657C110.803 48.1241 110.675 48.0807 110.547 48.0357C110.37 47.9767 110.195 47.9125 110.02 47.8466C109.973 47.8276 109.926 47.8102 109.879 47.7911C109.784 47.7547 109.69 47.7166 109.596 47.6784C109.437 47.6143 109.277 47.5466 109.12 47.4773C108.972 47.4114 108.826 47.3455 108.681 47.2761C108.677 47.2744 108.672 47.2744 108.669 47.2709C108.636 47.2553 108.603 47.2397 108.572 47.2241H108.57C107.771 46.8408 107.001 46.401 106.265 45.9079C106.029 45.7501 105.797 45.5871 105.568 45.4189C105.384 45.2819 105.204 45.1432 105.024 45.001C104.134 44.2933 103.31 43.5062 102.563 42.6495V42.6478C102.509 42.5888 102.459 42.5281 102.407 42.4674C102.398 42.4588 102.391 42.4501 102.384 42.4432C102.351 42.4033 102.32 42.3651 102.287 42.327V42.3252C102.244 42.275 102.2 42.2229 102.159 42.1709C102.148 42.1588 102.14 42.1484 102.131 42.138V42.1362C102.096 42.0946 102.063 42.053 102.029 42.0096C102.011 41.9888 101.996 41.968 101.978 41.9472V41.9455C101.876 41.8172 101.777 41.6888 101.678 41.557C101.652 41.5224 101.626 41.4859 101.599 41.4495C101.474 41.2813 101.352 41.1096 101.235 40.938V40.9362C101.189 40.8721 101.146 40.8062 101.101 40.742C101.058 40.6761 101.014 40.6102 100.971 40.5443C100.928 40.475 100.883 40.4073 100.839 40.338L100.834 40.3276C100.791 40.2617 100.747 40.1923 100.706 40.1247C100.673 40.0692 100.64 40.0154 100.607 39.9617C100.586 39.9253 100.563 39.8888 100.543 39.8507C100.534 39.839 100.527 39.8268 100.52 39.8143C100.472 39.7293 100.423 39.6443 100.374 39.5594C100.317 39.4605 100.262 39.3599 100.206 39.2594C100.185 39.2177 100.163 39.1761 100.14 39.1345C100.132 39.1206 100.125 39.1068 100.118 39.0929C100.092 39.0443 100.066 38.9941 100.041 38.9438C100.015 38.8952 99.9894 38.8449 99.9634 38.7946C99.9392 38.7461 99.9131 38.6958 99.8889 38.6455C99.8698 38.6073 99.8525 38.5692 99.8334 38.531C99.832 38.5279 99.8303 38.525 99.8282 38.5224C99.8195 38.5033 99.8108 38.486 99.8039 38.4686C99.8018 38.466 99.8 38.4631 99.7987 38.4599C99.7796 38.4218 99.7623 38.3819 99.7432 38.3438C99.7189 38.2935 99.6964 38.2414 99.6721 38.1912C99.6565 38.1565 99.6392 38.1201 99.6236 38.0836C99.601 38.0334 99.5767 37.9831 99.5559 37.931C99.5316 37.879 99.5091 37.827 99.4866 37.7732C99.4801 37.7603 99.4743 37.747 99.4692 37.7333C99.4571 37.7091 99.4484 37.6848 99.438 37.6605C99.4103 37.5964 99.3825 37.5305 99.3565 37.4663C99.3253 37.3935 99.2958 37.3189 99.2681 37.2461C99.2403 37.1784 99.2143 37.1091 99.1883 37.0397L99.1779 37.0154C98.7738 35.9512 98.4674 34.8525 98.2623 33.7328V33.731C98.1466 33.0918 98.0638 32.447 98.0143 31.7992C98.0126 31.7628 98.0091 31.7281 98.0074 31.6935C97.9762 31.2547 97.9623 30.8143 97.9623 30.3721C97.9623 30.1761 97.9657 29.9819 97.9709 29.7877C98.092 25.7258 99.5404 21.8154 102.095 18.6547C102.15 18.5854 102.206 18.516 102.263 18.4466C102.32 18.3773 102.379 18.3097 102.436 18.242C104.337 16.0158 106.735 14.2674 109.435 13.1378C112.136 12.0081 115.064 11.5289 117.984 11.7386C120.904 11.9484 123.734 12.8412 126.246 14.3453C128.757 15.8493 130.88 17.9224 132.443 20.3975C132.528 20.5328 132.613 20.6698 132.695 20.8068C132.778 20.9455 132.858 21.0842 132.937 21.2247C134.508 24.0171 135.332 27.168 135.327 30.3721Z" fill="#F2F2F2"/>
<path d="M117.386 18.1525C114.314 18.9408 111.166 19.3951 107.996 19.5077C107.517 19.5338 107.037 19.5306 106.558 19.4979C105.505 19.4094 104.604 19.0786 103.6 18.8979C103.117 18.8112 102.58 18.7479 102.094 18.6542C102.206 18.5149 102.32 18.3773 102.437 18.2415C103.484 18.33 104.548 18.6198 105.609 18.7544C107.411 18.9836 109.431 18.7278 110.797 18.097C111.46 17.7909 111.968 17.4089 112.629 17.1014C112.718 17.0553 112.816 17.0255 112.916 17.0134C113.107 17.0077 113.295 17.0565 113.458 17.1541C114.567 17.7136 116.176 18.1683 117.669 17.9181C117.781 18.0053 117.569 18.1045 117.386 18.1525Z" fill="white"/>
<path d="M123.996 20.1215C124.009 20.119 124.023 20.1171 124.037 20.1147C123.979 20.0792 123.925 20.0385 123.875 19.9931L123.996 20.1215Z" fill="white"/>
<path d="M132.937 21.2254C132.313 21.2753 131.686 21.3124 131.056 21.3368C130.577 21.3627 130.096 21.3594 129.617 21.327C128.565 21.238 127.663 20.9077 126.659 20.7269C125.739 20.5616 124.621 20.4819 124.037 20.1148C125.547 19.8534 127.111 20.3855 128.668 20.5835C129.928 20.7383 131.204 20.6753 132.442 20.3971C132.615 20.6682 132.78 20.9444 132.937 21.2254Z" fill="white"/>
<path d="M114.538 38.5469C117.637 38.5469 120.149 35.9786 120.149 32.8105C120.149 29.6424 117.637 27.0742 114.538 27.0742C111.439 27.0742 108.926 29.6424 108.926 32.8105C108.926 35.9786 111.439 38.5469 114.538 38.5469Z" fill="#FFB6B6"/>
<path d="M125.391 46.8825C125.241 46.964 125.091 47.042 124.94 47.1166C124.886 47.1426 124.83 47.1686 124.777 47.1964C124.732 47.2172 124.687 47.2397 124.641 47.2605C124.628 47.2675 124.615 47.2727 124.603 47.2796C124.565 47.2969 124.529 47.3143 124.491 47.3316C124.449 47.3507 124.407 47.3698 124.367 47.3888C124.321 47.4097 124.276 47.4305 124.229 47.4495C124.055 47.5276 123.88 47.6021 123.705 47.6732C123.077 47.9305 122.436 48.1528 121.784 48.3391C121.754 48.3478 121.723 48.3565 121.692 48.3651C121.413 48.4432 121.132 48.5143 120.849 48.5784C120.355 48.6929 119.856 48.7865 119.352 48.8594H119.349C119.288 48.868 119.229 48.8767 119.169 48.8854C119.163 48.8854 119.158 48.8871 119.151 48.8871C119.151 48.8888 119.151 48.8888 119.15 48.8871C119.084 48.8958 119.016 48.9045 118.95 48.9131C118.946 48.9145 118.941 48.915 118.936 48.9149C118.874 48.9235 118.81 48.9305 118.747 48.9374C118.68 48.9443 118.612 48.9513 118.544 48.9582C118.492 48.9634 118.44 48.9686 118.388 48.9738C118.384 48.9754 118.379 48.9759 118.374 48.9756C118.328 48.979 118.281 48.9842 118.234 48.9877H118.227C118.187 48.9912 118.146 48.9946 118.106 48.9981C117.622 49.0363 117.136 49.0536 116.644 49.0536C116.111 49.0536 115.583 49.0328 115.061 48.9877H115.055C114.943 48.9773 114.832 48.9669 114.721 48.9565C114.691 48.953 114.663 48.9513 114.634 48.9478C114.629 48.9478 114.622 48.9461 114.617 48.9461C114.608 48.9443 114.599 48.9443 114.589 48.9426C114.584 48.9428 114.579 48.9422 114.575 48.9409C114.537 48.9374 114.499 48.9322 114.459 48.9287L114.329 48.9131C114.285 48.9079 114.242 48.901 114.199 48.8958C114.188 48.894 114.18 48.8941 114.169 48.8923C114.138 48.8889 114.107 48.8836 114.076 48.8785C114.06 48.8767 114.044 48.875 114.03 48.8732C113.999 48.868 113.97 48.8646 113.939 48.8594H113.937C112.985 48.7224 112.046 48.5108 111.128 48.2264C111.079 48.2108 111.03 48.1969 110.982 48.1813C111.206 47.1371 111.667 46.1584 112.329 45.3207C112.992 44.483 113.838 43.8088 114.802 43.3501C114.564 43.1229 114.399 42.8293 114.329 42.5073C114.284 42.2998 114.28 42.0854 114.318 41.8765C114.356 41.6676 114.435 41.4683 114.551 41.29C114.776 40.9445 115.129 40.7025 115.532 40.6172L118.102 40.0796C118.516 39.999 118.945 40.0849 119.295 40.3187C119.646 40.5525 119.89 40.9153 119.975 41.3282C120.001 41.4547 120.013 41.5839 120.01 41.7131C122.484 43.3605 124.265 45.0686 125.391 46.8825Z" fill="#6C63FF"/>
<path d="M129.553 30.3227C128.599 29.2104 128.146 27.7347 127.383 26.4716C126.621 25.2086 125.294 24.0781 123.892 24.372C122.926 24.5747 122.179 25.4273 121.801 26.378C121.423 27.3286 121.352 28.377 121.286 29.404C121.309 27.2934 119.919 25.2473 118.003 24.5739C116.088 23.9004 113.795 24.6516 112.592 26.3472C112.067 25.8604 111.381 25.5832 110.665 25.5682C109.949 25.5532 109.252 25.8013 108.707 26.2657C107.631 27.2279 107.392 29.0593 108.184 30.2866C108.976 31.5139 110.69 31.9712 111.949 31.2905L112.394 31.6997C112.143 32.5754 112.629 33.6099 113.445 33.9395C114.107 34.2069 115.041 34.1624 115.289 34.857C115.462 35.3423 115.139 35.8604 114.794 36.2333C114.45 36.6063 114.042 36.9914 114 37.5075C113.938 38.2862 114.743 38.8316 115.474 38.9959C117.238 39.3921 119.195 38.5753 120.212 37.0187C120.231 36.9887 120.253 36.9586 120.276 36.9285C120.846 36.1991 121.262 35.3611 121.497 34.4656C121.733 33.5701 121.783 32.636 121.646 31.7204C121.588 31.3606 121.646 31.093 121.894 31.0078C122.966 30.6396 125.97 31.4125 126.879 32.111C127.788 32.8096 128.516 33.7341 129.392 34.4777C130.267 35.2214 131.383 35.795 132.495 35.5925C133.386 35.4303 134.143 34.7838 134.653 34.004C135.162 33.2243 135.455 32.3153 135.718 31.412C133.749 32.5495 131.054 32.0734 129.553 30.3227Z" fill="#2F2E41"/>
<path d="M14.3628 18.7536C14.3628 19.175 14.3767 19.5963 14.4062 20.0143C14.4374 20.5137 14.4911 21.0096 14.564 21.5021C14.8087 23.1604 15.2766 24.7779 15.9547 26.3108C15.9894 26.3871 16.0241 26.4634 16.0588 26.5397L16.1108 26.6541C16.1281 26.6923 16.1472 26.7304 16.1645 26.7669C16.1888 26.8172 16.2114 26.8657 16.2356 26.9143C16.2651 26.975 16.2946 27.0356 16.3258 27.0963C16.3293 27.1033 16.3328 27.1119 16.338 27.1206C16.364 27.1726 16.3882 27.2229 16.416 27.275C16.4211 27.2863 16.4269 27.2973 16.4333 27.3079C16.4628 27.3669 16.494 27.4276 16.5252 27.4865C16.5599 27.549 16.5929 27.6131 16.6276 27.6755C16.7108 27.8299 16.7975 27.9825 16.8859 28.1351C16.9119 28.1802 16.938 28.2252 16.9657 28.2703C16.99 28.312 17.0143 28.3536 17.0403 28.3952C17.0576 28.4229 17.0749 28.4524 17.0923 28.4802C17.12 28.527 17.1478 28.5721 17.1773 28.6189C17.2414 28.7212 17.3073 28.8235 17.3715 28.9258H17.3732C17.4027 28.9726 17.4339 29.0195 17.4651 29.0645V29.0663C17.557 29.205 17.6524 29.3437 17.7478 29.4807C17.748 29.4807 17.7482 29.4808 17.7484 29.4809C17.7487 29.4809 17.7489 29.4811 17.749 29.4812C17.7492 29.4814 17.7493 29.4816 17.7494 29.4818C17.7495 29.482 17.7495 29.4822 17.7495 29.4825C17.8258 29.5934 17.9056 29.701 17.9836 29.8085V29.8102C18.0356 29.8778 18.0859 29.9472 18.138 30.0148C18.1796 30.0703 18.2229 30.1275 18.2663 30.183C18.2749 30.1952 18.2854 30.2056 18.294 30.2177V30.2195C18.3062 30.2351 18.3183 30.2489 18.3304 30.2645C18.5143 30.5004 18.7039 30.731 18.8992 30.9564L18.9304 30.9929C18.9408 31.005 18.953 31.0171 18.9634 31.031C18.9807 31.0501 18.9963 31.0692 19.0137 31.0882C19.0293 31.1073 19.0466 31.1264 19.064 31.1455C20.0824 32.2927 21.2372 33.3112 22.5027 34.1784C22.6709 34.2946 22.8426 34.4073 23.0143 34.5166C23.0576 34.5443 23.101 34.5721 23.1443 34.5981C23.1565 34.6067 23.1703 34.6154 23.1825 34.6241C23.2067 34.638 23.2293 34.6518 23.2536 34.6674C23.2761 34.6813 23.2986 34.6952 23.3229 34.709C23.4148 34.7663 23.5085 34.8218 23.6021 34.8773C23.6247 34.8911 23.6489 34.905 23.6732 34.9189C23.6958 34.931 23.72 34.9449 23.7443 34.9588C23.7443 34.9605 23.7443 34.9605 23.746 34.9605H23.7478V34.9622H23.7495C23.8657 35.0299 23.9836 35.0958 24.1033 35.1599C24.1674 35.1946 24.2333 35.231 24.2992 35.264C24.4484 35.3455 24.5992 35.4235 24.7501 35.4981C24.8039 35.5241 24.8593 35.5501 24.9131 35.5778C24.9582 35.5986 25.0033 35.6212 25.0484 35.642C25.0622 35.6489 25.0744 35.6541 25.0865 35.6611C25.1247 35.6784 25.1611 35.6958 25.1992 35.7131C25.2408 35.7322 25.2825 35.7512 25.3223 35.7703C25.3692 35.7911 25.4143 35.8119 25.4611 35.831C25.6345 35.909 25.8096 35.9836 25.9848 36.0547C26.6124 36.312 27.2539 36.5343 27.9062 36.7206C27.9356 36.7293 27.9669 36.738 27.9981 36.7466C28.2773 36.8247 28.5582 36.8958 28.8409 36.9599C29.3351 37.0744 29.8339 37.168 30.3374 37.2408H30.3409C30.4016 37.2495 30.4605 37.2582 30.5212 37.2669C30.5264 37.2669 30.5316 37.2686 30.5385 37.2686C30.5385 37.2703 30.5385 37.2703 30.5403 37.2686C30.6062 37.2773 30.6738 37.2859 30.7397 37.2946C30.7442 37.2959 30.7489 37.2965 30.7536 37.2963C30.816 37.305 30.8802 37.3119 30.9426 37.3189C31.0102 37.3258 31.0778 37.3328 31.1455 37.3397C31.1975 37.3449 31.2495 37.3501 31.3016 37.3553C31.306 37.3568 31.3107 37.3574 31.3154 37.357C31.3622 37.3605 31.4091 37.3657 31.4559 37.3692H31.4628C31.5027 37.3726 31.5443 37.3761 31.5842 37.3796C32.068 37.4177 32.5536 37.4351 33.0461 37.4351C33.5784 37.4351 34.1073 37.4143 34.6293 37.3692H34.6345C34.7472 37.3588 34.8582 37.3484 34.9692 37.338C34.9987 37.3345 35.0264 37.3328 35.0559 37.3293C35.0611 37.3293 35.068 37.3275 35.0732 37.3275C35.0819 37.3258 35.0906 37.3258 35.101 37.3241C35.1057 37.3243 35.1103 37.3237 35.1148 37.3223C35.153 37.3189 35.1911 37.3137 35.231 37.3102L35.3611 37.2946C35.4044 37.2894 35.4478 37.2825 35.4911 37.2773C35.5016 37.2755 35.5102 37.2755 35.5206 37.2738C35.5518 37.2703 35.5831 37.2651 35.6143 37.2599C35.6299 37.2582 35.6455 37.2565 35.6594 37.2547C35.6906 37.2495 35.72 37.2461 35.7513 37.2409H35.753C36.7046 37.1039 37.6439 36.8922 38.5623 36.6079C38.6108 36.5923 38.6594 36.5784 38.7079 36.5628C38.7096 36.5628 38.7114 36.5611 38.7131 36.5611C38.727 36.5559 38.7426 36.5524 38.7565 36.5472C38.8865 36.5056 39.0148 36.4622 39.1432 36.4172C39.32 36.3582 39.4952 36.294 39.6703 36.2281C39.7172 36.2091 39.764 36.1917 39.8108 36.1726C39.9062 36.1362 39.9998 36.0981 40.0935 36.0599C40.253 35.9958 40.4125 35.9281 40.5703 35.8588C40.7177 35.7929 40.8634 35.727 41.0091 35.6576C41.0125 35.6559 41.0177 35.6559 41.0212 35.6524C41.0542 35.6368 41.0871 35.6212 41.1183 35.6056H41.1201C41.9186 35.2223 42.6888 34.7825 43.4247 34.2894C43.6605 34.1316 43.8929 33.9686 44.1218 33.8004C44.3056 33.6634 44.4859 33.5247 44.6663 33.3825C45.556 32.6748 46.3796 31.8877 47.127 31.031V31.0293C47.1807 30.9703 47.231 30.9096 47.2831 30.8489C47.2917 30.8403 47.2987 30.8316 47.3056 30.8247C47.3386 30.7848 47.3698 30.7466 47.4027 30.7085V30.7067C47.4461 30.6565 47.4894 30.6044 47.531 30.5524C47.5414 30.5403 47.5501 30.5299 47.5588 30.5195V30.5177C47.5935 30.4761 47.6264 30.4345 47.6611 30.3911C47.6784 30.3703 47.694 30.3495 47.7114 30.3287V30.327C47.8137 30.1987 47.9125 30.0703 48.0114 29.9385C48.0374 29.9039 48.0634 29.8674 48.0912 29.831C48.216 29.6628 48.3374 29.4911 48.4553 29.3195V29.3177C48.5004 29.2536 48.5438 29.1877 48.5888 29.1235C48.6322 29.0576 48.6755 28.9917 48.7189 28.9258C48.7622 28.8565 48.8073 28.7888 48.8507 28.7195L48.8559 28.7091C48.8992 28.6432 48.9426 28.5738 48.9842 28.5062C49.0172 28.4507 49.0501 28.3969 49.0831 28.3432C49.1039 28.3068 49.1264 28.2703 49.1472 28.2322C49.1554 28.2204 49.1629 28.2083 49.1698 28.1958C49.2183 28.1108 49.2669 28.0258 49.3154 27.9409C49.3727 27.842 49.4281 27.7414 49.4836 27.6409C49.5044 27.5992 49.527 27.5576 49.5495 27.516C49.5582 27.5021 49.5651 27.4883 49.5721 27.4744C49.5981 27.4258 49.6241 27.3756 49.6484 27.3253C49.6744 27.2767 49.7004 27.2264 49.7264 27.1761C49.7507 27.1276 49.7767 27.0773 49.801 27.027C49.8201 26.9888 49.8374 26.9507 49.8565 26.9125C49.8578 26.9094 49.8596 26.9065 49.8617 26.9039C49.8703 26.8848 49.879 26.8675 49.886 26.8501C49.8881 26.8475 49.8898 26.8445 49.8912 26.8414C49.9102 26.8033 49.9276 26.7634 49.9466 26.7253C49.9709 26.675 49.9935 26.6229 50.0177 26.5727C50.0334 26.538 50.0507 26.5016 50.0663 26.4651C50.0888 26.4149 50.1131 26.3646 50.1339 26.3125C50.1582 26.2605 50.1808 26.2085 50.2033 26.1547C50.2098 26.1418 50.2156 26.1284 50.2206 26.1148C50.2328 26.0906 50.2414 26.0663 50.2519 26.042C50.2796 25.9779 50.3073 25.912 50.3334 25.8478C50.3646 25.775 50.394 25.7004 50.4218 25.6276C50.4495 25.5599 50.4755 25.4906 50.5016 25.4212L50.512 25.3969C50.916 24.3327 51.2225 23.234 51.4276 22.1143V22.1125C51.5432 21.4733 51.626 20.8285 51.6755 20.1807C51.6773 20.1443 51.6808 20.1096 51.6825 20.075C51.7137 19.6362 51.7276 19.1958 51.7276 18.7536C51.7276 18.5576 51.7241 18.3634 51.7189 18.1692C51.5979 14.1073 50.1494 10.1969 47.5952 7.03624C47.5397 6.96687 47.4842 6.89751 47.427 6.82814C47.3698 6.75878 47.3108 6.69115 47.2536 6.62352C45.3526 4.3973 42.9551 2.6489 40.2544 1.51926C37.5538 0.389625 34.6254 -0.0896381 31.7055 0.120107C28.7856 0.329852 25.9559 1.22273 23.4444 2.72678C20.9329 4.23082 18.8099 6.30394 17.2466 8.77901C17.1617 8.91427 17.0767 9.05127 16.9952 9.18827C16.912 9.327 16.8322 9.46572 16.7524 9.60618C15.1814 12.3986 14.3583 15.5495 14.3628 18.7536Z" fill="#F2F2F2"/>
<path d="M32.3034 6.53397C35.3755 7.32225 38.5237 7.77664 41.6933 7.88923C42.1726 7.91534 42.653 7.91207 43.1319 7.87944C44.1844 7.79092 45.0859 7.46015 46.0898 7.27938C46.5725 7.19273 47.1101 7.12937 47.596 7.03573C47.4838 6.89643 47.3695 6.75884 47.2531 6.62296C46.2054 6.71148 45.1413 7.00125 44.0809 7.13589C42.2784 7.36511 40.2588 7.10933 38.8924 6.47853C38.2295 6.17245 37.7216 5.79042 37.061 5.48294C36.9712 5.43681 36.8738 5.407 36.7736 5.39489C36.5831 5.38917 36.395 5.43799 36.2313 5.53558C35.123 6.09511 33.5138 6.54981 32.0202 6.29963C31.9088 6.38675 32.1203 6.48598 32.3034 6.53397Z" fill="white"/>
<path d="M25.694 8.50303C25.6804 8.50054 25.6667 8.49859 25.6531 8.49623C25.7105 8.46067 25.7645 8.41997 25.8145 8.37462L25.694 8.50303Z" fill="white"/>
<path d="M16.7528 9.60694C17.3766 9.65679 18.0037 9.6939 18.634 9.71828C19.1133 9.74416 19.5938 9.74089 20.0727 9.7085C21.1251 9.61952 22.0266 9.2892 23.0306 9.10844C23.9507 8.94305 25.0688 8.86339 25.653 8.49628C24.1431 8.23491 22.5787 8.76695 21.0217 8.96495C19.7623 9.11981 18.4856 9.05677 17.2476 8.7786C17.0752 9.04974 16.9103 9.32586 16.7528 9.60694Z" fill="white"/>
<path d="M24.2992 35.264C24.4483 35.3455 24.5992 35.4235 24.7501 35.4981C24.8038 35.5241 24.8593 35.5501 24.9131 35.5779C24.9582 35.5987 25.0032 35.6212 25.0483 35.642C25.0622 35.649 25.0743 35.6542 25.0865 35.6611C25.1246 35.6784 25.161 35.6958 25.1992 35.7131C25.2408 35.7322 25.2824 35.7513 25.3223 35.7704C25.3691 35.7912 25.4142 35.812 25.461 35.831C25.6345 35.9091 25.8096 35.9836 25.9847 36.0547C26.6124 36.312 27.2539 36.5343 27.9061 36.7206C27.9356 36.7293 27.9668 36.738 27.998 36.7467C28.2772 36.8247 28.5582 36.8958 28.8408 36.9599C29.335 37.0744 29.8339 37.168 30.3374 37.2409H30.3408C30.4015 37.2495 30.4605 37.2582 30.5212 37.2669C30.5264 37.2669 30.5316 37.2686 30.5385 37.2686C30.5385 37.2704 30.5385 37.2704 30.5402 37.2686C30.6061 37.2773 30.6738 37.286 30.7397 37.2946C30.7442 37.296 30.7489 37.2965 30.7535 37.2964C30.816 37.305 30.8801 37.312 30.9426 37.3189C31.0102 37.3258 31.0778 37.3328 31.1455 37.3397C31.1975 37.3449 31.2495 37.3501 31.3015 37.3553C31.306 37.3569 31.3107 37.3575 31.3154 37.3571C31.3622 37.3605 31.409 37.3657 31.4559 37.3692H31.4628C31.5027 37.3727 31.5443 37.3761 31.5842 37.3796C32.068 37.4178 32.5535 37.4351 33.046 37.4351C33.5784 37.4351 34.1073 37.4143 34.6293 37.3692H34.6345C34.7472 37.3588 34.8582 37.3484 34.9691 37.338C34.9986 37.3345 35.0264 37.3328 35.0559 37.3293C35.0611 37.3293 35.068 37.3276 35.0732 37.3276C35.0819 37.3258 35.0905 37.3258 35.1009 37.3241C35.1056 37.3243 35.1103 37.3237 35.1148 37.3224C35.153 37.3189 35.1911 37.3137 35.231 37.3102L35.3611 37.2946C35.4044 37.2894 35.4478 37.2825 35.4911 37.2773C35.5015 37.2756 35.5102 37.2756 35.5206 37.2738C35.5518 37.2704 35.583 37.2652 35.6142 37.26C35.6298 37.2582 35.6454 37.2565 35.6593 37.2548C35.6905 37.2496 35.72 37.2461 35.7512 37.2409H35.753C36.7045 37.1039 37.6438 36.8923 38.5622 36.6079C38.6108 36.5923 38.6593 36.5784 38.7079 36.5628C38.484 35.5186 38.023 34.5399 37.3606 33.7022C36.6982 32.8645 35.8521 32.1903 34.8876 31.7316C35.1262 31.5044 35.2911 31.2108 35.3611 30.8888C35.4061 30.6813 35.4096 30.4669 35.3716 30.258C35.3335 30.0491 35.2545 29.8498 35.1391 29.6715C34.9141 29.326 34.561 29.084 34.1576 28.9987L31.5876 28.4611C31.1739 28.3805 30.7451 28.4664 30.3944 28.7002C30.0437 28.934 29.7995 29.2968 29.7148 29.7097C29.6886 29.8362 29.677 29.9654 29.6801 30.0946C27.2056 31.742 25.4246 33.4501 24.2992 35.264Z" fill="#6C63FF"/>
<path d="M34.466 26.7263C37.9208 26.7263 40.7215 23.9257 40.7215 20.4709C40.7215 17.0161 37.9208 14.2154 34.466 14.2154C31.0112 14.2154 28.2106 17.0161 28.2106 20.4709C28.2106 23.9257 31.0112 26.7263 34.466 26.7263Z" fill="#9E616A"/>
<path d="M33.5771 26.392C32.011 26.8149 30.2845 26.2526 29.0624 25.186C27.8402 24.1193 27.0757 22.6079 26.6352 21.0467C26.3126 19.9033 26.1596 18.634 26.6687 17.5606C27.1778 16.4872 28.548 15.763 29.6051 16.3052C28.953 15.5454 29.2788 14.2888 30.0404 13.6389C30.802 12.9889 31.8478 12.8026 32.8439 12.7007C34.2894 12.5529 35.7826 12.5364 37.1581 13.0047C38.5336 13.473 39.7835 14.4968 40.214 15.8847C40.6536 16.0894 41.1488 16.1425 41.6219 16.0357C42.095 15.9289 42.5193 15.6682 42.8284 15.2944C42.9081 15.7237 42.8441 16.1673 42.6463 16.5565C42.4485 16.9457 42.128 17.2589 41.7342 17.4477L43.8418 16.7644C44.2043 17.5316 43.5692 18.4811 42.757 18.7268C41.9448 18.9725 41.0681 18.704 40.2974 18.349C39.5266 17.9941 38.7797 17.5453 37.9426 17.4069C37.1054 17.2684 36.122 17.5374 35.7348 18.2925C35.532 18.6879 35.5214 19.151 35.4037 19.5796C35.2859 20.0081 34.9876 20.4524 34.5446 20.4875C34.2647 20.5097 33.9906 20.3606 33.7115 20.3911C33.5402 20.4248 33.3824 20.5077 33.2576 20.6298C33.1327 20.7518 33.0461 20.9075 33.0084 21.078C32.9389 21.4201 32.938 21.7726 33.0059 22.115L33.5413 26.2071L33.5771 26.392Z" fill="#2F2E41"/>
</g>
<defs>
<clipPath id="clip0_2_1491">
<rect width="135.78" height="90" fill="white"/>
</clipPath>
</defs>
</svg>
