<svg width="79" height="100" viewBox="0 0 79 100" fill="none" xmlns="http://www.w3.org/2000/svg">
<g clip-path="url(#clip0_670_528)">
<path d="M8.80317 4.31494C3.99889 4.31494 0.104492 8.22935 0.104492 13.0136V47.8083V65.2057V91.3017C0.104492 96.086 3.99889 100 8.80317 100H69.6939C74.4999 100 78.3926 96.086 78.3926 91.3017V65.2057V47.8083V30.411L52.2966 4.31494H8.80317Z" fill="#95A5A6"/>
<path d="M8.80317 -0.034668C3.99889 -0.034668 0.104492 3.87974 0.104492 8.66401V43.4587V60.8561V86.9521C0.104492 91.7364 3.99889 95.6508 8.80317 95.6508H69.6939C74.4999 95.6508 78.3926 91.7364 78.3926 86.9521V60.8561V43.4587V26.0614L52.2966 -0.034668H8.80317Z" fill="#BDC3C7"/>
<path d="M78.3924 26.0614L52.2964 -0.034668V17.3627C52.2964 22.147 56.189 26.0614 60.9951 26.0614H78.3924Z" fill="#95A5A6"/>
</g>
<defs>
<clipPath id="clip0_670_528">
<rect width="78.4969" height="100" fill="white"/>
</clipPath>
</defs>
</svg>
