<svg width="100" height="123" viewBox="0 0 100 123" fill="none" xmlns="http://www.w3.org/2000/svg">
<path d="M89.4837 116.066H10.5585C10.0323 116.065 9.52782 115.856 9.15573 115.484C8.78364 115.111 8.57434 114.607 8.57373 114.081V19.5107C8.57432 18.9845 8.78362 18.48 9.15571 18.1079C9.52781 17.7358 10.0323 17.5265 10.5585 17.5259H89.4837C90.0099 17.5265 90.5144 17.7358 90.8864 18.1079C91.2585 18.48 91.4678 18.9845 91.4685 19.5107V114.081C91.4678 114.607 91.2585 115.111 90.8864 115.483C90.5143 115.856 90.0099 116.065 89.4837 116.066Z" fill="#E6E6E6"/>
<path d="M53.1735 12.856H4.02039C2.96804 12.8574 1.95922 13.2579 1.2151 13.9697C0.470976 14.6814 0.0522706 15.6464 0.0507812 16.653V107.737L0.517794 107.6V16.653C0.518923 15.7647 0.888309 14.9132 1.54493 14.2851C2.20155 13.6571 3.09179 13.3037 4.02039 13.3027H53.3182L53.1735 12.856ZM96.0218 12.856H4.02039C2.96804 12.8574 1.95922 13.2579 1.2151 13.9697C0.470976 14.6814 0.0522706 15.6464 0.0507812 16.653V118.949C0.0522699 119.956 0.470975 120.921 1.2151 121.632C1.95922 122.344 2.96804 122.745 4.02039 122.746H96.0218C97.0742 122.745 98.083 122.344 98.8271 121.632C99.5713 120.921 99.99 119.956 99.9914 118.949V16.653C99.99 15.6464 99.5713 14.6814 98.8271 13.9697C98.083 13.2579 97.0742 12.8574 96.0218 12.856ZM99.5244 118.949C99.5233 119.837 99.1539 120.689 98.4973 121.317C97.8407 121.945 96.9504 122.298 96.0218 122.299H4.02039C3.09179 122.298 2.20155 121.945 1.54493 121.317C0.888309 120.689 0.518923 119.837 0.517794 118.949V16.653C0.518923 15.7647 0.888309 14.9132 1.54493 14.2851C2.20155 13.6571 3.09179 13.3037 4.02039 13.3027H96.0218C96.9504 13.3037 97.8407 13.6571 98.4973 14.2851C99.1539 14.9132 99.5233 15.7647 99.5244 16.653V118.949Z" fill="#828282"/>
<path d="M71.5032 23.1302H28.5381C27.9809 23.1296 27.4467 22.908 27.0527 22.514C26.6588 22.12 26.4372 21.5858 26.4365 21.0287V10.7544C26.4372 10.1972 26.6588 9.66304 27.0528 9.26906C27.4467 8.87507 27.9809 8.65346 28.5381 8.65283H71.5032C72.0604 8.65346 72.5946 8.87507 72.9886 9.26906C73.3825 9.66304 73.6042 10.1972 73.6048 10.7544V21.0287C73.6042 21.5858 73.3825 22.12 72.9886 22.514C72.5946 22.908 72.0604 23.1296 71.5032 23.1302Z" fill="#56CCF2"/>
<path d="M50.0212 9.35295C52.6004 9.35295 54.6913 7.26207 54.6913 4.68283C54.6913 2.10358 52.6004 0.0126953 50.0212 0.0126953C47.442 0.0126953 45.3511 2.10358 45.3511 4.68283C45.3511 7.26207 47.442 9.35295 50.0212 9.35295Z" fill="#56CCF2"/>
<path d="M50.0208 7.52795C51.5918 7.52795 52.8654 6.25441 52.8654 4.68341C52.8654 3.11241 51.5918 1.83887 50.0208 1.83887C48.4498 1.83887 47.1763 3.11241 47.1763 4.68341C47.1763 6.25441 48.4498 7.52795 50.0208 7.52795Z" fill="white"/>
</svg>
