<svg width="229" height="105" viewBox="0 0 229 105" fill="none" xmlns="http://www.w3.org/2000/svg">
<g clip-path="url(#clip0_433:228)">
<path d="M24.9481 90.9011L24.5403 90.4253C27.9909 87.468 32.2855 83.7877 33.8929 78.9234C35.4775 74.1282 34.2855 68.3391 30.7822 63.8152C27.8007 59.9651 23.1969 56.9333 17.4686 55.0474C16.3387 54.6754 15.1656 54.345 14.031 54.0254C11.2887 53.253 8.45303 52.4542 5.94174 50.9943C2.4829 48.9836 -0.658763 45.034 0.119747 40.7432C0.384035 39.3702 1.02798 38.0989 1.97848 37.0735C2.92898 36.0481 4.14794 35.3097 5.49696 34.9423L5.66371 35.5466C4.4278 35.8831 3.31094 36.5592 2.43988 37.4983C1.56882 38.4374 0.97843 39.6019 0.735718 40.8595C0.0122869 44.8469 2.98722 48.5516 6.25681 50.4525C8.69943 51.8723 11.4963 52.6602 14.201 53.422C15.3419 53.7434 16.5218 54.0758 17.6647 54.452C23.5122 56.3772 28.2195 59.4821 31.2778 63.4313C34.9071 68.1179 36.1373 74.1295 34.4881 79.1201C32.8259 84.15 28.4579 87.8935 24.9481 90.9011Z" fill="#F1F1F1"/>
<path d="M10.0784 37.3326C13.0394 36.6929 15.1879 35.0084 14.8772 33.5702C14.5664 32.132 11.9142 31.4847 8.95316 32.1244C5.99216 32.7642 3.8437 34.4487 4.15443 35.8869C4.46516 37.3251 7.11742 37.9724 10.0784 37.3326Z" fill="#F1F1F1"/>
<path d="M18.0745 53.5623C21.0355 52.9226 23.184 51.2381 22.8732 49.7999C22.5625 48.3617 19.9103 47.7144 16.9493 48.3541C13.9883 48.9939 11.8398 50.6784 12.1505 52.1166C12.4613 53.5548 15.1135 54.2021 18.0745 53.5623Z" fill="#F1F1F1"/>
<path d="M8.86553 58.4377C11.8265 57.798 13.975 56.1135 13.6643 54.6753C13.3535 53.2371 10.7013 52.5898 7.74027 53.2296C4.77927 53.8693 2.6308 55.5538 2.94154 56.992C3.25227 58.4302 5.90453 59.0775 8.86553 58.4377Z" fill="#F1F1F1"/>
<path d="M85.9511 55.855H85.3242V57.7355H85.9511V55.855Z" fill="#E5E5E5"/>
<path d="M85.9511 97.8047H85.3242V93.7978H85.9511V97.8047ZM85.9511 89.7909H85.3242V85.784H85.9511V89.7909ZM85.9511 81.777H85.3242V77.7702H85.9511V81.777ZM85.9511 73.7632H85.3242V69.7562H85.9511V73.7632ZM85.9511 65.7494H85.3242V61.7424H85.9511V65.7494Z" fill="#E5E5E5"/>
<path d="M85.9511 101.812H85.3242V103.692H85.9511V101.812Z" fill="#E5E5E5"/>
<path d="M154.593 55.855H153.966V57.7355H154.593V55.855Z" fill="#E5E5E5"/>
<path d="M154.593 97.8047H153.966V93.7978H154.593V97.8047ZM154.593 89.7909H153.966V85.784H154.593V89.7909ZM154.593 81.777H153.966V77.7702H154.593V81.777ZM154.593 73.7632H153.966V69.7562H154.593V73.7632ZM154.593 65.7494H153.966V61.7424H154.593V65.7494Z" fill="#E5E5E5"/>
<path d="M154.593 101.812H153.966V103.692H154.593V101.812Z" fill="#E5E5E5"/>
<path d="M189.218 19.0655H188.591V20.9461H189.218V19.0655Z" fill="#E5E5E5"/>
<path d="M189.218 97.961H188.591V94.1103H189.218V97.961ZM189.218 90.2596H188.591V86.4087H189.218V90.2596ZM189.218 82.558H188.591V78.7072H189.218V82.558ZM189.218 74.8565H188.591V71.0058H189.218V74.8565ZM189.218 67.1551H188.591V63.3042H189.218V67.1551ZM189.218 59.4535H188.591V55.6028H189.218V59.4535ZM189.218 51.752H188.591V47.9013H189.218V51.752ZM189.218 44.0506H188.591V40.1999H189.218V44.0506ZM189.218 36.349H188.591V32.4983H189.218V36.349ZM189.218 28.6475H188.591V24.7968H189.218V28.6475Z" fill="#E5E5E5"/>
<path d="M189.218 101.812H188.591V103.692H189.218V101.812Z" fill="#E5E5E5"/>
<path d="M223.497 4.02072H222.87V5.90132H223.497V4.02072Z" fill="#E5E5E5"/>
<path d="M223.497 97.9754H222.87V94.1389H223.497V97.9754ZM223.497 90.3026H222.87V86.4661H223.497V90.3026ZM223.497 82.6298H222.87V78.7933H223.497V82.6298ZM223.497 74.9569H222.87V71.1204H223.497V74.9569ZM223.497 67.2841H222.87V63.4476H223.497V67.2841ZM223.497 59.6112H222.87V55.7748H223.497V59.6112ZM223.497 51.9384H222.87V48.102H223.497V51.9384ZM223.497 44.2656H222.87V40.4291H223.497V44.2656ZM223.497 36.5927H222.87V32.7563H223.497V36.5927ZM223.497 28.9199H222.87V25.0835H223.497V28.9199ZM223.497 21.2471H222.87V17.4106H223.497V21.2471ZM223.497 13.5742H222.87V9.73781H223.497V13.5742Z" fill="#E5E5E5"/>
<path d="M223.497 101.812H222.87V103.692H223.497V101.812Z" fill="#E5E5E5"/>
<path d="M120.429 30.6625H119.802V32.5431H120.429V30.6625Z" fill="#E5E5E5"/>
<path d="M120.429 98.1661H119.802V94.5205H120.429V98.1661ZM120.429 90.8747H119.802V87.229H120.429V90.8747ZM120.429 83.5832H119.802V79.9376H120.429V83.5832ZM120.429 76.2918H119.802V72.6461H120.429V76.2918ZM120.429 69.0003H119.802V65.3547H120.429V69.0003ZM120.429 61.7089H119.802V58.0632H120.429V61.7089ZM120.429 54.4174H119.802V50.7718H120.429V54.4174ZM120.429 47.126H119.802V43.4803H120.429V47.126ZM120.429 39.8345H119.802V36.1889H120.429V39.8345Z" fill="#E5E5E5"/>
<path d="M120.429 101.812H119.802V103.692H120.429V101.812Z" fill="#E5E5E5"/>
<path d="M258.266 104.566H50.7354C50.5632 104.566 50.398 104.497 50.2762 104.375C50.1544 104.254 50.0859 104.088 50.0859 103.916V4.44675C50.0863 4.27474 50.1549 4.10991 50.2767 3.98842C50.3984 3.86693 50.5634 3.79871 50.7354 3.79871C50.9074 3.79871 51.0724 3.86693 51.1942 3.98842C51.3159 4.10991 51.3845 4.27474 51.3849 4.44675V103.267H258.266C258.351 103.266 258.436 103.283 258.515 103.316C258.594 103.348 258.665 103.396 258.726 103.456C258.786 103.517 258.834 103.588 258.867 103.667C258.9 103.746 258.917 103.831 258.917 103.916C258.917 104.001 258.9 104.086 258.867 104.165C258.834 104.244 258.786 104.316 258.726 104.376C258.665 104.436 258.594 104.484 258.515 104.517C258.436 104.549 258.351 104.566 258.266 104.566Z" fill="#3F3D56"/>
<path d="M154.564 56.7279L120.06 30.8838L86.0269 56.3747L85.248 55.335L120.06 29.2605L154.4 54.9818L188.524 17.6381L188.661 17.5827L223.084 3.71356L223.569 4.91871L189.284 18.7323L154.564 56.7279Z" fill="#3F3D56"/>
<path d="M85.6381 59.7518C87.7902 59.7518 89.5349 58.0071 89.5349 55.8549C89.5349 53.7027 87.7902 51.958 85.6381 51.958C83.4859 51.958 81.7412 53.7027 81.7412 55.8549C81.7412 58.0071 83.4859 59.7518 85.6381 59.7518Z" fill="#FFD037"/>
<path d="M120.06 34.4222C122.212 34.4222 123.957 32.6775 123.957 30.5254C123.957 28.3732 122.212 26.6285 120.06 26.6285C117.908 26.6285 116.163 28.3732 116.163 30.5254C116.163 32.6775 117.908 34.4222 120.06 34.4222Z" fill="#FFD037"/>
<path d="M154.482 59.7518C156.634 59.7518 158.379 58.0071 158.379 55.8549C158.379 53.7027 156.634 51.958 154.482 51.958C152.33 51.958 150.585 53.7027 150.585 55.8549C150.585 58.0071 152.33 59.7518 154.482 59.7518Z" fill="#E5E5E5"/>
<path d="M153.541 73.5428C155.694 73.5428 157.438 71.7981 157.438 69.6459C157.438 67.4938 155.694 65.7491 153.541 65.7491C151.389 65.7491 149.645 67.4938 149.645 69.6459C149.645 71.7981 151.389 73.5428 153.541 73.5428Z" fill="#FFD037"/>
<path d="M188.905 22.0822C191.057 22.0822 192.802 20.3375 192.802 18.1853C192.802 16.0331 191.057 14.2885 188.905 14.2885C186.753 14.2885 185.008 16.0331 185.008 18.1853C185.008 20.3375 186.753 22.0822 188.905 22.0822Z" fill="#FFD037"/>
<path d="M223.327 7.79371C225.479 7.79371 227.223 6.04903 227.223 3.89685C227.223 1.74468 225.479 0 223.327 0C221.174 0 219.43 1.74468 219.43 3.89685C219.43 6.04903 221.174 7.79371 223.327 7.79371Z" fill="#FFD037"/>
<path d="M49.6552 76.2578C50.986 72.7759 51.1788 69.6146 50.0857 69.1968C48.9927 68.779 47.0277 71.263 45.6968 74.7449C44.366 78.2268 44.1732 81.3881 45.2663 81.8059C46.3594 82.2237 48.3243 79.7397 49.6552 76.2578Z" fill="#2F2E41"/>
<path d="M35.1989 99.1936C42.6541 99.1936 48.6976 93.15 48.6976 85.6949C48.6976 78.2397 42.6541 72.1962 35.1989 72.1962C27.7438 72.1962 21.7002 78.2397 21.7002 85.6949C21.7002 93.15 27.7438 99.1936 35.1989 99.1936Z" fill="#2F2E41"/>
<path d="M33.1487 96.2888H29.0479V103.636H33.1487V96.2888Z" fill="#2F2E41"/>
<path d="M41.3499 96.2888H37.249V103.636H41.3499V96.2888Z" fill="#2F2E41"/>
<path d="M32.4653 105.003C34.3526 105.003 35.8827 104.429 35.8827 103.722C35.8827 103.014 34.3526 102.44 32.4653 102.44C30.5779 102.44 29.0479 103.014 29.0479 103.722C29.0479 104.429 30.5779 105.003 32.4653 105.003Z" fill="#2F2E41"/>
<path d="M40.6664 104.832C42.5538 104.832 44.0838 104.259 44.0838 103.551C44.0838 102.843 42.5538 102.269 40.6664 102.269C38.779 102.269 37.249 102.843 37.249 103.551C37.249 104.259 38.779 104.832 40.6664 104.832Z" fill="#2F2E41"/>
<path d="M35.5412 86.8909C38.0892 86.8909 40.1547 84.8254 40.1547 82.2775C40.1547 79.7295 38.0892 77.664 35.5412 77.664C32.9933 77.664 30.9277 79.7295 30.9277 82.2775C30.9277 84.8254 32.9933 86.8909 35.5412 86.8909Z" fill="white"/>
<path d="M35.5408 83.8153C36.3901 83.8153 37.0786 83.1268 37.0786 82.2775C37.0786 81.4281 36.3901 80.7396 35.5408 80.7396C34.6914 80.7396 34.0029 81.4281 34.0029 82.2775C34.0029 83.1268 34.6914 83.8153 35.5408 83.8153Z" fill="#3F3D56"/>
<path d="M22.1048 73.1414C21.0149 68.2601 24.499 63.3277 29.8869 62.1246C35.2748 60.9216 40.5262 63.9034 41.6161 68.7847C42.7061 73.666 39.1353 75.4664 33.7474 76.6694C28.3595 77.8725 23.1948 78.0228 22.1048 73.1414Z" fill="#E6E6E6"/>
<path d="M26.0937 82.3237C26.5952 81.2664 24.2714 79.1143 20.9035 77.517C17.5355 75.9196 14.3987 75.4818 13.8972 76.5391C13.3958 77.5964 15.7195 79.7484 19.0875 81.3458C22.4555 82.9432 25.5923 83.381 26.0937 82.3237Z" fill="#2F2E41"/>
<path d="M28.5684 90.5647C28.5684 91.8858 31.9701 94.4947 35.7449 94.4947C39.5197 94.4947 43.0589 90.7752 43.0589 89.454C43.0589 88.1329 39.5196 89.7103 35.7449 89.7103C31.9702 89.7103 28.5684 89.2435 28.5684 90.5647Z" fill="white"/>
<path d="M137.105 97.0454C144.56 97.0454 150.604 91.0018 150.604 83.5467C150.604 76.0916 144.56 70.048 137.105 70.048C129.65 70.048 123.606 76.0916 123.606 83.5467C123.606 91.0018 129.65 97.0454 137.105 97.0454Z" fill="#2F2E41"/>
<path d="M135.055 94.1406H130.954V101.488H135.055V94.1406Z" fill="#2F2E41"/>
<path d="M143.256 94.1406H139.155V101.488H143.256V94.1406Z" fill="#2F2E41"/>
<path d="M137.172 103.922C137.463 103.277 136.306 102.124 134.586 101.346C132.866 100.568 131.236 100.461 130.944 101.106C130.652 101.75 131.81 102.904 133.53 103.681C135.249 104.459 136.88 104.567 137.172 103.922Z" fill="#2F2E41"/>
<path d="M145.021 103.522C145.33 102.885 144.204 101.701 142.506 100.877C140.808 100.052 139.181 99.9002 138.872 100.537C138.563 101.174 139.689 102.358 141.387 103.182C143.085 104.007 144.712 104.159 145.021 103.522Z" fill="#2F2E41"/>
<path d="M124.01 70.9933C122.92 66.112 126.404 61.1796 131.792 59.9765C137.18 58.7734 142.431 61.7553 143.521 66.6366C144.611 71.518 141.041 73.3183 135.653 74.5213C130.265 75.7244 125.1 75.8746 124.01 70.9933Z" fill="#FFD037"/>
<path d="M151.651 77.648C154.575 74.7224 156.2 71.6067 155.282 70.689C154.363 69.7712 151.249 71.399 148.325 74.3246C145.402 77.2502 143.777 80.3659 144.695 81.2836C145.614 82.2014 148.728 80.5737 151.651 77.648Z" fill="#2F2E41"/>
<path d="M126.025 89.1267C127.086 85.1292 126.929 81.6186 125.674 81.2856C124.419 80.9525 122.541 83.9231 121.481 87.9206C120.42 91.9181 120.577 95.4287 121.832 95.7618C123.087 96.0948 124.964 93.1242 126.025 89.1267Z" fill="#2F2E41"/>
</g>
<defs>
<clipPath id="clip0_433:228">
<rect width="228.179" height="105" fill="white"/>
</clipPath>
</defs>
</svg>
