<svg width="364" height="136" viewBox="0 0 364 136" fill="none" xmlns="http://www.w3.org/2000/svg">
<g clip-path="url(#clip0_301_2)">
<path opacity="0.1" d="M43.1301 23.5805H31.8679C31.2182 23.5805 30.6916 24.1071 30.6916 24.7568V26.5203C30.6916 27.17 31.2182 27.6966 31.8679 27.6966H43.1301C43.7798 27.6966 44.3064 27.17 44.3064 26.5203V24.7568C44.3064 24.1071 43.7798 23.5805 43.1301 23.5805Z" fill="#6C63FF"/>
<path opacity="0.1" d="M57.3782 27.6965H46.1159C45.4663 27.6965 44.9396 28.2232 44.9396 28.8728V30.6364C44.9396 31.286 45.4663 31.8126 46.1159 31.8126H57.3782C58.0278 31.8126 58.5544 31.286 58.5544 30.6364V28.8728C58.5544 28.2232 58.0278 27.6965 57.3782 27.6965Z" fill="#6C63FF"/>
<path opacity="0.1" d="M71.6262 31.8127H60.3639C59.7143 31.8127 59.1877 32.3393 59.1877 32.9889V34.7525C59.1877 35.4021 59.7143 35.9288 60.3639 35.9288H71.6262C72.2758 35.9288 72.8024 35.4021 72.8024 34.7525V32.9889C72.8024 32.3393 72.2758 31.8127 71.6262 31.8127Z" fill="#6C63FF"/>
<path opacity="0.1" d="M43.1301 17.4063H31.8679C31.2182 17.4063 30.6916 17.9329 30.6916 18.5826V20.3462C30.6916 20.9958 31.2182 21.5224 31.8679 21.5224H43.1301C43.7798 21.5224 44.3064 20.9958 44.3064 20.3462V18.5826C44.3064 17.9329 43.7798 17.4063 43.1301 17.4063Z" fill="#6C63FF"/>
<path opacity="0.1" d="M57.3782 21.5225H46.1159C45.4663 21.5225 44.9396 22.0491 44.9396 22.6987V24.4623C44.9396 25.1119 45.4663 25.6386 46.1159 25.6386H57.3782C58.0278 25.6386 58.5544 25.1119 58.5544 24.4623V22.6987C58.5544 22.0491 58.0278 21.5225 57.3782 21.5225Z" fill="#6C63FF"/>
<path opacity="0.1" d="M71.6262 25.6385H60.3639C59.7143 25.6385 59.1877 26.1652 59.1877 26.8148V28.5784C59.1877 29.228 59.7143 29.7546 60.3639 29.7546H71.6262C72.2758 29.7546 72.8024 29.228 72.8024 28.5784V26.8148C72.8024 26.1652 72.2758 25.6385 71.6262 25.6385Z" fill="#6C63FF"/>
<path opacity="0.1" d="M87.4574 23.5805H76.1951C75.5455 23.5805 75.0189 24.1071 75.0189 24.7568V26.5203C75.0189 27.17 75.5455 27.6966 76.1951 27.6966H87.4574C88.107 27.6966 88.6336 27.17 88.6336 26.5203V24.7568C88.6336 24.1071 88.107 23.5805 87.4574 23.5805Z" fill="#6C63FF"/>
<path opacity="0.1" d="M101.705 27.6965H90.4431C89.7935 27.6965 89.2669 28.2232 89.2669 28.8728V30.6364C89.2669 31.286 89.7935 31.8126 90.4431 31.8126H101.705C102.355 31.8126 102.882 31.286 102.882 30.6364V28.8728C102.882 28.2232 102.355 27.6965 101.705 27.6965Z" fill="#6C63FF"/>
<path opacity="0.1" d="M115.953 31.8127H104.691C104.042 31.8127 103.515 32.3393 103.515 32.9889V34.7525C103.515 35.4021 104.042 35.9288 104.691 35.9288H115.953C116.603 35.9288 117.13 35.4021 117.13 34.7525V32.9889C117.13 32.3393 116.603 31.8127 115.953 31.8127Z" fill="#6C63FF"/>
<path opacity="0.1" d="M87.4574 17.4063H76.1951C75.5455 17.4063 75.0189 17.9329 75.0189 18.5826V20.3462C75.0189 20.9958 75.5455 21.5224 76.1951 21.5224H87.4574C88.107 21.5224 88.6336 20.9958 88.6336 20.3462V18.5826C88.6336 17.9329 88.107 17.4063 87.4574 17.4063Z" fill="#6C63FF"/>
<path opacity="0.1" d="M101.705 21.5225H90.4431C89.7935 21.5225 89.2669 22.0491 89.2669 22.6987V24.4623C89.2669 25.1119 89.7935 25.6386 90.4431 25.6386H101.705C102.355 25.6386 102.882 25.1119 102.882 24.4623V22.6987C102.882 22.0491 102.355 21.5225 101.705 21.5225Z" fill="#6C63FF"/>
<path opacity="0.1" d="M115.953 25.6385H104.691C104.042 25.6385 103.515 26.1652 103.515 26.8148V28.5784C103.515 29.228 104.042 29.7546 104.691 29.7546H115.953C116.603 29.7546 117.13 29.228 117.13 28.5784V26.8148C117.13 26.1652 116.603 25.6385 115.953 25.6385Z" fill="#6C63FF"/>
<path opacity="0.1" d="M43.1301 9.17413H31.8679C31.2182 9.17413 30.6916 9.70076 30.6916 10.3504V12.114C30.6916 12.7636 31.2182 13.2902 31.8679 13.2902H43.1301C43.7798 13.2902 44.3064 12.7636 44.3064 12.114V10.3504C44.3064 9.70076 43.7798 9.17413 43.1301 9.17413Z" fill="#6C63FF"/>
<path opacity="0.1" d="M57.3782 13.2902H46.1159C45.4663 13.2902 44.9396 13.8168 44.9396 14.4665V16.2301C44.9396 16.8797 45.4663 17.4063 46.1159 17.4063H57.3782C58.0278 17.4063 58.5544 16.8797 58.5544 16.2301V14.4665C58.5544 13.8168 58.0278 13.2902 57.3782 13.2902Z" fill="#6C63FF"/>
<path opacity="0.1" d="M71.6262 17.4063H60.3639C59.7143 17.4063 59.1877 17.9329 59.1877 18.5826V20.3462C59.1877 20.9958 59.7143 21.5224 60.3639 21.5224H71.6262C72.2758 21.5224 72.8024 20.9958 72.8024 20.3462V18.5826C72.8024 17.9329 72.2758 17.4063 71.6262 17.4063Z" fill="#6C63FF"/>
<path opacity="0.1" d="M43.1301 3H31.8679C31.2182 3 30.6916 3.52663 30.6916 4.17625V5.93984C30.6916 6.58947 31.2182 7.11609 31.8679 7.11609H43.1301C43.7798 7.11609 44.3064 6.58947 44.3064 5.93984V4.17625C44.3064 3.52663 43.7798 3 43.1301 3Z" fill="#6C63FF"/>
<path opacity="0.1" d="M57.3782 7.11609H46.1159C45.4663 7.11609 44.9396 7.64272 44.9396 8.29234V10.0559C44.9396 10.7056 45.4663 11.2322 46.1159 11.2322H57.3782C58.0278 11.2322 58.5544 10.7056 58.5544 10.0559V8.29234C58.5544 7.64272 58.0278 7.11609 57.3782 7.11609Z" fill="#6C63FF"/>
<path opacity="0.1" d="M71.6262 11.2322H60.3639C59.7143 11.2322 59.1877 11.7588 59.1877 12.4084V14.172C59.1877 14.8217 59.7143 15.3483 60.3639 15.3483H71.6262C72.2758 15.3483 72.8024 14.8217 72.8024 14.172V12.4084C72.8024 11.7588 72.2758 11.2322 71.6262 11.2322Z" fill="#6C63FF"/>
<path opacity="0.1" d="M87.4574 9.17413H76.1951C75.5455 9.17413 75.0189 9.70076 75.0189 10.3504V12.114C75.0189 12.7636 75.5455 13.2902 76.1951 13.2902H87.4574C88.107 13.2902 88.6336 12.7636 88.6336 12.114V10.3504C88.6336 9.70076 88.107 9.17413 87.4574 9.17413Z" fill="#6C63FF"/>
<path opacity="0.1" d="M101.705 13.2902H90.4431C89.7935 13.2902 89.2669 13.8168 89.2669 14.4665V16.2301C89.2669 16.8797 89.7935 17.4063 90.4431 17.4063H101.705C102.355 17.4063 102.882 16.8797 102.882 16.2301V14.4665C102.882 13.8168 102.355 13.2902 101.705 13.2902Z" fill="#6C63FF"/>
<path opacity="0.1" d="M115.953 17.4063H104.691C104.042 17.4063 103.515 17.9329 103.515 18.5826V20.3462C103.515 20.9958 104.042 21.5224 104.691 21.5224H115.953C116.603 21.5224 117.13 20.9958 117.13 20.3462V18.5826C117.13 17.9329 116.603 17.4063 115.953 17.4063Z" fill="#6C63FF"/>
<path opacity="0.1" d="M87.4574 3H76.1951C75.5455 3 75.0189 3.52663 75.0189 4.17625V5.93984C75.0189 6.58947 75.5455 7.11609 76.1951 7.11609H87.4574C88.107 7.11609 88.6336 6.58947 88.6336 5.93984V4.17625C88.6336 3.52663 88.107 3 87.4574 3Z" fill="#6C63FF"/>
<path opacity="0.1" d="M101.705 7.11609H90.4431C89.7935 7.11609 89.2669 7.64272 89.2669 8.29234V10.0559C89.2669 10.7056 89.7935 11.2322 90.4431 11.2322H101.705C102.355 11.2322 102.882 10.7056 102.882 10.0559V8.29234C102.882 7.64272 102.355 7.11609 101.705 7.11609Z" fill="#6C63FF"/>
<path opacity="0.1" d="M115.953 11.2322H104.691C104.042 11.2322 103.515 11.7588 103.515 12.4084V14.172C103.515 14.8217 104.042 15.3483 104.691 15.3483H115.953C116.603 15.3483 117.13 14.8217 117.13 14.172V12.4084C117.13 11.7588 116.603 11.2322 115.953 11.2322Z" fill="#6C63FF"/>
<path opacity="0.1" d="M43.1301 96.8786H31.8679C31.2182 96.8786 30.6916 97.4052 30.6916 98.0549V99.8184C30.6916 100.468 31.2182 100.995 31.8679 100.995H43.1301C43.7798 100.995 44.3064 100.468 44.3064 99.8184V98.0549C44.3064 97.4052 43.7798 96.8786 43.1301 96.8786Z" fill="#6C63FF"/>
<path opacity="0.1" d="M57.3782 100.995H46.1159C45.4663 100.995 44.9396 101.521 44.9396 102.171V103.935C44.9396 104.584 45.4663 105.111 46.1159 105.111H57.3782C58.0278 105.111 58.5544 104.584 58.5544 103.935V102.171C58.5544 101.521 58.0278 100.995 57.3782 100.995Z" fill="#6C63FF"/>
<path opacity="0.1" d="M71.6262 105.111H60.3639C59.7143 105.111 59.1877 105.637 59.1877 106.287V108.051C59.1877 108.7 59.7143 109.227 60.3639 109.227H71.6262C72.2758 109.227 72.8024 108.7 72.8024 108.051V106.287C72.8024 105.637 72.2758 105.111 71.6262 105.111Z" fill="#6C63FF"/>
<path opacity="0.1" d="M43.1301 90.7045H31.8679C31.2182 90.7045 30.6916 91.2311 30.6916 91.8807V93.6443C30.6916 94.2939 31.2182 94.8206 31.8679 94.8206H43.1301C43.7798 94.8206 44.3064 94.2939 44.3064 93.6443V91.8807C44.3064 91.2311 43.7798 90.7045 43.1301 90.7045Z" fill="#6C63FF"/>
<path opacity="0.1" d="M57.3782 94.8206H46.1159C45.4663 94.8206 44.9396 95.3472 44.9396 95.9968V97.7604C44.9396 98.41 45.4663 98.9366 46.1159 98.9366H57.3782C58.0278 98.9366 58.5544 98.41 58.5544 97.7604V95.9968C58.5544 95.3472 58.0278 94.8206 57.3782 94.8206Z" fill="#6C63FF"/>
<path opacity="0.1" d="M71.6262 98.9366H60.3639C59.7143 98.9366 59.1877 99.4633 59.1877 100.113V101.876C59.1877 102.526 59.7143 103.053 60.3639 103.053H71.6262C72.2758 103.053 72.8024 102.526 72.8024 101.876V100.113C72.8024 99.4633 72.2758 98.9366 71.6262 98.9366Z" fill="#6C63FF"/>
<path opacity="0.1" d="M87.4574 96.8786H76.1951C75.5455 96.8786 75.0189 97.4052 75.0189 98.0549V99.8184C75.0189 100.468 75.5455 100.995 76.1951 100.995H87.4574C88.107 100.995 88.6336 100.468 88.6336 99.8184V98.0549C88.6336 97.4052 88.107 96.8786 87.4574 96.8786Z" fill="#6C63FF"/>
<path opacity="0.1" d="M101.705 100.995H90.4431C89.7935 100.995 89.2669 101.521 89.2669 102.171V103.935C89.2669 104.584 89.7935 105.111 90.4431 105.111H101.705C102.355 105.111 102.882 104.584 102.882 103.935V102.171C102.882 101.521 102.355 100.995 101.705 100.995Z" fill="#6C63FF"/>
<path opacity="0.1" d="M115.953 105.111H104.691C104.042 105.111 103.515 105.637 103.515 106.287V108.051C103.515 108.7 104.042 109.227 104.691 109.227H115.953C116.603 109.227 117.13 108.7 117.13 108.051V106.287C117.13 105.637 116.603 105.111 115.953 105.111Z" fill="#6C63FF"/>
<path opacity="0.1" d="M87.4574 90.7045H76.1951C75.5455 90.7045 75.0189 91.2311 75.0189 91.8807V93.6443C75.0189 94.2939 75.5455 94.8206 76.1951 94.8206H87.4574C88.107 94.8206 88.6336 94.2939 88.6336 93.6443V91.8807C88.6336 91.2311 88.107 90.7045 87.4574 90.7045Z" fill="#6C63FF"/>
<path opacity="0.1" d="M101.705 94.8206H90.4431C89.7935 94.8206 89.2669 95.3472 89.2669 95.9968V97.7604C89.2669 98.41 89.7935 98.9366 90.4431 98.9366H101.705C102.355 98.9366 102.882 98.41 102.882 97.7604V95.9968C102.882 95.3472 102.355 94.8206 101.705 94.8206Z" fill="#6C63FF"/>
<path opacity="0.1" d="M115.953 98.9366H104.691C104.042 98.9366 103.515 99.4633 103.515 100.113V101.876C103.515 102.526 104.042 103.053 104.691 103.053H115.953C116.603 103.053 117.13 102.526 117.13 101.876V100.113C117.13 99.4633 116.603 98.9366 115.953 98.9366Z" fill="#6C63FF"/>
<path opacity="0.1" d="M43.1301 82.4723H31.8679C31.2182 82.4723 30.6916 82.9989 30.6916 83.6485V85.4121C30.6916 86.0618 31.2182 86.5884 31.8679 86.5884H43.1301C43.7798 86.5884 44.3064 86.0618 44.3064 85.4121V83.6485C44.3064 82.9989 43.7798 82.4723 43.1301 82.4723Z" fill="#6C63FF"/>
<path opacity="0.1" d="M57.3782 86.5884H46.1159C45.4663 86.5884 44.9396 87.115 44.9396 87.7646V89.5282C44.9396 90.1778 45.4663 90.7045 46.1159 90.7045H57.3782C58.0278 90.7045 58.5544 90.1778 58.5544 89.5282V87.7646C58.5544 87.115 58.0278 86.5884 57.3782 86.5884Z" fill="#6C63FF"/>
<path opacity="0.1" d="M71.6262 90.7045H60.3639C59.7143 90.7045 59.1877 91.2311 59.1877 91.8807V93.6443C59.1877 94.2939 59.7143 94.8206 60.3639 94.8206H71.6262C72.2758 94.8206 72.8024 94.2939 72.8024 93.6443V91.8807C72.8024 91.2311 72.2758 90.7045 71.6262 90.7045Z" fill="#6C63FF"/>
<path opacity="0.1" d="M43.1301 76.2981H31.8679C31.2182 76.2981 30.6916 76.8247 30.6916 77.4744V79.238C30.6916 79.8876 31.2182 80.4142 31.8679 80.4142H43.1301C43.7798 80.4142 44.3064 79.8876 44.3064 79.238V77.4744C44.3064 76.8247 43.7798 76.2981 43.1301 76.2981Z" fill="#6C63FF"/>
<path opacity="0.1" d="M57.3782 80.4142H46.1159C45.4663 80.4142 44.9396 80.9409 44.9396 81.5905V83.3541C44.9396 84.0037 45.4663 84.5303 46.1159 84.5303H57.3782C58.0278 84.5303 58.5544 84.0037 58.5544 83.3541V81.5905C58.5544 80.9409 58.0278 80.4142 57.3782 80.4142Z" fill="#6C63FF"/>
<path opacity="0.1" d="M71.6262 84.5303H60.3639C59.7143 84.5303 59.1877 85.057 59.1877 85.7066V87.4702C59.1877 88.1198 59.7143 88.6464 60.3639 88.6464H71.6262C72.2758 88.6464 72.8024 88.1198 72.8024 87.4702V85.7066C72.8024 85.057 72.2758 84.5303 71.6262 84.5303Z" fill="#6C63FF"/>
<path opacity="0.1" d="M87.4574 82.4723H76.1951C75.5455 82.4723 75.0189 82.9989 75.0189 83.6485V85.4121C75.0189 86.0618 75.5455 86.5884 76.1951 86.5884H87.4574C88.107 86.5884 88.6336 86.0618 88.6336 85.4121V83.6485C88.6336 82.9989 88.107 82.4723 87.4574 82.4723Z" fill="#6C63FF"/>
<path opacity="0.1" d="M101.705 86.5884H90.4431C89.7935 86.5884 89.2669 87.115 89.2669 87.7646V89.5282C89.2669 90.1778 89.7935 90.7045 90.4431 90.7045H101.705C102.355 90.7045 102.882 90.1778 102.882 89.5282V87.7646C102.882 87.115 102.355 86.5884 101.705 86.5884Z" fill="#6C63FF"/>
<path opacity="0.1" d="M115.953 90.7045H104.691C104.042 90.7045 103.515 91.2311 103.515 91.8807V93.6443C103.515 94.2939 104.042 94.8206 104.691 94.8206H115.953C116.603 94.8206 117.13 94.2939 117.13 93.6443V91.8807C117.13 91.2311 116.603 90.7045 115.953 90.7045Z" fill="#6C63FF"/>
<path opacity="0.1" d="M87.4574 76.2981H76.1951C75.5455 76.2981 75.0189 76.8247 75.0189 77.4744V79.238C75.0189 79.8876 75.5455 80.4142 76.1951 80.4142H87.4574C88.107 80.4142 88.6336 79.8876 88.6336 79.238V77.4744C88.6336 76.8247 88.107 76.2981 87.4574 76.2981Z" fill="#6C63FF"/>
<path opacity="0.1" d="M101.705 80.4142H90.4431C89.7935 80.4142 89.2669 80.9409 89.2669 81.5905V83.3541C89.2669 84.0037 89.7935 84.5303 90.4431 84.5303H101.705C102.355 84.5303 102.882 84.0037 102.882 83.3541V81.5905C102.882 80.9409 102.355 80.4142 101.705 80.4142Z" fill="#6C63FF"/>
<path opacity="0.1" d="M115.953 84.5303H104.691C104.042 84.5303 103.515 85.057 103.515 85.7066V87.4702C103.515 88.1198 104.042 88.6464 104.691 88.6464H115.953C116.603 88.6464 117.13 88.1198 117.13 87.4702V85.7066C117.13 85.057 116.603 84.5303 115.953 84.5303Z" fill="#6C63FF"/>
<path opacity="0.1" d="M76.3644 123C114.704 123 145.784 120.448 145.784 117.301C145.784 114.153 114.704 111.602 76.3644 111.602C38.0251 111.602 6.9449 114.153 6.9449 117.301C6.9449 120.448 38.0251 123 76.3644 123Z" fill="#6C63FF"/>
<path d="M13.4011 32.5726C19.9472 35.4095 23.7087 41.2797 23.7087 41.2797C23.7087 41.2797 16.8554 42.5462 10.3077 39.7108C3.75989 36.8755 0 31.0037 0 31.0037C0 31.0037 6.8533 29.7356 13.4011 32.5726Z" fill="#6C63FF"/>
<path d="M33.4908 21.6807C35.5156 18.3562 38.9637 16.7731 38.9637 16.7731C38.9637 16.7731 39.122 20.563 37.1035 23.8781C35.085 27.1931 31.6291 28.7747 31.6291 28.7747C31.6291 28.7747 31.4644 24.9863 33.4908 21.6807Z" fill="#6C63FF"/>
<path d="M18.6066 25.238C20.0551 30.4084 24.0477 33.8121 24.0477 33.8121C24.0477 33.8121 25.6926 28.83 24.244 23.658C22.7955 18.486 18.8013 15.0839 18.8013 15.0839C18.8013 15.0839 17.1564 20.0659 18.6066 25.238Z" fill="#46455B"/>
<path d="M133.086 25.0052H19.9598C19.3294 25.0052 18.8183 25.5163 18.8183 26.1467V81.6475C18.8183 82.2779 19.3294 82.7889 19.9598 82.7889H133.086C133.716 82.7889 134.227 82.2779 134.227 81.6475V26.1467C134.227 25.5163 133.716 25.0052 133.086 25.0052Z" fill="#3F3D56"/>
<path opacity="0.1" d="M18.8183 79.306H134.227V81.6475C134.227 81.9502 134.107 82.2405 133.893 82.4546C133.679 82.6687 133.389 82.7889 133.086 82.7889H19.9598C19.657 82.7889 19.3667 82.6687 19.1526 82.4546C18.9386 82.2405 18.8183 81.9502 18.8183 81.6475V79.306Z" fill="black"/>
<path d="M38.2115 75.0317H30.4543C30.2357 75.0317 30.0585 75.2089 30.0585 75.4275V78.9103C30.0585 79.1289 30.2357 79.306 30.4543 79.306H38.2115C38.4301 79.306 38.6073 79.1289 38.6073 78.9103V75.4275C38.6073 75.2089 38.4301 75.0317 38.2115 75.0317Z" fill="#6C63FF"/>
<path d="M46.5228 78.6728H41.2985C41.1236 78.6728 40.9819 78.8145 40.9819 78.9894C40.9819 79.1643 41.1236 79.306 41.2985 79.306H46.5228C46.6976 79.306 46.8394 79.1643 46.8394 78.9894C46.8394 78.8145 46.6976 78.6728 46.5228 78.6728Z" fill="#6C63FF"/>
<path d="M35.7817 36.3056C39.9596 37.0765 44.2213 36.3056 48.3817 35.7831L61.026 34.2C61.5374 34.1351 62.2815 33.8296 62.5822 34.4549C62.7516 34.8048 62.6376 35.5631 62.6503 35.9652C62.6836 37.0734 62.6804 38.1815 62.6503 39.2897C62.5933 41.4079 62.4382 43.5214 62.2403 45.6301C61.8556 49.7573 61.311 53.8623 61.0387 58.0053C60.8994 60.114 60.8297 62.229 60.8915 64.3377C60.9057 64.8412 60.9263 65.3446 60.9564 65.8465C60.9896 66.4085 61.2413 67.2428 60.6287 67.618C60.2788 67.8333 59.5902 67.8222 59.1896 67.8855C58.5564 67.9852 57.9231 68.0644 57.2772 68.1293C53.0202 68.5552 48.7078 68.3779 44.435 68.3525L31.5327 68.286L28.3854 68.2686C28.1005 68.2686 27.073 68.4396 26.8973 68.1008C26.8229 67.9567 27.0208 67.2823 27.0556 67.1019C27.1042 66.8042 27.1569 66.5071 27.2139 66.2106C27.5812 64.1288 28.015 62.0596 28.4519 59.9921C29.3907 55.5594 30.3517 51.1045 30.7379 46.5768C30.9295 44.305 30.8028 42.0127 31.0371 39.7457C31.1464 38.6929 31.2762 36.3436 32.6772 36.2501C33.8646 36.171 35.0867 36.2501 36.2772 36.2501C36.3402 36.2501 36.4006 36.2251 36.4452 36.1806C36.4897 36.1361 36.5147 36.0757 36.5147 36.0127C36.5147 35.9497 36.4897 35.8893 36.4452 35.8448C36.4006 35.8002 36.3402 35.7752 36.2772 35.7752C35.1532 35.7752 34.0276 35.7451 32.9036 35.7673C32.1564 35.7815 31.6371 35.9589 31.2809 36.6459C30.3706 38.4095 30.4641 40.762 30.4356 42.6871C30.3675 47.2955 29.6598 51.8058 28.7385 56.3129C28.2746 58.5815 27.7743 60.8422 27.3137 63.1124C27.0968 64.1968 26.8894 65.2844 26.6994 66.3752C26.6108 66.8945 26.1627 68.0391 26.5569 68.5156C26.9511 68.9921 28.1638 68.7356 28.7068 68.7388L32.4841 68.761L39.7221 68.8021C44.3986 68.829 49.091 68.9604 53.7659 68.8227C55.9981 68.7562 58.3569 68.6644 60.5305 68.1309C61.178 67.9726 61.4899 67.675 61.5152 66.9847C61.5532 65.9145 61.3791 64.8111 61.3569 63.7362C61.1986 54.5383 63.3596 45.4686 63.1379 36.2676C63.1237 35.6422 63.3595 34.0654 62.6756 33.6871C62.3685 33.5161 61.9696 33.6095 61.6466 33.6475C61.0292 33.7187 60.4134 33.8058 59.796 33.8786L51.7775 34.8792C49.2144 35.1958 46.653 35.5377 44.0852 35.829C41.3669 36.1457 38.6218 36.3341 35.9131 35.829C35.6139 35.7736 35.4857 36.2312 35.7865 36.2866L35.7817 36.3056Z" fill="#6C63FF"/>
<path d="M30.7408 41.9018L62.3746 40.3504C62.6801 40.3346 62.6817 39.8596 62.3746 39.8754L30.7408 41.4269C30.4369 41.4412 30.4353 41.9161 30.7408 41.9018Z" fill="#6C63FF"/>
<path d="M40.4867 37.9868C40.3982 38.0806 40.334 38.1945 40.2996 38.3188C40.2652 38.443 40.2616 38.5737 40.2892 38.6997C40.3168 38.8256 40.3748 38.9428 40.458 39.0413C40.5413 39.1397 40.6473 39.2163 40.7669 39.2644C41.1928 39.4591 41.693 39.2961 42.1157 39.19C42.749 39.0317 43.3822 38.8908 44.0329 38.7752C45.449 38.5245 46.8834 38.3911 48.3215 38.3763C48.9769 38.3684 49.6276 38.3984 50.283 38.4269C50.7579 38.4459 51.2693 38.4839 51.6714 38.1895C52.1305 37.8538 52.2793 37.1984 51.8297 36.79C51.1964 36.2122 49.8318 36.5478 49.1004 36.6079C46.4465 36.8284 43.8097 37.2219 41.207 37.7858C40.9094 37.8491 41.0344 38.3082 41.3337 38.2433C43.0508 37.8728 44.7811 37.5752 46.5247 37.3504C47.3817 37.2449 48.2402 37.1557 49.1004 37.0829C49.5057 37.0496 49.911 37.0195 50.3162 36.9958C50.4745 36.9863 50.6424 36.9689 50.8038 36.9736C51.3057 36.9847 51.3643 36.8945 51.0635 37.5008C50.7959 38.0375 50.8814 37.9758 50.4176 37.9583C50.2213 37.9583 50.0249 37.9362 49.8286 37.9267C49.4265 37.9098 49.0244 37.9008 48.6223 37.8998C47.7664 37.8998 46.9125 37.9409 46.0608 38.0232C45.3389 38.0929 44.6186 38.1911 43.9046 38.3177C43.4582 38.3969 43.0149 38.4887 42.5732 38.59C42.3785 38.6359 42.1822 38.6834 41.9875 38.7325C41.8941 38.7578 41.7991 38.78 41.7057 38.8037C41.3595 38.924 41.0645 38.7657 40.8207 38.3288C41.0329 38.1087 40.6988 37.7715 40.4851 37.9932L40.4867 37.9868Z" fill="#6C63FF"/>
<path d="M46.2206 44.7435C43.9298 44.6549 41.4554 45.2738 39.9467 47.1182C38.7657 48.5604 38.0929 51.0348 39.3435 52.6591C40.6876 54.4005 43.6353 54.0934 45.4132 53.3509C47.2939 52.5593 49.352 50.9271 49.9171 48.8849C50.6216 46.3345 48.334 44.4063 45.9514 44.3778C45.6459 44.3778 45.6459 44.8527 45.9514 44.8527C47.3097 44.8686 48.6427 45.4512 49.276 46.7161C49.9393 48.0491 49.3678 49.4485 48.4844 50.5155C47.0691 52.2142 44.8559 53.495 42.6016 53.4585C41.248 53.438 39.752 52.9741 39.3324 51.5461C38.9873 50.3889 39.2501 49.124 39.8517 48.0981C41.153 45.8818 43.8016 45.1314 46.2301 45.2264C46.5356 45.2374 46.5356 44.7625 46.2301 44.7514L46.2206 44.7435Z" fill="#6C63FF"/>
<path d="M43.9457 48.2612C43.848 48.225 43.7428 48.2141 43.6397 48.2295C43.5367 48.2449 43.4393 48.2862 43.3565 48.3494C43.2737 48.4126 43.2082 48.4957 43.1662 48.591C43.1242 48.6863 43.1069 48.7907 43.1161 48.8944C43.1636 49.5118 43.8443 49.686 44.3557 49.6496C44.7974 49.6116 45.3135 49.4485 45.1583 48.896C45.1298 48.7982 45.0805 48.7077 45.0139 48.6307C44.9472 48.5537 44.8647 48.4919 44.7721 48.4496C44.6304 48.3934 44.4767 48.3743 44.3256 48.3942C44.267 48.3942 43.7304 48.5905 43.9583 48.3546L43.5847 48.3055C43.6262 48.3464 43.6579 48.3961 43.6777 48.4509C43.6974 48.5057 43.7046 48.5642 43.6987 48.6221C43.6994 48.6635 43.7109 48.704 43.7319 48.7396C43.753 48.7753 43.7829 48.8048 43.8188 48.8254C43.8547 48.846 43.8953 48.8569 43.9367 48.8571C43.9781 48.8572 44.0188 48.8466 44.0549 48.8264C44.1092 48.8036 44.1688 48.7965 44.2269 48.8057C44.2851 48.815 44.3395 48.8403 44.3841 48.8788C44.4287 48.9173 44.4616 48.9674 44.4792 49.0236C44.4969 49.0798 44.4985 49.1398 44.4839 49.1968C44.4712 49.2517 44.4782 49.3092 44.5037 49.3594C44.5293 49.4096 44.5717 49.4491 44.6236 49.4711C44.6754 49.493 44.7334 49.496 44.7872 49.4794C44.841 49.4628 44.8872 49.4278 44.9177 49.3805C45.076 49.0955 45.2676 48.5287 45.0301 48.2311C44.8718 48.0301 44.5663 48.0902 44.3763 48.2074C44.259 48.2903 44.1498 48.3841 44.0502 48.4876C43.8586 48.657 43.7335 48.7361 43.8048 48.4116C43.9235 47.8211 44.4871 47.3509 45.0016 47.115L44.6533 46.8475C44.4707 47.5336 44.1442 48.1731 43.6955 48.7235L44.1008 48.8913C44.0893 48.6739 44.1452 48.4583 44.2608 48.2738C44.3764 48.0894 44.5461 47.9451 44.7467 47.8607H44.514L44.6375 48.0633C44.5916 48.3625 45.0491 48.4907 45.095 48.1884C45.1552 47.7973 44.9082 47.2892 44.4507 47.4807C43.9045 47.7087 43.6211 48.334 43.6322 48.8913C43.6322 49.0812 43.9013 49.2285 44.0391 49.0607C44.5425 48.449 44.9101 47.7372 45.1172 46.9725C45.1282 46.9272 45.1258 46.8796 45.1102 46.8356C45.0946 46.7916 45.0666 46.753 45.0295 46.7247C44.9924 46.6963 44.9479 46.6793 44.9013 46.6758C44.8548 46.6724 44.8082 46.6825 44.7673 46.705C44.2931 46.9194 43.8923 47.2684 43.6148 47.7087C43.4216 48.0253 43.1794 48.5192 43.3757 48.8833C43.4079 48.9416 43.4513 48.9929 43.5034 49.0343C43.5556 49.0757 43.6154 49.1063 43.6794 49.1244C43.7435 49.1425 43.8105 49.1477 43.8766 49.1398C43.9426 49.1318 44.0065 49.1109 44.0644 49.0781C44.2108 48.9913 44.3445 48.8847 44.4618 48.7615C44.5203 48.7092 44.5853 48.619 44.6628 48.6031C44.7325 48.5556 44.7293 48.5826 44.6517 48.687C44.6507 48.8511 44.6029 49.0115 44.514 49.1493L44.9478 49.3314C44.9869 49.1836 44.9823 49.0276 44.9347 48.8823C44.887 48.737 44.7983 48.6087 44.6792 48.5127C44.5602 48.4168 44.4159 48.3574 44.2638 48.3417C44.1117 48.326 43.9583 48.3546 43.8222 48.4242L44.18 48.6301C44.1875 48.4286 44.1242 48.2309 44.0011 48.0712C43.9824 48.0404 43.957 48.0142 43.9269 47.9945C43.8967 47.9749 43.8625 47.9622 43.8268 47.9575C43.7911 47.9528 43.7548 47.9561 43.7206 47.9673C43.6863 47.9785 43.6551 47.9972 43.629 48.0221C43.3884 48.2739 43.3425 48.7092 43.6449 48.9419C43.8713 49.1145 43.9821 48.9419 44.2306 48.9024C45.0744 48.7931 44.5821 49.1731 44.2845 49.1857C44.1514 49.2 44.0168 49.1903 43.8871 49.1572C43.5567 49.0454 43.5362 48.9013 43.8253 48.725C44.1087 48.8406 44.2306 48.3815 43.952 48.2675L43.9457 48.2612Z" fill="#6C63FF"/>
<path d="M43.5641 49.1288C43.7589 49.762 42.9546 49.971 42.5731 50.1894C42.3054 50.3396 42.0719 50.5439 41.8876 50.7894C41.4887 51.3245 41.3399 52.0053 41.2085 52.6464C41.1483 52.9456 41.6058 53.0723 41.6676 52.7731C41.74 52.3019 41.8747 51.8425 42.0681 51.4068C42.3531 50.8401 42.7615 50.6501 43.2934 50.3588C43.8253 50.0675 44.21 49.6163 44.0217 49.0021C43.933 48.7108 43.4739 48.8359 43.5641 49.1288V49.1288Z" fill="#6C63FF"/>
<path d="M44.3559 48.8105C44.2426 48.8262 44.1393 48.8836 44.0661 48.9714C43.9929 49.0593 43.9551 49.1712 43.9601 49.2855C43.9601 49.4739 44.0852 49.5942 44.1707 49.7446C44.3736 50.0523 44.5284 50.3891 44.6298 50.7435C44.7058 51.0839 44.7802 51.6934 44.6029 52.01C44.2752 52.5974 43.6831 52.485 43.1781 52.485C42.7031 52.485 42.3359 52.6433 42.3517 51.9815C42.3612 51.6095 42.6208 51.2327 42.8266 50.9398L42.3928 50.8828C42.4844 51.3662 42.5326 51.8568 42.5369 52.3488C42.5369 52.5689 42.8741 52.6908 42.9786 52.4675C43.2331 51.9321 43.4351 51.3733 43.5818 50.7989L43.1147 50.7356L43.1971 51.9388C43.1984 51.9901 43.2163 52.0397 43.248 52.0801C43.2798 52.1205 43.3236 52.1496 43.3732 52.1631C43.4228 52.1766 43.4753 52.1737 43.5232 52.155C43.571 52.1363 43.6115 52.1027 43.6387 52.0591C43.6942 51.9979 43.7348 51.9248 43.7575 51.8454C43.7733 51.771 43.6277 51.2691 43.5691 51.448L44.0345 51.5113L44.0678 50.3683L43.5928 50.4317C43.6932 50.754 43.7235 51.094 43.6815 51.429C43.6514 51.6934 44.0963 51.7536 44.1564 51.4923L44.454 49.9567L44.0203 50.0121C44.1233 50.2245 44.1518 50.4655 44.101 50.696C44.0662 51 44.5411 50.9968 44.5759 50.696C44.6163 50.3808 44.5658 50.0606 44.4303 49.7731C44.4062 49.7334 44.3712 49.7017 44.3293 49.6816C44.2875 49.6616 44.2408 49.6541 44.1948 49.6601C44.1489 49.6662 44.1056 49.6855 44.0704 49.7156C44.0352 49.7458 44.0095 49.7856 43.9965 49.8301L43.6973 51.3657L44.1643 51.429C44.2118 51.0516 44.1756 50.6684 44.0583 50.3066C44.0424 50.2521 44.0075 50.205 43.96 50.174C43.9124 50.143 43.8553 50.1301 43.799 50.1375C43.7427 50.145 43.691 50.1724 43.6532 50.2147C43.6153 50.2571 43.5939 50.3116 43.5928 50.3683L43.5596 51.5113C43.5596 51.7884 43.9443 51.828 44.0266 51.5747L44.0519 51.4971C44.0629 51.4567 44.0631 51.4141 44.0526 51.3735C44.042 51.333 44.0211 51.2959 43.9918 51.266C43.4994 50.7309 43.3997 51.5826 43.2287 51.8185L43.672 51.9388L43.5897 50.7356C43.5723 50.4791 43.1923 50.4 43.1227 50.6723C42.9889 51.2078 42.8033 51.7289 42.5686 52.2285L43.0118 52.3488C43.0067 51.8143 42.9538 51.2813 42.8535 50.7562C42.8124 50.5377 42.5258 50.5472 42.4198 50.6992C42.1031 51.1551 41.5554 52.1509 41.9781 52.6971C42.3469 53.172 43.5073 52.9884 44.0029 52.9583C44.7849 52.914 45.0683 52.4185 45.1538 51.6807C45.1945 51.3275 45.1747 50.9698 45.0952 50.6232C45.0525 50.4364 44.6203 49.2522 44.4905 49.276C44.7912 49.2206 44.663 48.7615 44.3638 48.8169L44.3559 48.8105Z" fill="#6C63FF"/>
<path d="M43.4356 49.8776L42.139 51.5889L42.5491 51.828L43.4989 50.4538L43.0652 50.2702L42.5918 52.0765C42.5791 52.1314 42.5861 52.189 42.6116 52.2391C42.6372 52.2893 42.6796 52.3289 42.7314 52.3508C42.7833 52.3728 42.8412 52.3757 42.895 52.3591C42.9488 52.3425 42.9951 52.3075 43.0256 52.2602C43.241 51.9033 43.4828 51.563 43.7491 51.2422L43.3533 51.0111C43.247 51.4201 43.0421 51.7968 42.7565 52.1082L43.1538 52.3393C43.1781 52.1206 43.2363 51.9069 43.3264 51.7061C43.4483 51.4322 43.062 51.19 42.9163 51.4655C42.7824 51.7163 42.6294 51.9566 42.4588 52.1842L42.8926 52.2412L42.9892 51.79L42.5554 51.733L42.6251 52.1288C42.6365 52.1686 42.6581 52.2048 42.6877 52.2337C42.7173 52.2627 42.754 52.2835 42.794 52.294C42.8341 52.3045 42.8762 52.3045 42.9162 52.2938C42.9563 52.2832 42.9929 52.2623 43.0224 52.2333C43.4239 51.8177 43.7459 51.3322 43.9723 50.8005H43.5638C43.6712 50.9985 43.7465 51.2122 43.787 51.4338C43.844 51.7187 44.2224 51.6127 44.2525 51.3705C44.3205 50.8402 44.3554 50.3062 44.357 49.7715H43.882V50.7673C43.882 51.0253 44.3047 51.1013 44.349 50.8306C44.3804 50.5905 44.4595 50.359 44.5818 50.1499H44.1654C44.2657 50.3117 44.3205 50.4977 44.3237 50.6881C44.3237 50.7511 44.3487 50.8115 44.3933 50.8561C44.4378 50.9006 44.4982 50.9256 44.5612 50.9256C44.6242 50.9256 44.6846 50.9006 44.7291 50.8561C44.7736 50.8115 44.7986 50.7511 44.7986 50.6881L44.8588 50.3715H44.4013C44.4472 50.6517 44.6213 52.2301 44.0023 52.0449C43.8979 52.0195 43.8678 52.0259 43.9121 52.0623L44.053 51.7615L44.3839 51.0602L43.9406 50.9399C43.9691 51.266 43.9992 51.7314 43.8029 52.01C43.6446 52.2364 43.157 52.3267 42.9084 52.1937C42.7443 52.0767 42.6041 51.9295 42.4952 51.7599L42.1707 52.0765C42.4335 52.2681 42.8594 52.7383 43.1981 52.7652C43.4562 52.7858 43.6731 52.572 43.8425 52.4011C44.1023 52.1326 44.3049 51.8141 44.4379 51.4649C44.571 51.1158 44.6318 50.7433 44.6166 50.3699C44.6166 50.307 44.5916 50.2466 44.547 50.202C44.5025 50.1575 44.4421 50.1325 44.3791 50.1325C44.3161 50.1325 44.2557 50.1575 44.2112 50.202C44.1667 50.2466 44.1417 50.307 44.1417 50.3699V50.9114C44.1417 50.9743 44.1667 51.0347 44.2112 51.0793C44.2557 51.1238 44.3161 51.1488 44.3791 51.1488C44.4421 51.1488 44.5025 51.1238 44.547 51.0793C44.5916 51.0347 44.6166 50.9743 44.6166 50.9114V49.5831C44.6166 49.5201 44.5916 49.4597 44.547 49.4152C44.5025 49.3707 44.4421 49.3457 44.3791 49.3457C44.3161 49.3457 44.2557 49.3707 44.2112 49.4152C44.1667 49.4597 44.1417 49.5201 44.1417 49.5831C44.1408 49.9015 44.1133 50.2192 44.0593 50.533L44.5264 50.5963C44.4892 50.2181 44.4717 49.8381 44.4741 49.4581C44.4734 49.4012 44.4522 49.3464 44.4145 49.3038C44.3768 49.2612 44.3251 49.2335 44.2687 49.2259C44.2123 49.2182 44.155 49.231 44.1073 49.262C44.0596 49.293 44.0246 49.3401 44.0087 49.3947C43.9374 49.6971 43.8504 49.9947 43.7665 50.2908L44.2002 50.2338L44.167 50.1071C44.1448 49.8048 43.6699 49.8032 43.6921 50.1071C43.6973 50.2353 43.7308 50.3607 43.7902 50.4744C43.882 50.6676 44.1686 50.5995 44.224 50.4174C44.3142 50.1198 44.395 49.8222 44.4662 49.5214L43.9992 49.4581C43.9968 49.8381 44.0142 50.2181 44.0514 50.5963C44.0752 50.8401 44.4678 50.9446 44.5169 50.6596C44.5801 50.3021 44.6134 49.9399 44.6166 49.5768H44.1417V50.905H44.6166V50.3636H44.1417C44.1696 50.9608 43.9621 51.5452 43.5638 51.991C43.5021 52.0612 43.4355 52.1268 43.3644 52.1873C43.252 52.295 43.1491 52.2792 43.0588 52.1383C42.834 52.0449 42.6013 51.8042 42.405 51.6633C42.2087 51.5224 41.9396 51.8011 42.0789 51.9879C42.443 52.4723 42.986 53.0121 43.662 52.7794C44.3728 52.5277 44.4694 51.5652 44.4155 50.9319C44.3981 50.7214 44.0831 50.5789 43.9739 50.8132C43.8155 51.1472 43.6572 51.4797 43.4989 51.8153C43.4435 51.9325 43.3406 52.0939 43.3564 52.2333C43.4087 52.5895 43.8409 52.5309 44.1068 52.5103C45.1374 52.4327 44.9744 50.9715 44.8556 50.237C44.8161 49.9932 44.4614 50.0312 44.3981 50.237C44.3478 50.3816 44.3216 50.5335 44.3206 50.6866H44.7955C44.7783 50.4143 44.7021 50.1491 44.5723 49.9093C44.551 49.8738 44.521 49.8445 44.4851 49.8242C44.4491 49.8038 44.4085 49.7931 44.3673 49.7931C44.326 49.7931 44.2854 49.8038 44.2495 49.8242C44.2135 49.8445 44.1835 49.8738 44.1622 49.9093C44.0207 50.1536 43.9252 50.4219 43.8805 50.7008L44.3554 50.7641V49.7684C44.3554 49.7054 44.3304 49.645 44.2858 49.6004C44.2413 49.5559 44.1809 49.5309 44.1179 49.5309C44.0549 49.5309 43.9945 49.5559 43.95 49.6004C43.9055 49.645 43.8805 49.7054 43.8805 49.7684C43.8789 50.303 43.844 50.837 43.776 51.3673L44.243 51.304C44.1892 51.0452 44.098 50.7956 43.9723 50.5631C43.951 50.5277 43.921 50.4984 43.8851 50.478C43.8491 50.4577 43.8086 50.447 43.7673 50.447C43.726 50.447 43.6854 50.4577 43.6495 50.478C43.6135 50.4984 43.5835 50.5277 43.5622 50.5631C43.3558 51.0589 43.0589 51.512 42.6868 51.8992L43.0842 52.0037L43.0145 51.6079C42.9781 51.3974 42.6805 51.391 42.5807 51.5509C42.5021 51.67 42.4487 51.8039 42.4239 51.9444C42.3991 52.0849 42.4035 52.2291 42.4367 52.3678C42.4762 52.5926 42.7612 52.5689 42.8704 52.4248C43.041 52.1978 43.194 51.9581 43.328 51.7077L42.9179 51.467C42.8085 51.7036 42.7338 51.9547 42.6963 52.2127C42.6678 52.4216 42.9163 52.6401 43.0937 52.4438C43.434 52.0714 43.6804 51.6231 43.8124 51.1362C43.871 50.9209 43.5733 50.7166 43.415 50.905C43.1238 51.2541 42.8592 51.6245 42.6235 52.0132L43.0572 52.1968L43.5401 50.3969C43.5528 50.342 43.5458 50.2844 43.5203 50.2342C43.4947 50.1841 43.4523 50.1445 43.4004 50.1226C43.3486 50.1006 43.2907 50.0977 43.2369 50.1143C43.183 50.1308 43.1368 50.1659 43.1063 50.2132L42.1565 51.5889C41.9791 51.8438 42.386 52.0639 42.5665 51.828L43.8583 50.1182C44.0419 49.8744 43.6303 49.6433 43.4483 49.8776H43.4356Z" fill="#6C63FF"/>
<path d="M63.6331 55.5911C65.5328 54.4291 67.0431 52.6955 68.7212 51.2454C70.5418 49.6734 72.4526 48.209 74.4204 46.8222C78.242 44.1309 82.2552 41.723 86.2653 39.3214C86.3172 39.2885 86.3544 39.2368 86.369 39.177C86.3836 39.1173 86.3744 39.0542 86.3435 39.0011C86.3125 38.948 86.2621 38.9089 86.2029 38.8922C86.1438 38.8755 86.0804 38.8823 86.0262 38.9114C82.0162 41.3129 78.0014 43.7161 74.1798 46.4122C72.3766 47.6787 70.6162 49.0211 68.9286 50.4459C67.0922 51.9974 65.4568 53.9288 63.3877 55.181C63.1265 55.3394 63.3656 55.751 63.6268 55.5911H63.6331Z" fill="#6C63FF"/>
<path d="M92.3968 31.9472C90.3387 32.1562 88.1224 32.6802 86.8559 34.4802C85.7619 36.0285 85.7857 38.7293 86.8131 40.3187C87.9799 42.1251 90.364 42.19 92.2163 41.6058C94.0685 41.0216 95.9857 39.9973 95.9682 37.7842C95.9587 36.5968 95.5297 35.3604 95.0564 34.2839C94.6479 33.3546 93.9244 32.5425 92.8289 32.6454C92.5266 32.6739 92.5234 33.1488 92.8289 33.1203C94.2965 32.9842 94.7682 34.7272 95.1165 35.8274C95.4332 36.8549 95.726 38.0707 95.2289 39.0918C94.7318 40.1129 93.5334 40.6338 92.5091 41.0074C91.401 41.4095 90.1836 41.6549 89.0263 41.324C86.734 40.6828 86.1007 37.7778 86.7609 35.7166C87.5208 33.342 90.2121 32.6438 92.4047 32.4222C92.7055 32.3921 92.7086 31.9172 92.4047 31.9472H92.3968Z" fill="#6C63FF"/>
<path d="M95.563 50.3114C93.5049 50.5203 91.2886 51.0444 90.0221 52.8444C88.9281 54.3926 88.9519 57.0934 89.9793 58.6829C91.1461 60.4892 93.5303 60.5541 95.3825 59.97C97.2348 59.3858 99.1519 58.3615 99.1345 56.1483C99.125 54.961 98.696 53.7246 98.2226 52.648C97.8142 51.7188 97.0907 50.9066 95.9952 51.0095C95.6928 51.038 95.6896 51.513 95.9952 51.4845C97.4627 51.3483 97.9345 53.0913 98.2828 54.1916C98.5994 55.219 98.8923 56.4349 98.3952 57.456C97.8981 58.4771 96.6997 58.9979 95.6754 59.3715C94.5672 59.7737 93.3498 60.019 92.1925 59.6882C89.9002 59.047 89.2669 56.142 89.9271 54.0808C90.687 51.7061 93.3783 51.0079 95.5709 50.7863C95.8717 50.7562 95.8749 50.2813 95.5709 50.3114H95.563Z" fill="#6C63FF"/>
<path d="M89.2925 36.5715L90.7917 38.2813C90.8214 38.3099 90.858 38.3304 90.8979 38.3407C90.9379 38.351 90.9798 38.3508 91.0196 38.3402C91.0595 38.3295 91.0959 38.3087 91.1253 38.2798C91.1547 38.2509 91.1761 38.2148 91.1875 38.1752C91.5041 37.3425 91.444 36.4797 91.5184 35.6042C91.6004 34.6994 91.8276 33.8136 92.1912 32.981C92.9216 31.2922 94.16 29.8729 95.7343 28.9203C95.9955 28.762 95.7564 28.3504 95.4952 28.5103C93.943 29.445 92.6977 30.8129 91.9126 32.4459C91.5283 33.2406 91.2616 34.0869 91.121 34.9583C90.9627 35.9858 91.1068 37.0623 90.7268 38.0486L91.1242 37.9425L89.6329 36.2359C89.4302 36.0063 89.0962 36.3435 89.2973 36.5715H89.2925Z" fill="#6C63FF"/>
<path d="M64.3979 57.4417C72.5637 57.1926 80.7315 57.1398 88.9014 57.2834C89.207 57.2834 89.207 56.8085 88.9014 56.8085C80.7336 56.6628 72.5658 56.7156 64.3979 56.9668C64.0924 56.9763 64.0908 57.4512 64.3979 57.4417Z" fill="#6C63FF"/>
<path d="M90.608 52.7588C93.3994 53.8544 96.0846 55.2036 98.6297 56.7895C98.8893 56.9478 99.1283 56.5409 98.8687 56.3794C96.2901 54.774 93.5694 53.4089 90.741 52.3013C90.4576 52.1889 90.3341 52.648 90.6159 52.7588H90.608Z" fill="#6C63FF"/>
<path d="M95.6772 50.6074C92.8465 53.9073 91.2068 58.0627 91.0213 62.4064C91.0086 62.7119 91.4835 62.7119 91.4962 62.4064C91.676 58.1874 93.2665 54.1508 96.0128 50.943C96.2107 50.7119 95.8767 50.3747 95.6772 50.6074Z" fill="#6C63FF"/>
<path d="M32.3606 55.7177L50.055 55.4866L52.0893 55.4596C52.455 55.4596 52.8207 55.447 53.1864 55.4454C53.7009 55.4454 54.0476 55.8728 54.0381 56.3953C54.0144 57.5035 53.3178 57.4639 52.4059 57.5035L50.207 57.6032L41.2529 57.9974C39.6492 58.0686 38.0439 58.1557 36.4402 58.2111C34.9933 58.2554 32.2418 57.7837 32.8846 55.6781C32.9732 55.3852 32.5157 55.2602 32.4255 55.5515C32.1088 56.5868 32.6693 57.638 33.5716 58.181C34.8524 58.9504 36.54 58.6892 37.9537 58.6259L48.9468 58.1272L51.616 58.0085C52.2999 57.9768 53.2513 58.1161 53.8798 57.7979C54.6175 57.4259 54.7474 55.9488 54.2819 55.3267C54.0429 55.01 53.7072 54.9815 53.3321 54.9673C52.3474 54.9293 51.3452 54.9942 50.359 55.0069L44.8782 55.0797L32.3542 55.238C32.0487 55.238 32.0487 55.7129 32.3542 55.7129L32.3606 55.7177Z" fill="#6C63FF"/>
<path d="M103.851 113.897C103.452 114.147 102.996 114.288 102.584 114.508C102.172 114.728 101.772 115.059 101.655 115.515C101.611 115.657 101.618 115.809 101.675 115.946C101.778 116.111 101.934 116.235 102.119 116.297C102.955 116.668 103.858 116.865 104.773 116.876C105.688 116.886 106.595 116.71 107.439 116.357C107.737 116.214 108.043 116.093 108.358 115.993C108.745 115.914 109.139 115.874 109.534 115.873C109.949 115.849 110.362 115.796 110.77 115.714C110.975 115.692 111.17 115.611 111.331 115.482C111.478 115.313 111.566 115.1 111.582 114.877C111.77 113.644 111.487 112.385 110.791 111.35C110.703 111.205 110.586 111.08 110.446 110.984C110.275 110.896 110.088 110.846 109.896 110.837C109.105 110.74 108.275 110.563 107.476 110.544C106.903 110.531 106.615 110.804 106.209 111.198C105.372 112.035 104.883 113.253 103.851 113.897Z" fill="#323444"/>
<path d="M115.517 113.78C115.517 114.556 115.61 115.377 116.08 115.996C116.295 116.264 116.556 116.492 116.85 116.669C117.844 117.302 119.161 117.535 120.209 116.998C120.378 116.922 120.523 116.801 120.627 116.647C120.785 116.372 120.701 116.028 120.613 115.724L119.096 110.468C118.116 110.618 116.676 110.725 115.805 111.222C115.173 111.581 115.517 113.087 115.517 113.78Z" fill="#323444"/>
<path d="M102.961 81.4164C102.869 81.7061 102.537 81.8406 102.355 82.0844C102.141 82.371 102.163 82.7683 102.241 83.1166C102.337 83.6302 102.578 84.1055 102.936 84.486C103.117 84.6745 103.341 84.8168 103.589 84.9011C103.837 84.9854 104.102 85.0091 104.36 84.9704C104.87 84.8739 105.31 84.4227 105.328 83.905C105.319 83.6696 105.268 83.4376 105.179 83.2195L104.099 80.0976C104.095 80.0756 104.086 80.0547 104.073 80.0364C104.06 80.0181 104.043 80.0028 104.023 79.9916C103.983 79.9825 103.94 79.9899 103.905 80.0121C103.65 80.1325 103.138 80.2591 102.989 80.5235C102.841 80.7879 103.069 81.1298 102.961 81.4164Z" fill="#FBB3B2"/>
<path d="M102.456 81.2597C102.85 81.1979 103.195 80.9668 103.564 80.8148C103.933 80.6628 104.395 80.6042 104.705 80.8575C104.794 80.9304 104.879 81.0301 104.995 81.0285C104.838 80.2544 104.6 79.4988 104.286 78.7742C104.275 78.7394 104.253 78.709 104.224 78.6871C104.181 78.6696 104.133 78.6696 104.089 78.6871L103.024 78.9657C102.63 79.0686 102.584 79.037 102.614 79.4248C102.622 79.5974 102.711 81.2597 102.456 81.2597Z" fill="#323444"/>
<path d="M102.339 58.7161C102.181 58.9599 102.181 59.2638 102.181 59.5504C102.181 60.9514 102.195 62.3604 102.402 63.7472C102.451 64.0797 102.513 64.4121 102.545 64.7477C102.581 65.2149 102.588 65.6839 102.567 66.1519L102.409 72.2469C102.39 72.9926 102.352 73.7936 101.891 74.3794C101.751 74.5757 101.686 74.8152 101.706 75.0554C101.826 76.5847 102.079 78.1013 102.331 79.6132C102.736 79.4303 103.179 79.3461 103.623 79.3673C104.067 79.3885 104.5 79.5145 104.886 79.7351C105.685 77.2236 106.127 74.6123 106.198 71.9778C106.235 70.6812 106.179 69.3767 106.379 68.096C106.713 65.9398 106.577 63.7282 106.331 61.5593C106.254 60.8723 106.089 60.1646 105.649 59.6327C105.233 59.1673 104.678 58.8477 104.066 58.7208C103.48 58.5673 102.956 58.7256 102.339 58.7161Z" fill="#5B5583"/>
<path opacity="0.1" d="M102.339 58.7161C102.181 58.9599 102.181 59.2638 102.181 59.5504C102.181 60.9514 102.195 62.3604 102.402 63.7472C102.451 64.0797 102.513 64.4121 102.545 64.7477C102.581 65.2149 102.588 65.6839 102.567 66.1519L102.409 72.2469C102.39 72.9926 102.352 73.7936 101.891 74.3794C101.751 74.5757 101.686 74.8152 101.706 75.0554C101.826 76.5847 102.079 78.1013 102.331 79.6132C102.736 79.4303 103.179 79.3461 103.623 79.3673C104.067 79.3885 104.5 79.5145 104.886 79.7351C105.685 77.2236 106.127 74.6123 106.198 71.9778C106.235 70.6812 106.179 69.3767 106.379 68.096C106.713 65.9398 106.577 63.7282 106.331 61.5593C106.254 60.8723 106.089 60.1646 105.649 59.6327C105.233 59.1673 104.678 58.8477 104.066 58.7208C103.48 58.5673 102.956 58.7256 102.339 58.7161Z" fill="black"/>
<path d="M104.273 76.3916C103.211 81.8326 103.791 87.4665 105.938 92.5774C106.124 92.9557 106.254 93.3588 106.325 93.7742C106.412 94.5499 106.054 95.2956 105.85 96.046C105.375 97.7526 105.649 99.57 105.953 101.316C106.079 102.044 106.21 102.772 106.344 103.499C106.475 104.208 106.602 104.979 106.273 105.622C106.556 106.803 106.724 107.973 107.007 109.154C107.037 109.248 107.046 109.346 107.034 109.444C106.977 109.598 106.876 109.733 106.744 109.832C106.533 110.046 106.381 110.311 106.304 110.602C106.226 110.893 106.226 111.198 106.303 111.489C107.026 110.97 108.035 111.152 108.861 111.489C109.687 111.826 110.501 112.281 111.394 112.281C111.264 111.233 111.139 110.133 111.525 109.149C111.75 108.579 112.146 108.041 112.135 107.432C112.124 106.886 111.79 106.398 111.709 105.858C111.679 105.522 111.692 105.184 111.747 104.851C111.959 102.914 111.718 100.957 111.478 99.0222C111.451 98.6407 111.361 98.2663 111.212 97.914C111.099 97.6861 110.932 97.4676 110.935 97.2127C110.935 96.9167 111.174 96.676 111.262 96.3942C111.421 95.875 111.13 95.1689 111.568 94.8475C112.724 93.999 112.28 91.9726 112.255 90.5399C112.235 89.304 112.182 88.0692 112.097 86.8354C112.824 88.8813 113.122 91.0555 112.971 93.2217C112.92 93.9309 112.827 94.6766 113.104 95.332C113.316 95.8354 113.737 96.2502 113.851 96.7837C113.922 97.113 113.871 97.4533 113.887 97.789C113.903 98.1246 114.017 98.4903 114.307 98.6597C114.329 100.186 114.465 101.818 114.489 103.344C114.473 104.124 114.537 104.904 114.679 105.671C114.75 105.915 114.789 106.168 114.796 106.422C114.76 106.74 114.676 107.052 114.546 107.345C114.27 108.162 114.198 109.034 114.336 109.885C114.474 110.736 114.818 111.541 115.337 112.229C115.711 111.565 116.49 111.214 117.25 111.158C118.01 111.103 118.76 111.295 119.496 111.488C119.384 110.563 119.568 109.626 120.022 108.812C120.144 108.629 120.237 108.428 120.299 108.217C120.384 107.815 120.185 107.414 120.077 107.017C119.902 106.384 119.963 105.701 120.004 105.04C120.143 102.823 120.044 100.599 119.712 98.4032C119.66 97.9708 119.559 97.5457 119.409 97.1367C119.352 96.9911 119.283 96.8518 119.235 96.7045C119.16 96.4404 119.118 96.1683 119.108 95.894L118.926 93.361C118.798 91.5863 119.381 89.8338 119.788 88.1019C119.97 87.3262 120.167 86.552 120.289 85.7636C120.456 84.6903 120.483 83.5932 120.726 82.5341C120.945 81.5842 121.339 80.6581 121.421 79.6845C121.548 78.1758 120.921 76.7177 120.313 75.3341C120.06 74.7641 119.102 74.8211 118.486 74.7198C114.118 74.0027 109.518 73.9979 105.399 75.6143C104.973 75.7908 104.589 76.0557 104.273 76.3916V76.3916Z" fill="#3C354C"/>
<path d="M107.422 48.2929L107.906 50.1768C108.038 50.6089 108.111 51.0567 108.123 51.5082C108.128 51.6729 108.092 51.8362 108.017 51.9831C107.938 52.1038 107.835 52.208 107.716 52.2903C107.386 52.542 107.156 53.1293 106.778 53.3034C106.972 53.6422 107.242 53.4222 107.593 53.5916C108.212 53.8924 108.779 54.3246 109.45 54.4734C110.083 54.6127 110.748 54.4813 111.377 54.3151C112.268 54.0728 113.154 53.7388 113.872 53.1546C114.589 52.5705 114.997 52.0544 114.994 51.1314C114.203 51.2248 113.498 50.4253 113.148 49.7066C113.027 49.4334 112.938 49.1471 112.882 48.8533L112.458 46.9868C111.996 47.0881 111.619 47.419 111.177 47.5916C110.735 47.7641 110.213 47.78 109.722 47.8021C108.851 47.8417 107.985 47.954 107.132 48.1377C107.015 48.1615 106.868 48.2359 106.896 48.3499" fill="#FBB3B2"/>
<path opacity="0.1" d="M107.422 48.2929L107.906 50.1768C108.038 50.6089 108.111 51.0567 108.123 51.5082C108.128 51.6729 108.092 51.8362 108.017 51.9831C107.938 52.1038 107.835 52.208 107.716 52.2903C107.386 52.542 107.156 53.1293 106.778 53.3034C106.972 53.6422 107.242 53.4222 107.593 53.5916C108.212 53.8924 108.779 54.3246 109.45 54.4734C110.083 54.6127 110.748 54.4813 111.377 54.3151C112.268 54.0728 113.154 53.7388 113.872 53.1546C114.589 52.5705 114.997 52.0544 114.994 51.1314C114.203 51.2248 113.498 50.4253 113.148 49.7066C113.027 49.4334 112.938 49.1471 112.882 48.8533L112.458 46.9868C111.996 47.0881 111.619 47.419 111.177 47.5916C110.735 47.7641 110.213 47.78 109.722 47.8021C108.851 47.8417 107.985 47.954 107.132 48.1377C107.015 48.1615 106.868 48.2359 106.896 48.3499" fill="black"/>
<path d="M109.502 49.3314C111.818 49.3314 113.694 47.4545 113.694 45.1393C113.694 42.8241 111.818 40.9472 109.502 40.9472C107.187 40.9472 105.31 42.8241 105.31 45.1393C105.31 47.4545 107.187 49.3314 109.502 49.3314Z" fill="#FBB3B2"/>
<path d="M110.656 52.0496C110.88 51.5654 111.204 51.1339 111.606 50.7831C112.197 50.2654 113.004 49.8459 113.143 49.0734L114.423 50.5631C114.492 50.6322 114.546 50.7153 114.581 50.8069C114.597 50.8928 114.595 50.9811 114.574 51.066C114.553 51.1509 114.514 51.2304 114.46 51.2992C114.144 51.8042 113.645 52.1652 113.173 52.5309C112.092 53.3874 111.057 54.3006 110.072 55.2665C110.029 55.3169 109.971 55.3524 109.906 55.3678C109.845 55.3695 109.784 55.3524 109.733 55.3188C108.884 54.8726 108.132 54.2612 107.522 53.5203C107.476 53.4649 107.419 53.4016 107.344 53.4063C107.3 53.4146 107.258 53.4361 107.226 53.4681C106.8 53.8164 106.334 54.2327 105.788 54.1789C106.496 53.6707 106.896 52.8222 107.045 51.9625C107.075 51.6683 107.135 51.3781 107.226 51.0966C107.273 50.9558 107.353 50.8287 107.461 50.7265C107.569 50.6243 107.7 50.5503 107.843 50.5108C107.498 51.038 107.734 51.7852 108.198 52.2111C108.648 52.5936 109.189 52.8556 109.768 52.9726C110.306 53.0739 110.465 52.4644 110.656 52.0496Z" fill="#323444"/>
<path d="M105.202 76.8222C105.799 76.9694 106.364 77.2195 106.944 77.4048C108 77.7355 109.111 77.8523 110.213 77.7483C110.552 77.7409 110.882 77.6359 111.163 77.4459C111.237 77.3858 111.305 77.3145 111.385 77.2591C111.517 77.1797 111.66 77.1204 111.81 77.0834C113.262 76.6291 114.478 75.6491 115.657 74.6897C115.695 74.6581 115.738 74.6185 115.735 74.5678C115.729 74.5333 115.713 74.5016 115.687 74.4776L115.067 73.7652C113.439 74.0422 111.772 73.9378 110.121 73.8966C109.782 73.8815 109.443 73.8905 109.105 73.9235C108.779 73.9615 108.457 74.0438 108.136 74.1135C106.915 74.3794 105.668 74.4808 104.432 74.6549C104.345 74.6613 104.261 74.6873 104.186 74.7309C104.134 74.7712 104.089 74.8205 104.055 74.8765L103.621 75.486C103.453 75.6911 103.329 75.9288 103.257 76.1842C103.156 76.6591 103.368 76.8174 103.771 76.7557C104.248 76.6859 104.734 76.7085 105.202 76.8222Z" fill="#323444"/>
<path d="M110.054 54.5414C109.57 54.0452 109.021 53.6165 108.422 53.267C108.18 53.1133 107.912 53.006 107.631 52.9504C107.489 52.9225 107.343 52.9259 107.203 52.9603C107.063 52.9948 106.933 53.0595 106.82 53.1499C106.679 53.2749 106.591 53.4491 106.454 53.5805C106.283 53.7244 106.087 53.8355 105.875 53.9082C105.154 54.2161 104.471 54.6054 103.839 55.0686C103.495 55.3097 103.184 55.5961 102.916 55.9203C102.199 56.8385 102.091 58.0876 102.11 59.2528C102.125 60.0633 102.902 60.6649 103.437 61.2712C103.939 61.8679 104.393 62.5031 104.795 63.171C105.084 63.6269 105.384 64.1208 105.348 64.6638C105.318 65.1087 105.058 65.5266 105.099 65.9699C105.114 66.1282 105.164 66.2739 105.178 66.4274C105.207 66.744 105.082 67.0607 105.05 67.3773C105.008 67.8253 105.153 68.2702 105.161 68.7214C105.155 69.0302 105.116 69.3376 105.044 69.638C104.74 71.0849 104.358 72.5398 104.436 74.0169L103.559 74.1752C103.642 74.2566 103.705 74.3564 103.742 74.4666C103.779 74.5768 103.79 74.6942 103.774 74.8094C103.757 74.9245 103.714 75.0342 103.647 75.1294C103.58 75.2247 103.492 75.3029 103.39 75.3578C104.759 75.8153 106.239 75.5841 107.691 75.5826C108.892 75.5826 110.089 75.7409 111.289 75.7187C112.489 75.6966 113.727 75.4797 114.717 74.8005C114.986 74.6169 115.233 74.4016 115.516 74.2417C115.896 74.045 116.305 73.9113 116.727 73.8459C117.51 73.6966 118.305 73.6256 119.102 73.6337C119.491 73.6337 119.916 73.6496 120.226 73.4153C120.568 73.1556 120.655 72.6855 120.701 72.2596C120.747 71.81 120.775 71.3588 120.783 70.9076C120.797 70.5563 120.778 70.2045 120.728 69.8564C120.68 69.602 120.619 69.3504 120.543 69.1029L119.946 67.0005C119.699 66.133 120.042 65.1815 120.115 64.2823C120.133 64.0702 120.136 63.8232 119.973 63.6871C119.914 63.638 119.833 63.6047 119.814 63.5287C119.806 63.4927 119.805 63.4552 119.811 63.4187C119.818 63.3822 119.832 63.3475 119.852 63.3166C120.169 62.6834 120.644 62.1245 121.078 61.553C121.806 60.5506 122.483 59.5112 123.104 58.439C122.91 56.1955 121.965 54.083 120.422 52.4422C120.106 52.0987 119.743 51.7694 119.3 51.6142C119.01 51.5258 118.71 51.4773 118.407 51.4702C117.166 51.3863 115.874 51.3119 114.793 50.6881C114.715 50.6344 114.627 50.5972 114.535 50.5789C114.296 50.552 114.122 50.7879 113.966 50.9747C113.567 51.4496 112.98 51.7219 112.464 52.0718C111.501 52.7256 110.749 53.6248 110.054 54.5414Z" fill="#5B5583"/>
<path d="M123.212 59.0865C123.459 59.8686 123.435 60.7045 123.516 61.5198C123.564 62.0118 123.65 62.4993 123.774 62.9778C123.831 63.2409 123.932 63.4921 124.075 63.7203C124.217 63.9293 124.422 64.0987 124.512 64.3346C124.561 64.4944 124.583 64.6614 124.577 64.8285L124.596 65.9208C124.636 66.4997 124.548 67.0804 124.338 67.6211L123.655 69.6966C123.286 70.8206 122.908 71.962 122.243 72.9404C122.149 73.106 122.008 73.239 121.836 73.3219C121.702 73.3573 121.565 73.3786 121.426 73.3852C121.185 73.4283 120.966 73.5541 120.807 73.741C120.649 73.928 120.56 74.1644 120.557 74.4095C120.399 74.178 120.201 73.976 119.973 73.8127L118.585 72.7045C118.11 72.3182 117.614 71.9256 117.038 71.7024C117.813 71.4603 118.501 70.9985 119.019 70.3729C119.536 69.7474 119.861 68.985 119.954 68.1784C119.953 67.9382 120.008 67.7011 120.112 67.485C120.228 67.2982 120.442 67.1557 120.457 66.9356C120.476 66.6586 120.163 66.4496 120.163 66.1726C120.163 65.9889 120.299 65.8369 120.359 65.6644C120.415 65.4511 120.415 65.227 120.359 65.0137L120.168 63.9499C120.156 63.8433 120.124 63.74 120.073 63.6459C120.001 63.5557 119.922 63.472 119.835 63.3958C119.506 63.0269 119.652 62.4459 119.835 61.9916C120.257 60.983 120.8 60.0298 121.453 59.153C121.686 58.8586 121.901 58.551 122.098 58.2317C122.265 57.9404 122.303 57.5367 122.481 57.2818C122.709 57.8802 123.017 58.4707 123.212 59.0865Z" fill="#5B5583"/>
<path d="M116.989 71.7673C116.918 71.8197 116.857 71.884 116.808 71.9572C116.622 72.1914 116.373 72.3686 116.091 72.4686C116.25 72.5826 116.394 72.695 116.542 72.8105C117.643 73.6609 118.652 74.6251 119.55 75.6871C119.65 75.3309 120.247 75.3562 120.393 75.0159C120.427 74.9184 120.438 74.8143 120.424 74.7119C120.394 74.1786 120.318 73.6489 120.196 73.1288C120.148 72.861 120.04 72.6076 119.88 72.3878C119.658 72.1203 119.313 71.9921 118.984 71.8812C118.485 71.7071 117.495 71.4617 116.989 71.7673Z" fill="#323444"/>
<path d="M115.01 73.0116C114.535 73.363 114.119 73.8032 113.585 74.0438C113.208 74.2148 112.779 74.2892 112.45 74.544C112.629 74.9382 113.094 75.1425 113.527 75.1266C113.959 75.0841 114.374 74.9321 114.731 74.6849C115.015 74.5108 115.347 74.3082 115.656 74.4301C115.703 74.6707 115.498 74.8971 115.498 75.1409C115.498 75.3847 115.7 75.562 115.9 75.6902C116.849 76.3029 118.072 76.2522 119.204 76.181C119.269 76.1834 119.332 76.1645 119.386 76.1272C119.41 76.0985 119.429 76.0653 119.441 76.0295C119.452 75.9936 119.457 75.9558 119.454 75.9182C119.468 75.6681 119.474 75.4195 119.476 75.1694C119.508 74.9677 119.482 74.7611 119.4 74.5738C119.319 74.3864 119.186 74.2262 119.017 74.1119C118.403 73.5838 117.74 73.1148 117.038 72.7108C116.341 72.3071 115.635 72.5462 115.01 73.0116Z" fill="#FBB3B2"/>
<path d="M110.975 43.3869C110.272 43.4708 109.76 44.0201 109.832 44.6169C109.903 45.2138 110.53 45.6254 111.233 45.5399C111.936 45.4544 112.447 44.9067 112.376 44.3114C112.305 43.7161 111.678 43.303 110.975 43.3869ZM111.214 45.3753C110.619 45.4465 110.088 45.0966 110.026 44.5932C109.965 44.0898 110.4 43.6243 110.994 43.5531C111.587 43.4818 112.119 43.8317 112.181 44.3351C112.243 44.8386 111.807 45.304 111.214 45.3753V45.3753Z" fill="#3C354C"/>
<path d="M107.548 43.7984C106.846 43.8823 106.334 44.4317 106.405 45.0269C106.477 45.6222 107.104 46.0354 107.806 45.9514C108.509 45.8675 109.021 45.3182 108.95 44.7214C108.878 44.1245 108.251 43.7145 107.548 43.7984ZM107.787 45.7852C107.192 45.8565 106.662 45.5066 106.602 45.0047C106.542 44.5029 106.974 44.0359 107.569 43.9631C108.164 43.8902 108.695 44.2417 108.755 44.7451C108.815 45.2485 108.381 45.714 107.787 45.7852Z" fill="#3C354C"/>
<path d="M105.005 44.1039L106.533 44.4301L106.382 44.8322L104.942 44.4095L105.005 44.1039Z" fill="#3C354C"/>
<path d="M113.52 43.0813L112.111 43.7605L112.354 44.1151L113.653 43.3631L113.52 43.0813Z" fill="#3C354C"/>
<path d="M108.809 44.3287L109.881 44.2005L109.825 44.4665L108.905 44.5282L108.809 44.3287Z" fill="#3C354C"/>
<path d="M106.73 43.9694C106.831 43.7525 106.885 43.5168 106.888 43.2776C106.892 43.1344 106.917 42.9926 106.961 42.8565C107.039 42.6836 107.157 42.5321 107.306 42.4148C107.8 41.9968 108.508 41.7815 109.206 41.7515C109.967 41.7164 110.724 41.8801 111.403 42.2264C111.611 42.3235 111.796 42.4614 111.949 42.6317C112.171 42.9024 112.219 43.2522 112.442 43.5198C112.594 43.6821 112.786 43.8024 112.998 43.869C113.211 43.9355 113.437 43.9461 113.654 43.8997C113.732 43.6243 113.631 43.333 113.67 43.0512C113.733 42.8097 113.817 42.5745 113.922 42.3483C114.167 41.6248 113.81 40.7858 113.072 40.3536C112.814 40.1953 112.508 40.0924 112.315 39.8787C112.122 39.6649 112.076 39.4433 111.943 39.2296C111.59 38.6644 110.677 38.4 109.982 38.6612C109.763 38.7436 109.57 38.8686 109.348 38.9573C108.937 39.1267 108.468 39.1568 108.015 39.2137C107.569 39.255 107.133 39.3695 106.724 39.5525C106.333 39.7457 106.005 40.056 105.915 40.4264C105.872 40.5974 105.881 40.7747 105.839 40.9441C105.62 41.8037 104.21 42.2216 104.13 43.0987C104.102 43.4153 104.274 43.7193 104.49 43.9773C104.639 44.153 104.995 44.6232 105.247 44.6913C105.498 44.7594 105.69 44.5203 105.93 44.438C106.31 44.3193 106.54 44.2939 106.73 43.9694Z" fill="#CBCEDA"/>
<path d="M124.589 99.7282C124.589 107.682 129.579 114.119 135.745 114.119Z" fill="#46455B"/>
<path d="M135.746 114.12C135.746 106.077 141.315 99.5684 148.197 99.5684Z" fill="#6C63FF"/>
<path d="M128.633 100.45C128.633 108.006 131.815 114.12 135.746 114.12Z" fill="#6C63FF"/>
<path d="M135.746 114.12C135.746 103.843 142.183 95.5251 150.136 95.5251Z" fill="#46455B"/>
<path opacity="0.1" d="M135.263 116.869C136.794 116.869 138.036 116.659 138.036 116.4C138.036 116.141 136.794 115.931 135.263 115.931C133.731 115.931 132.489 116.141 132.489 116.4C132.489 116.659 133.731 116.869 135.263 116.869Z" fill="#6C63FF"/>
<path d="M133.399 114.222C133.399 114.222 134.982 114.173 135.457 113.834C135.932 113.495 137.891 113.088 138.009 113.633C138.128 114.177 140.384 116.341 138.6 116.356C136.816 116.37 134.449 116.077 133.974 115.787C133.499 115.498 133.399 114.222 133.399 114.222Z" fill="#A8A8A8"/>
<path opacity="0.2" d="M138.633 116.166C136.847 116.18 134.484 115.887 134.007 115.597C133.645 115.377 133.501 114.584 133.451 114.22H133.399C133.399 114.22 133.499 115.496 133.976 115.786C134.452 116.075 136.816 116.368 138.601 116.354C139.118 116.354 139.295 116.166 139.285 115.895C139.214 116.06 139.026 116.163 138.633 116.166Z" fill="black"/>
<path d="M3.56009 104.376C3.56009 110.709 7.52895 115.825 12.435 115.825Z" fill="#46455B"/>
<path d="M12.4356 115.825C12.4356 109.426 16.8683 104.248 22.3411 104.248Z" fill="#6C63FF"/>
<path d="M6.77597 104.953C6.77597 110.968 9.30895 115.828 12.4356 115.828Z" fill="#6C63FF"/>
<path d="M12.4356 115.825C12.4356 107.649 17.557 101.031 23.8847 101.031Z" fill="#46455B"/>
<path opacity="0.1" d="M12.0505 118.013C13.2693 118.013 14.2573 117.846 14.2573 117.64C14.2573 117.433 13.2693 117.266 12.0505 117.266C10.8317 117.266 9.84363 117.433 9.84363 117.64C9.84363 117.846 10.8317 118.013 12.0505 118.013Z" fill="#6C63FF"/>
<path d="M10.5691 115.906C10.5691 115.906 11.8277 115.866 12.206 115.589C12.5844 115.312 14.1438 114.996 14.2372 115.431C14.3306 115.866 16.129 117.586 14.7121 117.597C13.2952 117.608 11.4097 117.375 11.0314 117.146C10.653 116.916 10.5691 115.906 10.5691 115.906Z" fill="#A8A8A8"/>
<path opacity="0.2" d="M14.7327 117.459C13.3079 117.47 11.4303 117.237 11.052 117.006C10.7638 116.832 10.6498 116.201 10.6103 115.911H10.5691C10.5691 115.911 10.6483 116.926 11.0266 117.157C11.405 117.388 13.2873 117.619 14.7074 117.608C15.1174 117.608 15.2599 117.459 15.252 117.242C15.195 117.369 15.0382 117.45 14.7327 117.459Z" fill="black"/>
</g>
<g clip-path="url(#clip1_301_2)">
<path d="M330.771 43.9262L315.829 35.9099L332.198 5.40077L331.587 5.07277L328.588 3.46368L324.01 1.00781L303.249 39.7045L304.17 40.1988L311.437 44.0975L326.378 52.1138L330.771 43.9262ZM328.892 44.4929L328.297 45.6028L314.578 38.2425L315.173 37.1326L328.892 44.4929ZM313.922 39.4652L327.641 46.8255L327.063 47.9025L313.344 40.5422L313.922 39.4652ZM327.932 4.68638L330.32 5.96748L327.206 11.7712L326.004 11.1266L325.348 12.3492L326.55 12.9938L325.949 14.1132L323.561 12.8322L322.905 14.0548L322.942 14.0744L322.922 14.1108L325.274 15.3723L324.602 16.6233L323.401 15.9787L322.745 17.2014L323.946 17.8459L323.275 19.0968L320.887 17.8157L320.232 19.0383L322.619 20.3194L322.099 21.2893L320.898 20.6447L320.242 21.8674L321.443 22.512L320.923 23.4818L318.535 22.2007L317.879 23.4234L320.267 24.7045L319.666 25.8239L318.465 25.1793L317.809 26.402L319.01 27.0465L318.41 28.166L316.022 26.8849L315.366 28.1075L317.754 29.3886L317.153 30.5081L315.952 29.8636L315.296 31.0862L316.497 31.7308L315.896 32.8502L313.509 31.5691L312.853 32.7918L315.24 34.0729L314.414 35.6134L305.565 38.3228L324.577 2.88645L327.932 4.68638ZM306.041 39.6281L313.482 37.3498L310.87 42.2189L306.041 39.6281ZM312.093 42.8748L312.688 41.7648L326.407 49.1251L325.811 50.2351L312.093 42.8748Z" fill="#F2F2F2" fill-opacity="0.3"/>
<path d="M325.056 8.88525C326.015 9.39936 327.213 9.03807 327.727 8.07972C328.241 7.12137 327.88 5.92344 326.921 5.40927C325.963 4.8951 324.765 5.25645 324.251 6.2148C323.737 7.17304 324.098 8.37108 325.056 8.88525ZM326.265 6.63191C326.549 6.78437 326.657 7.13958 326.504 7.42375C326.352 7.70781 325.997 7.81506 325.712 7.6626C325.428 7.51014 325.321 7.15483 325.473 6.87077C325.626 6.5866 325.981 6.47945 326.265 6.63191Z" fill="#F2F2F2" fill-opacity="0.3"/>
<path d="M356.047 24.4308L326.414 33.3699L328.695 40.9335L358.328 31.9943L356.047 24.4308ZM328.143 34.2976L330.113 33.7034L330.515 35.038L331.844 34.6371L331.441 33.3026L332.567 32.9629L333.366 35.6105L334.694 35.2097L333.896 32.5621L335.053 32.2129L335.452 33.5335L336.78 33.1329L336.382 31.8123L337.565 31.4554L338.347 34.0497L339.675 33.6489L338.893 31.0548L339.946 30.737L340.34 32.0422L341.669 31.6415L341.275 30.3362L342.328 30.0183L343.111 32.6126L344.439 32.2118L343.657 29.6176L344.873 29.2507L345.267 30.556L346.595 30.1553L346.201 28.85L347.418 28.4831L348.2 31.0773L349.529 30.6766L348.746 28.0824L349.963 27.7154L350.356 29.0208L351.685 28.62L351.291 27.3147L352.507 26.9477L353.29 29.542L354.618 29.1411L353.836 26.547L355.119 26.16L356.599 31.0669L329.623 39.2045L328.143 34.2976Z" fill="#F2F2F2" fill-opacity="0.3"/>
<path d="M336.851 14.2713L332.003 23.308L345.887 19.1191L336.851 14.2713ZM337.418 16.1499L342.279 18.7583L334.809 21.0121L337.418 16.1499Z" fill="#F2F2F2" fill-opacity="0.3"/>
<path d="M337.684 9.79955L335.829 8.80454L335.218 8.47656L323.574 30.1784L356.918 20.1191L337.684 9.79955ZM327.543 25.7164L328.448 26.2022L329.104 24.9795L328.199 24.4937L328.72 23.5219L330.349 24.396L331.005 23.1733L329.376 22.2992L329.898 21.3275L330.803 21.8133L331.459 20.5907L330.554 20.1048L331.075 19.133L332.704 20.0071L333.36 18.7844L331.731 17.9103L332.252 16.9386L333.158 17.4244L333.814 16.2017L332.908 15.7159L333.43 14.7441L335.059 15.6182L335.715 14.3956L334.086 13.5215L334.607 12.5497L335.513 13.0356L336.169 11.8129L335.263 11.327L335.784 10.3553L337.028 11.0223L353.31 19.7583L326.381 27.8826L327.543 25.7164Z" fill="#F2F2F2" fill-opacity="0.3"/>
</g>
<g clip-path="url(#clip2_301_2)">
<path d="M211.332 119.119L195.055 123.869L185.356 90.632L184.69 90.8263L181.423 91.7797L176.436 93.2347L188.737 135.391L189.741 135.098L197.657 132.788L213.934 128.039L211.332 119.119ZM210.388 120.84L210.741 122.049L195.796 126.41L195.443 125.201L210.388 120.84ZM196.185 127.742L211.13 123.381L211.472 124.554L196.527 128.915L196.185 127.742ZM181.812 93.1116L184.413 92.3526L186.258 98.6751L184.949 99.057L185.338 100.389L186.647 100.007L187.003 101.227L184.401 101.986L184.79 103.318L184.83 103.306L184.841 103.346L187.403 102.598L187.8 103.961L186.492 104.343L186.88 105.675L188.189 105.293L188.587 106.656L185.985 107.415L186.374 108.747L188.975 107.988L189.284 109.044L187.975 109.426L188.363 110.758L189.672 110.376L189.981 111.433L187.379 112.192L187.768 113.524L190.369 112.765L190.725 113.984L189.416 114.366L189.805 115.698L191.114 115.316L191.47 116.536L188.868 117.295L189.257 118.627L191.858 117.868L192.214 119.087L190.905 119.469L191.294 120.801L192.603 120.419L192.959 121.639L190.357 122.398L190.746 123.73L193.347 122.971L193.837 124.649L189.422 132.783L178.157 94.178L181.812 93.1116ZM190.676 133.38L194.389 126.541L195.937 131.845L190.676 133.38ZM197.269 131.456L196.916 130.247L211.861 125.886L212.214 127.096L197.269 131.456Z" fill="#F2F2F2" fill-opacity="0.3"/>
<path d="M182.702 98.1221C183.746 97.8175 184.348 96.7203 184.043 95.6762C183.739 94.6322 182.642 94.0307 181.597 94.3353C180.553 94.64 179.952 95.7372 180.257 96.7812C180.561 97.8251 181.658 98.4267 182.702 98.1221ZM181.986 95.6673C182.296 95.577 182.621 95.7553 182.711 96.0649C182.802 96.3744 182.623 96.6998 182.314 96.7901C182.004 96.8805 181.679 96.702 181.589 96.3925C181.498 96.083 181.677 95.7576 181.986 95.6673Z" fill="#F2F2F2" fill-opacity="0.3"/>
<path d="M215.706 87.4993L200.827 114.64L207.754 118.438L222.633 91.2974L215.706 87.4993ZM202.71 114.091L203.699 112.286L204.922 112.957L205.589 111.74L204.366 111.07L204.932 110.038L207.357 111.368L208.024 110.151L205.599 108.822L206.18 107.761L207.39 108.424L208.057 107.208L206.847 106.545L207.441 105.461L209.817 106.764L210.484 105.547L208.108 104.245L208.637 103.28L209.833 103.935L210.5 102.719L209.304 102.063L209.833 101.098L212.209 102.401L212.876 101.184L210.5 99.8814L211.111 98.7673L212.306 99.4228L212.973 98.2062L211.778 97.5508L212.389 96.4367L214.765 97.7394L215.431 96.5228L213.056 95.2202L213.666 94.1059L214.862 94.7614L215.529 93.5447L214.333 92.8893L214.944 91.7752L217.32 93.0778L217.987 91.8611L215.611 90.5585L216.255 89.3834L220.749 91.8474L207.204 116.555L202.71 114.091Z" fill="#F2F2F2" fill-opacity="0.3"/>
<path d="M194.892 93.7007L197.764 103.545L204.735 90.8285L194.892 93.7007ZM196.612 94.6441L201.909 93.0986L198.158 99.941L196.612 94.6441Z" fill="#F2F2F2" fill-opacity="0.3"/>
<path d="M192.352 89.9268L190.332 90.5163L189.666 90.7106L196.565 114.353L213.306 83.8126L192.352 89.9268ZM196.27 108.389L197.256 108.101L196.867 106.769L195.881 107.057L195.572 105.998L197.347 105.48L196.958 104.148L195.183 104.666L194.875 103.607L195.861 103.319L195.472 101.987L194.486 102.275L194.177 101.217L195.952 100.699L195.563 99.3667L193.788 99.8846L193.479 98.8259L194.466 98.5381L194.077 97.2061L193.091 97.4939L192.782 96.4353L194.557 95.9174L194.168 94.5854L192.393 95.1033L192.084 94.0447L193.071 93.7569L192.682 92.4249L191.696 92.7127L191.387 91.6541L192.741 91.2589L210.48 86.083L196.958 110.748L196.27 108.389Z" fill="#F2F2F2" fill-opacity="0.3"/>
</g>
<defs>
<clipPath id="clip0_301_2">
<rect width="150.138" height="120" fill="white" transform="translate(0 3)"/>
</clipPath>
<clipPath id="clip1_301_2">
<rect width="44.9333" height="44" fill="white" transform="translate(324.07 0.99231) rotate(28.2143)"/>
</clipPath>
<clipPath id="clip2_301_2">
<rect width="44.9333" height="44" fill="white" transform="translate(176.469 93.1815) rotate(-16.2668)"/>
</clipPath>
</defs>
</svg>
