<svg width="123" height="105" viewBox="0 0 123 105" fill="none" xmlns="http://www.w3.org/2000/svg">
<g clip-path="url(#clip0_209:117)">
<path opacity="0.1" d="M58.6186 92.7163C89.9821 92.7163 115.407 90.7421 115.407 88.3069C115.407 85.8716 89.9821 83.8974 58.6186 83.8974C27.2552 83.8974 1.83008 85.8716 1.83008 88.3069C1.83008 90.7421 27.2552 92.7163 58.6186 92.7163Z" fill="black"/>
<g opacity="0.1">
<path opacity="0.1" d="M108.916 63.1809C108.576 62.1507 107.2 61.6764 105.842 62.1227C105.647 62.1864 105.458 62.2683 105.277 62.3672C105.19 62.3431 105.101 62.3218 105.01 62.3057C105.084 62.0094 105.113 61.7034 105.094 61.3984C105.562 61.0852 105.942 60.6568 106.197 60.1544C106.452 59.652 106.574 59.0925 106.551 58.5296C107.018 58.2154 107.396 57.7867 107.65 57.2845C107.904 56.7822 108.025 56.2232 108.002 55.6608C108.472 55.3506 108.852 54.9208 109.101 54.4155C109.756 53.1193 109.485 51.6629 108.495 51.1618C107.505 50.6607 106.17 51.3061 105.515 52.6022C105.256 53.1025 105.134 53.6629 105.164 54.2257C104.697 54.5399 104.318 54.9686 104.064 55.4709C103.81 55.9731 103.689 56.5322 103.713 57.0945C103.246 57.4087 102.867 57.8374 102.613 58.3397C102.359 58.842 102.238 59.401 102.261 59.9634C101.793 60.2771 101.414 60.7058 101.159 61.2083C100.904 61.7109 100.782 62.2705 100.805 62.8335C100.334 63.1437 99.9548 63.5735 99.7053 64.0789C99.5822 64.3224 99.4889 64.58 99.4274 64.8458C99.2632 64.6059 99.0631 64.3928 98.8341 64.2138C98.8079 64.0097 98.7631 63.8085 98.7005 63.6125C98.2542 62.2536 97.0569 61.4252 96.0281 61.7646C94.9992 62.104 94.5235 63.4789 94.9698 64.8378C95.1524 65.4205 95.504 65.9358 95.98 66.3183C96.0062 66.5224 96.0509 66.7237 96.1136 66.9196C96.3728 67.708 96.8846 68.3173 97.4698 68.6233C97.418 68.7935 97.3809 68.9678 97.3589 69.1444C96.8071 69.6752 96.4518 70.3776 96.3514 71.1367C95.7991 71.6677 95.4439 72.3707 95.3439 73.1303C95.0705 73.3929 94.8445 73.7007 94.6758 74.0402C94.0197 75.3363 94.291 76.7941 95.2811 77.2939C96.2712 77.7936 97.6061 77.1509 98.2622 75.8535C98.4351 75.5151 98.5481 75.1494 98.5962 74.7725C99.1481 74.2417 99.5033 73.5393 99.6037 72.7802C100.156 72.2492 100.511 71.5462 100.611 70.7866C101.159 70.2546 101.51 69.5521 101.607 68.7943C102.161 68.2634 102.517 67.5591 102.617 66.798C102.787 66.6369 102.939 66.4576 103.07 66.2635C103.616 66.3756 104.182 66.3401 104.709 66.1607C104.905 66.0969 105.094 66.015 105.275 65.9161C105.866 66.072 106.489 66.0497 107.068 65.852C108.421 65.4097 109.254 64.2125 108.916 63.1809Z" fill="#3F3D56"/>
<g opacity="0.1">
<path opacity="0.1" d="M106.52 59.1189C106.38 59.2568 106.226 59.3799 106.06 59.4863C106.081 59.8678 106.031 60.2498 105.912 60.6128C106.017 60.4674 106.111 60.3142 106.193 60.1544C106.358 59.8298 106.469 59.4798 106.52 59.1189Z" fill="black"/>
<path opacity="0.1" d="M107.971 56.25C107.831 56.3879 107.677 56.5111 107.512 56.6175C107.533 56.9989 107.482 57.3809 107.363 57.7439C107.469 57.5983 107.563 57.4446 107.644 57.2843C107.809 56.9598 107.92 56.6104 107.971 56.25Z" fill="black"/>
<path opacity="0.1" d="M104.68 55.1824C104.668 54.9857 104.676 54.7883 104.703 54.5932C104.444 54.8489 104.228 55.1455 104.064 55.4711C103.984 55.6316 103.916 55.7982 103.861 55.9695C104.082 55.658 104.36 55.391 104.68 55.1824Z" fill="black"/>
<path opacity="0.1" d="M95.4697 72.5437C95.5865 72.3809 95.7185 72.2297 95.8639 72.092C95.8866 71.9108 95.9255 71.7319 95.9802 71.5576C95.864 71.7136 95.7616 71.8795 95.6742 72.0533C95.5934 72.2112 95.5251 72.3751 95.4697 72.5437Z" fill="black"/>
<path opacity="0.1" d="M96.4771 70.5528C96.5938 70.39 96.7258 70.2388 96.8712 70.1011C96.893 69.9245 96.9301 69.7502 96.9821 69.58C96.8712 69.7316 96.7729 69.892 96.6882 70.0597C96.6056 70.2185 96.535 70.3834 96.4771 70.5528Z" fill="black"/>
<path opacity="0.1" d="M105.068 61.9877C104.928 62.1256 104.775 62.2483 104.61 62.3538C104.628 62.6588 104.599 62.9647 104.525 63.2611C104.616 63.2767 104.705 63.2972 104.793 63.3226C104.973 63.2237 105.162 63.1418 105.358 63.078C106.718 62.6318 108.093 63.1061 108.431 64.1363C108.515 64.3953 108.53 64.6716 108.474 64.938C108.922 64.4116 109.107 63.7702 108.915 63.1823C108.575 62.1521 107.199 61.6777 105.842 62.124C105.646 62.1878 105.457 62.2696 105.276 62.3685C105.189 62.3445 105.1 62.3231 105.009 62.3071C105.034 62.2002 105.053 62.0946 105.068 61.9877Z" fill="black"/>
<path opacity="0.1" d="M94.9727 73.5445C94.8565 73.7005 94.7541 73.8664 94.6667 74.0402C94.5855 74.2013 94.5167 74.3684 94.4609 74.54C94.5802 74.3765 94.7144 74.2244 94.8618 74.0857C94.8824 73.9023 94.9195 73.7212 94.9727 73.5445Z" fill="black"/>
<path opacity="0.1" d="M103.222 58.0513C103.21 57.8546 103.218 57.6572 103.245 57.462C102.986 57.7177 102.77 58.0143 102.606 58.3399C102.526 58.5004 102.458 58.6671 102.403 58.8383C102.624 58.5268 102.902 58.2598 103.222 58.0513Z" fill="black"/>
<path opacity="0.1" d="M101.126 69.751C101.099 69.9498 101.055 70.1457 100.992 70.3362C101.097 70.1903 101.19 70.0366 101.271 69.8766C101.359 69.7049 101.432 69.5262 101.489 69.3422C101.38 69.4885 101.258 69.6252 101.126 69.751Z" fill="black"/>
<path opacity="0.1" d="M99.1112 73.7356C99.0849 73.9344 99.0402 74.1303 98.9775 74.3209C99.083 74.1752 99.1768 74.0215 99.2581 73.8612C99.3452 73.6892 99.418 73.5105 99.4759 73.3267C99.3665 73.4733 99.2444 73.6101 99.1112 73.7356Z" fill="black"/>
<path opacity="0.1" d="M100.118 71.7419C100.092 71.9408 100.048 72.1367 99.9849 72.3272C100.091 72.184 100.187 72.0331 100.271 71.8756C100.358 71.7039 100.431 71.5251 100.489 71.3411C100.377 71.4849 100.253 71.619 100.118 71.7419Z" fill="black"/>
<path opacity="0.1" d="M102.134 67.7588C102.107 67.9571 102.063 68.1526 102 68.3427C102.105 68.1974 102.198 68.0441 102.279 67.8844C102.368 67.7097 102.441 67.5278 102.498 67.3405C102.39 67.4905 102.267 67.6305 102.134 67.7588Z" fill="black"/>
<path opacity="0.1" d="M95.5365 62.7199C96.5681 62.3819 97.7653 63.209 98.2089 64.5679C98.2715 64.7644 98.3162 64.9661 98.3425 65.1705C98.5716 65.3495 98.7717 65.5627 98.9358 65.8026C98.9973 65.5363 99.0907 65.2783 99.2137 65.0343C99.2605 64.9434 99.3113 64.8565 99.3634 64.767C99.2118 64.5571 99.0319 64.3692 98.8289 64.2085C98.8027 64.0044 98.758 63.8031 98.6953 63.6072C98.249 62.2483 97.0518 61.4198 96.0229 61.7592C95.435 61.9516 95.0288 62.4821 94.8711 63.1529C95.0519 62.9537 95.2811 62.8045 95.5365 62.7199Z" fill="black"/>
<path opacity="0.1" d="M100.32 63.7889C100.308 63.5926 100.316 63.3957 100.344 63.201C100.084 63.4563 99.8675 63.7529 99.7041 64.0789C99.6232 64.2389 99.5553 64.4051 99.501 64.5759C99.7227 64.265 100.001 63.9981 100.32 63.7889Z" fill="black"/>
<path opacity="0.1" d="M101.771 60.9187C101.759 60.7224 101.767 60.5255 101.795 60.3308C101.535 60.5854 101.318 60.8816 101.155 61.2074C101.075 61.3679 101.007 61.5346 100.952 61.7058C101.173 61.3943 101.451 61.1273 101.771 60.9187Z" fill="black"/>
<path opacity="0.1" d="M98.1034 75.7279C98.0771 75.9271 98.0324 76.1235 97.9697 76.3145C98.1894 76.0103 98.3577 75.6722 98.4681 75.3137C98.3589 75.4621 98.2368 75.6008 98.1034 75.7279Z" fill="black"/>
</g>
<path opacity="0.1" d="M110.896 49.9231C111.367 49.6134 111.747 49.1834 111.996 48.6778C112.652 47.3817 112.38 45.9239 111.39 45.4228C110.4 44.9217 109.065 45.5671 108.409 46.8646C108.149 47.3661 108.029 47.928 108.059 48.4921C107.592 48.8062 107.214 49.235 106.96 49.7372C106.705 50.2395 106.584 50.7985 106.608 51.3609C106.137 51.6703 105.757 52.1003 105.508 52.6062C105.428 52.7649 105.36 52.9298 105.307 53.0993C105.655 52.5941 106.161 52.2184 106.746 52.0303C106.812 52.2361 106.919 52.4267 107.06 52.591C107.2 52.7553 107.372 52.8901 107.565 52.9875C107.758 53.085 107.969 53.1431 108.185 53.1586C108.4 53.1741 108.617 53.1467 108.822 53.0779C109.019 53.6589 109.019 54.2888 108.822 54.8697C108.927 54.7258 109.019 54.5739 109.1 54.4154C109.359 53.9151 109.48 53.3546 109.45 52.792C109.918 52.4783 110.297 52.0497 110.551 51.5473C110.805 51.0449 110.926 50.4856 110.901 49.9231H110.896Z" fill="#3F3D56"/>
<path opacity="0.1" d="M126.845 31.5317C127.248 31.3437 127.637 31.1281 128.01 30.8863L123.69 27.7302L128.768 30.3451C129.795 29.5291 130.645 28.512 131.265 27.3561C131.885 26.2002 132.263 24.9298 132.375 23.6227L123.746 23.7109L132.394 22.2651C132.305 20.9568 131.949 19.6805 131.348 18.5147C130.747 17.349 129.915 16.3183 128.901 15.486C127.888 14.6538 126.715 14.0375 125.455 13.6751C124.194 13.3127 122.873 13.2118 121.572 13.3785C120.272 13.5453 119.019 13.9762 117.891 14.6449C116.762 15.3135 115.783 16.2058 115.012 17.2668C114.241 18.3278 113.696 19.5351 113.409 20.8147C113.121 22.0943 113.099 23.4191 113.343 24.7077C112.715 24.9994 112.121 25.3578 111.571 25.7767L116.08 32.0474L110.666 26.5583C109.523 27.6804 108.679 29.0696 108.208 30.6003C107.737 32.1311 107.656 33.755 107.971 35.3251C106.335 36.0886 104.948 37.2967 103.966 38.8115C102.985 40.3263 102.449 42.0867 102.421 43.8914C102.392 45.6962 102.872 47.4726 103.805 49.0175C104.739 50.5625 106.088 51.8137 107.699 52.6282C109.309 53.4428 111.117 53.7877 112.914 53.6237C114.712 53.4597 116.427 52.7934 117.864 51.7008C119.3 50.6082 120.401 49.1335 121.039 47.4452C121.677 45.7568 121.828 43.9229 121.473 42.1531C123.431 41.2421 125.024 39.6993 125.999 37.7728C126.973 35.8463 127.271 33.648 126.845 31.5317Z" fill="#6C63FF"/>
<path opacity="0.1" d="M108.822 29.0837C107.845 31.0093 107.546 33.2085 107.974 35.3251C106.338 36.0885 104.95 37.2967 103.969 38.8115C102.988 40.3263 102.452 42.0867 102.424 43.8914C102.395 45.6962 102.875 47.4725 103.808 49.0175C104.742 50.5624 106.091 51.8137 107.701 52.6282C109.312 53.4428 111.12 53.7877 112.917 53.6237C114.715 53.4597 116.43 52.7934 117.867 51.7008C119.303 50.6082 120.404 49.1335 121.042 47.4451C121.68 45.7568 121.831 43.9229 121.476 42.1531C123.364 41.2766 109.306 28.1203 108.822 29.0837Z" fill="black"/>
<path opacity="0.1" d="M119.664 15.1539C120.453 15.1539 121.093 14.5143 121.093 13.7255C121.093 12.9366 120.453 12.2971 119.664 12.2971C118.875 12.2971 118.236 12.9366 118.236 13.7255C118.236 14.5143 118.875 15.1539 119.664 15.1539Z" fill="#6C63FF"/>
<path opacity="0.1" d="M120.949 48.6284C121.738 48.6284 122.378 47.9888 122.378 47.2C122.378 46.4111 121.738 45.7716 120.949 45.7716C120.161 45.7716 119.521 46.4111 119.521 47.2C119.521 47.9888 120.161 48.6284 120.949 48.6284Z" fill="#6C63FF"/>
<path opacity="0.1" d="M120.949 48.6284C121.738 48.6284 122.378 47.9888 122.378 47.2C122.378 46.4111 121.738 45.7716 120.949 45.7716C120.161 45.7716 119.521 46.4111 119.521 47.2C119.521 47.9888 120.161 48.6284 120.949 48.6284Z" fill="black"/>
<path opacity="0.1" d="M107.758 33.5507C108.547 33.5507 109.187 32.9112 109.187 32.1223C109.187 31.3334 108.547 30.6939 107.758 30.6939C106.97 30.6939 106.33 31.3334 106.33 32.1223C106.33 32.9112 106.97 33.5507 107.758 33.5507Z" fill="#6C63FF"/>
<path opacity="0.1" d="M107.758 33.5507C108.547 33.5507 109.187 32.9112 109.187 32.1223C109.187 31.3334 108.547 30.6939 107.758 30.6939C106.97 30.6939 106.33 31.3334 106.33 32.1223C106.33 32.9112 106.97 33.5507 107.758 33.5507Z" fill="black"/>
<path opacity="0.1" d="M106.235 55.6167C105.285 55.137 104.998 53.7781 105.552 52.5247C105.523 52.5755 105.495 52.6276 105.468 52.6824C104.812 53.9785 105.083 55.435 106.074 55.9361C107.064 56.4371 108.399 55.7918 109.053 54.4956C109.081 54.4422 109.105 54.3874 109.13 54.334C108.449 55.5245 107.184 56.0978 106.235 55.6167Z" fill="black"/>
<path opacity="0.1" d="M104.824 58.4067C103.875 57.927 103.587 56.5681 104.143 55.3134C104.113 55.3655 104.084 55.4176 104.057 55.4711C103.401 56.7672 103.672 58.2249 104.662 58.7247C105.653 59.2244 106.987 58.5817 107.644 57.2843C107.67 57.2308 107.696 57.1774 107.72 57.1226C107.038 58.3131 105.774 58.8864 104.824 58.4067Z" fill="black"/>
<path opacity="0.1" d="M103.413 61.1953C102.464 60.7156 102.176 59.3567 102.732 58.1034C102.702 58.1541 102.673 58.2062 102.646 58.261C101.99 59.5571 102.263 61.0136 103.253 61.5147C104.243 62.0158 105.576 61.3704 106.233 60.0743C106.259 60.0208 106.285 59.966 106.309 59.9126C105.629 61.1031 104.363 61.6764 103.413 61.1953Z" fill="black"/>
<path opacity="0.1" d="M102.008 63.992C101.058 63.5123 100.77 62.1534 101.325 60.9C101.295 60.9508 101.267 61.0029 101.239 61.0564C100.585 62.3525 100.856 63.8103 101.846 64.3113C102.836 64.8124 104.171 64.167 104.826 62.8696C104.854 62.8161 104.878 62.7627 104.902 62.7079C104.218 63.8918 102.952 64.465 102.008 63.992Z" fill="black"/>
<path opacity="0.1" d="M100.593 66.774C99.6427 66.2943 99.3554 64.9354 99.9099 63.682C99.8805 63.7328 99.8524 63.7849 99.8257 63.8397C99.1697 65.1358 99.4409 66.5923 100.431 67.0933C101.421 67.5944 102.756 66.949 103.412 65.6529C103.439 65.5995 103.464 65.5447 103.488 65.4912C102.809 66.6818 101.541 67.255 100.593 66.774Z" fill="black"/>
<path opacity="0.1" d="M99.1815 69.5639C98.2328 69.0843 97.9442 67.7254 98.5 66.472C98.4706 66.5228 98.4412 66.5749 98.4145 66.6283C97.7585 67.9244 98.0297 69.3822 99.0212 69.8833C100.013 70.3844 101.339 69.7377 102.008 68.4416C102.034 68.3881 102.06 68.3347 102.084 68.2799C101.396 69.4704 100.137 70.0436 99.1815 69.5639Z" fill="black"/>
<path opacity="0.1" d="M97.7704 72.3526C96.8217 71.8729 96.5331 70.514 97.089 69.2606C97.0596 69.3127 97.0315 69.3635 97.0034 69.4183C96.3487 70.7144 96.62 72.1709 97.6101 72.672C98.6002 73.1731 99.9351 72.5277 100.59 71.2315C100.618 71.1781 100.642 71.1233 100.666 71.0698C99.9858 72.2604 98.7204 72.8337 97.7704 72.3526Z" fill="black"/>
<path opacity="0.1" d="M96.3608 75.1426C95.4107 74.6629 95.1234 73.304 95.678 72.0506C95.6486 72.1014 95.6205 72.1535 95.5938 72.207C94.9377 73.5031 95.209 74.9609 96.1991 75.462C97.1892 75.963 98.5241 75.3176 99.1801 74.0202C99.2069 73.9668 99.2309 73.9133 99.255 73.8585C98.5748 75.0491 97.3095 75.617 96.3608 75.1426Z" fill="black"/>
<path opacity="0.1" d="M95.4335 76.9758C94.4848 76.4948 94.1962 75.1373 94.7521 73.8826C94.7227 73.9347 94.6933 73.9868 94.6665 74.0403C94.0105 75.3364 94.2817 76.7941 95.2718 77.2939C96.262 77.7936 97.5968 77.1509 98.2529 75.8535C98.2796 75.8 98.305 75.7466 98.329 75.6918C97.6476 76.8823 96.3822 77.4555 95.4335 76.9758Z" fill="black"/>
<path opacity="0.1" d="M120.927 64.5612C121.074 64.1391 121.164 63.6991 121.194 63.2531C121.292 63.2529 121.389 63.2324 121.479 63.193C121.569 63.1536 121.65 63.096 121.716 63.024C121.783 62.9519 121.834 62.8669 121.866 62.7742C121.898 62.6815 121.911 62.5831 121.904 62.4853C121.896 62.3874 121.869 62.2922 121.823 62.2054C121.777 62.1187 121.714 62.0424 121.637 61.9813C121.56 61.9202 121.471 61.8756 121.377 61.8502C121.282 61.8249 121.183 61.8194 121.086 61.834C120.927 61.1108 120.609 60.4321 120.155 59.8471C119.701 59.2621 119.123 58.7856 118.461 58.4521C118.547 58.2831 118.562 58.087 118.502 57.9071C118.443 57.7272 118.315 57.5781 118.146 57.4927C117.977 57.4073 117.781 57.3926 117.601 57.4517C117.421 57.5108 117.272 57.639 117.187 57.8081C117.156 57.8681 117.134 57.9326 117.123 57.9991C116.339 57.8531 115.531 57.8963 114.767 58.1252C114.003 58.3541 113.305 58.7621 112.73 59.3153C112.297 59.2451 111.855 59.2321 111.418 59.2765L110.84 61.9102L110.805 59.3714C110.141 59.517 109.513 59.7964 108.961 60.1927C108.409 60.589 107.943 61.0937 107.592 61.6761C107.241 62.2585 107.013 62.9063 106.921 63.5799C106.829 64.2535 106.876 64.9387 107.058 65.5938C107.24 66.2488 107.553 66.8598 107.98 67.3896C108.406 67.9193 108.935 68.3565 109.536 68.6746C110.137 68.9927 110.796 69.1849 111.474 69.2395C112.152 69.294 112.833 69.2099 113.477 68.9921C113.546 69.1164 113.651 69.217 113.778 69.2807C113.909 69.3472 114.057 69.3717 114.202 69.3509C114.348 69.3301 114.483 69.265 114.59 69.1645C114.697 69.0639 114.77 68.9329 114.8 68.7892C114.83 68.6455 114.814 68.4961 114.756 68.3614C114.984 68.2049 115.199 68.0297 115.397 67.8376C116.441 68.0072 117.511 67.8422 118.454 67.3662C119.398 66.8902 120.167 66.1276 120.65 65.1879L117.958 64.7349L120.927 64.5612Z" fill="#6C63FF"/>
<g opacity="0.1">
<path opacity="0.1" d="M116.767 65.8399C115.773 64.5278 115.164 62.9738 114.463 61.4826C114.181 60.8705 113.865 60.2746 113.518 59.6974L112.991 59.0841C112.903 59.1589 112.815 59.2364 112.724 59.3179C112.29 59.2478 111.849 59.2347 111.412 59.2792L110.833 61.9128L110.799 59.3741C110.135 59.5196 109.507 59.7991 108.955 60.1953C108.402 60.5916 107.937 61.0964 107.586 61.6787C107.235 62.2611 107.007 62.9089 106.915 63.5825C106.823 64.2561 106.87 64.9414 107.052 65.5964C107.234 66.2514 107.547 66.8625 107.973 67.3922C108.399 67.9219 108.929 68.3592 109.53 68.6772C110.131 68.9953 110.79 69.1875 111.468 69.2421C112.145 69.2967 112.827 69.2125 113.471 68.9947C113.54 69.119 113.645 69.2196 113.772 69.2833C113.903 69.3498 114.051 69.3743 114.196 69.3535C114.341 69.3327 114.477 69.2676 114.584 69.1671C114.69 69.0666 114.764 68.9355 114.794 68.7918C114.823 68.6481 114.808 68.4987 114.75 68.364C114.978 68.2075 115.192 68.0323 115.391 67.8402C116.412 68.0055 117.46 67.8506 118.39 67.3966C117.769 66.9679 117.221 66.4423 116.767 65.8399Z" fill="black"/>
</g>
<path opacity="0.1" d="M99.1628 60.2012C99.2179 60.0923 99.2441 59.971 99.2389 59.8491C99.2338 59.7271 99.1974 59.6085 99.1333 59.5046C99.0693 59.4007 98.9796 59.315 98.8729 59.2557C98.7662 59.1963 98.6461 59.1653 98.5241 59.1657C98.3215 58.0918 97.7723 57.1141 96.9607 56.3823C97.0915 55.8722 97.1411 55.3446 97.1077 54.819L94.4821 54.3714L97.0315 54.211C96.9857 53.9716 96.9228 53.7358 96.8431 53.5055C96.9424 53.4372 97.0232 53.3454 97.0783 53.2383C97.1426 53.1105 97.1671 52.9665 97.1487 52.8247C97.1303 52.6828 97.0697 52.5498 96.9749 52.4428C96.8801 52.3357 96.7554 52.2596 96.6168 52.2242C96.4783 52.1888 96.3323 52.1957 96.1977 52.2441C95.5225 51.29 94.5344 50.6026 93.405 50.3013C92.2757 50.0001 91.0764 50.104 90.0157 50.595C88.955 51.0861 88.0999 51.9332 87.5989 52.9893C87.0979 54.0453 86.9826 55.2435 87.2733 56.3757C87.1186 56.4409 86.9925 56.5594 86.9178 56.7097C86.8523 56.8391 86.8277 56.9854 86.8474 57.1291C86.8671 57.2728 86.9302 57.4071 87.0282 57.5141C87.1261 57.6211 87.2544 57.6956 87.3958 57.7279C87.5372 57.7601 87.6851 57.7485 87.8198 57.6945C88.0761 58.1249 88.3954 58.5145 88.7671 58.8503C88.4965 59.9056 88.5781 61.0205 88.9996 62.0251L92.5205 61.1112L89.3805 62.7627C89.9357 63.645 90.7527 64.3316 91.7174 64.7267C92.682 65.1217 93.746 65.2054 94.7605 64.966C95.7751 64.7266 96.6894 64.1761 97.3757 63.3915C98.062 62.6069 98.4859 61.6274 98.5882 60.59C98.7092 60.5796 98.8255 60.5384 98.926 60.4703C99.0266 60.4023 99.1081 60.3096 99.1628 60.2012Z" fill="#6C63FF"/>
<path opacity="0.1" d="M99.1626 60.2012C99.2177 60.0923 99.2439 59.971 99.2388 59.8491C99.2336 59.7271 99.1973 59.6085 99.1332 59.5046C99.0691 59.4007 98.9795 59.315 98.8728 59.2556C98.7661 59.1963 98.646 59.1653 98.5239 59.1656C98.3214 58.0918 97.7722 57.114 96.9606 56.3823C96.9819 56.2982 97.0007 56.2153 97.0167 56.1311C96.9235 56.1987 96.8371 56.2752 96.7588 56.3596C96.2844 56.8794 96.0413 57.5782 95.5723 58.1034C95.0191 58.7234 94.1906 59.0467 93.3635 59.1336C92.5364 59.2204 91.704 59.0935 90.8876 58.9345C90.2114 58.8009 89.526 58.6459 88.8405 58.7113C88.7737 58.7113 88.7069 58.726 88.6454 58.7367C88.6855 58.7755 88.7256 58.8142 88.767 58.8516C88.4964 59.907 88.578 61.0218 88.9995 62.0264L92.5204 61.1112L89.3803 62.7627C89.9355 63.6449 90.7526 64.3316 91.7172 64.7266C92.6819 65.1217 93.7459 65.2054 94.7604 64.966C95.7749 64.7266 96.6893 64.1761 97.3756 63.3915C98.0619 62.6069 98.4858 61.6274 98.5881 60.59C98.709 60.5796 98.8253 60.5384 98.9259 60.4703C99.0265 60.4023 99.1079 60.3096 99.1626 60.2012Z" fill="black"/>
</g>
<g opacity="0.1">
<path opacity="0.1" d="M7.95766 68.312C8.1287 67.7922 8.82219 67.553 9.50632 67.7775C9.60472 67.8097 9.69998 67.8509 9.79093 67.9004C9.83503 67.8884 9.88046 67.8777 9.92455 67.8697C9.88701 67.7204 9.87259 67.5663 9.88179 67.4127C9.64695 67.2539 9.45655 67.0377 9.32864 66.7847C9.20073 66.5317 9.13955 66.2502 9.15089 65.9669C8.91399 65.811 8.72302 65.5947 8.5977 65.3403C8.46712 65.0882 8.4058 64.806 8.41999 64.5225C8.18325 64.3658 7.99235 64.1491 7.8668 63.8945C7.5381 63.2424 7.67172 62.5088 8.17279 62.255C8.67387 62.0011 9.34464 62.3285 9.67468 62.9805C9.80503 63.2331 9.8659 63.5158 9.85106 63.7996C10.0865 63.9575 10.2774 64.1733 10.4054 64.4262C10.5334 64.6792 10.5942 64.9608 10.582 65.244C10.8174 65.4023 11.0082 65.6184 11.1362 65.8715C11.2641 66.1247 11.325 66.4064 11.3129 66.6898C11.5483 66.8477 11.7393 67.0635 11.8673 67.3164C11.9953 67.5694 12.056 67.851 12.0438 68.1342C12.281 68.2907 12.4724 68.5075 12.5983 68.7623C12.6584 68.8855 12.7032 69.0156 12.7319 69.1497C12.8142 69.0286 12.9147 68.9209 13.0299 68.8304C13.0436 68.7274 13.0669 68.6258 13.0994 68.5271C13.3252 67.8429 13.9278 67.4261 14.4476 67.5917C14.9674 67.7574 15.2052 68.4563 14.9821 69.1404C14.8898 69.4342 14.7127 69.6941 14.473 69.8873C14.4591 69.9899 14.4358 70.091 14.4035 70.1893C14.2938 70.552 14.0495 70.8589 13.7207 71.0471C13.7465 71.1346 13.7652 71.224 13.7768 71.3144C13.9148 71.4468 14.0291 71.6018 14.1149 71.7727C14.2023 71.9432 14.2593 72.1277 14.2832 72.3179C14.4217 72.4501 14.5365 72.6052 14.6226 72.7762C14.7099 72.9468 14.7668 73.1313 14.791 73.3214C14.9298 73.4539 15.0446 73.6094 15.1304 73.781C15.4604 74.4331 15.3241 75.168 14.8257 75.4192C14.3273 75.6704 13.6539 75.347 13.3238 74.6936C13.2368 74.5229 13.1799 74.3385 13.1555 74.1485C12.8771 73.8814 12.698 73.5275 12.6477 73.145C12.3693 72.8779 12.1902 72.524 12.14 72.1415C12.0016 72.0091 11.8868 71.8541 11.8006 71.6832C11.7142 71.5122 11.6572 71.3279 11.6322 71.138C11.4943 71.0056 11.3799 70.8506 11.2942 70.6797C11.2067 70.5092 11.1498 70.3247 11.1258 70.1345C11.0398 70.0544 10.9631 69.9647 10.8973 69.8673C10.6224 69.9235 10.3375 69.906 10.0715 69.8165C9.97276 69.7836 9.87708 69.742 9.78559 69.6922C9.48841 69.7712 9.17448 69.76 8.88365 69.6602C8.2062 69.4344 7.78797 68.8317 7.95766 68.312Z" fill="#3F3D56"/>
<g opacity="0.1">
<path opacity="0.1" d="M9.16406 66.2636C9.2349 66.3334 9.31283 66.3956 9.39656 66.4493C9.38525 66.6412 9.41064 66.8335 9.47139 67.0158C9.4177 66.9429 9.37032 66.8656 9.32975 66.7847C9.24618 66.6213 9.19019 66.4452 9.16406 66.2636Z" fill="black"/>
<path opacity="0.1" d="M8.43311 64.8205C8.50431 64.8895 8.58219 64.9513 8.6656 65.0049C8.65438 65.1972 8.67977 65.3899 8.74043 65.5728C8.57857 65.3506 8.47311 65.0924 8.43311 64.8205Z" fill="black"/>
<path opacity="0.1" d="M10.0942 64.282C10.1005 64.183 10.097 64.0836 10.0835 63.9854C10.2141 64.1143 10.3229 64.2637 10.4055 64.4276C10.4459 64.5086 10.4798 64.5926 10.5071 64.6788C10.3957 64.5217 10.2556 64.387 10.0942 64.282Z" fill="black"/>
<path opacity="0.1" d="M14.7307 73.0287C14.6722 72.9468 14.606 72.8707 14.5329 72.8016C14.5207 72.711 14.5011 72.6216 14.4741 72.5343C14.5321 72.6128 14.5835 72.6959 14.6278 72.7829C14.6683 72.8621 14.7027 72.9443 14.7307 73.0287Z" fill="black"/>
<path opacity="0.1" d="M14.2187 72.0252C14.1603 71.9433 14.0941 71.8672 14.021 71.7981C14.0101 71.7075 13.9913 71.6181 13.9648 71.5309C14.0749 71.6799 14.1598 71.846 14.2161 72.0226L14.2187 72.0252Z" fill="black"/>
<path opacity="0.1" d="M9.89633 67.712C9.96648 67.7813 10.044 67.8427 10.1275 67.8951C10.1175 68.0487 10.1319 68.2029 10.1703 68.352C10.1252 68.36 10.0806 68.3702 10.0366 68.3828C9.94511 68.3335 9.84942 68.2923 9.75069 68.2598C9.06655 68.0354 8.37306 68.2745 8.20337 68.7943C8.16084 68.9236 8.153 69.0619 8.18065 69.1952C8.07072 69.0795 7.99253 68.9375 7.95367 68.7827C7.91481 68.628 7.91659 68.4658 7.95884 68.312C8.12987 67.7922 8.82336 67.553 9.5075 67.7775C9.6059 67.8097 9.70116 67.8509 9.79211 67.9004C9.8362 67.8884 9.88163 67.8777 9.92573 67.8697C9.91288 67.8177 9.90306 67.7651 9.89633 67.712Z" fill="black"/>
<path opacity="0.1" d="M14.9819 73.5325C15.0402 73.6112 15.0916 73.6948 15.1356 73.7824C15.1764 73.8633 15.2108 73.9473 15.2385 74.0336C15.1801 73.9512 15.1138 73.8747 15.0407 73.8051C15.0288 73.7127 15.0092 73.6215 14.9819 73.5325Z" fill="black"/>
<path opacity="0.1" d="M10.8251 65.7291C10.8315 65.6301 10.8279 65.5307 10.8145 65.4324C10.9454 65.5612 11.0542 65.7106 11.1365 65.8747C11.1768 65.9552 11.2108 66.0388 11.238 66.1246C11.1266 65.9678 10.9865 65.8336 10.8251 65.7291Z" fill="black"/>
<path opacity="0.1" d="M11.882 71.6217C11.8945 71.7216 11.9165 71.82 11.9475 71.9157C11.8361 71.763 11.7512 71.5927 11.6963 71.4119C11.7518 71.4873 11.814 71.5575 11.882 71.6217Z" fill="black"/>
<path opacity="0.1" d="M12.8963 73.6287C12.9098 73.7285 12.9321 73.8269 12.9631 73.9227C12.9094 73.8498 12.862 73.7724 12.8215 73.6915C12.7775 73.6056 12.7409 73.5162 12.7119 73.4243C12.7679 73.4972 12.8295 73.5655 12.8963 73.6287Z" fill="black"/>
<path opacity="0.1" d="M12.3898 72.6252C12.4023 72.725 12.4243 72.8235 12.4553 72.9192C12.4021 72.846 12.3547 72.7687 12.3137 72.688C12.2696 72.6022 12.2329 72.5128 12.2041 72.4208C12.2599 72.4943 12.322 72.5627 12.3898 72.6252Z" fill="black"/>
<path opacity="0.1" d="M11.3744 70.6169C11.3867 70.7172 11.4086 70.8161 11.4398 70.9122C11.3892 70.8388 11.3445 70.7615 11.3062 70.681C11.2614 70.5954 11.2243 70.506 11.1953 70.4138C11.2487 70.4868 11.3086 70.5548 11.3744 70.6169Z" fill="black"/>
<path opacity="0.1" d="M14.6974 68.0795C14.1776 67.9084 13.575 68.3253 13.3505 69.0148C13.318 69.1135 13.2948 69.2151 13.281 69.3181C13.1655 69.408 13.0645 69.5153 12.9817 69.6361C12.9507 69.5018 12.9036 69.3717 12.8414 69.2486C12.8187 69.2032 12.7933 69.1591 12.7666 69.115C12.8424 69.0097 12.9324 68.9153 13.0338 68.8344C13.0476 68.7314 13.0708 68.6298 13.1033 68.5311C13.3291 67.8469 13.9318 67.43 14.4516 67.5957C14.6006 67.653 14.7323 67.7477 14.8339 67.8709C14.9355 67.994 15.0036 68.1414 15.0315 68.2986C14.9407 68.1982 14.8257 68.1228 14.6974 68.0795Z" fill="black"/>
<path opacity="0.1" d="M12.2866 68.618C12.2929 68.519 12.2893 68.4196 12.2759 68.3213C12.4068 68.45 12.5156 68.5995 12.5979 68.7636C12.6382 68.8446 12.6722 68.9286 12.6995 69.0148C12.5885 68.8574 12.4483 68.7226 12.2866 68.618Z" fill="black"/>
<path opacity="0.1" d="M11.5561 67.1722C11.5624 67.0732 11.5589 66.9738 11.5454 66.8755C11.6757 67.0048 11.7845 67.1541 11.8674 67.3178C11.9078 67.3988 11.9417 67.4828 11.969 67.569C11.8576 67.4119 11.7175 67.2772 11.5561 67.1722Z" fill="black"/>
<path opacity="0.1" d="M13.4036 74.6322C13.4165 74.7325 13.4388 74.8314 13.4704 74.9275C13.417 74.8539 13.3697 74.7762 13.3288 74.695C13.2849 74.6091 13.2482 74.5197 13.2192 74.4277C13.2752 74.5007 13.3369 74.569 13.4036 74.6322Z" fill="black"/>
</g>
<path opacity="0.1" d="M6.95936 61.6323C6.72246 61.4764 6.53149 61.26 6.40618 61.0056C6.07614 60.3522 6.21243 59.6186 6.71083 59.3661C7.20923 59.1136 7.88268 59.4382 8.21272 60.0917C8.34327 60.3437 8.40415 60.626 8.3891 60.9094C8.6245 61.0677 8.81532 61.2837 8.9433 61.5369C9.07127 61.79 9.13212 62.0718 9.12 62.3552C9.35705 62.5113 9.54841 62.7276 9.67452 62.9819C9.71463 63.062 9.74857 63.1451 9.77608 63.2304C9.59907 62.9778 9.34425 62.7901 9.05052 62.6959C9.0178 62.8003 8.96461 62.8971 8.89404 62.9807C8.82348 63.0643 8.73696 63.1329 8.63955 63.1827C8.54214 63.2325 8.43579 63.2623 8.32671 63.2705C8.21764 63.2787 8.10802 63.265 8.00427 63.2304C7.9052 63.5229 7.9052 63.8398 8.00427 64.1323C7.95407 64.0596 7.9094 63.9832 7.87065 63.9038C7.74007 63.6518 7.67875 63.3696 7.69294 63.0861C7.45782 62.9275 7.26721 62.7114 7.13926 62.4583C7.01132 62.2053 6.95031 61.9236 6.96204 61.6403L6.95936 61.6323Z" fill="#3F3D56"/>
<path opacity="0.1" d="M-1.07368 52.3671C-1.27637 52.2723 -1.47235 52.1638 -1.66027 52.0424L0.515063 50.4523L-2.04243 51.7684C-2.55952 51.3573 -2.98727 50.8449 -3.29951 50.2627C-3.61174 49.6805 -3.80189 49.0407 -3.85832 48.3825L0.489675 48.4279L-3.86768 47.6984C-3.83016 47.0336 -3.65615 46.3838 -3.3565 45.7892C-3.05685 45.1947 -2.63798 44.6682 -2.12598 44.2426C-1.61398 43.817 -1.01982 43.5014 -0.380526 43.3155C0.258771 43.1296 0.929508 43.0773 1.5899 43.1619C2.25029 43.2465 2.88618 43.4662 3.45795 43.8073C4.02973 44.1484 4.52514 44.6035 4.91331 45.1445C5.30149 45.6854 5.57412 46.3004 5.71421 46.9513C5.8543 47.6022 5.85885 48.275 5.72758 48.9277C6.0432 49.0737 6.34241 49.2529 6.62016 49.4622L4.34862 52.6209L7.07581 49.8577C7.65129 50.423 8.07679 51.1228 8.31382 51.8938C8.55086 52.6649 8.59195 53.4829 8.43339 54.2738C9.25837 54.6581 9.95857 55.2668 10.4539 56.0302C10.9492 56.7937 11.2197 57.6812 11.2344 58.5912C11.2491 59.5011 11.0074 60.3969 10.537 61.1759C10.0666 61.955 9.3864 62.586 8.57425 62.9967C7.7621 63.4074 6.85076 63.5813 5.94446 63.4984C5.03815 63.4155 4.17345 63.0793 3.44925 62.5281C2.72505 61.9769 2.17057 61.2331 1.84923 60.3816C1.52789 59.5301 1.45265 58.6054 1.63213 57.7132C0.64747 57.2543 -0.154518 56.478 -0.645182 55.5088C-1.13585 54.5396 -1.28675 53.4336 -1.07368 52.3684V52.3671Z" fill="#6C63FF"/>
<path opacity="0.1" d="M8.00552 51.1351C8.49833 52.105 8.649 53.2129 8.43311 54.2792C9.25809 54.6634 9.95829 55.2721 10.4536 56.0356C10.949 56.7991 11.2194 57.6865 11.2341 58.5965C11.2488 59.5065 11.0071 60.4022 10.5367 61.1813C10.0663 61.9604 9.38612 62.5913 8.57397 63.002C7.76182 63.4127 6.85048 63.5866 5.94417 63.5037C5.03787 63.4209 4.17317 63.0846 3.44897 62.5335C2.72477 61.9823 2.17029 61.2384 1.84895 60.387C1.52761 59.5355 1.45237 58.6108 1.63185 57.7186C0.679135 57.2763 7.761 50.6501 8.00552 51.1351Z" fill="black"/>
<path opacity="0.1" d="M2.54345 44.1174C2.94122 44.1174 3.26367 43.7949 3.26367 43.3972C3.26367 42.9994 2.94122 42.6769 2.54345 42.6769C2.14569 42.6769 1.82324 42.9994 1.82324 43.3972C1.82324 43.7949 2.14569 44.1174 2.54345 44.1174Z" fill="#6C63FF"/>
<path opacity="0.1" d="M1.89551 60.9815C2.29327 60.9815 2.61572 60.6591 2.61572 60.2613C2.61572 59.8636 2.29327 59.5411 1.89551 59.5411C1.49774 59.5411 1.17529 59.8636 1.17529 60.2613C1.17529 60.6591 1.49774 60.9815 1.89551 60.9815Z" fill="#6C63FF"/>
<path opacity="0.1" d="M1.89551 60.9815C2.29327 60.9815 2.61572 60.6591 2.61572 60.2613C2.61572 59.8636 2.29327 59.5411 1.89551 59.5411C1.49774 59.5411 1.17529 59.8636 1.17529 60.2613C1.17529 60.6591 1.49774 60.9815 1.89551 60.9815Z" fill="black"/>
<path opacity="0.1" d="M8.54004 53.3852C8.9378 53.3852 9.26025 53.0628 9.26025 52.665C9.26025 52.2673 8.9378 51.9448 8.54004 51.9448C8.14227 51.9448 7.81982 52.2673 7.81982 52.665C7.81982 53.0628 8.14227 53.3852 8.54004 53.3852Z" fill="#6C63FF"/>
<path opacity="0.1" d="M8.54004 53.3852C8.9378 53.3852 9.26025 53.0628 9.26025 52.665C9.26025 52.2673 8.9378 51.9448 8.54004 51.9448C8.14227 51.9448 7.81982 52.2673 7.81982 52.665C7.81982 53.0628 8.14227 53.3852 8.54004 53.3852Z" fill="black"/>
<path opacity="0.1" d="M9.30874 64.5011C9.7871 64.2593 9.93141 63.5751 9.65214 62.9431C9.66684 62.9698 9.68154 62.9952 9.6949 63.0219C10.0249 63.6753 9.88865 64.4089 9.38891 64.6615C8.88917 64.914 8.2184 64.5893 7.88836 63.9359C7.875 63.9092 7.86164 63.8824 7.84961 63.8544C8.19301 64.4543 8.83038 64.743 9.30874 64.5011Z" fill="black"/>
<path opacity="0.1" d="M10.0179 65.9068C10.4962 65.6649 10.6419 64.9795 10.3626 64.3488C10.3773 64.3742 10.392 64.4009 10.4054 64.4276C10.7354 65.081 10.5991 65.8146 10.0994 66.0671C9.59962 66.3197 8.92885 65.995 8.59881 65.3416C8.58411 65.3149 8.57208 65.2868 8.56006 65.2601C8.90346 65.8627 9.54217 66.1486 10.0179 65.9068Z" fill="black"/>
<path opacity="0.1" d="M10.7288 67.3111C11.2072 67.0693 11.3528 66.3852 11.0722 65.7532C11.0882 65.7799 11.1016 65.8053 11.1163 65.8333C11.4463 66.4854 11.3087 67.2203 10.8103 67.4715C10.3119 67.7227 9.63979 67.3993 9.30975 66.7459C9.29505 66.7192 9.28302 66.6925 9.271 66.6644C9.61306 67.2644 10.2504 67.553 10.7288 67.3111Z" fill="black"/>
<path opacity="0.1" d="M11.4397 68.7168C11.9181 68.475 12.0637 67.7908 11.7831 67.1588C11.7978 67.1842 11.8125 67.2109 11.8259 67.2376C12.1573 67.891 12.0196 68.6246 11.5212 68.8772C11.0228 69.1297 10.3494 68.805 10.0193 68.1516C10.006 68.1249 9.99396 68.0968 9.98193 68.0701C10.324 68.6687 10.9614 68.9587 11.4397 68.7168Z" fill="black"/>
<path opacity="0.1" d="M12.1505 70.1212C12.6289 69.8793 12.7732 69.1952 12.4939 68.5645C12.5086 68.5899 12.5233 68.6166 12.5367 68.6433C12.8667 69.2967 12.7304 70.0303 12.232 70.2829C11.7336 70.5354 11.0602 70.2094 10.7302 69.5573C10.7168 69.5292 10.7048 69.5025 10.6914 69.4758C11.0348 70.0744 11.6722 70.363 12.1505 70.1212Z" fill="black"/>
<path opacity="0.1" d="M12.8615 71.5269C13.3398 71.285 13.4841 70.6009 13.2049 69.9688C13.2196 69.9956 13.2343 70.021 13.2476 70.0477C13.5777 70.7011 13.4414 71.4347 12.943 71.6872C12.4446 71.9398 11.7711 71.6151 11.4411 70.9617C11.4277 70.9349 11.4144 70.9082 11.4023 70.8801C11.7457 71.4748 12.3831 71.7687 12.8615 71.5269Z" fill="black"/>
<path opacity="0.1" d="M13.5724 72.9325C14.0494 72.6907 14.1951 72.0052 13.9158 71.3745C13.9305 71.3999 13.9452 71.4266 13.9586 71.4534C14.2886 72.1068 14.1523 72.8403 13.6526 73.0929C13.1528 73.3454 12.4821 73.0194 12.152 72.3673C12.1387 72.3392 12.1253 72.3125 12.1133 72.2858C12.4567 72.8844 13.094 73.1744 13.5724 72.9325Z" fill="black"/>
<path opacity="0.1" d="M14.282 74.3369C14.7604 74.095 14.906 73.4109 14.6254 72.7789C14.6414 72.8056 14.6548 72.831 14.6695 72.859C14.9995 73.5111 14.8619 74.246 14.3635 74.4972C13.8651 74.7484 13.193 74.425 12.863 73.7717C12.8483 73.7449 12.8362 73.7182 12.8242 73.6901C13.1676 74.2901 13.8037 74.5787 14.282 74.3369Z" fill="black"/>
<path opacity="0.1" d="M14.7536 75.2602C15.2319 75.0184 15.3762 74.3342 15.097 73.7022C15.1117 73.7289 15.1264 73.7543 15.1397 73.7824C15.4698 74.4344 15.3335 75.1694 14.8351 75.4206C14.3367 75.6718 13.6632 75.3484 13.3332 74.695C13.3198 74.6683 13.3065 74.6415 13.2944 74.6135C13.6338 75.2161 14.2712 75.5021 14.7536 75.2602Z" fill="black"/>
<path opacity="0.1" d="M1.90732 69.0068C1.83311 68.7943 1.78815 68.5726 1.7737 68.348C1.72429 68.3478 1.67545 68.3375 1.63022 68.3176C1.58499 68.2977 1.54436 68.2687 1.51084 68.2324C1.47733 68.1961 1.45166 68.1532 1.43544 68.1066C1.41923 68.0599 1.4128 68.0104 1.41658 67.9611C1.42035 67.9119 1.43425 67.8639 1.45739 67.8202C1.48053 67.7766 1.51242 67.7382 1.55108 67.7074C1.58973 67.6766 1.63431 67.6541 1.68204 67.6414C1.72977 67.6286 1.77962 67.6258 1.82848 67.6332C1.90866 67.269 2.06883 66.9272 2.29739 66.6325C2.52595 66.3379 2.81718 66.0977 3.14999 65.9295C3.10693 65.8443 3.09949 65.7454 3.12931 65.6547C3.15913 65.564 3.22377 65.4888 3.30899 65.4458C3.39422 65.4027 3.49307 65.3953 3.58378 65.4251C3.67449 65.4549 3.74964 65.5196 3.7927 65.6048C3.80834 65.635 3.81916 65.6675 3.82477 65.701C4.22015 65.6284 4.62714 65.6512 5.01197 65.7674C5.3968 65.8836 5.74837 66.0898 6.03752 66.3691C6.25837 66.3329 6.48309 66.3267 6.70562 66.3504L6.99691 67.6759L7.00359 66.3972C7.3349 66.4737 7.64726 66.6166 7.92186 66.8172C8.19646 67.0177 8.42761 67.2718 8.60137 67.5641C8.77513 67.8564 8.8879 68.1809 8.9329 68.5179C8.97789 68.855 8.95417 69.1976 8.86316 69.5253C8.77216 69.8529 8.61575 70.1587 8.40337 70.4243C8.191 70.6899 7.92705 70.9097 7.62743 71.0705C7.32782 71.2313 6.99874 71.3298 6.66005 71.36C6.32135 71.3902 5.98004 71.3515 5.6567 71.2462C5.62153 71.3084 5.56908 71.359 5.50571 71.3919C5.43966 71.4252 5.36497 71.4375 5.29175 71.4269C5.21852 71.4164 5.15031 71.3836 5.09635 71.333C5.04239 71.2824 5.00529 71.2164 4.99008 71.144C4.97487 71.0716 4.98228 70.9963 5.01131 70.9282C4.89674 70.8482 4.78903 70.7589 4.68929 70.661C4.1637 70.7461 3.62465 70.6627 3.14938 70.4227C2.67412 70.1826 2.28704 69.7983 2.04361 69.3248L3.39986 69.0963L1.90732 69.0068Z" fill="#6C63FF"/>
<g opacity="0.1">
<path opacity="0.1" d="M4.00266 69.6508C4.50373 68.9827 4.81106 68.2077 5.16382 67.4568C5.30508 67.1477 5.4639 66.847 5.63951 66.5562L5.90675 66.2475C5.95218 66.2862 5.99627 66.325 6.04037 66.3651C6.26122 66.3289 6.48593 66.3226 6.70847 66.3464L6.99976 67.6719L7.00377 66.3972C7.33507 66.4737 7.64744 66.6166 7.92204 66.8172C8.19664 67.0177 8.42778 67.2718 8.60154 67.5641C8.7753 67.8564 8.88808 68.1809 8.93307 68.5179C8.97807 68.855 8.95434 69.1976 8.86334 69.5253C8.77233 69.8529 8.61593 70.1587 8.40355 70.4243C8.19117 70.6899 7.92722 70.9097 7.62761 71.0705C7.32799 71.2313 6.99892 71.3298 6.66022 71.36C6.32153 71.3902 5.98022 71.3515 5.65688 71.2462C5.62171 71.3084 5.56925 71.359 5.50589 71.3919C5.43984 71.4252 5.36515 71.4374 5.29192 71.4269C5.2187 71.4164 5.15049 71.3836 5.09652 71.333C5.04256 71.2824 5.00546 71.2164 4.99025 71.144C4.97504 71.0716 4.98246 70.9963 5.01149 70.9282C4.89692 70.8482 4.7892 70.7588 4.68947 70.661C4.17476 70.7435 3.64712 70.6656 3.17822 70.4378C3.4936 70.2216 3.77199 69.9558 4.00266 69.6508Z" fill="black"/>
</g>
<path opacity="0.1" d="M12.8708 66.8101C12.8495 66.768 12.8366 66.7221 12.8331 66.675C12.8295 66.6279 12.8353 66.5806 12.85 66.5358C12.8648 66.491 12.8883 66.4495 12.9192 66.4138C12.95 66.3781 12.9876 66.3488 13.0299 66.3277C13.0803 66.3019 13.1362 66.2886 13.1929 66.2889C13.2948 65.7478 13.5712 65.255 13.9799 64.8859C13.9138 64.6291 13.889 64.3635 13.9064 64.0989L15.2279 63.8771L13.9438 63.7956C13.9671 63.6749 13.9992 63.5561 14.04 63.4402C13.9896 63.4066 13.9486 63.3606 13.9211 63.3065C13.889 63.2422 13.8768 63.1697 13.8862 63.0983C13.8956 63.027 13.9261 62.9601 13.9738 62.9063C14.0215 62.8524 14.0842 62.814 14.1538 62.7961C14.2235 62.7781 14.2969 62.7814 14.3647 62.8055C14.6007 62.4697 14.9161 62.1975 15.2827 62.0131C15.7145 61.794 16.2004 61.704 16.682 61.7541C17.1637 61.8041 17.6207 61.992 17.9982 62.2952C18.3758 62.5985 18.6579 63.0042 18.8107 63.4637C18.9635 63.9232 18.9805 64.417 18.8597 64.8859C18.9225 64.9129 18.9763 64.9571 19.0149 65.0135C19.0534 65.07 19.0751 65.1362 19.0773 65.2045C19.0796 65.2728 19.0623 65.3403 19.0276 65.3991C18.9928 65.458 18.942 65.5057 18.8811 65.5367C18.8354 65.5598 18.7853 65.573 18.7342 65.5753C18.6831 65.5776 18.632 65.569 18.5844 65.55C18.4555 65.7662 18.2947 65.9617 18.1074 66.1299C18.2444 66.6628 18.2035 67.2258 17.9912 67.7334L16.2234 67.2684L17.8041 68.1008C17.5668 68.4795 17.233 68.7883 16.837 68.9955C16.441 69.2027 15.997 69.3009 15.5506 69.28C15.1041 69.259 14.6713 69.1197 14.2964 68.8764C13.9216 68.633 13.6182 68.2943 13.4173 67.8951C13.2775 67.6171 13.1897 67.316 13.1581 67.0065C13.0975 67.001 13.0392 66.9801 12.9889 66.9457C12.9386 66.9113 12.898 66.8646 12.8708 66.8101Z" fill="#6C63FF"/>
<path opacity="0.1" d="M12.8708 66.81C12.8495 66.768 12.8366 66.7221 12.8331 66.675C12.8295 66.6279 12.8353 66.5806 12.85 66.5358C12.8648 66.491 12.8883 66.4495 12.9192 66.4138C12.95 66.3781 12.9876 66.3488 13.0299 66.3277C13.0803 66.3018 13.1362 66.2886 13.1929 66.2889C13.2948 65.7478 13.5712 65.255 13.9799 64.8859C13.9692 64.8445 13.9598 64.8017 13.9518 64.7603C13.9998 64.7945 14.0445 64.8329 14.0854 64.8752C14.3246 65.1425 14.4476 65.4885 14.6827 65.7531C14.9774 66.0571 15.3736 66.2421 15.7958 66.2729C16.214 66.3017 16.6342 66.2679 17.0425 66.1727C17.3792 66.0859 17.7265 66.0477 18.074 66.0591L18.1729 66.0725L18.1114 66.1299C18.2484 66.6628 18.2075 67.2258 17.9952 67.7334L16.2234 67.2684L17.8041 68.1008C17.5668 68.4795 17.233 68.7883 16.837 68.9955C16.441 69.2027 15.997 69.3009 15.5506 69.28C15.1041 69.259 14.6713 69.1197 14.2964 68.8764C13.9216 68.633 13.6182 68.2943 13.4173 67.895C13.2775 67.6171 13.1897 67.316 13.1581 67.0065C13.0975 67.001 13.0392 66.98 12.9889 66.9457C12.9386 66.9113 12.898 66.8646 12.8708 66.81Z" fill="black"/>
</g>
<path opacity="0.1" d="M42.2792 6.93621C41.751 6.83593 41.2048 6.89547 40.7105 7.10724C40.414 7.23936 40.0931 7.30764 39.7685 7.30764C39.4439 7.30764 39.123 7.23936 38.8265 7.10724C38.4761 6.95363 38.0965 6.87802 37.7139 6.88563C37.3314 6.89325 36.9551 6.98391 36.6111 7.15133C36.4146 7.25511 36.1959 7.30967 35.9737 7.31034C35.0758 7.31034 34.3288 6.40573 34.1738 5.21251C34.3529 5.08127 34.5052 4.9171 34.6228 4.7288C35.1493 3.88031 35.959 3.33514 36.8796 3.33514C37.8003 3.33514 38.602 3.86962 39.1285 4.71277C39.2857 4.96597 39.5055 5.17444 39.7667 5.31813C40.0279 5.46181 40.3216 5.53588 40.6197 5.53319H40.6437C41.3519 5.52919 41.9706 6.10242 42.2792 6.93621Z" fill="#6C63FF"/>
<path opacity="0.1" d="M45.0077 3.19486L43.5566 4.1155L44.4372 2.51206C44.1875 2.31308 43.8785 2.20305 43.5593 2.19939H43.5366C43.4359 2.20062 43.3353 2.19302 43.2359 2.17667L42.7429 2.48934L42.954 2.10585C42.6065 1.98494 42.3056 1.75833 42.0935 1.4578L41.2102 2.00965L41.7661 0.998142C41.2517 0.379481 40.5568 0 39.7939 0C38.8786 0 38.0568 0.54517 37.5357 1.39366C37.3798 1.6471 37.1596 1.85476 36.8974 1.99557C36.6353 2.13638 36.3405 2.20531 36.0431 2.19538H35.9991C34.9889 2.19538 34.1685 3.3405 34.1685 4.75554C34.1685 6.17058 34.9889 7.31437 35.9991 7.31437C36.2212 7.31369 36.44 7.25913 36.6364 7.15536C36.9804 6.98779 37.3568 6.89717 37.7394 6.88979C38.122 6.8824 38.5016 6.95843 38.8518 7.1126C39.1484 7.24431 39.4693 7.31237 39.7939 7.31237C40.1184 7.31237 40.4393 7.24431 40.7359 7.1126C41.0834 6.96171 41.4594 6.88742 41.8382 6.8948C42.2171 6.90218 42.5898 6.99105 42.9313 7.15536C43.1262 7.25635 43.3424 7.30949 43.562 7.31036C44.5735 7.31036 45.3925 6.16523 45.3925 4.75153C45.3961 4.20867 45.2638 3.67354 45.0077 3.19486Z" fill="black"/>
<path opacity="0.1" d="M12.081 25.4479C11.3264 25.3052 10.5465 25.3898 9.84017 25.6911C9.41629 25.879 8.95757 25.9755 8.49391 25.9744C8.03024 25.9732 7.57201 25.8744 7.14906 25.6844C6.64861 25.465 6.10644 25.357 5.56009 25.3678C5.01375 25.3787 4.4763 25.5081 3.98494 25.7472C3.70392 25.8953 3.39128 25.9732 3.07365 25.9744C1.7909 25.9744 0.723274 24.6823 0.501465 22.9773C0.757791 22.7905 0.975581 22.5559 1.14284 22.2865C1.89512 21.0745 3.06029 20.2955 4.36843 20.2955C5.67657 20.2955 6.82704 21.0652 7.57531 22.2638C7.8002 22.627 8.1153 22.9259 8.48995 23.1312C8.8646 23.3366 9.28603 23.4414 9.71323 23.4356H9.74664C10.7595 23.4343 11.644 24.2534 12.081 25.4479Z" fill="#6C63FF"/>
<path opacity="0.1" d="M15.9829 20.0965L13.9091 21.4113L15.1678 19.1224C14.8111 18.8376 14.3695 18.6801 13.9131 18.6747H13.8797C13.7356 18.6768 13.5916 18.6661 13.4494 18.6427L12.7493 19.0956L13.0512 18.5478C12.553 18.3737 12.1226 18.0462 11.8219 17.6125L10.5632 18.4142L11.3556 16.9577C10.6194 16.0745 9.62789 15.5333 8.53755 15.5333C7.22941 15.5333 6.06424 16.311 5.31196 17.5229C5.08915 17.8866 4.77389 18.1847 4.39832 18.3868C4.02275 18.5889 3.6003 18.6878 3.17404 18.6734H3.10322C1.65879 18.6734 0.488281 20.3102 0.488281 22.3306C0.488281 24.3509 1.65879 25.9878 3.10322 25.9878C3.42106 25.9869 3.73388 25.9085 4.01451 25.7593C4.50597 25.5204 5.04347 25.3911 5.58981 25.3805C6.13615 25.3699 6.67827 25.4782 7.17864 25.6978C7.60158 25.8878 8.05981 25.9866 8.52348 25.9878C8.98715 25.9889 9.44586 25.8924 9.86974 25.7045C10.3664 25.4889 10.9037 25.3827 11.445 25.3931C11.9863 25.4035 12.5191 25.5302 13.0071 25.7646C13.2851 25.9101 13.594 25.9866 13.9077 25.9878C15.3522 25.9878 16.5227 24.3496 16.5227 22.3306C16.5328 21.5524 16.3471 20.7842 15.9829 20.0965Z" fill="black"/>
<path opacity="0.1" d="M95.9438 12.1474C96.4721 12.0472 97.0183 12.1068 97.5125 12.3184C97.8088 12.4506 98.1295 12.5189 98.4539 12.5189C98.7783 12.5189 99.099 12.4506 99.3953 12.3184C99.7457 12.1648 100.125 12.0892 100.508 12.0968C100.89 12.1045 101.267 12.1951 101.611 12.3625C101.807 12.4662 102.026 12.5207 102.248 12.5216C103.146 12.5216 103.894 11.6169 104.049 10.4237C103.87 10.2928 103.717 10.1286 103.6 9.94001C103.076 9.08885 102.257 8.53967 101.339 8.53967C100.421 8.53967 99.6184 9.07415 99.0919 9.9173C98.9349 10.1716 98.7149 10.3811 98.4532 10.5256C98.1915 10.67 97.897 10.7445 97.5981 10.7417H97.5754C96.8645 10.7404 96.2445 11.3136 95.9438 12.1474Z" fill="#6C63FF"/>
<path opacity="0.1" d="M93.2072 8.40607L94.6583 9.32404L93.7764 7.7206C94.0262 7.5218 94.335 7.4118 94.6543 7.40793H94.6783C94.779 7.40908 94.8796 7.40148 94.979 7.38521L95.4707 7.69788L95.2596 7.31439C95.6095 7.1955 95.9133 6.96976 96.1281 6.66901L97.0087 7.22754L96.4515 6.21604C96.9672 5.59738 97.6541 5.2179 98.425 5.2179C99.3403 5.2179 100.162 5.76307 100.683 6.61155C100.839 6.86509 101.059 7.07283 101.321 7.21365C101.584 7.35447 101.878 7.42335 102.176 7.41327H102.224C103.235 7.41327 104.054 8.5584 104.054 9.97343C104.054 11.3885 103.235 12.5323 102.224 12.5323C102.002 12.5313 101.783 12.4767 101.586 12.3733C101.242 12.2057 100.866 12.1151 100.483 12.1077C100.101 12.1003 99.7213 12.1763 99.3711 12.3305C99.0747 12.4622 98.754 12.5302 98.4297 12.5302C98.1054 12.5302 97.7847 12.4622 97.4884 12.3305C97.1406 12.1796 96.7644 12.1053 96.3853 12.1127C96.0063 12.12 95.6333 12.2089 95.2916 12.3733C95.0968 12.4744 94.8805 12.5275 94.661 12.5283C93.6508 12.5283 92.8304 11.3831 92.8304 9.96943C92.8232 9.42499 92.9528 8.88747 93.2072 8.40607Z" fill="black"/>
<path opacity="0.1" d="M78.2603 103.807C86.7469 103.807 93.6267 102.61 93.6267 101.134C93.6267 99.6584 86.7469 98.462 78.2603 98.462C69.7738 98.462 62.894 99.6584 62.894 101.134C62.894 102.61 69.7738 103.807 78.2603 103.807Z" fill="#6C63FF"/>
<path d="M70.218 88.4404L46.4082 88.1345L46.479 87.5238L47.6295 77.4502H68.5397L70.0777 87.5238L70.1952 88.2881L70.218 88.4404Z" fill="#D0D2D5"/>
<path opacity="0.1" d="M70.1952 88.2881H58.3138L46.4082 88.1345L46.479 87.5238H70.0777L70.1952 88.2881Z" fill="black"/>
<path d="M74.0339 87.6775H42.4395V88.4405H74.0339V87.6775Z" fill="#D0D2D5"/>
<path d="M104.177 16.947C104.179 16.4205 103.972 15.9149 103.601 15.5411C103.23 15.1673 102.726 14.9559 102.2 14.9534H13.9678C13.7069 14.9547 13.4488 15.0073 13.2082 15.1083C12.9676 15.2092 12.7492 15.3566 12.5656 15.542C12.382 15.7274 12.2366 15.9471 12.1379 16.1886C12.0392 16.4302 11.989 16.6888 11.9903 16.9497V70.4312H104.177V16.947Z" fill="#3F3D56"/>
<path d="M11.9902 69.8967V76.1608C11.9902 76.6853 12.1986 77.1883 12.5695 77.5591C12.9403 77.93 13.4433 78.1384 13.9678 78.1384H102.2C102.724 78.1384 103.227 77.93 103.598 77.5591C103.969 77.1883 104.177 76.6853 104.177 76.1608V69.8967H11.9902Z" fill="#D0D2D5"/>
<path d="M100.82 18.3073H15.8066V66.3851H100.82V18.3073Z" fill="white"/>
<path d="M58.5424 75.7613C58.8546 75.7616 59.1627 75.6909 59.4435 75.5546C59.7243 75.4182 59.9705 75.2198 60.1632 74.9742C60.2218 74.8995 60.2754 74.8209 60.3236 74.7391L59.1918 74.548L60.4144 74.556C60.5316 74.301 60.5956 74.0248 60.6022 73.7443C60.6089 73.4637 60.5582 73.1848 60.4532 72.9245L58.8137 73.7743L60.3262 72.6626C60.1842 72.4184 59.9934 72.2061 59.7659 72.0387C59.5383 71.8714 59.2787 71.7526 59.0033 71.6899C58.7279 71.6271 58.4425 71.6216 58.1648 71.6737C57.8872 71.7259 57.6233 71.8346 57.3894 71.9931C57.1556 72.1515 56.9568 72.3564 56.8055 72.5949C56.6541 72.8335 56.5535 73.1006 56.5097 73.3796C56.466 73.6587 56.4801 73.9438 56.5512 74.2172C56.6222 74.4906 56.7488 74.7465 56.9229 74.9689C57.115 75.2152 57.3607 75.4146 57.6413 75.5519C57.9219 75.6892 58.23 75.7608 58.5424 75.7613Z" fill="#6C63FF"/>
<path opacity="0.1" d="M60.6025 78.137L70.1016 87.6775L68.6438 78.137H60.6025Z" fill="black"/>
<path opacity="0.1" d="M100.845 18.3126H15.7397V21.1213H100.845V18.3126Z" fill="#444053"/>
<path opacity="0.3" d="M70.8528 18.8017H45.3661C45.3233 18.8017 45.2886 18.8364 45.2886 18.8792V20.4332C45.2886 20.476 45.3233 20.5107 45.3661 20.5107H70.8528C70.8956 20.5107 70.9303 20.476 70.9303 20.4332V18.8792C70.9303 18.8364 70.8956 18.8017 70.8528 18.8017Z" fill="#6C63FF"/>
<path d="M70.1683 19.8332H70.1055L70.0828 19.8132C70.1605 19.7197 70.2031 19.602 70.203 19.4804C70.2022 19.3807 70.1719 19.2834 70.1159 19.2008C70.0598 19.1182 69.9806 19.0541 69.8882 19.0166C69.7957 18.979 69.6942 18.9696 69.5965 18.9897C69.4987 19.0097 69.4091 19.0583 69.3389 19.1292C69.2687 19.2001 69.2211 19.2902 69.2021 19.3882C69.1831 19.4862 69.1935 19.5875 69.2321 19.6796C69.2706 19.7716 69.3356 19.8502 69.4187 19.9053C69.5019 19.9605 69.5995 19.9898 69.6993 19.9895C69.821 19.9891 69.9387 19.9461 70.032 19.8679L70.0547 19.888V19.9508L70.4462 20.3423L70.5625 20.2247L70.1683 19.8332ZM69.6993 19.8332C69.6295 19.8335 69.5611 19.813 69.5029 19.7744C69.4447 19.7358 69.3993 19.6808 69.3724 19.6164C69.3455 19.5519 69.3383 19.481 69.3518 19.4124C69.3653 19.3439 69.3988 19.281 69.448 19.2315C69.4973 19.182 69.5602 19.1483 69.6286 19.1346C69.6971 19.1208 69.7681 19.1278 69.8326 19.1544C69.8972 19.1811 69.9523 19.2263 69.9911 19.2843C70.03 19.3424 70.0507 19.4106 70.0507 19.4804C70.0511 19.5268 70.0422 19.5727 70.0247 19.6155C70.0072 19.6584 69.9813 19.6974 69.9486 19.7302C69.916 19.763 69.8771 19.789 69.8343 19.8067C69.7915 19.8244 69.7456 19.8334 69.6993 19.8332Z" fill="#3F3D56"/>
<path opacity="0.8" d="M17.2698 20.2314C17.5539 20.2314 17.7842 20.0011 17.7842 19.717C17.7842 19.4328 17.5539 19.2025 17.2698 19.2025C16.9857 19.2025 16.7554 19.4328 16.7554 19.717C16.7554 20.0011 16.9857 20.2314 17.2698 20.2314Z" fill="#FA5959"/>
<path opacity="0.8" d="M18.6848 20.2314C18.969 20.2314 19.1993 20.0011 19.1993 19.717C19.1993 19.4328 18.969 19.2025 18.6848 19.2025C18.4007 19.2025 18.1704 19.4328 18.1704 19.717C18.1704 20.0011 18.4007 20.2314 18.6848 20.2314Z" fill="#FED253"/>
<path opacity="0.8" d="M20.1009 20.2314C20.385 20.2314 20.6153 20.0011 20.6153 19.717C20.6153 19.4328 20.385 19.2025 20.1009 19.2025C19.8167 19.2025 19.5864 19.4328 19.5864 19.717C19.5864 20.0011 19.8167 20.2314 20.1009 20.2314Z" fill="#8CCF4D"/>
<path d="M62.8167 38.9369C61.6502 37.3869 59.9599 36.4088 58.0785 36.4088C56.1971 36.4088 54.5068 37.3869 53.3403 38.9369C53.5982 39.5694 53.9798 40.1441 54.4627 40.6272C55.0595 41.2237 55.7946 41.6633 56.6025 41.9068C57.4104 42.1504 58.266 42.1902 59.0931 42.0229C59.9201 41.8556 60.6929 41.4862 61.3426 40.9478C61.9923 40.4093 62.4987 39.7185 62.8167 38.9369Z" fill="#6C63FF"/>
<path d="M52.4892 39.7105C52.5625 39.7636 52.6413 39.8084 52.7244 39.8442C53.6197 41.6547 55.4743 43.0404 57.6029 43.1566V51.7417C55.9928 51.6455 54.7033 50.8344 53.6197 49.569C53.5261 49.6398 53.4566 49.704 53.3925 49.7641C53.3025 49.8493 53.2397 49.9592 53.2119 50.0799C53.1841 50.2007 53.1925 50.3269 53.2362 50.4429C53.295 50.6026 53.3102 50.7751 53.2804 50.9426C53.2505 51.1102 53.1767 51.2667 53.0663 51.3963C52.956 51.5259 52.8132 51.6238 52.6526 51.68C52.4919 51.7361 52.3192 51.7486 52.1522 51.716C51.9852 51.6834 51.8298 51.607 51.7021 51.4946C51.5743 51.3822 51.4788 51.2378 51.4252 51.0763C51.3717 50.9147 51.362 50.7419 51.3973 50.5754C51.4326 50.4089 51.5116 50.2548 51.6261 50.1289C51.6605 50.0911 51.698 50.0562 51.7383 50.0247C51.7615 50.0035 51.787 49.9851 51.8145 49.9699C51.9614 49.4381 52.3102 48.9584 52.8767 48.5188C52.2391 47.4291 51.8491 46.2124 51.7343 44.9551C51.6517 44.9559 51.5691 44.9613 51.4871 44.9712C51.3757 44.9861 51.2705 45.0314 51.183 45.1021C51.0956 45.1728 51.0293 45.2662 50.9914 45.372C50.9297 45.5361 50.8242 45.6802 50.6865 45.7887C50.5488 45.8972 50.384 45.9659 50.21 45.9874C50.036 46.0089 49.8594 45.9824 49.6994 45.9108C49.5394 45.8391 49.402 45.725 49.3022 45.5809C49.2024 45.4367 49.1439 45.268 49.1332 45.093C49.1224 44.918 49.1597 44.7434 49.2411 44.5881C49.3224 44.4328 49.4448 44.3027 49.5948 44.212C49.7448 44.1212 49.9168 44.0732 50.0921 44.0732C50.131 44.0739 50.1698 44.0766 50.2083 44.0813C50.3519 43.978 50.5112 43.8986 50.68 43.8461C51.0098 43.7429 51.3527 43.6876 51.6982 43.6817C51.7323 42.7903 51.9008 41.9092 52.1979 41.0681C51.9821 40.9454 51.7785 40.8022 51.59 40.6405C51.4063 40.4764 51.2557 40.2787 51.1464 40.058C51.0885 39.9464 50.9999 39.8537 50.8911 39.7907C50.8074 39.7404 50.731 39.6788 50.664 39.6077C50.5452 39.4796 50.4637 39.3215 50.4281 39.1505C50.3925 38.9795 50.4043 38.8021 50.4622 38.6373C50.5201 38.4725 50.6219 38.3266 50.7566 38.2154C50.8913 38.1042 51.0537 38.0319 51.2265 38.0063C51.3993 37.9806 51.5758 38.0026 51.737 38.0699C51.8981 38.1372 52.0379 38.2472 52.1412 38.388C52.2444 38.5289 52.3073 38.6953 52.3229 38.8692C52.3386 39.0432 52.3065 39.2181 52.23 39.3752C52.2899 39.5052 52.3785 39.6199 52.4892 39.7105Z" fill="#6C63FF"/>
<path d="M86.9954 99.5764C86.9178 99.4533 86.8197 99.3444 86.7055 99.2543C86.1215 98.7025 85.8503 97.8928 85.706 97.0991C85.5617 96.3054 85.5203 95.4956 85.2891 94.7193C85.1634 94.3212 85.0061 93.9338 84.8187 93.5608C84.6851 93.2748 84.5168 92.715 84.2722 92.5146C84.2243 92.4731 84.1662 92.4449 84.1039 92.433C83.9884 92.1875 83.8237 91.9684 83.6202 91.789C83.238 91.4429 82.7717 91.1677 82.5165 90.72C82.4463 90.5648 82.3599 90.4174 82.2586 90.2804C82.0862 90.0907 81.8136 90.0132 81.6546 89.8127C81.4475 89.5535 81.4943 89.1821 81.521 88.852C81.5477 88.522 81.521 88.1265 81.2351 87.9528C81.064 87.8472 80.8436 87.8579 80.6658 87.7644C80.3986 87.6307 80.293 87.294 80.2984 86.9934C80.3037 86.6927 80.3973 86.4001 80.4213 86.0995C80.4961 85.1427 79.8655 84.1914 80.1086 83.264C80.2008 82.9126 80.412 82.608 80.5683 82.2806C80.6228 82.1716 80.6675 82.0581 80.7019 81.9412C81.1188 82.1065 81.557 82.2122 82.0034 82.2552C81.2671 80.6037 81.4542 78.6849 81.1108 76.9104L81.1549 76.8503C81.5017 76.3928 81.6987 75.8393 81.7188 75.2655C81.7188 74.6055 81.4101 73.9881 81.2711 73.3414C81.1522 72.7922 81.1576 72.2177 81.0039 71.6778C80.8973 71.3424 80.7558 71.019 80.5817 70.7131C80.4151 70.404 80.24 70.0998 80.0565 69.8005C79.8855 69.2339 79.714 68.6674 79.5421 68.1008C79.3016 67.3058 79.0544 66.4974 78.5867 65.8106C78.4157 65.5594 78.3636 65.049 78.1003 64.8966C77.8866 64.786 77.6441 64.7436 77.4055 64.775C77.0341 64.5666 76.708 64.2659 76.6613 63.8544C76.6566 63.7645 76.6656 63.6744 76.688 63.5872H76.7334C77.3213 63.5337 77.6193 63.0153 77.9253 62.561C78.4197 61.826 78.2313 60.8319 77.9253 59.9955C77.8494 59.7315 77.7121 59.4892 77.5244 59.2886C77.0955 58.8877 76.4167 58.9759 75.8635 58.7822C75.6778 58.718 75.5041 58.6205 75.3144 58.5751C74.9469 58.4896 74.5621 58.6098 74.2254 58.7795C73.8886 58.9492 73.5746 59.1683 73.2219 59.302C72.8691 59.4356 72.4335 59.5411 72.3467 59.9033C72.3223 60.0252 72.3325 60.1515 72.3761 60.268C72.4572 60.5004 72.5999 60.7063 72.7889 60.864C72.6388 61.1737 72.5575 61.5122 72.5508 61.8563C72.5442 62.2005 72.6122 62.5419 72.7503 62.8572C72.8883 63.1725 73.0932 63.454 73.3506 63.6825C73.608 63.9109 73.9119 64.0808 74.2414 64.1804C74.3429 64.3434 74.4378 64.5091 74.5247 64.6788C74.6797 64.9781 74.8106 65.3309 74.7572 65.6516C74.6605 65.7543 74.5712 65.8637 74.4899 65.979C74.1064 66.5134 73.8886 67.1401 73.6882 67.7655C73.419 68.5639 73.2034 69.3795 73.0428 70.2067C72.7168 70.9002 72.3186 71.5629 72.0821 72.2912C71.6586 72.2917 71.237 72.2351 70.8287 72.1228L69.701 71.8676C69.3081 71.7781 68.8993 71.6819 68.5919 71.4226C68.4289 71.289 68.302 71.1113 68.1363 70.979C67.9706 70.8467 67.6379 70.6917 67.4562 70.8013C67.423 70.8215 67.392 70.8452 67.364 70.8721C67.1983 70.5367 67.0406 70.204 66.8482 69.8793C66.5716 69.425 66.1601 69.0095 65.6389 68.9226C65.3205 68.8714 64.9948 68.9472 64.7317 69.1337C64.427 69.3502 64.2359 69.8018 64.4644 70.1065C64.5215 70.1743 64.5836 70.2377 64.6502 70.2962C64.8048 70.4744 64.943 70.6663 65.063 70.8694C65.4938 71.474 66.1381 71.8924 66.8656 72.04L66.8188 72.1736C66.7239 72.4515 66.5222 72.7869 66.5729 73.0755L71.589 74.7925C71.9108 74.9231 72.2523 74.9986 72.5992 75.0157C72.7345 75.0146 72.8692 74.9966 73.0001 74.9622V75.2188V75.2295C73.0134 76.9919 72.7328 78.7423 72.6807 80.5034C72.6714 80.8255 72.6807 81.1715 72.8838 81.4228C73.111 81.698 73.5145 81.7528 73.8659 81.69C73.9506 81.6757 74.0334 81.657 74.1145 81.6339C74.2333 82.0772 74.3191 82.5287 74.371 82.9848L74.7024 85.3712C74.745 85.6155 74.7625 85.8636 74.7545 86.1115C74.7157 86.6713 74.4204 87.1724 74.2067 87.6895C73.9929 88.2066 73.8659 88.8253 74.1465 89.309C74.2347 89.4587 74.3563 89.5856 74.4351 89.7406C74.5353 89.9806 74.581 90.2398 74.5688 90.4996C74.5893 91.2193 74.6089 91.94 74.6276 92.6615C74.5692 92.652 74.5094 92.6638 74.4592 92.6949C74.1813 92.9114 74.212 93.9416 74.192 94.261C74.1706 94.7954 74.192 95.3406 74.1626 95.8804C74.1278 96.608 74.0108 97.3292 73.8138 98.0304C73.7656 98.2583 73.6604 98.4703 73.5078 98.6464C73.3516 98.7823 73.1651 98.8789 72.964 98.9283C72.2983 99.1368 71.6022 99.2317 70.9049 99.2089C70.623 99.1996 70.329 99.1728 70.0671 99.2797C69.8052 99.3866 69.5941 99.6806 69.689 99.9478C69.7705 100.172 70.0177 100.279 70.2408 100.363C70.7506 100.543 71.2426 100.769 71.7106 101.04C71.8908 101.162 72.0807 101.27 72.2785 101.362C72.4681 101.43 72.6642 101.478 72.8638 101.506L75.2329 101.915C75.7179 101.998 76.3018 102.048 76.6105 101.647C76.7775 101.431 76.8016 101.137 76.7935 100.862C76.7802 100.327 76.6733 99.7835 76.7428 99.249C76.7955 98.933 76.8788 98.6229 76.9913 98.323C77.2274 97.6219 77.4643 96.9213 77.7021 96.2212C77.94 95.5183 78.1805 94.8088 78.2727 94.0712C78.3061 93.804 78.3034 93.4993 78.099 93.3323C78.0473 93.2899 77.9872 93.2589 77.9226 93.2414C77.9146 92.5974 77.8304 91.952 77.8665 91.308C77.8759 91.1476 77.8919 90.9873 77.9053 90.8256C78.0291 90.9433 78.1398 91.0741 78.2353 91.2158C78.4638 91.5739 78.548 92.0469 78.8967 92.2847C79.1933 92.4878 79.633 92.4771 79.8414 92.7711C79.9084 92.884 79.9588 93.006 79.9911 93.1332C80.112 93.4483 80.2936 93.7365 80.5255 93.9817C80.6051 94.275 80.7158 94.559 80.8556 94.8288C81.0524 95.2449 81.2484 95.6595 81.4435 96.0729C81.6441 96.519 81.867 96.9547 82.1116 97.3783C82.2983 97.645 82.4488 97.9352 82.5592 98.2415C82.7476 98.9016 82.4403 99.6258 81.9539 100.112C81.4676 100.599 80.8262 100.878 80.1942 101.138C80.1276 101.161 80.0665 101.197 80.0151 101.245C79.9603 101.31 79.9313 101.393 79.9336 101.478C79.9336 101.786 80.1875 102.051 80.4788 102.146C80.7765 102.226 81.0886 102.237 81.3914 102.179C83.0991 101.972 84.8014 101.555 86.3113 100.725C86.5371 100.618 86.7372 100.464 86.8979 100.273C86.9755 100.176 87.0255 100.06 87.0427 99.9379C87.0599 99.8153 87.0435 99.6904 86.9954 99.5764Z" fill="url(#paint0_linear_209:117)"/>
<path d="M79.7784 69.6121C80.0634 70.0495 80.3307 70.4975 80.5801 70.9563C80.7548 71.2597 80.8968 71.5809 81.0037 71.9143C81.1587 72.4488 81.1546 73.0194 81.2709 73.5646C81.4045 74.2059 81.7172 74.8179 81.7172 75.4753C81.6968 76.0449 81.4997 76.5941 81.1533 77.0467C80.8079 77.4954 80.4125 77.9034 79.9748 78.2626C78.9658 75.6487 78.4021 72.8841 78.3072 70.0838C78.2938 69.6963 78.2912 69.2967 78.4328 68.9346C78.5197 68.7075 78.9365 68.0848 79.2051 68.3293C79.3027 68.4188 79.3281 68.8224 79.3882 68.9573C79.5008 69.1855 79.6313 69.4044 79.7784 69.6121Z" fill="#2F2E41"/>
<path opacity="0.1" d="M79.7784 69.6121C80.0634 70.0495 80.3307 70.4975 80.5801 70.9563C80.7548 71.2597 80.8968 71.5809 81.0037 71.9143C81.1587 72.4488 81.1546 73.0194 81.2709 73.5646C81.4045 74.2059 81.7172 74.8179 81.7172 75.4753C81.6968 76.0449 81.4997 76.5941 81.1533 77.0467C80.8079 77.4954 80.4125 77.9034 79.9748 78.2626C78.9658 75.6487 78.4021 72.8841 78.3072 70.0838C78.2938 69.6963 78.2912 69.2967 78.4328 68.9346C78.5197 68.7075 78.9365 68.0848 79.2051 68.3293C79.3027 68.4188 79.3281 68.8224 79.3882 68.9573C79.5008 69.1855 79.6313 69.4044 79.7784 69.6121Z" fill="black"/>
<path d="M44.5509 51.3823C43.494 52.4379 43.367 52.9029 42.7323 53.1126C42.0977 53.3224 39.8141 54.505 40.5316 55.8158L42.4611 57.0905L42.5172 57.1279L42.8125 58.0152L39.8943 63.2103C39.8943 63.2103 35.0839 61.0109 34.6123 64.2646C34.1406 67.5182 34.4399 68.4068 34.3129 70.1439C34.186 71.8809 34.3544 72.3833 33.9308 72.3833C33.5072 72.3833 33.3402 71.2422 33.3402 71.2422C33.3402 71.2422 33.3135 71.1901 33.2667 71.0926C32.6373 69.7844 28.3655 60.1811 35.2082 53.5803C35.2082 53.5803 38.3777 53.3719 39.1406 49.7374C39.6671 47.2253 41.5084 47.4418 42.7323 47.9536C43.1302 48.1095 43.5008 48.3274 43.8307 48.5989C44.1275 48.88 44.3916 49.1938 44.6177 49.5343C44.9665 50.0848 45.1562 50.7756 44.5509 51.3823Z" fill="#D0D2D5"/>
<path opacity="0.1" d="M42.517 57.1279L42.8123 58.0151L39.8941 63.2103C39.8941 63.2103 35.0837 61.0109 34.6121 64.2646C34.1404 67.5182 34.4397 68.4068 34.3127 70.1439C34.1858 71.8809 34.3542 72.3833 33.9306 72.3833C33.507 72.3833 33.34 71.2422 33.34 71.2422C33.34 71.2422 33.3133 71.1901 33.2665 71.0926C33.054 69.4677 31.9771 59.9633 35.8814 60.4684C35.8814 60.4684 39.0496 61.9489 39.556 61.3583C39.9569 60.8906 41.7367 58.2009 42.4609 57.0972L42.517 57.1279Z" fill="black"/>
<path opacity="0.1" d="M44.6179 49.5263L42.6884 51.719C42.6884 51.719 40.4476 54.7174 39.9826 54.5905C39.8434 54.5601 39.7015 54.5436 39.5591 54.5411C39.4039 54.5292 39.2554 54.4736 39.1306 54.3807C39.0058 54.2878 38.9098 54.1615 38.8539 54.0163C38.7979 53.8712 38.7843 53.7131 38.8145 53.5605C38.8447 53.4079 38.9176 53.267 39.0246 53.1541C39.7889 52.3524 41.1972 50.8304 41.2894 50.4924C41.3816 50.1543 42.2782 48.6725 42.7272 47.9469C43.125 48.1029 43.4957 48.3207 43.8256 48.5923C44.1242 48.8726 44.39 49.186 44.6179 49.5263Z" fill="black"/>
<path d="M99.2095 81.0727C98.8822 81.7274 97.2052 84.1833 96.4717 85.2563L96.1283 85.7614C96.1283 85.7614 95.9946 86.6486 93.8046 85.5489C91.6146 84.4492 40.1588 62.7373 40.1588 62.7373L39.8101 61.6897L42.3488 57.8882L98.7459 79.6777C98.7459 79.6777 99.6331 80.2269 99.2095 81.0727Z" fill="#454B69"/>
<path opacity="0.1" d="M96.4717 85.2563L96.1283 85.7614C96.1283 85.7614 95.9947 86.6486 93.8046 85.5489C91.6146 84.4492 40.1588 62.7373 40.1588 62.7373L39.8101 61.6897L96.4717 85.2563Z" fill="black"/>
<path d="M65.4344 71.0739C64.912 70.9884 64.3321 71.0298 63.9258 71.3692C63.6803 71.5771 63.5251 71.8722 63.4929 72.1923C63.4582 72.5624 63.6733 73.002 64.0448 73.0301C64.1342 73.0311 64.2235 73.0253 64.312 73.0127C64.5467 73.0117 64.781 73.0314 65.0122 73.0715C65.4673 73.1143 65.926 73.0473 66.3498 72.8762C66.7737 72.7051 67.1503 72.4348 67.4481 72.0881C67.7674 71.6872 67.3465 71.5135 66.9697 71.4333C66.454 71.3237 65.9502 71.1567 65.4344 71.0739Z" fill="#FBBEBE"/>
<path d="M74.371 83.1411L74.7023 85.4955C74.7445 85.7385 74.7615 85.9852 74.7531 86.2317C74.7144 86.7863 74.4191 87.2833 74.2066 87.7964C73.9941 88.3095 73.8645 88.9242 74.1465 89.3999C74.2333 89.5482 74.3549 89.6751 74.4338 89.8288C74.5339 90.0664 74.5796 90.3235 74.5674 90.5811L74.6582 93.9216C75.6897 93.9919 76.7249 93.9861 77.7556 93.9042C77.7959 93.9061 77.8356 93.8938 77.8678 93.8695C77.895 93.8349 77.9088 93.7917 77.9065 93.7479C77.952 92.9662 77.8157 92.1832 77.8598 91.4015C77.8758 91.1155 77.9159 90.8309 77.9212 90.5437C77.9373 89.3798 77.3627 88.24 77.5364 87.0896C77.591 86.7993 77.6623 86.5124 77.7502 86.2304C78.2994 84.2261 78.1831 82.1202 78.0615 80.0505C78.0636 80.0171 78.0542 79.9841 78.0348 79.9569C78.0151 79.9372 77.99 79.9237 77.9627 79.9182C77.3781 79.7428 76.7599 79.7107 76.1603 79.8247C75.5607 79.9386 74.9974 80.1953 74.5179 80.5729C74.3723 80.6905 74.0048 80.8041 73.9086 80.9444C73.775 81.1395 73.95 81.3346 74.0275 81.5417C74.1992 82.0609 74.3144 82.5972 74.371 83.1411Z" fill="#3F3D56"/>
<path opacity="0.1" d="M74.371 83.1411L74.7023 85.4955C74.7445 85.7385 74.7615 85.9852 74.7531 86.2317C74.7144 86.7863 74.4191 87.2833 74.2066 87.7964C73.9941 88.3095 73.8645 88.9242 74.1465 89.3999C74.2333 89.5482 74.3549 89.6751 74.4338 89.8288C74.5339 90.0664 74.5796 90.3235 74.5674 90.5811L74.6582 93.9216C75.6897 93.9919 76.7249 93.9861 77.7556 93.9042C77.7959 93.9061 77.8356 93.8938 77.8678 93.8695C77.895 93.8349 77.9088 93.7917 77.9065 93.7479C77.952 92.9662 77.8157 92.1832 77.8598 91.4015C77.8758 91.1155 77.9159 90.8309 77.9212 90.5437C77.9373 89.3798 77.3627 88.24 77.5364 87.0896C77.591 86.7993 77.6623 86.5124 77.7502 86.2304C78.2994 84.2261 78.1831 82.1202 78.0615 80.0505C78.0636 80.0171 78.0542 79.9841 78.0348 79.9569C78.0151 79.9372 77.99 79.9237 77.9627 79.9182C77.3781 79.7428 76.7599 79.7107 76.1603 79.8247C75.5607 79.9386 74.9974 80.1953 74.5179 80.5729C74.3723 80.6905 74.0048 80.8041 73.9086 80.9444C73.775 81.1395 73.95 81.3346 74.0275 81.5417C74.1992 82.0609 74.3144 82.5972 74.371 83.1411Z" fill="black"/>
<path d="M80.5668 82.4316C80.4105 82.7562 80.2007 83.0582 80.1071 83.407C79.864 84.3276 80.4933 85.2777 80.4185 86.221C80.3944 86.519 80.3022 86.8089 80.2955 87.1069C80.2889 87.4049 80.3984 87.7363 80.663 87.8739C80.8407 87.9648 81.0639 87.9554 81.2309 88.0596C81.5128 88.232 81.5449 88.6235 81.5168 88.9522C81.4888 89.2809 81.442 89.6484 81.6505 89.9049C81.8095 90.104 82.082 90.1815 82.2531 90.3699C82.3548 90.5052 82.4413 90.6512 82.511 90.8055C82.7662 91.2518 83.2325 91.5244 83.6147 91.8745C83.9968 92.2246 84.3202 92.7377 84.1491 93.2227C84.0235 93.5781 83.6708 93.7973 83.3314 93.9643C82.7121 94.2704 82.0586 94.5014 81.3845 94.6524C81.3122 94.6743 81.2357 94.6784 81.1614 94.6645C81.0862 94.637 81.0191 94.591 80.9663 94.5308C80.5721 94.1447 80.1646 93.7398 79.9829 93.22C79.9506 93.0941 79.9001 92.9734 79.8332 92.8619C79.6248 92.5693 79.1852 92.58 78.8885 92.3782C78.5411 92.1417 78.4569 91.6727 78.2298 91.3186C78.0026 90.9645 77.6699 90.7534 77.4281 90.4421C77.0192 89.9236 76.919 89.2315 76.6264 88.6395C76.5021 88.3883 76.3431 88.1532 76.2442 87.8913C76.1444 87.5773 76.0829 87.2525 76.0611 86.9239C75.8727 85.3632 75.393 83.7918 75.695 82.2472C75.7618 81.9078 75.8647 81.5791 75.9075 81.229C75.981 80.6237 75.8647 80.0037 75.9542 79.3997C75.9564 79.3239 75.9757 79.2495 76.0107 79.1822C76.0456 79.1149 76.0953 79.0563 76.156 79.0109C76.2282 78.9785 76.3067 78.9625 76.3858 78.9641C77.178 78.9218 77.9722 78.9396 78.7616 79.0176C79.1625 79.0563 79.6114 79.1378 79.8519 79.4652C80.0564 79.7458 80.0457 80.1213 80.1112 80.462C80.1927 80.8816 80.4051 81.11 80.6283 81.4388C80.8514 81.7675 80.7311 82.0922 80.5668 82.4316Z" fill="#3F3D56"/>
<path d="M77.4841 93.2896C77.6953 93.2896 77.9291 93.2762 78.0921 93.4098C78.2952 93.5768 78.2979 93.8828 78.2658 94.1434C78.1723 94.8756 77.9331 95.5798 77.6939 96.2813L76.9831 98.3671C76.8706 98.6647 76.7873 98.9726 76.7345 99.2864C76.6651 99.8209 76.7719 100.355 76.7853 100.89C76.7853 101.157 76.7679 101.454 76.6009 101.669C76.2989 102.058 75.7097 102.012 75.2246 101.936L72.8582 101.535C72.6586 101.509 72.4624 101.461 72.273 101.392C72.0755 101.301 71.8856 101.194 71.7051 101.073C71.2368 100.805 70.7448 100.582 70.2353 100.405C70.0134 100.322 69.7649 100.216 69.6847 99.9933C69.5899 99.726 69.801 99.4321 70.0629 99.3252C70.3248 99.2183 70.6174 99.245 70.9007 99.253C71.5973 99.2752 72.2927 99.1813 72.9584 98.9751C73.159 98.9259 73.3449 98.8297 73.5009 98.6945C73.6594 98.5164 73.7674 98.2991 73.8136 98.0651C74.0152 97.3687 74.1354 96.6513 74.1717 95.9272C74.1998 95.3927 74.1811 94.8582 74.2024 94.3238C74.2158 94.0071 74.1851 92.9876 74.463 92.7698C74.6754 92.6068 75.5493 93.0571 75.8366 93.1225C76.3767 93.2463 76.9302 93.3024 77.4841 93.2896Z" fill="#2F2E41"/>
<path d="M85.2795 94.7754C85.5107 95.541 85.5468 96.3508 85.6964 97.1378C85.8461 97.9248 86.1107 98.7279 86.6946 99.2757C86.8082 99.3659 86.9062 99.4743 86.9845 99.5964C87.0338 99.7108 87.0506 99.8366 87.0329 99.9599C87.0152 100.083 86.9638 100.199 86.8843 100.295C86.723 100.485 86.523 100.639 86.2977 100.746C84.7892 101.569 83.0908 101.984 81.3792 102.19C81.0767 102.247 80.7654 102.235 80.4679 102.157C80.1766 102.058 79.9187 101.796 79.924 101.488C79.9212 101.404 79.9498 101.322 80.0042 101.257C80.0562 101.21 80.1177 101.174 80.1846 101.152C80.8153 100.893 81.4553 100.611 81.943 100.132C82.4308 99.6539 82.7367 98.9296 82.5483 98.2802C82.4368 97.9761 82.2853 97.6881 82.098 97.4237C81.8537 97.0036 81.6308 96.5715 81.4299 96.129L80.842 94.8957C80.6696 94.5349 80.4959 94.1634 80.4665 93.7652C81.2051 93.7983 81.9426 93.6801 82.6339 93.4178C82.9565 93.2862 83.2571 93.106 83.5251 92.8833C83.7523 92.6936 83.9594 92.3395 84.2654 92.5867C84.5112 92.7844 84.6662 93.3416 84.8105 93.6236C84.998 93.9941 85.1549 94.3793 85.2795 94.7754Z" fill="#2F2E41"/>
<path d="M76.664 64.151C76.7228 64.6641 77.2199 65.0022 77.6942 65.2053L74.6918 66.1633C74.8855 65.7919 74.7292 65.3376 74.5368 64.9607C74.3801 64.6624 74.2014 64.3761 74.0023 64.1042C73.9729 64.0628 73.9395 64.0107 73.9609 63.9626C73.98 63.9312 74.0099 63.9079 74.0451 63.8971C74.6624 63.6219 75.2984 63.3373 75.9732 63.237C76.1683 63.209 76.5371 63.1315 76.6827 63.3292C76.8283 63.527 76.6359 63.9145 76.664 64.151Z" fill="#FBBEBE"/>
<path opacity="0.1" d="M76.664 64.151C76.7228 64.6641 77.2199 65.0022 77.6942 65.2053L74.6918 66.1633C74.8855 65.7919 74.7292 65.3376 74.5368 64.9607C74.3801 64.6624 74.2014 64.3761 74.0023 64.1042C73.9729 64.0628 73.9395 64.0107 73.9609 63.9626C73.98 63.9312 74.0099 63.9079 74.0451 63.8971C74.6624 63.6219 75.2984 63.3373 75.9732 63.237C76.1683 63.209 76.5371 63.1315 76.6827 63.3292C76.8283 63.527 76.6359 63.9145 76.664 64.151Z" fill="black"/>
<path d="M74.9188 64.5666C76.2191 64.5666 77.2732 63.5125 77.2732 62.2122C77.2732 60.9119 76.2191 59.8578 74.9188 59.8578C73.6186 59.8578 72.5645 60.9119 72.5645 62.2122C72.5645 63.5125 73.6186 64.5666 74.9188 64.5666Z" fill="#FBBEBE"/>
<path d="M72.8782 81.5871C73.1067 81.861 73.5089 81.9144 73.8603 81.8543C74.6821 81.7207 75.3542 81.1154 76.1586 80.8976C77.1447 80.6303 78.1883 80.9737 79.1196 81.3946C80.0509 81.8155 80.9769 82.33 81.9951 82.4021C81.0745 80.3497 81.6009 77.8804 80.7204 75.8107C80.5052 75.3043 80.2046 74.8165 80.1565 74.2687C80.0964 73.5886 80.4358 72.9325 80.4879 72.2564C80.536 71.6537 80.3543 71.0538 80.1805 70.4792C79.9659 69.7737 79.7512 69.0682 79.5365 68.3627C79.296 67.573 79.0488 66.7699 78.5825 66.0912C78.4101 65.8413 78.358 65.3349 78.0961 65.1839C77.5242 64.8538 76.657 65.2694 76.037 65.2921C75.417 65.3148 74.8518 65.7558 74.4897 66.2542C74.1062 66.7806 73.8884 67.4073 73.688 68.0273C73.3688 68.9505 73.1305 69.8996 72.9758 70.8641C72.9557 71.0084 72.9384 71.1527 72.925 71.2983C72.7914 72.6706 72.9865 74.0509 72.9972 75.4298V75.4392C73.0105 77.1883 72.7299 78.9267 72.6778 80.6744C72.6725 80.9938 72.6805 81.3425 72.8782 81.5871Z" fill="#2F2E41"/>
<path opacity="0.1" d="M73.001 75.4312C73.462 75.315 73.8789 75.017 74.237 74.691C74.5472 74.4134 74.8226 74.0993 75.0574 73.7557C75.3531 73.2936 75.5905 72.7968 75.7643 72.2765C76.259 70.885 76.5733 69.4359 76.6996 67.9646C76.7344 67.5637 76.7451 67.1334 76.5059 66.8154C76.3716 66.6431 76.183 66.5214 75.9707 66.47C75.7584 66.4185 75.535 66.4404 75.3367 66.5321C75.0214 66.6858 74.8169 66.9971 74.6272 67.2951C74.2517 67.8857 73.8736 68.4843 73.6317 69.1417C73.5248 69.433 73.446 69.7324 73.3418 70.025C73.2358 70.3136 73.1135 70.596 72.9756 70.8708C72.9556 71.0151 72.9382 71.1594 72.9249 71.3051C72.8006 72.6773 72.9903 74.0523 73.001 75.4312Z" fill="black"/>
<path d="M76.4994 66.5575C76.7386 66.8755 76.7279 67.3098 76.6945 67.7053C76.5685 69.1767 76.2541 70.6258 75.7592 72.0172C75.5868 72.5418 75.3494 73.0428 75.0523 73.5084C74.8171 73.8517 74.5417 74.1658 74.2319 74.4437C73.7776 74.8579 73.2244 75.2281 72.6084 75.2334C72.2617 75.2171 71.9202 75.1426 71.5983 75.0129L66.5808 73.3053C66.53 73.0193 66.7318 72.6853 66.8267 72.41L67.0939 71.6177C67.1701 71.3985 67.2583 71.162 67.4574 71.0431C67.6565 70.9242 67.9718 71.0872 68.1375 71.2195C68.3032 71.3518 68.4288 71.5255 68.5918 71.6604C68.9005 71.917 69.308 72.0132 69.7008 72.1014L70.8273 72.3539C71.2356 72.4657 71.6572 72.5219 72.0806 72.5209C72.3946 71.5615 72.9919 70.7171 73.33 69.7657C73.4342 69.4744 73.513 69.1738 73.6213 68.8825C73.8618 68.225 74.2413 67.6278 74.6167 67.0358C74.8051 66.7392 75.0096 66.4279 75.3263 66.2729C75.5251 66.18 75.7495 66.1576 75.9628 66.2094C76.176 66.2611 76.3653 66.3839 76.4994 66.5575Z" fill="#2F2E41"/>
<path d="M75.6698 62.744C75.652 62.5891 75.6039 62.4393 75.5282 62.303C75.4888 62.2348 75.4287 62.1809 75.3566 62.1492C75.2845 62.1175 75.2042 62.1096 75.1273 62.1266C74.8922 62.2001 74.8133 62.5636 74.5675 62.5756C74.4018 62.5836 74.2828 62.4153 74.2307 62.2576C74.1786 62.0999 74.1506 61.9195 74.0263 61.8086C73.9398 61.7439 73.8405 61.6984 73.735 61.675C73.1644 61.4946 72.5752 61.1619 72.3854 60.594C72.3408 60.4787 72.3301 60.3531 72.3547 60.2319C72.4416 59.8725 72.8892 59.7642 73.2299 59.6346C73.5706 59.505 73.898 59.2832 74.2321 59.1149C74.5661 58.9465 74.9536 58.8276 75.3211 58.9131C75.5075 58.9717 75.6908 59.04 75.8702 59.1175C76.4234 59.3099 77.1009 59.2204 77.5298 59.6199C77.7172 59.8181 77.8547 60.0581 77.9307 60.3201C78.23 61.1512 78.4197 62.1373 77.924 62.8669C77.618 63.3172 77.3214 63.8316 76.7334 63.8864C76.0493 63.9439 75.7781 63.3239 75.6698 62.744Z" fill="#2F2E41"/>
<g opacity="0.1">
<path opacity="0.1" d="M74.6249 61.9743C74.5728 61.8166 74.5448 61.6362 74.4218 61.5253C74.3353 61.4606 74.236 61.4151 74.1305 61.3917C73.5586 61.2113 72.9707 60.8786 72.7796 60.3107C72.7361 60.1952 72.7259 60.0697 72.7502 59.9486C72.7633 59.8915 72.7874 59.8375 72.8211 59.7896C72.6033 59.8845 72.4135 60.0101 72.3601 60.2319C72.3355 60.3531 72.3462 60.4787 72.3908 60.594C72.5805 61.1619 73.1698 61.4946 73.7404 61.675C73.8458 61.6984 73.9451 61.7439 74.0317 61.8086C74.1559 61.9195 74.1826 62.0986 74.2361 62.2576C74.2895 62.4166 74.4071 62.5836 74.5728 62.5756C74.7385 62.5676 74.8187 62.4166 74.9242 62.2897C74.7786 62.2709 74.673 62.1213 74.6249 61.9743Z" fill="black"/>
<path opacity="0.1" d="M77.1263 63.5991C76.4395 63.6619 76.1682 63.0366 76.0573 62.4607C76.0426 62.3063 75.9972 62.1563 75.9237 62.0197C75.8842 61.9517 75.8241 61.8979 75.752 61.8662C75.68 61.8345 75.5997 61.8265 75.5228 61.8434C75.4009 61.9025 75.2985 61.9952 75.2275 62.1106C75.2889 62.1165 75.348 62.1364 75.4004 62.1689C75.4528 62.2013 75.4969 62.2454 75.5295 62.2977C75.6052 62.4339 75.6533 62.5838 75.6712 62.7386C75.7794 63.3145 76.0506 63.9412 76.7401 63.8771C77.0126 63.847 77.2642 63.7165 77.4456 63.5109C77.3448 63.558 77.2369 63.5878 77.1263 63.5991Z" fill="black"/>
</g>
<path d="M104.648 88.4552C107.03 88.4552 108.962 88.0837 108.962 87.6254C108.962 87.1671 107.03 86.7956 104.648 86.7956C102.265 86.7956 100.333 87.1671 100.333 87.6254C100.333 88.0837 102.265 88.4552 104.648 88.4552Z" fill="#6C63FF"/>
<path d="M104.576 87.9301C104.853 87.9301 105.078 87.6357 105.078 87.2726C105.078 86.9096 104.853 86.6152 104.576 86.6152C104.298 86.6152 104.073 86.9096 104.073 87.2726C104.073 87.6357 104.298 87.9301 104.576 87.9301Z" fill="#3F3D56"/>
<path d="M104.576 87.1256C104.853 87.1256 105.078 86.8313 105.078 86.4682C105.078 86.1051 104.853 85.8108 104.576 85.8108C104.298 85.8108 104.073 86.1051 104.073 86.4682C104.073 86.8313 104.298 87.1256 104.576 87.1256Z" fill="#3F3D56"/>
<path d="M104.576 86.3226C104.853 86.3226 105.078 86.0282 105.078 85.6652C105.078 85.3021 104.853 85.0078 104.576 85.0078C104.298 85.0078 104.073 85.3021 104.073 85.6652C104.073 86.0282 104.298 86.3226 104.576 86.3226Z" fill="#3F3D56"/>
<path d="M104.576 85.5182C104.853 85.5182 105.078 85.2239 105.078 84.8608C105.078 84.4977 104.853 84.2034 104.576 84.2034C104.298 84.2034 104.073 84.4977 104.073 84.8608C104.073 85.2239 104.298 85.5182 104.576 85.5182Z" fill="#3F3D56"/>
<path d="M104.576 84.7138C104.853 84.7138 105.078 84.4195 105.078 84.0564C105.078 83.6933 104.853 83.399 104.576 83.399C104.298 83.399 104.073 83.6933 104.073 84.0564C104.073 84.4195 104.298 84.7138 104.576 84.7138Z" fill="#3F3D56"/>
<path d="M104.576 83.9108C104.853 83.9108 105.078 83.6164 105.078 83.2534C105.078 82.8903 104.853 82.5959 104.576 82.5959C104.298 82.5959 104.073 82.8903 104.073 83.2534C104.073 83.6164 104.298 83.9108 104.576 83.9108Z" fill="#3F3D56"/>
<path d="M104.576 83.1063C104.853 83.1063 105.078 82.812 105.078 82.4489C105.078 82.0858 104.853 81.7915 104.576 81.7915C104.298 81.7915 104.073 82.0858 104.073 82.4489C104.073 82.812 104.298 83.1063 104.576 83.1063Z" fill="#3F3D56"/>
<path d="M106.456 76.9532C106.524 76.8658 106.587 76.7738 106.643 76.6779L105.323 76.4614L106.751 76.4708C106.887 76.1726 106.962 75.8499 106.969 75.5221C106.977 75.1943 106.918 74.8684 106.796 74.564L104.88 75.5582L106.647 74.2594C106.481 73.9741 106.258 73.7259 105.992 73.5303C105.727 73.3348 105.424 73.196 105.102 73.1226C104.78 73.0492 104.447 73.0428 104.122 73.1038C103.798 73.1648 103.49 73.2919 103.217 73.4771C102.944 73.6623 102.712 73.9018 102.535 74.1805C102.359 74.4593 102.241 74.7714 102.19 75.0975C102.14 75.4235 102.157 75.7565 102.24 76.0758C102.323 76.395 102.472 76.6937 102.676 76.9532C102.568 77.0889 102.476 77.2358 102.4 77.3914L104.115 78.2827L102.287 77.6694C102.159 78.048 102.128 78.4525 102.196 78.8463C102.263 79.2401 102.428 79.6108 102.676 79.9249C102.397 80.2797 102.223 80.7058 102.175 81.1545C102.127 81.6032 102.207 82.0563 102.404 82.4621C102.601 82.868 102.909 83.2101 103.291 83.4495C103.674 83.6888 104.116 83.8158 104.567 83.8158C105.018 83.8158 105.46 83.6888 105.843 83.4495C106.225 83.2101 106.533 82.868 106.73 82.4621C106.927 82.0563 107.006 81.6032 106.958 81.1545C106.91 80.7058 106.737 80.2797 106.458 79.9249C106.792 79.5008 106.974 78.9767 106.974 78.437C106.974 77.8973 106.792 77.3732 106.458 76.9492L106.456 76.9532Z" fill="#6C63FF"/>
<path opacity="0.1" d="M102.157 78.4363C102.157 78.9768 102.34 79.5014 102.676 79.9248C102.397 80.2797 102.224 80.7058 102.176 81.1545C102.128 81.6031 102.207 82.0563 102.404 82.4621C102.601 82.8679 102.909 83.2101 103.291 83.4494C103.674 83.6888 104.116 83.8157 104.567 83.8157C105.018 83.8157 105.46 83.6888 105.843 83.4494C106.225 83.2101 106.533 82.8679 106.73 82.4621C106.927 82.0563 107.007 81.6031 106.959 81.1545C106.911 80.7058 106.737 80.2797 106.458 79.9248C106.778 79.5146 102.157 78.1664 102.157 78.4363Z" fill="black"/>
<path d="M15.8321 105C19.2629 105 22.0441 104.465 22.0441 103.805C22.0441 103.146 19.2629 102.611 15.8321 102.611C12.4013 102.611 9.62012 103.146 9.62012 103.805C9.62012 104.465 12.4013 105 15.8321 105Z" fill="#6C63FF"/>
<path d="M15.7278 104.245C16.127 104.245 16.4507 103.821 16.4507 103.298C16.4507 102.774 16.127 102.35 15.7278 102.35C15.3285 102.35 15.0049 102.774 15.0049 103.298C15.0049 103.821 15.3285 104.245 15.7278 104.245Z" fill="#3F3D56"/>
<path d="M15.7278 103.088C16.127 103.088 16.4507 102.664 16.4507 102.141C16.4507 101.617 16.127 101.193 15.7278 101.193C15.3285 101.193 15.0049 101.617 15.0049 102.141C15.0049 102.664 15.3285 103.088 15.7278 103.088Z" fill="#3F3D56"/>
<path d="M15.7278 101.931C16.127 101.931 16.4507 101.507 16.4507 100.983C16.4507 100.46 16.127 100.036 15.7278 100.036C15.3285 100.036 15.0049 100.46 15.0049 100.983C15.0049 101.507 15.3285 101.931 15.7278 101.931Z" fill="#3F3D56"/>
<path d="M15.7278 100.774C16.127 100.774 16.4507 100.349 16.4507 99.8262C16.4507 99.303 16.127 98.8788 15.7278 98.8788C15.3285 98.8788 15.0049 99.303 15.0049 99.8262C15.0049 100.349 15.3285 100.774 15.7278 100.774Z" fill="#3F3D56"/>
<path d="M15.7278 99.6165C16.127 99.6165 16.4507 99.1923 16.4507 98.6691C16.4507 98.1459 16.127 97.7217 15.7278 97.7217C15.3285 97.7217 15.0049 98.1459 15.0049 98.6691C15.0049 99.1923 15.3285 99.6165 15.7278 99.6165Z" fill="#3F3D56"/>
<path d="M15.7278 98.458C16.127 98.458 16.4507 98.0338 16.4507 97.5106C16.4507 96.9874 16.127 96.5632 15.7278 96.5632C15.3285 96.5632 15.0049 96.9874 15.0049 97.5106C15.0049 98.0338 15.3285 98.458 15.7278 98.458Z" fill="#3F3D56"/>
<path d="M15.7278 97.3008C16.127 97.3008 16.4507 96.8766 16.4507 96.3534C16.4507 95.8302 16.127 95.4061 15.7278 95.4061C15.3285 95.4061 15.0049 95.8302 15.0049 96.3534C15.0049 96.8766 15.3285 97.3008 15.7278 97.3008Z" fill="#3F3D56"/>
<path d="M18.435 88.4351C18.5328 88.3075 18.6221 88.1736 18.7023 88.0342L16.8022 87.7216L18.8573 87.7376C19.0542 87.3084 19.1616 86.8435 19.1729 86.3714C19.1841 85.8993 19.099 85.4298 18.9227 84.9917L16.1675 86.4268L18.7063 84.5561C18.4685 84.1436 18.1483 83.7846 17.7656 83.5013C17.383 83.2181 16.946 83.0167 16.4821 82.9099C16.0181 82.803 15.5371 82.7929 15.0691 82.8802C14.6011 82.9675 14.156 83.1503 13.7618 83.4173C13.3676 83.6842 13.0326 84.0295 12.7778 84.4317C12.5229 84.8338 12.3537 85.2842 12.2806 85.7546C12.2076 86.2251 12.2323 86.7056 12.3532 87.1661C12.4741 87.6266 12.6886 88.0572 12.9833 88.4311C12.8273 88.6262 12.6929 88.8377 12.5825 89.0618L15.0504 90.3445L12.4194 89.4613C12.235 90.0089 12.1905 90.5939 12.29 91.1631C12.3894 91.7323 12.6296 92.2676 12.9887 92.7203C12.5866 93.2314 12.3365 93.8452 12.267 94.4917C12.1974 95.1382 12.3111 95.7913 12.5952 96.3762C12.8793 96.9611 13.3222 97.4542 13.8734 97.7992C14.4245 98.1443 15.0616 98.3272 15.7118 98.3272C16.3621 98.3272 16.9992 98.1443 17.5503 97.7992C18.1015 97.4542 18.5444 96.9611 18.8285 96.3762C19.1125 95.7913 19.2263 95.1382 19.1567 94.4917C19.0871 93.8452 18.837 93.2314 18.435 92.7203C18.9155 92.1097 19.1768 91.3553 19.1768 90.5784C19.1768 89.8014 18.9155 89.047 18.435 88.4364V88.4351Z" fill="#6C63FF"/>
<path opacity="0.1" d="M12.2471 90.5824C12.2472 91.3581 12.5084 92.1112 12.9887 92.7203C12.5866 93.2314 12.3365 93.8452 12.267 94.4917C12.1974 95.1382 12.3111 95.7913 12.5952 96.3762C12.8793 96.9611 13.3222 97.4542 13.8734 97.7992C14.4245 98.1443 15.0616 98.3272 15.7118 98.3272C16.3621 98.3272 16.9992 98.1443 17.5503 97.7992C18.1015 97.4542 18.5444 96.9611 18.8285 96.3762C19.1125 95.7913 19.2263 95.1382 19.1567 94.4917C19.0871 93.8452 18.837 93.2314 18.435 92.7203C18.896 92.1297 12.2471 90.1882 12.2471 90.5824Z" fill="black"/>
</g>
<defs>
<linearGradient id="paint0_linear_209:117" x1="76.4237" y1="102.399" x2="74.6551" y2="58.5555" gradientUnits="userSpaceOnUse">
<stop stop-color="#808080" stop-opacity="0.25"/>
<stop offset="0.54" stop-color="#808080" stop-opacity="0.12"/>
<stop offset="1" stop-color="#808080" stop-opacity="0.1"/>
</linearGradient>
<clipPath id="clip0_209:117">
<rect width="123" height="105" fill="white"/>
</clipPath>
</defs>
</svg>
