<svg width="25" height="25" viewBox="0 0 25 25" fill="none" xmlns="http://www.w3.org/2000/svg">
<g clip-path="url(#clip0_445:2)">
<path d="M0.961254 24.9998C0.83471 25.0005 0.709265 24.9763 0.592113 24.9284C0.474962 24.8806 0.368408 24.8101 0.278562 24.7209C0.188439 24.6316 0.116906 24.5252 0.0680896 24.408C0.0192736 24.2909 -0.00585938 24.1652 -0.00585938 24.0383C-0.00585938 23.9113 0.0192736 23.7856 0.0680896 23.6685C0.116906 23.5513 0.188439 23.445 0.278562 23.3556L23.3555 0.27863C23.5365 0.0975689 23.7821 -0.00415039 24.0382 -0.00415039C24.2942 -0.00415039 24.5398 0.0975689 24.7209 0.27863C24.9019 0.459691 25.0037 0.705263 25.0037 0.961323C25.0037 1.21738 24.9019 1.46295 24.7209 1.64402L1.64395 24.7209C1.5541 24.8101 1.44755 24.8806 1.3304 24.9284C1.21324 24.9763 1.0878 25.0005 0.961254 24.9998Z" fill="#4F4F4F"/>
<path d="M24.0404 24.9998C23.9139 25.0005 23.7885 24.9763 23.6713 24.9284C23.5541 24.8806 23.4476 24.81 23.3578 24.7209L0.280827 1.64401C0.0997659 1.46295 -0.00195313 1.21738 -0.00195312 0.961322C-0.00195312 0.705263 0.0997659 0.459691 0.280827 0.27863C0.461888 0.0975686 0.70746 -0.00415039 0.96352 -0.00415039C1.21958 -0.00415039 1.46515 0.0975686 1.64621 0.27863L24.7231 23.3556C24.8133 23.4449 24.8848 23.5513 24.9336 23.6685C24.9824 23.7856 25.0076 23.9113 25.0076 24.0382C25.0076 24.1652 24.9824 24.2909 24.9336 24.408C24.8848 24.5252 24.8133 24.6315 24.7231 24.7209C24.6333 24.81 24.5267 24.8806 24.4096 24.9284C24.2924 24.9763 24.167 25.0005 24.0404 24.9998Z" fill="#4F4F4F"/>
</g>
<defs>
<clipPath id="clip0_445:2">
<rect width="25" height="25" fill="white"/>
</clipPath>
</defs>
</svg>
