<svg width="16" height="16" viewBox="0 0 16 16" fill="none" xmlns="http://www.w3.org/2000/svg">
<path d="M0.616023 16.0003C0.535034 16.0008 0.45475 15.9853 0.379773 15.9546C0.304796 15.924 0.236602 15.8789 0.1791 15.8219C0.121421 15.7647 0.0756399 15.6966 0.0443976 15.6216C0.0131554 15.5466 -0.00292969 15.4662 -0.00292969 15.3849C-0.00292969 15.3037 0.0131554 15.2233 0.0443976 15.1483C0.0756399 15.0733 0.121421 15.0052 0.1791 14.948L14.9483 0.178782C15.0642 0.062903 15.2214 -0.00219727 15.3853 -0.00219727C15.5491 -0.00219727 15.7063 0.062903 15.8222 0.178782C15.9381 0.294661 16.0032 0.451827 16.0032 0.615705C16.0032 0.779583 15.9381 0.936749 15.8222 1.05263L1.05295 15.8219C0.995445 15.8789 0.92725 15.924 0.852273 15.9546C0.777296 15.9853 0.697012 16.0008 0.616023 16.0003Z" fill="black"/>
<path d="M15.3857 16.0003C15.3047 16.0008 15.2244 15.9853 15.1494 15.9546C15.0744 15.924 15.0062 15.8789 14.9487 15.8219L0.179515 1.05263C0.0636353 0.936749 -0.00146484 0.779583 -0.00146484 0.615705C-0.00146484 0.451827 0.0636353 0.294661 0.179515 0.178782C0.295394 0.0629029 0.45256 -0.00219726 0.616438 -0.00219727C0.780316 -0.00219727 0.937481 0.0629029 1.05336 0.178782L15.8226 14.948C15.8803 15.0052 15.9261 15.0733 15.9573 15.1483C15.9885 15.2233 16.0046 15.3037 16.0046 15.3849C16.0046 15.4662 15.9885 15.5466 15.9573 15.6216C15.9261 15.6966 15.8803 15.7646 15.8226 15.8219C15.7651 15.8789 15.6969 15.924 15.6219 15.9546C15.5469 15.9853 15.4667 16.0008 15.3857 16.0003Z" fill="black"/>
</svg>
