<svg width="15" height="15" viewBox="0 0 15 15" fill="none" xmlns="http://www.w3.org/2000/svg">
<path d="M13.6377 6.92383H8.07617V1.3623C8.07617 1.04492 7.81738 0.786133 7.5 0.786133C7.18262 0.786133 6.92383 1.04492 6.92383 1.3623V6.92383H1.3623C1.04492 6.92383 0.786133 7.18262 0.786133 7.5C0.786133 7.81738 1.04492 8.07617 1.3623 8.07617H6.92383V13.6377C6.92383 13.9551 7.18262 14.2139 7.5 14.2139C7.81738 14.2139 8.07617 13.9551 8.07617 13.6377V8.07617H13.6377C13.9551 8.07617 14.2139 7.81738 14.2139 7.5C14.2139 7.18262 13.9551 6.92383 13.6377 6.92383Z" fill="white"/>
</svg>
