<svg width="19" height="17" viewBox="0 0 19 17" fill="none" xmlns="http://www.w3.org/2000/svg">
<path d="M13.3909 2.05729C11.9735 0.97703 10.2799 0.406097 8.49329 0.406097C4.03397 0.406097 0.406006 4.03407 0.406006 8.49339C0.406006 12.9527 4.03397 16.5807 8.49329 16.5807C10.6535 16.5807 12.6844 15.7395 14.2118 14.212C14.4104 14.0134 14.4104 13.6914 14.2118 13.4929C14.0133 13.2943 13.6913 13.2943 13.4928 13.4929C12.1574 14.8283 10.3818 15.5637 8.49329 15.5637C4.59473 15.5637 1.42295 12.392 1.42295 8.49339C1.42295 4.59474 4.59465 1.42305 8.49329 1.42305C11.6199 1.42305 14.4122 3.51754 15.2836 6.51661C15.3619 6.78627 15.644 6.94127 15.9138 6.86297C16.1835 6.78458 16.3385 6.50246 16.2601 6.2328C15.7815 4.58542 14.7625 3.10246 13.3909 2.05729Z" fill="white"/>
<path d="M14.4553 6.95439C14.2567 6.75583 13.9347 6.75583 13.7363 6.95439C13.5377 7.15294 13.5377 7.47489 13.7363 7.67345L15.649 9.58625C15.7443 9.68159 15.8736 9.73515 16.0085 9.73515C16.1435 9.73515 16.2728 9.68159 16.3681 9.58625L18.2808 7.67345C18.4794 7.47489 18.4794 7.15294 18.2808 6.95439C18.0822 6.75583 17.7602 6.75583 17.5618 6.95439L16.0085 8.50761L14.4553 6.95439Z" fill="white"/>
</svg>
