<svg width="21" height="20" viewBox="0 0 21 20" fill="none" xmlns="http://www.w3.org/2000/svg">
<path d="M20.4906 8.70276L15.2607 12.4923L17.3036 18.621C17.3701 18.8272 17.3692 19.0491 17.3013 19.2547C17.2334 19.4603 17.1019 19.6391 16.9257 19.7651C16.7517 19.8906 16.5427 19.9581 16.3282 19.9581C16.1137 19.9581 15.9046 19.8906 15.7306 19.7651L10.4599 15.9857L5.2301 19.7855C5.05613 19.911 4.84706 19.9785 4.63256 19.9785C4.41805 19.9785 4.20898 19.911 4.03501 19.7855C3.85887 19.6595 3.72734 19.4808 3.6594 19.2751C3.59147 19.0695 3.59065 18.8476 3.65707 18.6415L5.69997 12.5128L0.429286 8.70276C0.254189 8.57599 0.123822 8.39694 0.0569459 8.19138C-0.00992973 7.98582 -0.00986582 7.76434 0.0571286 7.55881C0.124123 7.35329 0.254593 7.17431 0.429765 7.04765C0.604936 6.92099 0.815775 6.85316 1.03194 6.85393H7.48751L9.53041 0.725231C9.59758 0.520871 9.72755 0.342933 9.9018 0.216788C10.076 0.0906421 10.2857 0.022728 10.5008 0.022728C10.7159 0.022728 10.9255 0.0906421 11.0998 0.216788C11.274 0.342933 11.404 0.520871 11.4712 0.725231L13.5141 6.85393H19.9696C20.1858 6.85316 20.3966 6.92099 20.5718 7.04765C20.747 7.17431 20.8775 7.35329 20.9445 7.55881C21.0114 7.76434 21.0115 7.98582 20.9446 8.19138C20.8778 8.39694 20.7474 8.57599 20.5723 8.70276H20.4906Z" fill="#F2C94C"/>
</svg>
