<svg width="25" height="25" viewBox="0 0 25 25" fill="none" xmlns="http://www.w3.org/2000/svg">
<path d="M12.5 25C19.4036 25 25 19.4036 25 12.5C25 5.59644 19.4036 0 12.5 0C5.59644 0 0 5.59644 0 12.5C0 19.4036 5.59644 25 12.5 25Z" fill="black"/>
<path d="M17.96 6.26C18.39 6.26 18.74 6.60996 18.74 7.04V17.96C18.74 18.39 18.39 18.74 17.96 18.74H7.04C6.60996 18.74 6.26 18.39 6.26 17.96V7.04C6.26 6.60996 6.60996 6.26 7.04 6.26H9.3241C9.59242 6.26 9.81485 6.46137 9.8415 6.72826L9.8896 7.20874C9.90962 7.40894 10.0764 7.56 10.2776 7.56H14.7224C14.9236 7.56 15.0904 7.40907 15.1104 7.20887L15.1585 6.72826C15.1851 6.46137 15.4076 6.26 15.6759 6.26H17.96ZM17.96 6H15.6759C15.2751 6 14.9397 6.30368 14.8998 6.70239L14.8517 7.183C14.8451 7.24943 14.7892 7.3 14.7224 7.3H10.2776C10.2108 7.3 10.1549 7.24943 10.1483 7.18287L10.1002 6.70239C10.0604 6.30368 9.72489 6 9.3241 6H7.04C6.46566 6 6 6.46566 6 7.04V17.96C6 18.5343 6.46566 19 7.04 19H17.96C18.5343 19 19 18.5343 19 17.96V7.04C19 6.46566 18.5343 6 17.96 6Z" fill="white"/>
<path d="M17.18 8.60003C17.4668 8.60003 17.7 8.83325 17.7 9.12003V17.44C17.7 17.7268 17.4668 17.96 17.18 17.96H7.82C7.53322 17.96 7.3 17.7268 7.3 17.44V9.12003C7.3 8.83325 7.53322 8.60003 7.82 8.60003H17.18ZM17.18 8.34003H7.82C7.38918 8.34003 7.04 8.68921 7.04 9.12003V17.44C7.04 17.8708 7.38918 18.22 7.82 18.22H17.18C17.6108 18.22 17.96 17.8708 17.96 17.44V9.12003C17.96 8.68921 17.6108 8.34003 17.18 8.34003Z" fill="white"/>
<path d="M9.12 10.68C9.26359 10.68 9.38 10.5636 9.38 10.42C9.38 10.2764 9.26359 10.16 9.12 10.16C8.97641 10.16 8.86 10.2764 8.86 10.42C8.86 10.5636 8.97641 10.68 9.12 10.68Z" fill="white"/>
<path d="M10.2467 10.68C10.3903 10.68 10.5067 10.5636 10.5067 10.42C10.5067 10.2764 10.3903 10.16 10.2467 10.16C10.1031 10.16 9.98672 10.2764 9.98672 10.42C9.98672 10.5636 10.1031 10.68 10.2467 10.68Z" fill="white"/>
<path d="M11.3733 10.68C11.5169 10.68 11.6333 10.5636 11.6333 10.42C11.6333 10.2764 11.5169 10.16 11.3733 10.16C11.2297 10.16 11.1133 10.2764 11.1133 10.42C11.1133 10.5636 11.2297 10.68 11.3733 10.68Z" fill="white"/>
<path d="M12.5 10.68C12.6436 10.68 12.76 10.5636 12.76 10.42C12.76 10.2764 12.6436 10.16 12.5 10.16C12.3564 10.16 12.24 10.2764 12.24 10.42C12.24 10.5636 12.3564 10.68 12.5 10.68Z" fill="white"/>
<path d="M13.6267 10.68C13.7703 10.68 13.8867 10.5636 13.8867 10.42C13.8867 10.2764 13.7703 10.16 13.6267 10.16C13.4831 10.16 13.3667 10.2764 13.3667 10.42C13.3667 10.5636 13.4831 10.68 13.6267 10.68Z" fill="white"/>
<path d="M14.7533 10.68C14.8969 10.68 15.0133 10.5636 15.0133 10.42C15.0133 10.2764 14.8969 10.16 14.7533 10.16C14.6097 10.16 14.4933 10.2764 14.4933 10.42C14.4933 10.5636 14.6097 10.68 14.7533 10.68Z" fill="white"/>
<path d="M15.88 10.68C16.0236 10.68 16.14 10.5636 16.14 10.42C16.14 10.2764 16.0236 10.16 15.88 10.16C15.7364 10.16 15.62 10.2764 15.62 10.42C15.62 10.5636 15.7364 10.68 15.88 10.68Z" fill="white"/>
<path d="M9.12 12.11C9.26359 12.11 9.38 11.9936 9.38 11.85C9.38 11.7064 9.26359 11.59 9.12 11.59C8.97641 11.59 8.86 11.7064 8.86 11.85C8.86 11.9936 8.97641 12.11 9.12 12.11Z" fill="white"/>
<path d="M10.2467 12.11C10.3903 12.11 10.5067 11.9936 10.5067 11.85C10.5067 11.7064 10.3903 11.59 10.2467 11.59C10.1031 11.59 9.98672 11.7064 9.98672 11.85C9.98672 11.9936 10.1031 12.11 10.2467 12.11Z" fill="white"/>
<path d="M11.3733 12.11C11.5169 12.11 11.6333 11.9936 11.6333 11.85C11.6333 11.7064 11.5169 11.59 11.3733 11.59C11.2297 11.59 11.1133 11.7064 11.1133 11.85C11.1133 11.9936 11.2297 12.11 11.3733 12.11Z" fill="white"/>
<path d="M12.5 12.11C12.6436 12.11 12.76 11.9936 12.76 11.85C12.76 11.7064 12.6436 11.59 12.5 11.59C12.3564 11.59 12.24 11.7064 12.24 11.85C12.24 11.9936 12.3564 12.11 12.5 12.11Z" fill="white"/>
<path d="M13.6267 12.11C13.7703 12.11 13.8867 11.9936 13.8867 11.85C13.8867 11.7064 13.7703 11.59 13.6267 11.59C13.4831 11.59 13.3667 11.7064 13.3667 11.85C13.3667 11.9936 13.4831 12.11 13.6267 12.11Z" fill="white"/>
<path d="M14.7533 12.11C14.8969 12.11 15.0133 11.9936 15.0133 11.85C15.0133 11.7064 14.8969 11.59 14.7533 11.59C14.6097 11.59 14.4933 11.7064 14.4933 11.85C14.4933 11.9936 14.6097 12.11 14.7533 12.11Z" fill="white"/>
<path d="M15.88 12.11C16.0236 12.11 16.14 11.9936 16.14 11.85C16.14 11.7064 16.0236 11.59 15.88 11.59C15.7364 11.59 15.62 11.7064 15.62 11.85C15.62 11.9936 15.7364 12.11 15.88 12.11Z" fill="white"/>
<path d="M9.12 13.54C9.26359 13.54 9.38 13.4236 9.38 13.28C9.38 13.1364 9.26359 13.02 9.12 13.02C8.97641 13.02 8.86 13.1364 8.86 13.28C8.86 13.4236 8.97641 13.54 9.12 13.54Z" fill="white"/>
<path d="M10.2467 13.54C10.3903 13.54 10.5067 13.4236 10.5067 13.28C10.5067 13.1364 10.3903 13.02 10.2467 13.02C10.1031 13.02 9.98672 13.1364 9.98672 13.28C9.98672 13.4236 10.1031 13.54 10.2467 13.54Z" fill="white"/>
<path d="M11.3733 13.54C11.5169 13.54 11.6333 13.4236 11.6333 13.28C11.6333 13.1364 11.5169 13.02 11.3733 13.02C11.2297 13.02 11.1133 13.1364 11.1133 13.28C11.1133 13.4236 11.2297 13.54 11.3733 13.54Z" fill="white"/>
<path d="M12.5 13.54C12.6436 13.54 12.76 13.4236 12.76 13.28C12.76 13.1364 12.6436 13.02 12.5 13.02C12.3564 13.02 12.24 13.1364 12.24 13.28C12.24 13.4236 12.3564 13.54 12.5 13.54Z" fill="white"/>
<path d="M13.6267 13.54C13.7703 13.54 13.8867 13.4236 13.8867 13.28C13.8867 13.1364 13.7703 13.02 13.6267 13.02C13.4831 13.02 13.3667 13.1364 13.3667 13.28C13.3667 13.4236 13.4831 13.54 13.6267 13.54Z" fill="white"/>
<path d="M14.7533 13.54C14.8969 13.54 15.0133 13.4236 15.0133 13.28C15.0133 13.1364 14.8969 13.02 14.7533 13.02C14.6097 13.02 14.4933 13.1364 14.4933 13.28C14.4933 13.4236 14.6097 13.54 14.7533 13.54Z" fill="white"/>
<path d="M15.88 13.54C16.0236 13.54 16.14 13.4236 16.14 13.28C16.14 13.1364 16.0236 13.02 15.88 13.02C15.7364 13.02 15.62 13.1364 15.62 13.28C15.62 13.4236 15.7364 13.54 15.88 13.54Z" fill="white"/>
<path d="M9.12 14.97C9.26359 14.97 9.38 14.8536 9.38 14.71C9.38 14.5664 9.26359 14.45 9.12 14.45C8.97641 14.45 8.86 14.5664 8.86 14.71C8.86 14.8536 8.97641 14.97 9.12 14.97Z" fill="white"/>
<path d="M10.2467 14.97C10.3903 14.97 10.5067 14.8536 10.5067 14.71C10.5067 14.5664 10.3903 14.45 10.2467 14.45C10.1031 14.45 9.98672 14.5664 9.98672 14.71C9.98672 14.8536 10.1031 14.97 10.2467 14.97Z" fill="white"/>
<path d="M9.12 16.4C9.26359 16.4 9.38 16.2836 9.38 16.14C9.38 15.9964 9.26359 15.88 9.12 15.88C8.97641 15.88 8.86 15.9964 8.86 16.14C8.86 16.2836 8.97641 16.4 9.12 16.4Z" fill="white"/>
<path d="M10.2467 16.4C10.3903 16.4 10.5067 16.2836 10.5067 16.14C10.5067 15.9964 10.3903 15.88 10.2467 15.88C10.1031 15.88 9.98672 15.9964 9.98672 16.14C9.98672 16.2836 10.1031 16.4 10.2467 16.4Z" fill="white"/>
<path d="M11.3733 14.97C11.5169 14.97 11.6333 14.8536 11.6333 14.71C11.6333 14.5664 11.5169 14.45 11.3733 14.45C11.2297 14.45 11.1133 14.5664 11.1133 14.71C11.1133 14.8536 11.2297 14.97 11.3733 14.97Z" fill="white"/>
<path d="M12.5 14.97C12.6436 14.97 12.76 14.8536 12.76 14.71C12.76 14.5664 12.6436 14.45 12.5 14.45C12.3564 14.45 12.24 14.5664 12.24 14.71C12.24 14.8536 12.3564 14.97 12.5 14.97Z" fill="white"/>
<path d="M13.6267 14.97C13.7703 14.97 13.8867 14.8536 13.8867 14.71C13.8867 14.5664 13.7703 14.45 13.6267 14.45C13.4831 14.45 13.3667 14.5664 13.3667 14.71C13.3667 14.8536 13.4831 14.97 13.6267 14.97Z" fill="white"/>
<path d="M14.7533 14.97C14.8969 14.97 15.0133 14.8536 15.0133 14.71C15.0133 14.5664 14.8969 14.45 14.7533 14.45C14.6097 14.45 14.4933 14.5664 14.4933 14.71C14.4933 14.8536 14.6097 14.97 14.7533 14.97Z" fill="white"/>
<path d="M15.88 14.97C16.0236 14.97 16.14 14.8536 16.14 14.71C16.14 14.5664 16.0236 14.45 15.88 14.45C15.7364 14.45 15.62 14.5664 15.62 14.71C15.62 14.8536 15.7364 14.97 15.88 14.97Z" fill="white"/>
</svg>
