<svg width="15" height="15" viewBox="0 0 15 15" fill="none" xmlns="http://www.w3.org/2000/svg">
<g clip-path="url(#clip0_167:553)">
<path d="M7.49986 15C5.58965 14.9987 3.75191 14.2686 2.36162 12.9587C0.971336 11.6487 0.13328 9.8576 0.0184553 7.95084C-0.0963696 6.04409 0.520691 4.16537 1.74373 2.69803C2.96677 1.23069 4.70361 0.285323 6.59986 0.0548161C7.75316 -0.0880399 8.92388 0.0413821 10.0181 0.432701C10.0895 0.458271 10.1552 0.497655 10.2114 0.548604C10.2676 0.599554 10.3132 0.661071 10.3456 0.729643C10.378 0.798216 10.3966 0.872501 10.4003 0.948257C10.404 1.02401 10.3927 1.09976 10.3672 1.17116C10.3416 1.24257 10.3022 1.30824 10.2513 1.36442C10.2003 1.42061 10.1388 1.46621 10.0702 1.49862C10.0017 1.53103 9.92737 1.54962 9.85161 1.55332C9.77586 1.55703 9.70011 1.54577 9.62871 1.5202C8.21121 1.01585 6.66063 1.03152 5.25361 1.56442C3.8466 2.09732 2.67468 3.11278 1.94695 4.42963C1.21922 5.74647 0.983021 7.27904 1.28049 8.75389C1.57796 10.2287 2.38974 11.5499 3.57101 12.4817C4.5596 13.2569 5.75601 13.7212 7.00868 13.8158C8.26136 13.9105 9.51395 13.6312 10.6078 13.0134C11.7016 12.3956 12.5875 11.467 13.1532 10.3454C13.7188 9.22368 13.9389 7.95935 13.7854 6.71251C13.7763 6.63675 13.7823 6.55993 13.8029 6.48646C13.8235 6.41299 13.8583 6.34429 13.9055 6.28429C13.9526 6.22428 14.0111 6.17416 14.0776 6.13676C14.1441 6.09937 14.2174 6.07545 14.2931 6.06635C14.3689 6.05726 14.4457 6.06318 14.5192 6.08378C14.5927 6.10437 14.6614 6.13923 14.7214 6.18638C14.7814 6.23352 14.8315 6.29202 14.8689 6.35854C14.9063 6.42505 14.9302 6.49828 14.9393 6.57405C15.0705 7.62873 14.9761 8.69926 14.6622 9.71469C14.3484 10.7301 13.8223 11.6672 13.1189 12.464C12.4154 13.2607 11.5507 13.8988 10.582 14.336C9.61326 14.7732 8.56268 14.9996 7.49986 15Z" fill="black"/>
<path d="M7.49977 12.6519C7.34676 12.6519 7.20002 12.5911 7.09183 12.483C6.98363 12.3748 6.92285 12.228 6.92285 12.075V6.53655C6.92285 6.38354 6.98363 6.2368 7.09183 6.1286C7.20002 6.02041 7.34676 5.95963 7.49977 5.95963C7.65278 5.95963 7.79953 6.02041 7.90772 6.1286C8.01591 6.2368 8.0767 6.38354 8.0767 6.53655V12.075C8.0767 12.228 8.01591 12.3748 7.90772 12.483C7.79953 12.5911 7.65278 12.6519 7.49977 12.6519Z" fill="black"/>
<path d="M7.50014 5.27307C7.90957 5.27307 8.24148 4.94115 8.24148 4.53172C8.24148 4.12229 7.90957 3.79037 7.50014 3.79037C7.0907 3.79037 6.75879 4.12229 6.75879 4.53172C6.75879 4.94115 7.0907 5.27307 7.50014 5.27307Z" fill="black"/>
</g>
<defs>
<clipPath id="clip0_167:553">
<rect width="15" height="15" fill="white"/>
</clipPath>
</defs>
</svg>
