<svg width="15" height="15" viewBox="0 0 15 15" fill="none" xmlns="http://www.w3.org/2000/svg">
<g clip-path="url(#clip0_137:281)">
<path fill-rule="evenodd" clip-rule="evenodd" d="M13.75 12.5C13.8883 12.5 14 12.388 14 12.25V3.25C14 3.112 13.8883 3 13.75 3C13.6118 3 13.5 3.112 13.5 3.25V12.25C13.5 12.388 13.6118 12.5 13.75 12.5ZM14.5 13.75V13.5H13.75C13.6118 13.5 13.5 13.388 13.5 13.25C13.5 13.112 13.6118 13 13.75 13H14.5V2.5H13.75C13.6118 2.5 13.5 2.388 13.5 2.25C13.5 2.112 13.6118 2 13.75 2H14.3455L13.75 0.809L13 2.309V13.75C13 14.1635 13.3365 14.5 13.75 14.5C14.1635 14.5 14.5 14.1635 14.5 13.75ZM15.005 2.25C15.005 2.267 15.0033 2.28375 15 2.3V13.75C15 14.4392 14.4393 15 13.75 15C13.0608 15 12.5 14.4392 12.5 13.75V2.25C12.5 2.21125 12.509 2.17275 12.5263 2.13825L13.5263 0.13825C13.6113 -0.03125 13.8888 -0.03125 13.9738 0.13825L14.9535 2.098C14.9858 2.14025 15.005 2.19275 15.005 2.25ZM7.75 7.5H5.25C5.11175 7.5 5 7.612 5 7.75C5 7.888 5.11175 8 5.25 8H7.75C7.88825 8 8 7.888 8 7.75C8 7.612 7.88825 7.5 7.75 7.5ZM5.25 7H6.75C6.88825 7 7 6.888 7 6.75C7 6.612 6.88825 6.5 6.75 6.5H5.25C5.11175 6.5 5 6.612 5 6.75C5 6.888 5.11175 7 5.25 7ZM4 9H9V5.5H4V9ZM3.5 9.25V5.25C3.5 5.112 3.61175 5 3.75 5H9.25C9.38825 5 9.5 5.112 9.5 5.25V9.25C9.5 9.388 9.38825 9.5 9.25 9.5H3.75C3.61175 9.5 3.5 9.388 3.5 9.25ZM0.5 2.27175V13.75C0.5 14.1495 0.8505 14.5 1.25 14.5H10.75C11.1495 14.5 11.5 14.1495 11.5 13.75V2.5H1.25C1.04425 2.5 0.75075 2.44075 0.5 2.27175ZM11.75 0.5H1C0.72425 0.5 0.5 0.72425 0.5 1V1.25C0.5 1.95575 1.126 1.9985 1.2515 2H11.75C11.8883 2 12 2.112 12 2.25V13.75C12 14.4275 11.4275 15 10.75 15H1.25C0.5725 15 0 14.4275 0 13.75V1C0 0.4485 0.4485 0 1 0H11.75C11.8883 0 12 0.112 12 0.25C12 0.388 11.8883 0.5 11.75 0.5ZM1.25 14C1.38825 14 1.5 13.888 1.5 13.75V3.25C1.5 3.112 1.38825 3 1.25 3C1.11175 3 1 3.112 1 3.25V13.75C1 13.888 1.11175 14 1.25 14ZM11.25 1C11.3883 1 11.5 1.112 11.5 1.25C11.5 1.388 11.3883 1.5 11.25 1.5H1.25C1.11175 1.5 1 1.388 1 1.25C1 1.112 1.11175 1 1.25 1H11.25Z" fill="black"/>
</g>
<defs>
<clipPath id="clip0_137:281">
<rect width="15" height="15" fill="white"/>
</clipPath>
</defs>
</svg>
