<svg width="15" height="15" viewBox="0 0 15 15" fill="none" xmlns="http://www.w3.org/2000/svg">
<g clip-path="url(#clip0_137:304)">
<path d="M13.6125 2.625H7.3875C7.05 2.625 6.75 2.3625 6.75 1.9875V1.3875C6.75 0.6375 6.1125 0 5.3625 0H1.3875C0.6375 0 0 0.6 0 1.3875V13.65C0 14.4 0.6375 15.0375 1.3875 15.0375H13.65C14.4 15.0375 15.0375 14.4375 15.0375 13.65V4.0125C15 3.225 14.3625 2.625 13.6125 2.625ZM14.25 4.9875H1.875C1.6875 4.9875 1.5 5.1375 1.5 5.3625C1.5 5.5875 1.6875 5.7375 1.875 5.7375H14.25V13.6125C14.25 13.95 13.95 14.25 13.6125 14.25H1.3875C1.05 14.25 0.75 13.9875 0.75 13.6125V1.3875C0.75 1.0125 1.05 0.75 1.3875 0.75H5.4C5.7375 0.75 6 1.0125 6 1.3875V2.025C6 2.775 6.6375 3.4125 7.3875 3.4125H13.65C13.9875 3.4125 14.2875 3.7125 14.2875 4.05V4.9875H14.25Z" fill="#010202"/>
<path d="M13.05 10.5H10.5C10.275 10.5 10.125 10.35 10.125 10.125C10.125 9.9 10.275 9.75 10.5 9.75H13.05C13.275 9.75 13.425 9.9 13.425 10.125C13.425 10.35 13.2375 10.5 13.05 10.5Z" fill="#010202"/>
<path d="M13.05 12H10.5C10.275 12 10.125 11.85 10.125 11.625C10.125 11.4 10.275 11.25 10.5 11.25H13.05C13.275 11.25 13.425 11.4 13.425 11.625C13.425 11.85 13.2375 12 13.05 12Z" fill="#010202"/>
</g>
<defs>
<clipPath id="clip0_137:304">
<rect width="15" height="15" fill="white"/>
</clipPath>
</defs>
</svg>
