<svg width="16" height="15" viewBox="0 0 16 15" fill="none" xmlns="http://www.w3.org/2000/svg">
<g clip-path="url(#clip0_126:26)">
<path d="M13.6957 15.0001H9.13046V10.761H6.52176V15.0001H1.95654V8.15232C1.95654 7.97232 2.1023 7.82623 2.28263 7.82623C2.46296 7.82623 2.60872 7.97232 2.60872 8.15232V14.348H5.86959V10.1088H9.78263V14.348H13.0435V8.47841C13.0435 8.29841 13.1893 8.15232 13.3696 8.15232C13.5499 8.15232 13.6957 8.29841 13.6957 8.47841V15.0001Z" fill="black"/>
<path d="M15.3262 8.15223C15.245 8.15223 15.1641 8.12223 15.1008 8.0619L7.82617 1.10354L0.551496 8.0619C0.421387 8.18614 0.214974 8.1819 0.090409 8.0518C-0.0341562 7.92169 -0.0292649 7.71527 0.100518 7.59071L7.82617 0.200928L15.5515 7.59038C15.6813 7.71495 15.6862 7.92136 15.5616 8.05147C15.4977 8.11832 15.4123 8.15223 15.3262 8.15223Z" fill="black"/>
<path d="M12.7176 4.23929C12.5373 4.23929 12.3915 4.0932 12.3915 3.9132V1.95668H10.435C10.2546 1.95668 10.1089 1.81059 10.1089 1.63059C10.1089 1.45059 10.2546 1.3045 10.435 1.3045H13.0437V3.9132C13.0437 4.0932 12.8979 4.23929 12.7176 4.23929Z" fill="black"/>
</g>
<defs>
<clipPath id="clip0_126:26">
<rect width="15.6522" height="15" fill="white"/>
</clipPath>
</defs>
</svg>
