<svg width="16" height="15" viewBox="0 0 16 15" fill="none" xmlns="http://www.w3.org/2000/svg">
<g clip-path="url(#clip0_137:260)">
<path d="M14.9832 9.10227L13.7218 8.25V5.69318L14.9832 4.85795C15.0514 4.80682 15.1025 4.73864 15.1025 4.65341C15.1025 4.56818 15.0514 4.48295 14.9832 4.44886L8.48886 0.0852273C8.40363 0.0340909 8.28431 0.0340909 8.19908 0.0852273L0.187722 5.4375C0.153631 5.45455 0.136586 5.47159 0.11954 5.50568C0.11954 5.50568 0.11954 5.50568 0.11954 5.52273C0.0854492 5.57386 0.0854492 5.60795 0.0854492 5.65909V10.3466C0.0854492 10.4318 0.136586 10.517 0.204767 10.5511L6.69908 14.8807C6.75022 14.9148 6.78431 14.9318 6.83545 14.9318C6.88658 14.9318 6.93772 14.9148 6.97181 14.8807L15.0002 9.52841C15.0684 9.47727 15.1195 9.40909 15.1195 9.32386C15.1025 9.22159 15.0514 9.13636 14.9832 9.10227ZM8.35249 0.613636L14.3866 4.63636L13.3979 5.28409C13.3468 5.30114 13.2957 5.33523 13.2616 5.36932L6.8184 9.66477L1.97749 6.44318C1.96045 6.42614 1.9434 6.42613 1.9434 6.40909L0.784313 5.64204L8.35249 0.613636ZM2.06272 7.125L6.66499 10.1932C6.75022 10.2443 6.86954 10.2443 6.95477 10.1932L13.2104 6.01704V8.11363L6.85249 12.3068L2.06272 9.23864V7.125ZM6.8184 14.3523L0.579767 10.1932V6.13636L1.5684 6.78409V9.375C1.5684 9.46023 1.61954 9.54545 1.68772 9.59659L6.73318 12.8352C6.76727 12.8693 6.8184 12.8693 6.86954 12.8693C6.92068 12.8693 6.97181 12.8523 7.0059 12.8352L13.3809 8.64204L14.3866 9.32386L6.8184 14.3523Z" fill="black"/>
<path d="M7.24443 2.94887L10.2785 5.02841C10.3297 5.0625 10.3808 5.07955 10.4149 5.07955C10.5001 5.07955 10.5683 5.04546 10.6194 4.96023C10.7047 4.84091 10.6706 4.6875 10.5513 4.60228L7.5342 2.52273C7.41489 2.4375 7.26148 2.47159 7.17625 2.59091C7.09102 2.71023 7.12511 2.86364 7.24443 2.94887Z" fill="black"/>
</g>
<defs>
<clipPath id="clip0_137:260">
<rect width="15.1705" height="15" fill="white"/>
</clipPath>
</defs>
</svg>
