<svg width="20" height="20" viewBox="0 0 20 20" fill="none" xmlns="http://www.w3.org/2000/svg">
<path d="M0 5.69776L0 18.9656C0 19.4416 0.385557 19.8271 0.861581 19.8271H4.39406C4.87009 19.8271 5.25564 19.4416 5.25564 18.9656L5.25564 5.69776C5.25564 5.22174 4.87009 4.83618 4.39406 4.83618H0.861581C0.386096 4.83618 0 5.22174 0 5.69776ZM3.53302 6.55934L3.53302 18.104H1.7237L1.7237 6.55934H3.53302Z" fill="black"/>
<path d="M7.38794 0.862059L7.38794 14.1293C7.38794 14.6053 7.7735 14.9909 8.24952 14.9909H11.782C12.258 14.9909 12.6436 14.6053 12.6436 14.1293L12.6436 0.86152C12.6436 0.385496 12.258 -6.10352e-05 11.782 -6.10352e-05H8.24952C7.7735 0.000476837 7.38794 0.386035 7.38794 0.862059ZM10.9204 1.72364L10.9204 13.2677H9.11109L9.11109 1.7231H10.9204V1.72364Z" fill="black"/>
<path d="M20 18.9385V5.67072C20 5.1947 19.6145 4.80914 19.1384 4.80914H15.606C15.1299 4.80914 14.7444 5.1947 14.7444 5.67072L14.7444 18.9385C14.7444 19.4146 15.1299 19.8001 15.606 19.8001H19.1384C19.6139 19.8001 20 19.4146 20 18.9385ZM16.467 18.0769L16.467 6.53231H18.2763L18.2763 18.0769H16.467Z" fill="black"/>
</svg>
