<svg width="15" height="15" viewBox="0 0 15 15" fill="none" xmlns="http://www.w3.org/2000/svg">
<path d="M10.5802 0L0.645161 0C0.28871 0 0 0.28871 0 0.645161L0 3.29032C0 3.64677 0.28871 3.93548 0.645161 3.93548H10.5802C10.9367 3.93548 11.2254 3.64677 11.2254 3.29032V0.645161C11.2254 0.289113 10.9367 0 10.5802 0ZM9.93508 2.64556H1.29032V1.29073H9.93508V2.64556Z" fill="#333333"/>
<path d="M14.2014 5.53226H4.26674C3.91029 5.53226 3.62158 5.82097 3.62158 6.17742V8.82257C3.62158 9.17902 3.91029 9.46773 4.26674 9.46773H14.2018C14.5583 9.46773 14.847 9.17902 14.847 8.82257V6.17742C14.8466 5.82097 14.5579 5.53226 14.2014 5.53226ZM13.5563 8.17741H4.9119V6.82257H13.5567V8.17741H13.5563Z" fill="#333333"/>
<path d="M0.665669 14.9762H10.6007C10.9572 14.9762 11.2459 14.6875 11.2459 14.3311V11.6859C11.2459 11.3295 10.9572 11.0407 10.6007 11.0407H0.665669C0.309217 11.0407 0.0205078 11.3295 0.0205078 11.6859V14.3311C0.0205078 14.6871 0.309217 14.9762 0.665669 14.9762ZM1.31083 12.3307H9.95559V13.6855H1.31083V12.3307Z" fill="#333333"/>
</svg>
