<svg width="15" height="15" viewBox="0 0 15 15" fill="none" xmlns="http://www.w3.org/2000/svg">
<g clip-path="url(#clip0_137:322)">
<path d="M7.53125 15C3.40625 15 0.0625 11.6562 0.0625 7.53125C0.0625 3.40625 3.40625 0.0625 7.53125 0.0625C11.6563 0.0625 15 3.40625 15 7.53125C15 11.6562 11.6563 15 7.53125 15ZM7.53125 0.874992C3.875 0.874992 0.875002 3.875 0.875002 7.53125C0.875002 11.1875 3.875 14.1875 7.53125 14.1875C11.1875 14.1875 14.1875 11.1875 14.1875 7.53125C14.1875 3.84375 11.1875 0.874992 7.53125 0.874992Z" fill="black"/>
<path d="M5.21879 5.15625C5.34379 4.8125 5.50004 4.53125 5.71879 4.3125C5.93754 4.09375 6.21879 3.90625 6.53129 3.78125C6.84379 3.65625 7.21879 3.59375 7.62504 3.59375C7.93754 3.59375 8.25004 3.65625 8.53129 3.75C8.81254 3.84375 9.06254 4 9.28129 4.15625C9.50004 4.3125 9.65629 4.5625 9.78129 4.8125C9.90629 5.0625 9.96879 5.375 9.96879 5.71875C9.96879 6.15625 9.87504 6.5 9.68754 6.8125C9.50004 7.125 9.25004 7.40625 8.96879 7.6875C8.71879 7.9375 8.53129 8.125 8.40629 8.25C8.25004 8.375 8.15629 8.53125 8.09379 8.65625C8.03129 8.78125 7.96879 8.9375 7.96879 9.125C7.93754 9.3125 7.93754 9.4375 7.93754 9.78125H7.21879C7.21879 9.4375 7.21879 9.28125 7.28129 9.0625C7.31254 8.8125 7.40629 8.625 7.50004 8.40625C7.59379 8.21875 7.75004 8.03125 7.90629 7.84375C8.09379 7.65625 8.28129 7.46875 8.53129 7.25C8.75004 7.0625 8.93754 6.84375 9.06254 6.59375C9.21879 6.34375 9.28129 6.0625 9.28129 5.78125C9.28129 5.5625 9.25004 5.34375 9.15629 5.15625C9.06254 4.96875 8.93754 4.8125 8.81254 4.65625C8.68754 4.5 8.50004 4.40625 8.28129 4.34375C8.09379 4.28125 7.87504 4.21875 7.65629 4.21875C7.34379 4.21875 7.06254 4.28125 6.84379 4.375C6.59379 4.46875 6.40629 4.625 6.25004 4.8125C6.09379 5 5.96879 5.21875 5.90629 5.46875C5.84379 5.71875 5.78129 5.9375 5.81254 6.21875H5.09379C5.06254 5.78125 5.09379 5.5 5.21879 5.15625ZM7.09379 10.625H7.96879V11.5H7.09379V10.625Z" fill="black"/>
</g>
<defs>
<clipPath id="clip0_137:322">
<rect width="15" height="15" fill="white"/>
</clipPath>
</defs>
</svg>
