<svg width="19" height="15" viewBox="0 0 19 15" fill="none" xmlns="http://www.w3.org/2000/svg">
<g clip-path="url(#clip0_137:254)">
<path d="M1.80323 12.1108C2.01013 12.1108 2.17269 11.9483 2.17269 11.7414V7.87685L4.40421 6.67981V9.84976C4.40421 10.0567 4.56677 10.2192 4.77367 10.2192C4.98057 10.2192 5.14313 10.0567 5.14313 9.84976V5.44582L1.44116 7.4335V11.7414C1.43377 11.9409 1.59633 12.1108 1.80323 12.1108Z" fill="black"/>
<path d="M6.25129 9.31034C6.45819 9.31034 6.62075 9.14778 6.62075 8.94088V2.40886L8.85228 1.21182V11.8374C8.85228 12.0443 9.01485 12.2069 9.22174 12.2069C9.42864 12.2069 9.5912 12.0443 9.5912 11.8374V-0.022171L5.88184 1.96551V8.94088C5.88184 9.14039 6.0444 9.31034 6.25129 9.31034Z" fill="black"/>
<path d="M10.6997 11.7266C10.9066 11.7266 11.0692 11.564 11.0692 11.3571V4.31527L13.3007 3.11822V9.49507C13.3007 9.70197 13.4633 9.86453 13.6701 9.86453C13.877 9.86453 14.0396 9.70197 14.0396 9.49507V1.88423L10.3376 3.87192V11.3571C10.3302 11.564 10.5002 11.7266 10.6997 11.7266Z" fill="black"/>
<path d="M18.1036 8.80788C18.0371 8.69705 17.9189 8.62315 17.7859 8.62315H15.2366C15.1036 8.62315 14.9854 8.69705 14.9189 8.80788C14.8524 8.91872 14.8524 9.05911 14.9189 9.17734L15.377 9.96798L13.345 11.202C13.0347 11.3941 12.7317 11.5788 12.4214 11.7709C12.1997 11.9113 11.978 12.0443 11.7637 12.1847C11.1874 12.5542 10.6775 12.8867 10.2046 13.2118C9.96076 13.3744 9.72431 13.5443 9.48047 13.7069L6.17012 10.4704L0.199681 14.2685C0.0297302 14.3793 -0.0219939 14.6084 0.0888435 14.7783C0.162735 14.8892 0.280962 14.9483 0.399188 14.9483C0.465691 14.9483 0.532193 14.9261 0.598696 14.8892L6.06668 11.4089L9.40658 14.6675L9.85732 14.3424C10.1085 14.165 10.3598 13.9877 10.6184 13.8177C11.0839 13.5 11.5864 13.1749 12.1627 12.8054C12.377 12.665 12.5987 12.532 12.813 12.3916C13.1159 12.1995 13.4263 12.0148 13.7292 11.8227L15.5987 10.6773L15.7465 10.5887L16.1972 11.3719C16.2637 11.4828 16.3819 11.5567 16.515 11.5567C16.648 11.5567 16.7662 11.4828 16.8327 11.3719L18.111 9.16256C18.1701 9.0665 18.1701 8.92611 18.1036 8.80788ZM16.5076 10.4631L15.8721 9.36207H17.143L16.5076 10.4631Z" fill="black"/>
</g>
<defs>
<clipPath id="clip0_137:254">
<rect width="18.1773" height="15" fill="white"/>
</clipPath>
</defs>
</svg>
