<svg width="15" height="15" viewBox="0 0 15 15" fill="none" xmlns="http://www.w3.org/2000/svg">
<g clip-path="url(#clip0_137:240)">
<path d="M12.1875 0.9375H11.25V0.46875C11.25 0.209648 11.0404 0 10.7812 0C10.5221 0 10.3125 0.209648 10.3125 0.46875V0.9375H9.375V0.46875C9.375 0.209648 9.16535 0 8.90625 0C8.64715 0 8.4375 0.209648 8.4375 0.46875V0.9375H7.5V0.46875C7.5 0.209648 7.29035 0 7.03125 0C6.77215 0 6.5625 0.209648 6.5625 0.46875V0.9375H5.625V0.46875C5.625 0.209648 5.41535 0 5.15625 0C4.89715 0 4.6875 0.209648 4.6875 0.46875V0.9375H3.75V0.46875C3.75 0.209648 3.54035 0 3.28125 0C3.02215 0 2.8125 0.209648 2.8125 0.46875V0.9375H1.875C0.839531 0.9375 0 1.77703 0 2.8125V13.125C0 14.1605 0.839531 15 1.875 15H12.1875C13.223 15 14.0625 14.1605 14.0625 13.125V2.8125C14.0625 1.77703 13.223 0.9375 12.1875 0.9375ZM13.125 13.125C13.125 13.6423 12.7043 14.0625 12.1875 14.0625H1.875C1.35797 14.0625 0.9375 13.6423 0.9375 13.125V2.8125C0.9375 2.295 1.35797 1.875 1.875 1.875H2.8125V2.34375C2.8125 2.60285 3.02215 2.8125 3.28125 2.8125C3.54035 2.8125 3.75 2.60285 3.75 2.34375V1.875H4.6875V2.34375C4.6875 2.60285 4.89715 2.8125 5.15625 2.8125C5.41535 2.8125 5.625 2.60285 5.625 2.34375V1.875H6.5625V2.34375C6.5625 2.60285 6.77215 2.8125 7.03125 2.8125C7.29035 2.8125 7.5 2.60285 7.5 2.34375V1.875H8.4375V2.34375C8.4375 2.60285 8.64715 2.8125 8.90625 2.8125C9.16535 2.8125 9.375 2.60285 9.375 2.34375V1.875H10.3125V2.34375C10.3125 2.60285 10.5221 2.8125 10.7812 2.8125C11.0404 2.8125 11.25 2.60285 11.25 2.34375V1.875H12.1875C12.7043 1.875 13.125 2.295 13.125 2.8125V13.125Z" fill="black"/>
<path d="M1.875 4.6875V13.125H12.1875V4.6875H1.875ZM9.375 5.625V6.5625H8.4375V5.625H9.375ZM5.625 8.4375H4.6875V7.5H5.625V8.4375ZM6.5625 7.5H7.5V8.4375H6.5625V7.5ZM5.625 9.375V10.3125H4.6875V9.375H5.625ZM6.5625 9.375H7.5V10.3125H6.5625V9.375ZM8.4375 9.375H9.375V10.3125H8.4375V9.375ZM8.4375 8.4375V7.5H9.375V8.4375H8.4375ZM7.5 5.625V6.5625H6.5625V5.625H7.5ZM5.625 5.625V6.5625H4.6875V5.625H5.625ZM2.8125 5.625H3.75V6.5625H2.8125V5.625ZM2.8125 7.5H3.75V8.4375H2.8125V7.5ZM2.8125 9.375H3.75V10.3125H2.8125V9.375ZM2.8125 12.1875V11.25H3.75V12.1875H2.8125ZM4.6875 12.1875V11.25H5.625V12.1875H4.6875ZM6.5625 12.1875V11.25H7.5V12.1875H6.5625ZM8.4375 12.1875V11.25H9.375V12.1875H8.4375ZM11.25 12.1875H10.3125V11.25H11.25V12.1875ZM11.25 10.3125H10.3125V9.375H11.25V10.3125ZM11.25 8.4375H10.3125V7.5H11.25V8.4375ZM11.25 6.5625H10.3125V5.625H11.25V6.5625Z" fill="black"/>
</g>
<defs>
<clipPath id="clip0_137:240">
<rect width="14.0625" height="15" fill="white"/>
</clipPath>
</defs>
</svg>
