<svg width="15" height="15" viewBox="0 0 15 15" fill="none" xmlns="http://www.w3.org/2000/svg">
<g clip-path="url(#clip0_126:36)">
<path d="M14.9941 7.52344C14.9941 7.51465 15 7.50879 15 7.5C15 7.49121 14.9971 7.48535 14.9941 7.47656C14.9912 6.38379 14.7422 5.29395 14.2646 4.28613H14.2822V3.21387C14.2822 1.83691 13.1602 0.714844 11.7832 0.714844H10.7109V0.732422C9.70898 0.257812 8.61914 0.00878906 7.52637 0.00585938C7.51758 0.00585938 7.50879 0 7.5 0C7.49121 0 7.48242 0.00585938 7.47363 0.00585938C6.38086 0.00878906 5.29102 0.257812 4.28613 0.732422V0.714844H3.21387C1.83691 0.714844 0.714844 1.83691 0.714844 3.21387V4.28613H0.732422C0.254883 5.29395 0.00878906 6.38379 0.00585938 7.47656C0.00585938 7.48535 0 7.49121 0 7.5C0 7.50879 0.00292969 7.51465 0.00585938 7.52344C0.00878906 8.61621 0.257813 9.70605 0.735352 10.7139H0.717773V11.7861C0.717773 13.1631 1.83984 14.2852 3.2168 14.2852H4.28906V14.2676C5.29688 14.7451 6.38672 14.9912 7.47949 14.9971C7.48828 14.9971 7.49414 15.0029 7.50293 15.0029C7.51172 15.0029 7.51758 15 7.52637 14.9971C8.61914 14.9941 9.70898 14.7451 10.7168 14.2676V14.2852H11.7891C13.166 14.2852 14.2881 13.1631 14.2881 11.7861V10.7139H14.2676C14.7451 9.70605 14.9912 8.61621 14.9941 7.52344ZM11.7686 7.14258C11.6865 6.13184 11.2559 5.19434 10.5293 4.4707C9.78516 3.72656 8.83008 3.33398 7.85742 3.25195V0.735352C9.47461 0.820312 11.0654 1.4707 12.2988 2.7041C13.5322 3.9375 14.1826 5.52832 14.2676 7.14551H11.7686V7.14258ZM4.97461 10.0254C3.58301 8.63379 3.58301 6.36621 4.97461 4.97461C5.67188 4.27734 6.58594 3.93164 7.5 3.93164C8.41406 3.93164 9.32812 4.28027 10.0254 4.97461C10.6992 5.64844 11.0713 6.54492 11.0713 7.5C11.0713 8.45508 10.6992 9.35156 10.0254 10.0254C8.63379 11.417 6.36621 11.417 4.97461 10.0254ZM7.14258 3.24902C6.16699 3.33105 5.21484 3.72363 4.4707 4.46777C3.72656 5.21191 3.33398 6.16699 3.25195 7.13965H0.735352C0.820312 5.52246 1.4707 3.93164 2.7041 2.69824C3.9375 1.46484 5.52832 0.814453 7.14551 0.729492V3.24902H7.14258ZM3.24902 7.85742C3.33105 8.83301 3.72363 9.78516 4.46777 10.5322C5.21191 11.2764 6.16699 11.6689 7.13965 11.751V14.2676C5.52246 14.1826 3.93164 13.5322 2.69824 12.2988C1.46484 11.0654 0.814453 9.47461 0.729492 7.85742H3.24902ZM7.85742 11.748C8.83301 11.666 9.78516 11.2734 10.5293 10.5293C11.2529 9.80566 11.6836 8.86523 11.7686 7.85449H14.2646C14.1797 9.47168 13.5293 11.0625 12.2959 12.2959C11.0625 13.5293 9.47168 14.1797 7.85449 14.2646V11.748H7.85742ZM13.5586 3.09375C13.333 2.7832 13.0869 2.47852 12.8027 2.19727C12.5215 1.91602 12.2168 1.66992 11.9033 1.44141C12.7939 1.5 13.5 2.20605 13.5586 3.09375ZM3.09668 1.44141C2.7832 1.66699 2.47852 1.91602 2.19727 2.19727C1.91602 2.47852 1.66992 2.7832 1.44141 3.09668C1.5 2.20605 2.20605 1.5 3.09668 1.44141ZM1.44141 11.9062C1.66992 12.2197 1.91602 12.5215 2.19727 12.8057C2.47852 13.0869 2.7832 13.333 3.09668 13.5615C2.20605 13.5 1.5 12.7939 1.44141 11.9062ZM11.9062 13.5586C12.2197 13.3301 12.5215 13.084 12.8057 12.8027C13.0898 12.5215 13.333 12.2168 13.5615 11.9033C13.5 12.7939 12.7939 13.5 11.9062 13.5586Z" fill="black"/>
</g>
<defs>
<clipPath id="clip0_126:36">
<rect width="15" height="15" fill="white"/>
</clipPath>
</defs>
</svg>
