<svg width="4" height="15" viewBox="0 0 4 15" fill="none" xmlns="http://www.w3.org/2000/svg">
<g clip-path="url(#clip0_642_12)">
<path d="M1.7604 3.54082C2.73332 3.54082 3.52202 2.75211 3.52202 1.7792C3.52202 0.806282 2.73332 0.0175781 1.7604 0.0175781C0.787484 0.0175781 -0.0012207 0.806282 -0.0012207 1.7792C-0.0012207 2.75211 0.787484 3.54082 1.7604 3.54082Z" fill="#333333"/>
<path d="M1.7604 9.26164C2.73332 9.26164 3.52202 8.47294 3.52202 7.50002C3.52202 6.52711 2.73332 5.7384 1.7604 5.7384C0.787484 5.7384 -0.0012207 6.52711 -0.0012207 7.50002C-0.0012207 8.47294 0.787484 9.26164 1.7604 9.26164Z" fill="#333333"/>
<path d="M1.7604 14.9823C2.73332 14.9823 3.52202 14.1936 3.52202 13.2207C3.52202 12.2478 2.73332 11.4591 1.7604 11.4591C0.787484 11.4591 -0.0012207 12.2478 -0.0012207 13.2207C-0.0012207 14.1936 0.787484 14.9823 1.7604 14.9823Z" fill="#333333"/>
</g>
<defs>
<clipPath id="clip0_642_12">
<rect width="3.52113" height="15" fill="white"/>
</clipPath>
</defs>
</svg>
