<svg width="31" height="30" viewBox="0 0 31 30" fill="none" xmlns="http://www.w3.org/2000/svg">
<g clip-path="url(#clip0_349_419)">
<path d="M26.8516 7.5C28.9234 7.5 30.6016 5.82188 30.6016 3.75C30.6016 1.67812 28.9234 0 26.8516 0C24.7797 0 23.1016 1.67812 23.1016 3.75C23.1016 4.80375 23.5384 5.7525 24.2378 6.43313L21.2791 11.61C20.6753 11.3888 20.0322 11.25 19.3516 11.25C17.8516 11.25 16.4959 11.8462 15.4872 12.8044L7.81656 7.05187C7.99844 6.61125 8.10156 6.13125 8.10156 5.625C8.10156 3.55312 6.42344 1.875 4.35156 1.875C2.27969 1.875 0.601562 3.55312 0.601562 5.625C0.601562 7.69688 2.27969 9.375 4.35156 9.375C5.23656 9.375 6.03906 9.05625 6.68031 8.54438L14.3716 14.3137C13.9722 15.0844 13.7266 15.9469 13.7266 16.875C13.7266 17.4619 13.8428 18.0187 14.0097 18.5513L5.96406 22.8769C5.47281 22.6425 4.93094 22.5 4.35156 22.5C2.27969 22.5 0.601562 24.1781 0.601562 26.25C0.601562 28.3219 2.27969 30 4.35156 30C6.42344 30 8.10156 28.3219 8.10156 26.25C8.10156 25.4888 7.87094 24.7819 7.48094 24.1894L14.8553 20.2238C15.8809 21.5981 17.5047 22.5 19.3516 22.5C20.2853 22.5 21.1534 22.2506 21.9297 21.8475L23.7616 24.1294C23.3472 24.7331 23.1016 25.4625 23.1016 26.25C23.1016 28.3219 24.7797 30 26.8516 30C28.9234 30 30.6016 28.3219 30.6016 26.25C30.6016 24.1781 28.9234 22.5 26.8516 22.5C26.2497 22.5 25.6891 22.6556 25.1847 22.9069L23.4334 20.7244C24.3841 19.7175 24.9766 18.3694 24.9766 16.875C24.9766 15.1237 24.1591 13.5787 22.9047 12.5475L25.8728 7.35375C26.1859 7.44 26.5103 7.5 26.8516 7.5Z" fill="#EB5757"/>
</g>
<defs>
<clipPath id="clip0_349_419">
<rect width="30" height="30" fill="white" transform="translate(0.601562)"/>
</clipPath>
</defs>
</svg>
