<svg width="31" height="30" viewBox="0 0 31 30" fill="none" xmlns="http://www.w3.org/2000/svg">
<g clip-path="url(#clip0_349_421)">
<path d="M30.6016 -0.00012207H0.601562V29.9999H30.6016V-0.00012207Z" fill="#99D55C"/>
<path fill-rule="evenodd" clip-rule="evenodd" d="M19.6061 4.47028C20.7737 4.19281 22.0684 4.52807 22.9123 5.38351C23.9642 6.37764 24.2648 8.0423 23.6636 9.34858C23.2012 10.3427 22.2649 11.1288 21.1898 11.3484C20.4962 11.464 19.7564 11.4525 19.0975 11.1635C18.0224 10.7242 17.2132 9.71846 16.9705 8.58562C16.9242 8.11166 16.9242 7.62616 16.9935 7.15219C17.271 5.85746 18.323 4.78239 19.6061 4.47028L19.6061 4.47028Z" fill="#FFFFFE"/>
<path fill-rule="evenodd" clip-rule="evenodd" d="M13.3638 5.74195C14.9128 5.27954 16.6699 6.64362 16.5659 8.26199C16.6237 9.46422 15.6527 10.574 14.4851 10.7821C13.4216 11.0017 12.254 10.4584 11.7454 9.49891C11.468 9.02495 11.3986 8.45852 11.4448 7.91519C11.5373 6.8748 12.3696 5.98469 13.3638 5.74193L13.3638 5.74195Z" fill="#FFFFFE"/>
<path fill-rule="evenodd" clip-rule="evenodd" d="M8.50864 6.33139C9.72245 6.1002 10.9709 7.14061 10.9362 8.37749C11.0171 9.64911 9.71086 10.7588 8.47395 10.493C7.27171 10.3312 6.46254 8.99016 6.80933 7.84573C7.02897 7.07121 7.71101 6.44698 8.50862 6.33138L8.50864 6.33139Z" fill="#FFFFFE"/>
<path fill-rule="evenodd" clip-rule="evenodd" d="M6.64739 11.9842C7.3641 11.071 8.68196 10.7242 9.76856 11.1057C10.4622 11.3253 10.9939 11.8571 11.3985 12.4466C12.1268 11.7414 13.1094 11.2675 14.1382 11.3484C15.4561 11.3484 16.5889 12.227 17.2132 13.3252C17.8836 12.8165 18.6235 12.3657 19.4674 12.2039C21.0048 11.8802 22.7041 12.3657 23.8139 13.4986C24.7271 14.3887 25.282 15.6487 25.2473 16.9319C25.282 19.8334 25.2704 22.7234 25.2704 25.625C22.0568 25.625 18.8431 25.625 15.6179 25.625C15.6179 24.1568 15.6295 22.7003 15.6179 21.2437C13.8955 21.2322 12.1846 21.2437 10.4622 21.2322C10.4622 20.5039 10.4622 19.7756 10.4506 19.0473C8.94781 19.0473 7.43346 19.0473 5.93066 19.0473V13.6604C6.0347 13.0477 6.21967 12.4351 6.64738 11.9842L6.64739 11.9842Z" fill="#FFFFFE"/>
</g>
<defs>
<clipPath id="clip0_349_421">
<rect x="0.601562" width="30" height="30" rx="7" fill="white"/>
</clipPath>
</defs>
</svg>
