<svg width="30" height="30" viewBox="0 0 30 30" fill="none" xmlns="http://www.w3.org/2000/svg">
<path d="M10.2 30C7.52324 30 4.95609 28.9366 3.06331 27.0439C1.17053 25.1511 0.107178 22.5839 0.107178 19.9071V9.95357C0.107176 7.31558 1.15438 4.78547 3.01872 2.91912C4.88306 1.05277 7.41204 0.00283961 10.05 0H15.3322C19.7893 0 24.15 3.86786 24.15 7.5V9.05357C24.15 9.71851 24.4142 10.3562 24.8844 10.8264C25.3545 11.2966 25.9922 11.5607 26.6572 11.5607H28.2215C28.441 11.5607 28.6583 11.6039 28.8611 11.6879C29.0639 11.7719 29.2481 11.8951 29.4033 12.0503C29.5585 12.2055 29.6817 12.3897 29.7657 12.5925C29.8497 12.7953 29.8929 13.0126 29.8929 13.2321V20.1964C29.8985 21.4818 29.6502 22.7557 29.1622 23.9449C28.6742 25.134 27.9562 26.2151 27.0492 27.126C26.1423 28.0369 25.0644 28.7597 23.8774 29.2529C22.6903 29.7461 21.4176 30 20.1322 30H10.2ZM17.0357 9.71786C17.0357 9.22058 16.8382 8.74366 16.4866 8.39203C16.1349 8.0404 15.658 7.84286 15.1607 7.84286H9.51432C9.26719 7.84144 9.02222 7.8889 8.7935 7.9825C8.56477 8.07609 8.35681 8.21398 8.18156 8.38823C8.00632 8.56248 7.86725 8.76966 7.77235 8.99784C7.67745 9.22603 7.6286 9.47072 7.62861 9.71786C7.62861 10.218 7.82728 10.6976 8.18092 11.0513C8.53456 11.4049 9.0142 11.6036 9.51432 11.6036H15.1607C15.4079 11.6036 15.6526 11.5547 15.8808 11.4598C16.109 11.3649 16.3161 11.2259 16.4904 11.0506C16.6646 10.8754 16.8025 10.6674 16.8961 10.4387C16.9897 10.21 17.0372 9.96498 17.0357 9.71786ZM22.5 20.3571C22.5 20.11 22.4512 19.8653 22.3563 19.6371C22.2614 19.4089 22.1223 19.2018 21.9471 19.0275C21.7718 18.8533 21.5639 18.7154 21.3351 18.6218C21.1064 18.5282 20.8614 18.4807 20.6143 18.4821H9.51432C9.26719 18.4807 9.02222 18.5282 8.7935 18.6218C8.56477 18.7154 8.35681 18.8533 8.18156 19.0275C8.00632 19.2018 7.86725 19.4089 7.77235 19.6371C7.67745 19.8653 7.6286 20.11 7.62861 20.3571C7.62861 20.6048 7.67738 20.85 7.77215 21.0788C7.86691 21.3076 8.00581 21.5154 8.18092 21.6905C8.35602 21.8656 8.5639 22.0045 8.79269 22.0993C9.02147 22.1941 9.26669 22.2429 9.51432 22.2429H20.5929C20.8423 22.2457 21.0898 22.199 21.3211 22.1055C21.5524 22.012 21.7628 21.8736 21.9402 21.6982C22.1175 21.5228 22.2584 21.314 22.3545 21.0838C22.4506 20.8536 22.5 20.6066 22.5 20.3571Z" fill="#1F6BFF"/>
</svg>
