<svg width="40" height="40" viewBox="0 0 40 40" fill="none" xmlns="http://www.w3.org/2000/svg">
<g clip-path="url(#clip0_766_2)">
<path d="M40 -0.00012207H0V39.9999H40V-0.00012207Z" fill="#6D9A3F"/>
<path fill-rule="evenodd" clip-rule="evenodd" d="M25.3391 5.96037C26.8959 5.59042 28.6222 6.03742 29.7474 7.17801C31.15 8.50352 31.5507 10.7231 30.7492 12.4648C30.1327 13.7903 28.8842 14.8384 27.4508 15.1312C26.526 15.2854 25.5395 15.27 24.661 14.8847C23.2276 14.2989 22.1486 12.9579 21.8249 11.4475C21.7633 10.8155 21.7633 10.1682 21.8557 9.53626C22.2257 7.80994 23.6283 6.37652 25.3391 5.96038L25.3391 5.96037Z" fill="#FFFFFE"/>
<path fill-rule="evenodd" clip-rule="evenodd" d="M17.0163 7.65595C19.0816 7.03941 21.4245 8.85818 21.2857 11.016C21.3628 12.619 20.0681 14.0987 18.5114 14.3761C17.0933 14.669 15.5366 13.9445 14.8584 12.6652C14.4885 12.0333 14.396 11.278 14.4577 10.5536C14.581 9.16642 15.6907 7.9796 17.0163 7.65592L17.0163 7.65595Z" fill="#FFFFFE"/>
<path fill-rule="evenodd" clip-rule="evenodd" d="M10.5427 8.44186C12.1611 8.1336 13.8257 9.52082 13.7795 11.17C13.8873 12.8655 12.1457 14.3451 10.4964 13.9906C8.89345 13.7749 7.81456 11.9869 8.27694 10.461C8.56979 9.42828 9.47918 8.59597 10.5427 8.44184L10.5427 8.44186Z" fill="#FFFFFE"/>
<path fill-rule="evenodd" clip-rule="evenodd" d="M8.06098 15.979C9.0166 14.7613 10.7737 14.2989 12.2225 14.8076C13.1473 15.1004 13.8564 15.8094 14.3958 16.5955C15.3669 15.6553 16.677 15.0234 18.0487 15.1313C19.8059 15.1313 21.3164 16.3027 22.1487 17.7669C23.0426 17.0887 24.0291 16.4876 25.1543 16.2718C27.2042 15.8403 29.47 16.4876 30.9496 17.9981C32.1673 19.185 32.9071 20.865 32.8609 22.5759C32.9071 26.4446 32.8917 30.2978 32.8917 34.1666C28.6068 34.1666 24.322 34.1666 20.0217 34.1666C20.0217 32.2091 20.0371 30.2671 20.0217 28.325C17.7251 28.3096 15.4439 28.325 13.1473 28.3096C13.1473 27.3385 13.1473 26.3675 13.1319 25.3965C11.1282 25.3965 9.10907 25.3965 7.10535 25.3965V18.2139C7.24406 17.397 7.49068 16.5801 8.06096 15.979L8.06098 15.979Z" fill="#FFFFFE"/>
</g>
<defs>
<clipPath id="clip0_766_2">
<rect width="40" height="40" rx="6" fill="white"/>
</clipPath>
</defs>
</svg>
