<svg width="32" height="30" viewBox="0 0 32 30" fill="none" xmlns="http://www.w3.org/2000/svg">
<g clip-path="url(#clip0_349_412)">
<path d="M24.4015 7.2C26.3897 7.2 28.0015 5.58822 28.0015 3.6C28.0015 1.61177 26.3897 0 24.4015 0C22.4133 0 20.8015 1.61177 20.8015 3.6C20.8015 5.58822 22.4133 7.2 24.4015 7.2Z" fill="#2D9CDB"/>
<path d="M16.0012 18L19.1872 15.6L21.3064 11.9856C21.736 11.2512 22.5244 10.8 23.3764 10.8H26.128C27.2296 10.8 28.1896 11.55 28.456 12.618L30.4012 20.4" stroke="#2D9CDB" stroke-width="2" stroke-miterlimit="10" stroke-linecap="round" stroke-linejoin="round"/>
<path d="M7.60122 7.2C9.58945 7.2 11.2012 5.58822 11.2012 3.6C11.2012 1.61177 9.58945 0 7.60122 0C5.613 0 4.00122 1.61177 4.00122 3.6C4.00122 5.58822 5.613 7.2 7.60122 7.2Z" fill="#2D9CDB"/>
<path d="M20.8015 13.2V28.7604C20.8015 29.4444 21.3571 30 22.0411 30C22.6939 30 23.2351 29.4936 23.2783 28.842L23.8039 20.958C23.8255 20.6448 24.0859 20.4 24.4015 20.4C24.7171 20.4 24.9775 20.6448 24.9991 20.9592L25.5247 28.8432C25.5679 29.4936 26.1091 30 26.7619 30C27.4459 30 28.0015 29.4444 28.0015 28.7604V13.2C28.0015 11.2116 26.3899 9.60001 24.4015 9.60001C22.4131 9.60001 20.8015 11.2116 20.8015 13.2Z" fill="#2D9CDB"/>
<path d="M16.0013 18L12.8153 15.6L10.6961 11.9856C10.2665 11.2512 9.47812 10.8 8.62612 10.8H5.87572C4.77412 10.8 3.81412 11.55 3.54772 12.618L1.60132 20.4" stroke="#2D9CDB" stroke-width="2" stroke-miterlimit="10" stroke-linecap="round" stroke-linejoin="round"/>
<path d="M11.2012 13.2V28.7604C11.2012 29.4444 10.6456 30 9.96162 30C9.30882 30 8.76762 29.4936 8.72442 28.842L8.19882 20.958C8.17722 20.6448 7.91682 20.4 7.60122 20.4C7.28562 20.4 7.02522 20.6448 7.00362 20.9592L6.47802 28.8432C6.43482 29.4936 5.89362 30 5.24082 30C4.55682 30 4.00122 29.4444 4.00122 28.7604V13.2C4.00122 11.2116 5.61282 9.60001 7.60122 9.60001C9.58962 9.60001 11.2012 11.2116 11.2012 13.2Z" fill="#2D9CDB"/>
</g>
<defs>
<clipPath id="clip0_349_412">
<rect width="31.2" height="30" fill="white" transform="translate(0.401367)"/>
</clipPath>
</defs>
</svg>
