<svg width="32" height="30" viewBox="0 0 32 30" fill="none" xmlns="http://www.w3.org/2000/svg">
<g clip-path="url(#clip0_349_409)">
<path d="M31.203 27.4758L28.7756 20.841C29.5317 19.0528 29.9492 17.0854 29.9492 15.0212C29.9504 6.75627 23.2507 0.0565796 14.9846 0.0565796C6.71967 0.0565796 0.0187988 6.75627 0.0187988 15.0224C0.0187988 23.2885 6.71849 29.9882 14.9846 29.9882C18.5302 29.9882 21.7834 28.7485 24.3476 26.689L29.8183 28.8311C31.0261 29.3052 31.6501 28.6942 31.203 27.4758ZM7.53944 16.9379C6.48141 16.9379 5.62271 16.0792 5.62271 15.0212C5.62271 13.9632 6.48141 13.1045 7.53944 13.1045C8.59747 13.1045 9.45617 13.9632 9.45617 15.0212C9.45617 16.0792 8.59747 16.9379 7.53944 16.9379ZM14.6166 16.9379C13.5585 16.9379 12.6999 16.0792 12.6999 15.0212C12.6999 13.9632 13.5585 13.1045 14.6166 13.1045C15.6746 13.1045 16.5333 13.9632 16.5333 15.0212C16.5333 16.0792 15.6746 16.9379 14.6166 16.9379ZM21.6937 16.9379C20.6357 16.9379 19.777 16.0792 19.777 15.0212C19.777 13.9632 20.6357 13.1045 21.6937 13.1045C22.7518 13.1045 23.6104 13.9632 23.6104 15.0212C23.6104 16.0792 22.7518 16.9379 21.6937 16.9379Z" fill="#BB6BD9"/>
</g>
<defs>
<clipPath id="clip0_349_409">
<rect width="31.4013" height="30" fill="white"/>
</clipPath>
</defs>
</svg>
