<svg width="12" height="12" viewBox="0 0 12 12" fill="none" xmlns="http://www.w3.org/2000/svg">
<g clip-path="url(#clip0_645_400)">
<path d="M6 0C4.81331 0 3.65328 0.351894 2.66658 1.01118C1.67989 1.67047 0.910851 2.60754 0.456725 3.7039C0.00259969 4.80026 -0.11622 6.00666 0.115291 7.17054C0.346802 8.33443 0.918247 9.40353 1.75736 10.2426C2.59648 11.0818 3.66558 11.6532 4.82946 11.8847C5.99335 12.1162 7.19975 11.9974 8.2961 11.5433C9.39246 11.0892 10.3295 10.3201 10.9888 9.33342C11.6481 8.34673 12 7.18669 12 6C11.9983 4.40923 11.3656 2.88412 10.2407 1.75928C9.11588 0.634436 7.59077 0.00173705 6 0V0ZM6 11.4375C4.92457 11.4375 3.87328 11.1186 2.97909 10.5211C2.0849 9.92364 1.38796 9.07441 0.976408 8.08084C0.564856 7.08727 0.457176 5.99397 0.666983 4.9392C0.87679 3.88442 1.39466 2.91555 2.15511 2.15511C2.91556 1.39466 3.88443 0.876787 4.9392 0.66698C5.99397 0.457173 7.08727 0.564854 8.08084 0.976405C9.07442 1.38796 9.92364 2.08489 10.5211 2.97909C11.1186 3.87328 11.4375 4.92456 11.4375 6C11.4358 7.44158 10.8623 8.82362 9.84298 9.84297C8.82362 10.8623 7.44158 11.4358 6 11.4375Z" fill="#EB5757"/>
<path d="M8.63627 3.35531C8.58353 3.30264 8.51205 3.27306 8.43752 3.27306C8.36299 3.27306 8.2915 3.30264 8.23877 3.35531L6.00002 5.60156L3.76221 3.35156C3.70937 3.29873 3.63771 3.26904 3.56299 3.26904C3.48827 3.26904 3.41661 3.29873 3.36377 3.35156C3.31093 3.4044 3.28125 3.47606 3.28125 3.55078C3.28125 3.6255 3.31093 3.69716 3.36377 3.75L5.60252 6L3.36377 8.25C3.31106 8.30284 3.28149 8.37445 3.28158 8.44908C3.28167 8.52372 3.3114 8.59526 3.36424 8.64797C3.41707 8.70068 3.48869 8.73025 3.56332 8.73016C3.63795 8.73007 3.70949 8.70034 3.76221 8.6475L6.00002 6.39844L8.23877 8.64844C8.2916 8.70127 8.36326 8.73096 8.43799 8.73096C8.51271 8.73096 8.58437 8.70127 8.6372 8.64844C8.69004 8.5956 8.71972 8.52394 8.71972 8.44922C8.71972 8.3745 8.69004 8.30284 8.6372 8.25L6.39752 6L8.6372 3.75C8.68889 3.69726 8.71777 3.62631 8.71759 3.55246C8.71742 3.47862 8.68821 3.4078 8.63627 3.35531Z" fill="#EB5757"/>
</g>
<defs>
<clipPath id="clip0_645_400">
<rect width="12" height="12" fill="white"/>
</clipPath>
</defs>
</svg>
