<svg width="12" height="10" viewBox="0 0 12 10" fill="none" xmlns="http://www.w3.org/2000/svg">
<g clip-path="url(#clip0_349_442)">
<path d="M5.55557 1.39505C5.86723 1.39505 6.17723 1.59171 6.41334 1.98505L9.69779 7.45949C10.1706 8.2456 9.80556 8.88894 8.8889 8.88894H2.22223C1.30557 8.88894 0.940567 8.24505 1.41334 7.45949L4.69779 1.98505C4.9339 1.59171 5.2439 1.39505 5.55557 1.39505ZM5.55557 0.283936C4.83557 0.283936 4.17668 0.695047 3.74501 1.41227L0.460567 6.88782C0.0239008 7.61505 -0.0238769 8.3906 0.330012 9.0156C0.683901 9.6406 1.3739 10 2.22223 10H8.8889C9.73723 10 10.4278 9.64116 10.7811 9.01616C11.1345 8.39116 11.0872 7.6156 10.6506 6.88838L7.36612 1.41394C6.93445 0.695047 6.27557 0.283936 5.55557 0.283936Z" fill="#FF0000"/>
<path d="M5.55553 7.94444C5.95441 7.94444 6.27776 7.62109 6.27776 7.22222C6.27776 6.82335 5.95441 6.5 5.55553 6.5C5.15666 6.5 4.83331 6.82335 4.83331 7.22222C4.83331 7.62109 5.15666 7.94444 5.55553 7.94444Z" fill="#FF0000"/>
<path d="M6.38889 3.88888C6.38889 3.42776 6.01612 3.05554 5.55556 3.05554C5.09501 3.05554 4.72223 3.42776 4.72223 3.88888C4.72223 3.99943 4.74501 4.10499 4.7839 4.2011C5.09167 4.96554 5.55556 6.1111 5.55556 6.1111C5.55556 6.1111 6.01945 4.96554 6.32834 4.2011C6.36612 4.10499 6.38889 3.99943 6.38889 3.88888Z" fill="#FF0000"/>
</g>
<defs>
<clipPath id="clip0_349_442">
<rect width="11.1111" height="10" fill="white"/>
</clipPath>
</defs>
</svg>
